<svg xmlns="http://www.w3.org/2000/svg" width="100%" viewBox="0 0 328 77" fill="none"><path d="M307.119 22.6125C310.036 22.6125 312.194 23.5167 313.594 25.325C314.994 27.075 315.694 29.8459 315.694 33.6376C315.694 35.5625 315.548 37.6626 315.256 39.9376C314.965 42.1542 314.498 44.4001 313.856 46.6751C313.215 48.8917 312.398 51.05 311.406 53.15C310.415 55.25 309.219 57.1167 307.819 58.7501C306.477 60.3251 304.902 61.6084 303.094 62.6001C301.344 63.5334 299.361 64.0001 297.144 64.0001H292.506C290.115 64.0001 288.336 63.3292 287.169 61.9875C286.061 60.5875 285.127 58.7209 284.369 56.3876C283.027 58.8376 281.569 60.7334 279.994 62.0751C278.419 63.3584 276.319 64.0001 273.694 64.0001H268.969C267.569 64.0001 266.373 63.7959 265.381 63.3876C264.39 62.9209 263.544 62.3376 262.844 61.6376C262.144 60.8792 261.59 60.0042 261.181 59.0126C260.773 57.9626 260.423 56.8834 260.131 55.7751C260.015 55.2501 259.84 54.5792 259.606 53.7626C259.431 52.8876 259.198 51.9251 258.906 50.8751C258.673 49.8251 258.381 48.7167 258.031 47.5501C257.74 46.3834 257.448 45.2167 257.156 44.0501C256.515 41.3084 255.786 38.3626 254.969 35.2125C254.619 33.8709 254.24 32.7334 253.831 31.8C253.423 30.8667 253.015 30.0501 252.606 29.35C252.198 28.6501 251.819 28.0375 251.469 27.5125C251.119 26.9292 250.856 26.3751 250.681 25.85C250.39 24.9167 250.419 24.1584 250.769 23.5751C251.119 22.9334 251.877 22.6125 253.044 22.6125H264.681C265.906 22.6125 266.898 22.875 267.656 23.4C268.473 23.8667 268.94 24.5959 269.056 25.5876C269.056 26.2292 268.94 26.8417 268.706 27.4251C268.473 28.0084 268.211 28.6501 267.919 29.35C267.686 30.0501 267.511 30.8667 267.394 31.8C267.277 32.7334 267.394 33.8709 267.744 35.2125L271.769 51.3126C272.061 52.5959 272.586 53.5584 273.344 54.2001C274.102 54.8417 274.89 55.1626 275.706 55.1626C276.756 55.1626 277.719 54.6959 278.594 53.7626C279.469 52.8292 279.994 51.4292 280.169 49.5626C280.227 48.4542 280.14 47.1709 279.906 45.7125C279.731 44.1959 279.469 42.6209 279.119 40.9876C278.827 39.3542 278.477 37.7209 278.069 36.0875C277.661 34.4542 277.281 32.9376 276.931 31.5375C276.115 28.3876 276.173 26.1126 277.106 24.7125C278.04 23.3125 279.761 22.6125 282.269 22.6125C284.777 22.6125 286.498 23.1959 287.431 24.3626C288.423 25.5292 289.152 26.9584 289.619 28.6501C289.911 29.7584 290.348 31.5667 290.931 34.0751C291.573 36.5251 292.215 39.0334 292.856 41.6C293.615 44.6334 294.431 47.8709 295.306 51.3126C295.598 52.5959 296.123 53.5584 296.881 54.2001C297.64 54.8417 298.427 55.1626 299.244 55.1626C300.236 55.1626 301.169 54.6959 302.044 53.7626C302.919 52.8292 303.444 51.4292 303.619 49.5626C303.911 44.9542 303.094 39.9376 301.169 34.5126C299.944 31.1292 299.827 28.3 300.819 26.025C301.869 23.75 303.969 22.6125 307.119 22.6125Z" fill="#121212"></path><path d="M229.886 21.825C232.861 21.825 235.574 22.2625 238.024 23.1375C240.474 23.9541 242.574 25.2375 244.324 26.9875C246.074 28.7375 247.416 30.9541 248.349 33.6375C249.341 36.3208 249.836 39.5291 249.836 43.2624C249.836 46.9958 249.341 50.2333 248.349 52.975C247.416 55.6583 246.074 57.875 244.324 59.625C242.574 61.375 240.474 62.6583 238.024 63.475C235.574 64.2916 232.861 64.7 229.886 64.7C226.911 64.7 224.199 64.2916 221.749 63.475C219.357 62.6583 217.286 61.375 215.536 59.625C213.786 57.875 212.416 55.6583 211.424 52.975C210.491 50.2333 210.024 46.9958 210.024 43.2624C210.024 39.5291 210.491 36.3208 211.424 33.6375C212.416 30.9541 213.786 28.7375 215.536 26.9875C217.286 25.2375 219.357 23.9541 221.749 23.1375C224.199 22.2625 226.911 21.825 229.886 21.825ZM229.886 57.2625C231.286 57.2625 232.511 56.8833 233.561 56.125C234.611 55.3666 235.486 54.3458 236.186 53.0625C236.945 51.7208 237.499 50.2041 237.849 48.5125C238.257 46.8208 238.461 45.0708 238.461 43.2624C238.461 41.4541 238.257 39.7041 237.849 38.0124C237.499 36.3208 236.945 34.8333 236.186 33.5499C235.486 32.2666 234.611 31.2458 233.561 30.4875C232.511 29.6708 231.286 29.2625 229.886 29.2625C228.486 29.2625 227.261 29.6708 226.211 30.4875C225.161 31.2458 224.286 32.2666 223.586 33.5499C222.886 34.8333 222.332 36.3208 221.924 38.0124C221.574 39.7041 221.399 41.4541 221.399 43.2624C221.399 45.0708 221.574 46.8208 221.924 48.5125C222.332 50.2041 222.886 51.7208 223.586 53.0625C224.286 54.3458 225.161 55.3666 226.211 56.125C227.261 56.8833 228.486 57.2625 229.886 57.2625Z" fill="#121212"></path><path d="M205.551 51.3125C205.551 52.6542 205.61 53.8208 205.726 54.8125C205.843 55.7458 205.989 56.5917 206.164 57.35C206.339 58.1083 206.485 58.7792 206.601 59.3625C206.718 59.9458 206.776 60.5 206.776 61.025C206.776 63.0083 205.639 64 203.364 64H195.314C194.264 64 193.418 63.7375 192.776 63.2125C192.193 62.6875 191.901 61.9583 191.901 61.025C191.901 60.5 191.96 59.9458 192.076 59.3625C192.251 58.7792 192.397 58.1083 192.514 57.35C192.689 56.5917 192.835 55.7458 192.951 54.8125C193.126 53.8208 193.214 52.6542 193.214 51.3125V33.9H184.114V51.3125C184.114 52.6542 184.172 53.8208 184.289 54.8125C184.464 55.7458 184.61 56.5917 184.726 57.35C184.901 58.1083 185.047 58.7792 185.164 59.3625C185.339 59.9458 185.426 60.5 185.426 61.025C185.426 61.9583 185.105 62.6875 184.464 63.2125C183.88 63.7375 183.064 64 182.014 64H173.964C171.689 64 170.551 63.0083 170.551 61.025C170.551 60.5 170.61 59.9458 170.726 59.3625C170.843 58.7792 170.989 58.1083 171.164 57.35C171.339 56.5917 171.485 55.7458 171.601 54.8125C171.718 53.8208 171.776 52.6542 171.776 51.3125V33.9H169.676C168.86 33.9 168.247 33.6667 167.839 33.2C167.489 32.7333 167.314 32.1792 167.314 31.5375C167.314 30.8375 167.518 30.2542 167.926 29.7875C168.335 29.2625 169.005 29 169.939 29H175.014C174.547 28.7083 173.964 28.3583 173.264 27.95C172.564 27.5417 171.864 27.0167 171.164 26.375C170.522 25.7333 169.939 24.975 169.414 24.1C168.947 23.225 168.714 22.175 168.714 20.95C168.714 18.325 169.939 16.3125 172.389 14.9125C174.839 13.5125 178.076 12.8125 182.101 12.8125C184.435 12.8125 186.535 13.075 188.401 13.6C190.326 14.125 191.843 14.9417 192.951 16.05C193.36 15.5833 193.972 15.1458 194.789 14.7375C195.605 14.3292 196.451 13.9792 197.326 13.6875C198.26 13.3958 199.193 13.1917 200.126 13.075C201.06 12.9 201.818 12.8125 202.401 12.8125C203.626 12.8125 204.443 13.1333 204.851 13.775C205.318 14.4167 205.551 15.4375 205.551 16.8375V51.3125ZM193.214 29C193.155 28.3 193.097 27.425 193.039 26.375C193.039 25.325 193.01 24.5667 192.951 24.1C191.551 24.975 190.093 25.4125 188.576 25.4125C187.468 25.4125 186.535 25.15 185.776 24.625C185.076 24.1 184.726 23.3125 184.726 22.2625C184.726 21.0375 184.435 19.9875 183.851 19.1125C183.326 18.1792 182.48 17.7125 181.314 17.7125C180.03 17.7125 179.155 18.2958 178.689 19.4625C178.222 20.6292 178.164 21.9417 178.514 23.4C178.922 24.8 179.739 26.0833 180.964 27.25C182.247 28.4167 183.939 29 186.039 29H193.214Z" fill="#121212"></path><path d="M148.536 22.6125C150.811 22.6125 152.911 23.0208 154.836 23.8375C156.761 24.6542 158.424 25.9083 159.824 27.6C161.282 29.2333 162.39 31.3625 163.149 33.9875C163.965 36.5542 164.374 39.6458 164.374 43.2625C164.374 46.8792 163.965 50 163.149 52.625C162.39 55.1917 161.282 57.3208 159.824 59.0125C158.424 60.7042 156.761 61.9583 154.836 62.775C152.911 63.5917 150.811 64 148.536 64C146.319 64 144.249 63.5625 142.324 62.6875C140.457 61.7542 138.911 60.4125 137.686 58.6625C137.803 59.1292 137.89 59.5667 137.949 59.975C138.065 60.325 138.124 60.675 138.124 61.025C138.124 61.9583 137.803 62.6875 137.161 63.2125C136.578 63.7375 135.761 64 134.711 64H126.661C124.386 64 123.249 63.0083 123.249 61.025C123.249 60.5 123.307 59.9458 123.424 59.3625C123.54 58.7792 123.686 58.1083 123.861 57.35C124.036 56.5917 124.182 55.7458 124.299 54.8125C124.415 53.8208 124.474 52.6542 124.474 51.3125V27.1625C124.474 25.6458 124.415 24.4208 124.299 23.4875C124.182 22.4958 124.036 21.6792 123.861 21.0375C123.686 20.3375 123.54 19.7542 123.424 19.2875C123.307 18.8208 123.249 18.325 123.249 17.8C123.249 16.9833 123.482 16.3708 123.949 15.9625C124.415 15.4958 125.057 15.1167 125.874 14.825C126.749 14.475 127.886 14.0667 129.286 13.6C130.744 13.075 132.203 12.8125 133.661 12.8125C134.944 12.8125 135.79 13.1333 136.199 13.775C136.607 14.4167 136.811 15.4375 136.811 16.8375V29.2625C137.978 27.0458 139.611 25.3833 141.711 24.275C143.811 23.1667 146.086 22.6125 148.536 22.6125ZM152.999 43.35C152.999 41.6 152.824 39.9375 152.474 38.3625C152.124 36.7292 151.599 35.3 150.899 34.075C150.257 32.7917 149.44 31.8 148.449 31.1C147.457 30.3417 146.319 29.9625 145.036 29.9625C143.753 29.9625 142.615 30.3417 141.624 31.1C140.69 31.8 139.903 32.7917 139.261 34.075C138.619 35.3 138.124 36.7292 137.774 38.3625C137.482 39.9375 137.336 41.6 137.336 43.35C137.336 45.1 137.482 46.7917 137.774 48.425C138.124 50 138.619 51.4 139.261 52.625C139.903 53.85 140.69 54.8417 141.624 55.6C142.615 56.3 143.753 56.65 145.036 56.65C146.319 56.65 147.457 56.3 148.449 55.6C149.44 54.8417 150.257 53.85 150.899 52.625C151.599 51.4 152.124 50 152.474 48.425C152.824 46.7917 152.999 45.1 152.999 43.35Z" fill="#121212"></path><path d="M115.045 48.7751C115.979 48.7751 116.766 48.9793 117.408 49.3876C118.05 49.7376 118.575 50.2043 118.983 50.7876C119.391 51.3709 119.683 52.0418 119.858 52.8001C120.033 53.5001 120.12 54.2001 120.12 54.9001C120.12 56.1251 119.8 57.3209 119.158 58.4876C118.516 59.6543 117.495 60.7043 116.095 61.6376C114.695 62.5126 112.887 63.2418 110.67 63.8251C108.454 64.4084 105.8 64.7001 102.708 64.7001C99.9662 64.7001 97.3996 64.2918 95.0079 63.4751C92.6163 62.6584 90.5454 61.3751 88.7954 59.6251C87.0454 57.8751 85.6454 55.6584 84.5954 52.9751C83.6037 50.2334 83.1079 46.9959 83.1079 43.2626C83.1079 39.5293 83.6329 36.3209 84.6829 33.6376C85.7912 30.9543 87.2204 28.7376 88.9704 26.9876C90.7787 25.2376 92.8204 23.9543 95.0954 23.1376C97.4287 22.3209 99.8496 21.9126 102.358 21.9126C104.983 21.9126 107.258 22.3793 109.183 23.3126C111.108 24.2459 112.683 25.4418 113.908 26.9001C115.191 28.3001 116.154 29.9043 116.795 31.7126C117.437 33.4626 117.758 35.2126 117.758 36.9626C117.758 38.2459 117.379 39.3251 116.62 40.2001C115.862 41.0751 114.55 41.5126 112.683 41.5126H94.2204C94.2787 45.3043 95.0662 48.3959 96.5829 50.7876C98.0996 53.1793 100.375 54.3751 103.408 54.3751C104.75 54.3751 105.858 54.0834 106.733 53.5001C107.608 52.9168 108.454 52.2751 109.27 51.5751C110.087 50.8751 110.933 50.2334 111.808 49.6501C112.683 49.0668 113.762 48.7751 115.045 48.7751ZM102.095 29.2626C101.045 29.2626 100.083 29.5251 99.2079 30.0501C98.3329 30.5751 97.5746 31.2459 96.9329 32.0626C96.3496 32.8209 95.8538 33.6668 95.4454 34.6001C95.0371 35.4751 94.7746 36.2626 94.6579 36.9626H108.833C108.716 34.9209 108.075 33.1418 106.908 31.6251C105.741 30.0501 104.137 29.2626 102.095 29.2626Z" fill="#121212"></path><path d="M28.6578 12.8125C30.0578 12.8125 31.1369 13.0458 31.8953 13.5125C32.6536 13.9208 33.0911 14.6792 33.2078 15.7875C33.2661 16.4292 33.1203 17.0708 32.7703 17.7125C32.4786 18.2958 32.1578 19.025 31.8078 19.9C31.5161 20.7167 31.2828 21.7375 31.1078 22.9625C30.9911 24.1875 31.1661 25.7333 31.6328 27.6L36.0078 44.8375C36.1828 45.7708 36.5036 46.4417 36.9703 46.85C37.4953 47.2583 38.0494 47.4625 38.6328 47.4625C39.2744 47.4625 39.8869 47.1417 40.4703 46.5C41.0536 45.8583 41.3161 44.925 41.2578 43.7C41.2578 42.825 41.2578 41.6583 41.2578 40.2C41.2578 38.6833 41.2578 37.1375 41.2578 35.5625C41.3161 33.9292 41.3453 32.3833 41.3453 30.925C41.3453 29.4667 41.3453 28.3 41.3453 27.425C41.4619 24.8583 42.1328 23.0792 43.3578 22.0875C44.5828 21.0958 46.0703 20.6 47.8203 20.6C49.8619 20.6 51.3203 21.1542 52.1953 22.2625C53.1286 23.3125 53.9744 25.0625 54.7328 27.5125C55.0244 28.4458 55.3744 29.7 55.7828 31.275C56.2494 32.85 56.7453 34.5125 57.2703 36.2625C57.7953 37.9542 58.2911 39.5875 58.7578 41.1625C59.2828 42.7375 59.6911 43.9917 59.9828 44.925C60.4494 46.3833 61.0328 47.4333 61.7328 48.075C62.4911 48.7167 63.2494 49.0375 64.0078 49.0375C64.9411 49.0375 65.7578 48.6583 66.4578 47.9C67.2161 47.1417 67.7411 46.1208 68.0328 44.8375C68.3828 43.6708 68.6453 42.3 68.8203 40.725C68.9953 39.15 69.0244 37.4875 68.9078 35.7375C68.7911 33.9292 68.4994 32.15 68.0328 30.4C67.6244 28.5917 66.9828 26.9292 66.1078 25.4125C65.2328 23.8958 64.6203 22.3792 64.2703 20.8625C63.9203 19.3458 63.8911 18.0042 64.1828 16.8375C64.5328 15.6125 65.2036 14.65 66.1953 13.95C67.2453 13.1917 68.6744 12.8125 70.4828 12.8125C72.1744 12.8125 73.5453 13.0458 74.5953 13.5125C75.7036 13.9208 76.6078 14.5333 77.3078 15.35C78.0078 16.1667 78.5328 17.1583 78.8828 18.325C79.2328 19.4333 79.4953 20.6875 79.6703 22.0875C79.9036 23.8375 79.9619 26.0833 79.8453 28.825C79.7286 31.5667 79.4369 34.5125 78.9703 37.6625C78.5619 40.7542 77.9494 43.875 77.1328 47.025C76.3161 50.1167 75.2661 52.9458 73.9828 55.5125C72.6994 58.0208 71.1828 60.0625 69.4328 61.6375C67.6828 63.2125 65.6703 64 63.3953 64H58.4078C56.8328 64 55.4619 63.5042 54.2953 62.5125C53.1869 61.4625 52.1953 60.15 51.3203 58.575C50.5036 56.9417 49.8036 55.1042 49.2203 53.0625C48.6369 51.0208 48.1119 49.0083 47.6453 47.025C47.5286 49.2417 47.2661 51.3708 46.8578 53.4125C46.4494 55.4542 45.8661 57.2625 45.1078 58.8375C44.3494 60.4125 43.4161 61.6667 42.3078 62.6C41.2578 63.5333 39.9744 64 38.4578 64H32.6828C30.4078 64 28.6578 63.3292 27.4328 61.9875C26.2661 60.5875 25.4203 58.8667 24.8953 56.825C24.7203 56.0083 24.4286 54.7833 24.0203 53.15C23.6119 51.5167 23.1453 49.6792 22.6203 47.6375C22.4453 46.9375 22.2994 46.1208 22.1828 45.1875C22.1244 44.1958 22.1828 43.2625 22.3578 42.3875C22.5911 41.4542 22.9994 40.6375 23.5828 39.9375C24.2244 39.1792 25.1578 38.6542 26.3828 38.3625C24.8078 38.0125 23.5244 37.5458 22.5328 36.9625C21.5994 36.3208 20.8411 35.6208 20.2578 34.8625C19.7328 34.1042 19.2953 33.2875 18.9453 32.4125C18.6536 31.5375 18.3911 30.6333 18.1578 29.7C17.6328 27.5417 17.1078 25.7917 16.5828 24.45C16.0578 23.05 15.5328 21.8833 15.0078 20.95C14.4828 20.0167 13.9869 19.2 13.5203 18.5C13.1119 17.8 12.7619 17.0708 12.4703 16.3125C12.1203 15.3208 12.0619 14.5042 12.2953 13.8625C12.5286 13.1625 13.2869 12.8125 14.5703 12.8125H28.6578Z" fill="#121212"></path><path d="M315.694 33.6377C315.694 29.8461 314.994 27.0752 313.594 25.3252C312.194 23.5169 310.036 22.6124 307.119 22.6123C303.969 22.6123 301.869 23.7504 300.819 26.0254C299.828 28.3004 299.944 31.1294 301.169 34.5127C303.094 39.9376 303.911 44.9542 303.619 49.5625C303.444 51.4292 302.919 52.8294 302.044 53.7627C301.169 54.6959 300.236 55.162 299.244 55.1621C298.428 55.1621 297.64 54.8417 296.882 54.2002C296.218 53.6387 295.733 52.8312 295.427 51.7783L295.307 51.3125C294.432 47.8708 293.615 44.6329 292.856 41.5996C292.215 39.0332 291.573 36.525 290.932 34.0752C290.348 31.5672 289.911 29.7588 289.619 28.6504C289.182 27.0644 288.513 25.7085 287.614 24.584L287.432 24.3623C286.557 23.2686 284.989 22.6876 282.73 22.6191L282.269 22.6123C279.76 22.6124 278.04 23.313 277.106 24.7129C276.173 26.1129 276.115 28.3875 276.932 31.5371L278.069 36.0879C278.478 37.721 278.828 39.3542 279.119 40.9873C279.469 42.6206 279.731 44.1962 279.906 45.7129C280.14 47.1711 280.227 48.4543 280.169 49.5625C279.994 51.4292 279.469 52.8294 278.594 53.7627C277.719 54.6959 276.756 55.1621 275.706 55.1621C274.89 55.162 274.102 54.8418 273.344 54.2002C272.68 53.6387 272.196 52.8312 271.89 51.7783L271.769 51.3125L267.744 35.2129C267.394 33.8712 267.277 32.7331 267.394 31.7998C267.51 30.8665 267.686 30.0496 267.919 29.3496C268.211 28.6497 268.473 28.008 268.706 27.4248C268.939 26.8416 269.057 26.2294 269.057 25.5879C268.94 24.5962 268.473 23.8671 267.656 23.4004C266.993 22.941 266.151 22.6824 265.13 22.625L264.682 22.6123V10.6123C267.168 10.6123 270.194 11.0736 273.119 12.6865C276.287 11.0574 279.656 10.6123 282.269 10.6123C285.454 10.6123 290.585 11.1782 294.745 14.7393C295.578 14.0588 296.485 13.4455 297.466 12.9141C300.742 11.1396 304.163 10.6123 307.119 10.6123L307.638 10.6182C312.962 10.7302 318.823 12.589 322.963 17.8291H322.964C322.969 17.8358 322.974 17.8429 322.979 17.8496C323.014 17.8928 323.049 17.9349 323.083 17.9785L323.081 17.9795C326.91 22.8674 327.694 28.8876 327.694 33.6377C327.694 35.8434 327.549 38.1226 327.281 40.459L327.159 41.4639C327.158 41.4769 327.156 41.4899 327.154 41.5029C326.83 43.9704 326.339 46.4313 325.692 48.8828L325.406 49.9326C325.399 49.959 325.39 49.9854 325.383 50.0117C324.665 52.4908 323.777 54.9106 322.721 57.2676L322.258 58.2744C320.85 61.2554 319.092 64.029 316.953 66.5303L316.954 66.5312C314.813 69.0452 312.293 71.148 309.439 72.7979L308.864 73.1221C308.823 73.1445 308.782 73.1666 308.741 73.1885C305.057 75.1535 301.095 76 297.144 76H292.507C289.673 76 286.451 75.4848 283.421 73.9736C280.225 75.456 276.848 75.9999 273.694 76H268.969C266.614 76 263.976 75.6841 261.34 74.6914L260.812 74.4834C260.63 74.4084 260.45 74.329 260.271 74.2451C258.292 73.3135 256.391 72.0689 254.695 70.4512L254.358 70.123C254.245 70.0101 254.135 69.8947 254.026 69.7773C252.43 68.048 251.179 66.098 250.264 64.0029L250.085 63.5811C250.055 63.5084 250.026 63.4355 249.997 63.3623C249.493 62.0667 249.056 60.7467 248.683 59.4053L248.526 58.8291C248.487 58.6796 248.451 58.5289 248.417 58.3779C248.395 58.2783 248.357 58.1242 248.301 57.9072L248.068 57.0596C247.979 56.7485 247.903 56.4335 247.84 56.1162C247.772 55.7754 247.68 55.3773 247.563 54.918C247.813 54.382 248.041 53.8229 248.251 53.2422L258.906 50.875C259.198 51.925 259.431 52.8877 259.606 53.7627C259.84 54.5793 260.015 55.2504 260.132 55.7754C260.423 56.8836 260.773 57.9628 261.182 59.0127C261.59 60.0043 262.144 60.8794 262.844 61.6377C263.544 62.3377 264.39 62.921 265.382 63.3877C266.373 63.7959 267.569 64 268.969 64H273.694C276.319 63.9999 278.419 63.3585 279.994 62.0752C281.569 60.7335 283.027 58.8376 284.369 56.3877C285.127 58.7209 286.061 60.5874 287.169 61.9873C288.336 63.329 290.115 64 292.507 64H297.144C299.36 64 301.344 63.5329 303.094 62.5996C304.902 61.6079 306.478 60.325 307.819 58.75C309.219 57.1168 310.415 55.2501 311.406 53.1504C312.398 51.0504 313.215 48.8915 313.856 46.6748C314.418 44.6844 314.845 42.7163 315.139 40.7705L315.257 39.9375C315.512 37.9467 315.656 36.0899 315.688 34.3672L315.694 33.6377ZM258.031 47.5498C258.381 48.7165 258.673 49.825 258.906 50.875L248.251 53.2422C248.283 53.1533 248.317 53.0645 248.349 52.9746C248.714 51.9656 249.011 50.8894 249.241 49.7461L258.031 47.5498ZM258.031 47.5498L249.241 49.7461C249.492 48.5037 249.662 47.1822 249.754 45.7812L257.156 44.0498L258.031 47.5498ZM253.044 22.6123L252.83 22.6162C251.784 22.6538 251.097 22.9736 250.769 23.5752C250.419 24.1584 250.39 24.9166 250.682 25.8496C250.857 26.3746 251.119 26.9294 251.469 27.5127C251.819 28.0376 252.198 28.6498 252.606 29.3496C253.015 30.0495 253.423 30.8666 253.831 31.7998C254.239 32.7331 254.619 33.8712 254.969 35.2129C255.785 38.3627 256.515 41.3083 257.156 44.0498L249.754 45.7812C249.807 44.9684 249.837 44.129 249.837 43.2627C249.837 39.5294 249.34 36.321 248.349 33.6377C247.415 30.9544 246.074 28.7373 244.324 26.9873C242.699 25.3621 240.772 24.1396 238.543 23.3193C238.705 21.5272 239.223 19.5937 240.328 17.6621C243.868 11.3652 250.31 10.6123 253.044 10.6123V22.6123ZM264.682 10.6123V22.6123H253.044V10.6123H264.682Z" fill="#121212"></path><path d="M249.837 43.2627C249.837 39.5294 249.34 36.321 248.349 33.6377C247.415 30.9544 246.074 28.7373 244.324 26.9873C242.574 25.2374 240.474 23.9544 238.024 23.1377C235.574 22.2627 232.862 21.8252 229.887 21.8252C226.912 21.8252 224.199 22.2627 221.749 23.1377C219.357 23.9544 217.286 25.2373 215.536 26.9873C213.786 28.7373 212.415 30.9544 211.424 33.6377C210.491 36.321 210.024 39.5295 210.024 43.2627L210.029 43.957C210.084 47.3986 210.549 50.4045 211.424 52.9746C212.415 55.6579 213.786 57.875 215.536 59.625C217.286 61.375 219.357 62.6579 221.749 63.4746C224.199 64.2913 226.912 64.7002 229.887 64.7002C232.862 64.7002 235.574 64.2913 238.024 63.4746C240.474 62.6579 242.574 61.3749 244.324 59.625C246.074 57.875 247.415 55.6579 248.349 52.9746C249.278 50.4044 249.773 47.3987 249.831 43.957L249.837 43.2627ZM221.399 43.2627C221.399 41.4544 221.574 39.7043 221.924 38.0127C222.332 36.321 222.887 34.8331 223.587 33.5498C224.287 32.2666 225.162 31.2456 226.212 30.4873C227.262 29.6708 228.487 29.2627 229.887 29.2627C231.287 29.2627 232.512 29.6707 233.562 30.4873C234.611 31.2456 235.487 32.2665 236.187 33.5498C236.945 34.8331 237.499 36.321 237.849 38.0127C238.257 39.7043 238.462 41.4544 238.462 43.2627L238.452 43.9375C238.408 45.5072 238.206 47.0324 237.849 48.5127C237.499 50.2043 236.945 51.7209 236.187 53.0625C235.487 54.3458 234.612 55.3667 233.562 56.125C232.512 56.8833 231.287 57.2627 229.887 57.2627C228.487 57.2627 227.262 56.8832 226.212 56.125C225.162 55.3667 224.287 54.3457 223.587 53.0625C222.887 51.7209 222.332 50.2043 221.924 48.5127C221.618 47.0324 221.445 45.5072 221.407 43.9375L221.399 43.2627ZM257.156 44.0498L258.031 47.5498C258.381 48.7165 258.673 49.825 258.906 50.875C259.198 51.925 259.431 52.8877 259.606 53.7627C259.822 54.5164 259.987 55.1461 260.103 55.6514C259.97 56.0756 259.831 56.4974 259.682 56.916L259.683 56.917C259.682 56.9196 259.681 56.9222 259.68 56.9248C259.664 56.9686 259.65 57.0129 259.634 57.0566L259.632 57.0557C258.282 60.8843 256.257 64.4586 253.399 67.502L252.81 68.1104C249.88 71.0401 246.421 73.1962 242.59 74.5908L241.818 74.8594C237.975 76.1405 233.959 76.7002 229.887 76.7002C226.069 76.7002 222.3 76.208 218.677 75.0908L217.954 74.8594C217.926 74.8502 217.899 74.8405 217.871 74.8311C214.038 73.5222 210.585 71.4623 207.635 68.6768L207.051 68.1104C205.772 66.8319 204.647 65.4505 203.659 63.9912C205.737 63.9073 206.776 62.9206 206.776 61.0254C206.776 60.5004 206.718 59.9456 206.602 59.3623C206.485 58.779 206.339 58.1079 206.164 57.3496C205.989 56.5914 205.843 55.7457 205.727 54.8125C205.61 53.8208 205.551 52.6542 205.551 51.3125V20.1318C206.026 19.573 206.525 19.028 207.051 18.502C210.125 15.4275 213.782 13.1774 217.871 11.7812V11.7822C221.74 10.4229 225.787 9.8252 229.887 9.8252C233.957 9.82522 237.974 10.4145 241.817 11.7529H241.818C241.878 11.7727 241.937 11.7943 241.996 11.8145C242.017 11.822 242.038 11.8294 242.06 11.8369H242.059C246.101 13.2225 249.745 15.4376 252.81 18.502C254.085 19.7776 255.203 21.1562 256.181 22.6123H253.044C251.877 22.6123 251.119 22.9335 250.769 23.5752C250.419 24.1584 250.39 24.9166 250.682 25.8496C250.857 26.3746 251.119 26.9294 251.469 27.5127C251.819 28.0376 252.198 28.6498 252.606 29.3496C253.015 30.0495 253.423 30.8666 253.831 31.7998C254.239 32.7331 254.619 33.8712 254.969 35.2129C255.785 38.3627 256.515 41.3083 257.156 44.0498Z" fill="#121212"></path><path d="M205.551 16.8379C205.551 15.4382 205.318 14.4171 204.852 13.7754C204.443 13.1337 203.626 12.8125 202.401 12.8125C201.818 12.8125 201.059 12.9002 200.126 13.0752C199.193 13.1919 198.259 13.3959 197.326 13.6875C196.451 13.9791 195.606 14.3291 194.789 14.7373C193.972 15.1456 193.36 15.5832 192.951 16.0498C191.843 14.9415 190.326 14.1246 188.401 13.5996C186.535 13.0746 184.435 12.8125 182.102 12.8125C178.077 12.8125 174.839 13.5122 172.389 14.9121C169.939 16.3121 168.714 18.3252 168.714 20.9502C168.714 22.175 168.947 23.2247 169.414 24.0996C169.939 24.9746 170.522 25.7333 171.164 26.375C171.864 27.0166 172.564 27.5419 173.264 27.9502C173.964 28.3585 174.547 28.7083 175.014 29H169.938C169.005 29 168.334 29.2622 167.926 29.7871C167.518 30.2537 167.314 30.8373 167.313 31.5371C167.313 32.1788 167.489 32.7335 167.839 33.2002C168.247 33.6667 168.859 33.9003 169.676 33.9004H171.776V51.3125L171.766 52.2861C171.744 53.2267 171.689 54.0688 171.602 54.8125C171.485 55.7457 171.339 56.5914 171.164 57.3496L170.923 58.4219C170.85 58.7572 170.785 59.0707 170.727 59.3623C170.61 59.9456 170.551 60.5004 170.551 61.0254C170.551 62.8846 171.551 63.8722 173.551 63.9883L173.964 64H182.014C183.064 64 183.881 63.7378 184.464 63.2129C185.105 62.688 185.426 61.9585 185.426 61.0254C185.426 60.5004 185.339 59.9456 185.164 59.3623C185.047 58.779 184.902 58.1079 184.727 57.3496C184.61 56.5914 184.464 55.7457 184.289 54.8125C184.202 54.0688 184.147 53.2267 184.125 52.2861L184.113 51.3125V33.9004H193.214V51.3125L193.21 51.8076C193.191 52.9432 193.104 53.9448 192.951 54.8125C192.835 55.7457 192.689 56.5914 192.514 57.3496C192.397 58.1079 192.251 58.779 192.076 59.3623C191.96 59.9456 191.901 60.5004 191.901 61.0254C191.901 61.9585 192.193 62.688 192.776 63.2129C193.418 63.7377 194.264 64 195.313 64H203.363L203.777 63.9883C205.643 63.8797 206.638 63.0119 206.763 61.3848L206.776 61.0254C206.776 60.6318 206.743 60.2214 206.678 59.7949L206.602 59.3623C206.543 59.0707 206.477 58.7572 206.404 58.4219L206.164 57.3496C205.989 56.5914 205.843 55.7457 205.727 54.8125C205.639 54.0688 205.584 53.2267 205.562 52.2861L205.551 51.3125V16.8379ZM181.313 17.7129C182.48 17.7129 183.327 18.179 183.852 19.1123C184.435 19.9873 184.727 21.0377 184.727 22.2627C184.727 23.3126 185.076 24.1 185.776 24.625C186.535 25.1499 187.468 25.4121 188.576 25.4121C190.093 25.4121 191.551 24.9746 192.951 24.0996C193.01 24.5663 193.039 25.325 193.039 26.375C193.097 27.425 193.156 28.3 193.214 29H186.039C183.939 29 182.247 28.4166 180.964 27.25C179.739 26.0834 178.922 24.8003 178.514 23.4004C178.164 21.9422 178.222 20.6295 178.688 19.4629C179.155 18.2963 180.03 17.713 181.313 17.7129ZM217.551 25.2803C216.838 25.7891 216.166 26.3576 215.536 26.9873C213.786 28.7373 212.415 30.9544 211.424 33.6377C210.491 36.321 210.024 39.5295 210.024 43.2627C210.024 46.9958 210.491 50.2331 211.424 52.9746C212.415 55.6579 213.786 57.875 215.536 59.625C216.505 60.5935 217.572 61.418 218.737 62.1006C218.527 65.2655 217.34 69.2234 213.809 72.3018C210.179 75.4659 205.977 76 203.363 76H195.313C193.285 76 190.95 75.6511 188.645 74.6318C186.294 75.6805 183.939 76 182.014 76H173.964C171.35 76 167.148 75.466 163.519 72.3018C159.821 69.0781 158.69 64.8902 158.563 61.6582L158.551 61.0254L158.559 60.499C158.56 60.4488 158.563 60.3987 158.564 60.3486C159.005 59.9384 159.425 59.4937 159.823 59.0127C161.282 57.321 162.39 55.1916 163.148 52.625C163.965 50 164.374 46.8793 164.374 43.2627C164.374 39.646 163.965 36.554 163.148 33.9873C162.39 31.3624 161.282 29.2329 159.823 27.5996C158.939 26.5312 157.95 25.6373 156.856 24.918C156.915 24.8017 156.974 24.6858 157.036 24.5703C156.842 23.5091 156.744 22.468 156.72 21.4678L156.714 20.9502L156.725 20.2686C156.958 13.2775 160.771 7.72937 166.435 4.49316L166.894 4.23828C171.654 1.65327 176.992 0.8125 182.102 0.8125C185.286 0.812525 188.474 1.1667 191.558 2.02344L191.559 2.02246C191.569 2.0254 191.58 2.02927 191.591 2.03223C191.611 2.03773 191.631 2.0423 191.65 2.04785L191.649 2.04883C192.109 2.17599 192.571 2.31857 193.034 2.47461C193.199 2.41647 193.365 2.35914 193.531 2.30371L193.747 2.2334C195.208 1.77681 196.707 1.43699 198.237 1.22266C199.447 1.00694 200.898 0.8125 202.401 0.8125L202.952 0.821289C205.822 0.915603 211.229 1.81956 214.724 6.95605C217.288 10.6362 217.551 14.6636 217.551 16.8379V25.2803Z" fill="#121212"></path><path d="M134.178 0.820312C136.876 0.899699 142.377 1.67943 145.959 6.78809L146.322 7.33203L146.531 7.66992C147.119 8.65221 147.555 9.65042 147.88 10.6211C148.098 10.616 148.317 10.6123 148.536 10.6123C152.278 10.6123 155.989 11.2911 159.522 12.79L160.226 13.1016C163.587 14.6514 166.464 16.8915 168.821 19.6592C168.75 20.0716 168.714 20.502 168.714 20.9502C168.714 22.175 168.947 23.2247 169.414 24.0996C169.939 24.9746 170.522 25.7333 171.164 26.375C171.864 27.0166 172.564 27.5419 173.264 27.9502C173.493 28.0838 173.709 28.2119 173.913 28.333C173.995 28.5548 174.075 28.7771 174.151 29H169.938C169.005 29 168.334 29.2622 167.926 29.7871C167.518 30.2537 167.314 30.8373 167.313 31.5371C167.313 32.1788 167.489 32.7335 167.839 33.2002C168.247 33.6667 168.859 33.9003 169.676 33.9004H171.776V51.3125C171.776 52.6541 171.718 53.8208 171.602 54.8125C171.485 55.7457 171.339 56.5914 171.164 57.3496C170.989 58.1078 170.843 58.779 170.727 59.3623C170.61 59.9456 170.551 60.5004 170.551 61.0254C170.551 62.0561 170.859 62.8185 171.474 63.3135C170.767 64.4767 169.967 65.5969 169.066 66.6621L169.068 66.6631C169.039 66.6983 169.009 66.7326 168.979 66.7676C168.957 66.794 168.935 66.8213 168.912 66.8477L168.911 66.8467C166.537 69.6634 163.63 71.9411 160.226 73.5107L159.522 73.8223C155.989 75.3212 152.279 76 148.536 76C145.891 76 143.281 75.6349 140.75 74.8809C138.599 75.7317 136.475 76 134.711 76H126.661C124.047 76 119.845 75.466 116.216 72.3018C113.226 69.6954 111.915 66.4586 111.455 63.6064C113.317 63.0626 114.865 62.4071 116.096 61.6377C117.496 60.7044 118.517 59.6539 119.158 58.4873C119.8 57.3208 120.12 56.1252 120.12 54.9004C120.12 54.2004 120.033 53.4998 119.858 52.7998C119.683 52.0415 119.392 51.3704 118.983 50.7871C118.575 50.2039 118.05 49.7377 117.408 49.3877C116.767 48.9794 115.979 48.7755 115.046 48.7754C114.071 48.7754 113.213 48.9443 112.474 49.2812V41.5127H112.683C114.549 41.5127 115.862 41.075 116.62 40.2002C117.378 39.3253 117.758 38.2461 117.758 36.9629C117.758 35.2131 117.437 33.4627 116.796 31.7129C116.154 29.9047 115.191 28.3003 113.908 26.9004C113.461 26.368 112.966 25.8707 112.426 25.4082C112.422 25.3449 112.42 25.2876 112.416 25.2363L112.392 24.9756L112.381 24.8896C112.345 24.5852 112.313 24.3735 112.289 24.2412C112.274 24.157 112.266 24.1219 112.268 24.1299C112.251 24.0694 112.235 24.009 112.22 23.9482L111.782 22.1982C111.454 20.8849 111.291 19.5875 111.256 18.334L111.249 17.7998L111.261 17.2012C111.378 14.2218 112.396 10.2939 115.764 7.18652C117.67 5.37943 119.787 4.28132 121.631 3.59961C122.754 3.157 124.051 2.69667 125.463 2.22559C128.071 1.31496 130.82 0.8125 133.661 0.8125L134.178 0.820312ZM145.036 29.9629C146.319 29.9629 147.457 30.3415 148.448 31.0996C149.44 31.7996 150.257 32.7919 150.898 34.0752C151.598 35.3001 152.124 36.7291 152.474 38.3623C152.824 39.9372 152.999 41.5998 152.999 43.3496C152.999 45.0995 152.824 46.7915 152.474 48.4248C152.124 49.9998 151.598 51.4 150.898 52.625C150.257 53.85 149.44 54.8413 148.448 55.5996C147.457 56.2996 146.319 56.6504 145.036 56.6504C143.753 56.6504 142.616 56.2996 141.624 55.5996C140.691 54.8413 139.902 53.85 139.261 52.625C138.619 51.4 138.123 49.9997 137.773 48.4248C137.518 46.9958 137.375 45.5222 137.343 44.0039L137.336 43.3496C137.336 41.5998 137.482 39.9372 137.773 38.3623C138.123 36.7292 138.619 35.3001 139.261 34.0752C139.902 32.7919 140.691 31.7996 141.624 31.0996C142.616 30.3415 143.753 29.9629 145.036 29.9629ZM124.474 51.3125L124.463 52.2861C124.441 53.2267 124.386 54.0688 124.299 54.8125C124.182 55.7457 124.036 56.5914 123.861 57.3496L123.62 58.4219C123.547 58.7572 123.482 59.0707 123.424 59.3623C123.307 59.9456 123.249 60.5004 123.249 61.0254C123.249 62.8846 124.249 63.8721 126.248 63.9883L126.661 64H134.711C135.761 64 136.578 63.7378 137.161 63.2129C137.803 62.688 138.124 61.9585 138.124 61.0254C138.124 60.6754 138.065 60.3246 137.948 59.9746C137.89 59.5664 137.803 59.1286 137.687 58.6621C138.911 60.412 140.457 61.7542 142.323 62.6875C144.248 63.5625 146.319 64 148.536 64C150.811 64 152.911 63.592 154.836 62.7754C156.761 61.9588 158.423 60.7042 159.823 59.0127C161.282 57.321 162.39 55.1916 163.148 52.625C163.965 50 164.374 46.8793 164.374 43.2627C164.374 39.646 163.965 36.554 163.148 33.9873C162.39 31.3624 161.282 29.2329 159.823 27.5996C158.423 25.9081 156.761 24.6545 154.836 23.8379C152.911 23.0212 150.811 22.6123 148.536 22.6123C146.086 22.6123 143.811 23.1671 141.711 24.2754C139.611 25.3837 137.978 27.0461 136.812 29.2627V16.8379C136.812 15.438 136.607 14.4171 136.198 13.7754C135.79 13.1337 134.944 12.8125 133.661 12.8125C132.203 12.8125 130.744 13.0746 129.286 13.5996L128.285 13.9395C127.334 14.2675 126.53 14.5628 125.874 14.8252C125.057 15.1169 124.415 15.4962 123.948 15.9629C123.482 16.3712 123.249 16.9835 123.249 17.7998C123.249 18.3247 123.307 18.8205 123.424 19.2871L123.861 21.0371C124.036 21.6787 124.182 22.4957 124.299 23.4873C124.415 24.4206 124.474 25.6456 124.474 27.1621V51.3125Z" fill="#121212"></path><path d="M120.12 54.9004C120.12 54.2004 120.033 53.4998 119.858 52.7998C119.683 52.0415 119.392 51.3704 118.983 50.7871C118.575 50.2039 118.05 49.7377 117.408 49.3877C116.767 48.9794 115.979 48.7755 115.046 48.7754C113.763 48.7754 112.683 49.0671 111.808 49.6504C110.933 50.2336 110.087 50.8753 109.271 51.5752C108.454 52.2751 107.608 52.9167 106.733 53.5C105.858 54.0833 104.75 54.375 103.408 54.375C100.375 54.375 98.0997 53.1788 96.583 50.7871C95.0665 48.3955 94.2791 45.3041 94.2207 41.5127H112.683C114.549 41.5127 115.862 41.075 116.62 40.2002C117.378 39.3253 117.758 38.2461 117.758 36.9629C117.758 35.2131 117.437 33.4627 116.796 31.7129C116.154 29.9047 115.191 28.3003 113.908 26.9004C112.683 25.4421 111.108 24.2458 109.183 23.3125C107.258 22.3793 104.983 21.9122 102.358 21.9121C99.8501 21.9121 97.429 22.3211 95.0957 23.1377C92.8208 23.9543 90.779 25.2374 88.9707 26.9873C87.2207 28.7373 85.791 30.9544 84.6826 33.6377C83.6327 36.321 83.1084 39.5295 83.1084 43.2627C83.1084 46.9958 83.6041 50.233 84.5957 52.9746C85.6457 55.6579 87.0459 57.875 88.7959 59.625C90.5458 61.3748 92.6164 62.658 95.0078 63.4746C97.3995 64.2913 99.9663 64.7002 102.708 64.7002C105.8 64.7002 108.454 64.4085 110.671 63.8252C112.749 63.2783 114.468 62.603 115.828 61.7998L116.096 61.6377C117.408 60.7627 118.387 59.7851 119.033 58.7051L119.158 58.4873C119.76 57.3935 120.08 56.274 120.117 55.1289L120.12 54.9004ZM102.096 29.2627C104.137 29.2628 105.742 30.0501 106.908 31.625C108.075 33.1416 108.716 34.9213 108.833 36.9629H94.6582C94.7749 36.2629 95.037 35.4746 95.4453 34.5996C95.8536 33.6665 96.3494 32.8207 96.9326 32.0625C97.5743 31.2458 98.333 30.5748 99.208 30.0498C100.083 29.5249 101.046 29.2627 102.096 29.2627ZM124.299 54.8125C124.182 55.7457 124.036 56.5914 123.861 57.3496C123.686 58.1078 123.54 58.779 123.424 59.3623C123.307 59.9456 123.249 60.5004 123.249 61.0254C123.249 63.0085 124.386 64 126.661 64H129.816L129.673 64.2705C128 67.3118 125.659 69.593 123.237 71.29L122.752 71.6221C122.654 71.6873 122.555 71.7511 122.455 71.8135C119.891 73.4159 117.069 74.506 114.281 75.2793L113.725 75.4297C110.234 76.3483 106.497 76.7002 102.708 76.7002C99.0056 76.7002 95.3577 76.1803 91.833 75.0625L91.1299 74.8311C87.2969 73.5222 83.8435 71.4623 80.8936 68.6768L80.3105 68.1104C77.407 65.2068 75.2582 61.7813 73.7197 58.0898L73.4209 57.3477C73.3831 57.2511 73.3458 57.1542 73.3105 57.0566C73.2871 56.9919 73.2662 56.9262 73.2432 56.8613C73.4975 56.4278 73.7442 55.9784 73.9824 55.5127C75.2657 52.9461 76.3162 50.1169 77.1328 47.0254C77.9495 43.8754 78.5614 40.7538 78.9697 37.6621C79.4364 34.5123 79.7281 31.5667 79.8447 28.8252C79.9614 26.0837 79.9032 23.8378 79.6699 22.0879C79.5681 21.2732 79.4345 20.5079 79.2734 19.792C79.6626 19.3519 80.0662 18.9211 80.4854 18.502L80.625 18.3643C83.6062 15.4792 87.0962 13.2588 91.041 11.8428L91.1309 11.8115C94.7572 10.5423 98.5203 9.91211 102.358 9.91211C106.393 9.91216 110.533 10.6312 114.418 12.5146C117.592 14.0538 120.505 16.1705 122.908 18.9639C123.116 19.1945 123.319 19.4282 123.518 19.665C123.616 20.0575 123.731 20.5147 123.861 21.0371C124.036 21.6787 124.182 22.4957 124.299 23.4873C124.415 24.4206 124.474 25.6456 124.474 27.1621V51.3125C124.474 52.6542 124.415 53.8208 124.299 54.8125Z" fill="#121212"></path><path d="M70.9853 0.816406C73.4121 0.857176 76.2571 1.21041 79.0634 2.37598C81.6044 3.36246 84.0069 4.89857 86.0078 7.07715L86.4189 7.54004L86.7724 7.96484C88.5007 10.1032 89.6573 12.4784 90.3769 14.877H90.375C90.9551 16.7543 91.3374 18.6809 91.5771 20.5986H91.5761C91.7461 21.9044 91.8427 23.2787 91.8818 24.6982C90.8523 25.343 89.8817 26.1057 88.9707 26.9873C87.2207 28.7373 85.7909 30.9544 84.6826 33.6377C83.6326 36.321 83.1084 39.5295 83.1084 43.2627C83.1084 46.9958 83.6041 50.233 84.5957 52.9746C85.1456 54.38 85.7922 55.6573 86.5341 56.8066C86.0701 57.9754 85.5691 59.1213 85.0283 60.2422L84.7158 60.8789C84.6992 60.912 84.6828 60.9455 84.666 60.9785C82.9576 64.3176 80.7818 67.418 78.0205 70.0391L77.4599 70.5566C73.591 74.0386 68.7466 75.9999 63.3955 76H58.4072C54.8322 75.9999 51.3843 75.011 48.3759 73.041C45.3547 75.0649 41.9103 75.9999 38.458 76H32.6826C27.9468 76 22.6189 74.512 18.5712 70.0791C18.4492 69.9455 18.3297 69.8089 18.2138 69.6699C15.7424 66.7042 14.1723 63.3091 13.2734 59.8135L13.1611 59.3389C13.0304 58.7289 12.7801 57.6653 12.3789 56.0605C12.1787 55.2597 11.9633 54.4065 11.7334 53.501L10.998 50.626C10.9913 50.6 10.985 50.5739 10.9785 50.5479C10.7378 49.5851 10.5522 48.6072 10.4072 47.6396L10.2753 46.6758C10.2428 46.4156 10.2185 46.1544 10.2031 45.8926C10.1209 44.4951 10.1548 43.061 10.3359 41.6104C9.44279 40.3089 8.68632 38.935 8.06636 37.501L7.80367 36.8691C7.71638 36.6509 7.63483 36.43 7.5605 36.207C7.1677 35.0286 6.8202 33.8288 6.51558 32.6104L6.498 32.5361C6.15445 31.1238 5.85598 30.1065 5.62105 29.4121L5.40816 28.8232L5.34664 28.6631C5.05673 27.89 4.82704 27.3792 4.67476 27.0732L4.54878 26.833C4.2379 26.2803 3.97057 25.8334 3.74605 25.4795L3.53511 25.1562C3.46874 25.0567 3.40413 24.956 3.34078 24.8545L3.15523 24.5469C2.51324 23.4463 1.95095 22.3047 1.47066 21.127L1.26949 20.6201L1.15425 20.3066C0.366656 18.0751 -0.530444 14.2204 0.949175 9.95996C3.88244 1.36863 12.4001 0.8125 14.5703 0.8125V12.8125L14.3359 12.8164C13.1942 12.8574 12.5137 13.2061 12.2949 13.8623C12.0616 14.5039 12.1197 15.3209 12.4697 16.3125C12.7614 17.0708 13.1121 17.8 13.5205 18.5C13.9871 19.2 14.4828 20.0169 15.0078 20.9502C15.5327 21.8835 16.058 23.0503 16.583 24.4502L16.7793 24.9727C17.2386 26.2359 17.6978 27.8118 18.1572 29.7002C18.3905 30.6334 18.6537 31.5372 18.9453 32.4121C19.2953 33.2871 19.7328 34.104 20.2578 34.8623C20.8411 35.6206 21.5989 36.3212 22.5322 36.9629C23.5238 37.5462 24.8078 38.0123 26.3828 38.3623C25.1579 38.6539 24.2246 39.1793 23.583 39.9375C22.9996 40.6375 22.5907 41.4544 22.3574 42.3877C22.1824 43.2626 22.1242 44.1959 22.1826 45.1875C22.2992 46.1208 22.4451 46.9377 22.6201 47.6377C23.1451 49.6793 23.6121 51.5171 24.0205 53.1504C24.4287 54.7835 24.7205 56.0086 24.8955 56.8252C25.4205 58.8667 26.266 60.5874 27.4326 61.9873C28.5811 63.2452 30.1912 63.9137 32.2627 63.9922L32.6826 64H38.458L38.7392 63.9941C40.1338 63.9395 41.3232 63.4746 42.3076 62.5996C43.4157 61.6664 44.3491 60.4126 45.1074 58.8379C45.8657 57.2629 46.449 55.4538 46.8574 53.4121C47.2657 51.3707 47.5288 49.2418 47.6455 47.0254C48.1121 49.0085 48.6364 51.021 49.2197 53.0625C49.803 55.1042 50.5036 56.9419 51.3203 58.5752C52.1952 60.1501 53.1866 61.4627 54.2949 62.5127C55.3888 63.4425 56.6624 63.9361 58.1152 63.9941L58.4072 64H63.3955L63.8183 63.9912C65.7803 63.9051 67.5415 63.2159 69.1015 61.9238L69.4326 61.6377C71.1825 60.0627 72.6991 58.0209 73.9824 55.5127C75.2657 52.9461 76.3161 50.1169 77.1328 47.0254C77.9494 43.8754 78.5613 40.7538 78.9697 37.6621C79.4363 34.5123 79.728 31.5667 79.8447 28.8252C79.9613 26.0837 79.9032 23.8378 79.6699 22.0879C79.4949 20.688 79.2327 19.4335 78.8828 18.3252C78.5328 17.1585 78.0076 16.1663 77.3076 15.3496C76.695 14.6351 75.9261 14.0767 75.0009 13.6748L74.5947 13.5127C73.5447 13.0461 72.1739 12.8125 70.4824 12.8125C68.6742 12.8125 67.2452 13.1919 66.1953 13.9502L66.0126 14.084C65.1206 14.771 64.5107 15.6895 64.1826 16.8379L64.1318 17.0586C63.896 18.1728 63.9424 19.4406 64.2705 20.8623C64.6204 22.3788 65.2325 23.8956 66.1074 25.4121C66.9824 26.9288 67.6238 28.5921 68.0322 30.4004C68.4988 32.1502 68.7905 33.9291 68.9072 35.7373C69.0238 37.4872 68.9952 39.1497 68.8203 40.7246C68.6453 42.2996 68.3822 43.6712 68.0322 44.8379C67.7405 46.121 67.2162 47.1421 66.458 47.9004C65.758 48.6587 64.941 49.0371 64.0078 49.0371C63.2494 49.0371 62.4907 48.7169 61.7324 48.0752C61.12 47.5138 60.5969 46.6397 60.163 45.4531L59.9824 44.9248C59.6907 43.9915 59.2827 42.737 58.7578 41.1621C58.2912 39.5873 57.7954 37.9541 57.2705 36.2627C56.7455 34.5128 56.2488 32.8503 55.7822 31.2754C55.3739 29.7005 55.024 28.446 54.7324 27.5127C53.9741 25.0628 53.1285 23.3127 52.1953 22.2627C51.3203 21.1544 49.8619 20.5996 47.8203 20.5996C46.0703 20.5996 44.5824 21.0962 43.3574 22.0879C42.1326 23.0796 41.4614 24.8585 41.3447 27.4248V30.9248C41.3447 32.3831 41.3161 33.9292 41.2578 35.5625V43.7002C41.3161 44.9251 41.053 45.8584 40.4697 46.5C39.8865 47.1415 39.2743 47.4628 38.6328 47.4629C38.0494 47.4629 37.4947 47.2579 36.9697 46.8496C36.5033 46.4413 36.1827 45.7707 36.0078 44.8379L31.6328 27.5996C31.1662 25.7333 30.9908 24.1878 31.1074 22.9629C31.2824 21.7381 31.516 20.717 31.8076 19.9004C32.1575 19.0255 32.4788 18.2962 32.7705 17.7129C33.1205 17.0712 33.2663 16.4288 33.208 15.7871C33.0985 14.748 32.7067 14.0165 32.0332 13.5928L31.8955 13.5127C31.232 13.1044 30.3226 12.8743 29.1679 12.8232L28.6572 12.8125V0.8125C31.0621 0.8125 34.5823 1.16046 37.9541 3.15527C40.6518 4.70686 42.423 6.83977 43.541 9.05371C44.9558 8.74513 46.3918 8.59961 47.8203 8.59961L48.5908 8.61426C50.3103 8.67594 52.2848 8.95386 54.2783 9.64355C55.4825 7.52989 57.1431 5.65619 59.2509 4.16309C62.9923 1.49442 67.1477 0.812534 70.4824 0.8125L70.9853 0.816406ZM28.6572 0.8125V12.8125H14.5703V0.8125H28.6572Z" fill="#121212"></path><path d="M307.119 22.6125C310.036 22.6125 312.194 23.5167 313.594 25.325C314.994 27.075 315.694 29.8459 315.694 33.6376C315.694 35.5625 315.548 37.6626 315.256 39.9376C314.965 42.1542 314.498 44.4001 313.856 46.6751C313.215 48.8917 312.398 51.05 311.406 53.15C310.415 55.25 309.219 57.1167 307.819 58.7501C306.477 60.3251 304.902 61.6084 303.094 62.6001C301.344 63.5334 299.361 64.0001 297.144 64.0001H292.506C290.115 64.0001 288.336 63.3292 287.169 61.9875C286.061 60.5875 285.127 58.7209 284.369 56.3876C283.027 58.8376 281.569 60.7334 279.994 62.0751C278.419 63.3584 276.319 64.0001 273.694 64.0001H268.969C267.569 64.0001 266.373 63.7959 265.381 63.3876C264.39 62.9209 263.544 62.3376 262.844 61.6376C262.144 60.8792 261.59 60.0042 261.181 59.0126C260.773 57.9626 260.423 56.8834 260.131 55.7751C260.015 55.2501 259.84 54.5792 259.606 53.7626C259.431 52.8876 259.198 51.9251 258.906 50.8751C258.673 49.8251 258.381 48.7167 258.031 47.5501C257.74 46.3834 257.448 45.2167 257.156 44.0501C256.515 41.3084 255.786 38.3626 254.969 35.2125C254.619 33.8709 254.24 32.7334 253.831 31.8C253.423 30.8667 253.015 30.0501 252.606 29.35C252.198 28.6501 251.819 28.0375 251.469 27.5125C251.119 26.9292 250.856 26.3751 250.681 25.85C250.39 24.9167 250.419 24.1584 250.769 23.5751C251.119 22.9334 251.877 22.6125 253.044 22.6125H264.681C265.906 22.6125 266.898 22.875 267.656 23.4C268.473 23.8667 268.94 24.5959 269.056 25.5876C269.056 26.2292 268.94 26.8417 268.706 27.4251C268.473 28.0084 268.211 28.6501 267.919 29.35C267.686 30.0501 267.511 30.8667 267.394 31.8C267.277 32.7334 267.394 33.8709 267.744 35.2125L271.769 51.3126C272.061 52.5959 272.586 53.5584 273.344 54.2001C274.102 54.8417 274.89 55.1626 275.706 55.1626C276.756 55.1626 277.719 54.6959 278.594 53.7626C279.469 52.8292 279.994 51.4292 280.169 49.5626C280.227 48.4542 280.14 47.1709 279.906 45.7125C279.731 44.1959 279.469 42.6209 279.119 40.9876C278.827 39.3542 278.477 37.7209 278.069 36.0875C277.661 34.4542 277.281 32.9376 276.931 31.5375C276.115 28.3876 276.173 26.1126 277.106 24.7125C278.04 23.3125 279.761 22.6125 282.269 22.6125C284.777 22.6125 286.498 23.1959 287.431 24.3626C288.423 25.5292 289.152 26.9584 289.619 28.6501C289.911 29.7584 290.348 31.5667 290.931 34.0751C291.573 36.5251 292.215 39.0334 292.856 41.6C293.615 44.6334 294.431 47.8709 295.306 51.3126C295.598 52.5959 296.123 53.5584 296.881 54.2001C297.64 54.8417 298.427 55.1626 299.244 55.1626C300.236 55.1626 301.169 54.6959 302.044 53.7626C302.919 52.8292 303.444 51.4292 303.619 49.5626C303.911 44.9542 303.094 39.9376 301.169 34.5126C299.944 31.1292 299.827 28.3 300.819 26.025C301.869 23.75 303.969 22.6125 307.119 22.6125Z" fill="#121212"></path><path d="M229.886 21.825C232.861 21.825 235.574 22.2625 238.024 23.1375C240.474 23.9541 242.574 25.2375 244.324 26.9875C246.074 28.7375 247.416 30.9541 248.349 33.6375C249.341 36.3208 249.836 39.5291 249.836 43.2624C249.836 46.9958 249.341 50.2333 248.349 52.975C247.416 55.6583 246.074 57.875 244.324 59.625C242.574 61.375 240.474 62.6583 238.024 63.475C235.574 64.2916 232.861 64.7 229.886 64.7C226.911 64.7 224.199 64.2916 221.749 63.475C219.357 62.6583 217.286 61.375 215.536 59.625C213.786 57.875 212.416 55.6583 211.424 52.975C210.491 50.2333 210.024 46.9958 210.024 43.2624C210.024 39.5291 210.491 36.3208 211.424 33.6375C212.416 30.9541 213.786 28.7375 215.536 26.9875C217.286 25.2375 219.357 23.9541 221.749 23.1375C224.199 22.2625 226.911 21.825 229.886 21.825ZM229.886 57.2625C231.286 57.2625 232.511 56.8833 233.561 56.125C234.611 55.3666 235.486 54.3458 236.186 53.0625C236.945 51.7208 237.499 50.2041 237.849 48.5125C238.257 46.8208 238.461 45.0708 238.461 43.2624C238.461 41.4541 238.257 39.7041 237.849 38.0124C237.499 36.3208 236.945 34.8333 236.186 33.5499C235.486 32.2666 234.611 31.2458 233.561 30.4875C232.511 29.6708 231.286 29.2625 229.886 29.2625C228.486 29.2625 227.261 29.6708 226.211 30.4875C225.161 31.2458 224.286 32.2666 223.586 33.5499C222.886 34.8333 222.332 36.3208 221.924 38.0124C221.574 39.7041 221.399 41.4541 221.399 43.2624C221.399 45.0708 221.574 46.8208 221.924 48.5125C222.332 50.2041 222.886 51.7208 223.586 53.0625C224.286 54.3458 225.161 55.3666 226.211 56.125C227.261 56.8833 228.486 57.2625 229.886 57.2625Z" fill="#121212"></path><path d="M205.551 51.3125C205.551 52.6542 205.61 53.8208 205.726 54.8125C205.843 55.7458 205.989 56.5917 206.164 57.35C206.339 58.1083 206.485 58.7792 206.601 59.3625C206.718 59.9458 206.776 60.5 206.776 61.025C206.776 63.0083 205.639 64 203.364 64H195.314C194.264 64 193.418 63.7375 192.776 63.2125C192.193 62.6875 191.901 61.9583 191.901 61.025C191.901 60.5 191.96 59.9458 192.076 59.3625C192.251 58.7792 192.397 58.1083 192.514 57.35C192.689 56.5917 192.835 55.7458 192.951 54.8125C193.126 53.8208 193.214 52.6542 193.214 51.3125V33.9H184.114V51.3125C184.114 52.6542 184.172 53.8208 184.289 54.8125C184.464 55.7458 184.61 56.5917 184.726 57.35C184.901 58.1083 185.047 58.7792 185.164 59.3625C185.339 59.9458 185.426 60.5 185.426 61.025C185.426 61.9583 185.105 62.6875 184.464 63.2125C183.88 63.7375 183.064 64 182.014 64H173.964C171.689 64 170.551 63.0083 170.551 61.025C170.551 60.5 170.61 59.9458 170.726 59.3625C170.843 58.7792 170.989 58.1083 171.164 57.35C171.339 56.5917 171.485 55.7458 171.601 54.8125C171.718 53.8208 171.776 52.6542 171.776 51.3125V33.9H169.676C168.86 33.9 168.247 33.6667 167.839 33.2C167.489 32.7333 167.314 32.1792 167.314 31.5375C167.314 30.8375 167.518 30.2542 167.926 29.7875C168.335 29.2625 169.005 29 169.939 29H175.014C174.547 28.7083 173.964 28.3583 173.264 27.95C172.564 27.5417 171.864 27.0167 171.164 26.375C170.522 25.7333 169.939 24.975 169.414 24.1C168.947 23.225 168.714 22.175 168.714 20.95C168.714 18.325 169.939 16.3125 172.389 14.9125C174.839 13.5125 178.076 12.8125 182.101 12.8125C184.435 12.8125 186.535 13.075 188.401 13.6C190.326 14.125 191.843 14.9417 192.951 16.05C193.36 15.5833 193.972 15.1458 194.789 14.7375C195.605 14.3292 196.451 13.9792 197.326 13.6875C198.26 13.3958 199.193 13.1917 200.126 13.075C201.06 12.9 201.818 12.8125 202.401 12.8125C203.626 12.8125 204.443 13.1333 204.851 13.775C205.318 14.4167 205.551 15.4375 205.551 16.8375V51.3125ZM193.214 29C193.155 28.3 193.097 27.425 193.039 26.375C193.039 25.325 193.01 24.5667 192.951 24.1C191.551 24.975 190.093 25.4125 188.576 25.4125C187.468 25.4125 186.535 25.15 185.776 24.625C185.076 24.1 184.726 23.3125 184.726 22.2625C184.726 21.0375 184.435 19.9875 183.851 19.1125C183.326 18.1792 182.48 17.7125 181.314 17.7125C180.03 17.7125 179.155 18.2958 178.689 19.4625C178.222 20.6292 178.164 21.9417 178.514 23.4C178.922 24.8 179.739 26.0833 180.964 27.25C182.247 28.4167 183.939 29 186.039 29H193.214Z" fill="#121212"></path><path d="M148.536 22.6125C150.811 22.6125 152.911 23.0208 154.836 23.8375C156.761 24.6542 158.424 25.9083 159.824 27.6C161.282 29.2333 162.39 31.3625 163.149 33.9875C163.965 36.5542 164.374 39.6458 164.374 43.2625C164.374 46.8792 163.965 50 163.149 52.625C162.39 55.1917 161.282 57.3208 159.824 59.0125C158.424 60.7042 156.761 61.9583 154.836 62.775C152.911 63.5917 150.811 64 148.536 64C146.319 64 144.249 63.5625 142.324 62.6875C140.457 61.7542 138.911 60.4125 137.686 58.6625C137.803 59.1292 137.89 59.5667 137.949 59.975C138.065 60.325 138.124 60.675 138.124 61.025C138.124 61.9583 137.803 62.6875 137.161 63.2125C136.578 63.7375 135.761 64 134.711 64H126.661C124.386 64 123.249 63.0083 123.249 61.025C123.249 60.5 123.307 59.9458 123.424 59.3625C123.54 58.7792 123.686 58.1083 123.861 57.35C124.036 56.5917 124.182 55.7458 124.299 54.8125C124.415 53.8208 124.474 52.6542 124.474 51.3125V27.1625C124.474 25.6458 124.415 24.4208 124.299 23.4875C124.182 22.4958 124.036 21.6792 123.861 21.0375C123.686 20.3375 123.54 19.7542 123.424 19.2875C123.307 18.8208 123.249 18.325 123.249 17.8C123.249 16.9833 123.482 16.3708 123.949 15.9625C124.415 15.4958 125.057 15.1167 125.874 14.825C126.749 14.475 127.886 14.0667 129.286 13.6C130.744 13.075 132.203 12.8125 133.661 12.8125C134.944 12.8125 135.79 13.1333 136.199 13.775C136.607 14.4167 136.811 15.4375 136.811 16.8375V29.2625C137.978 27.0458 139.611 25.3833 141.711 24.275C143.811 23.1667 146.086 22.6125 148.536 22.6125ZM152.999 43.35C152.999 41.6 152.824 39.9375 152.474 38.3625C152.124 36.7292 151.599 35.3 150.899 34.075C150.257 32.7917 149.44 31.8 148.449 31.1C147.457 30.3417 146.319 29.9625 145.036 29.9625C143.753 29.9625 142.615 30.3417 141.624 31.1C140.69 31.8 139.903 32.7917 139.261 34.075C138.619 35.3 138.124 36.7292 137.774 38.3625C137.482 39.9375 137.336 41.6 137.336 43.35C137.336 45.1 137.482 46.7917 137.774 48.425C138.124 50 138.619 51.4 139.261 52.625C139.903 53.85 140.69 54.8417 141.624 55.6C142.615 56.3 143.753 56.65 145.036 56.65C146.319 56.65 147.457 56.3 148.449 55.6C149.44 54.8417 150.257 53.85 150.899 52.625C151.599 51.4 152.124 50 152.474 48.425C152.824 46.7917 152.999 45.1 152.999 43.35Z" fill="#121212"></path><path d="M115.045 48.7751C115.979 48.7751 116.766 48.9793 117.408 49.3876C118.05 49.7376 118.575 50.2043 118.983 50.7876C119.391 51.3709 119.683 52.0418 119.858 52.8001C120.033 53.5001 120.12 54.2001 120.12 54.9001C120.12 56.1251 119.8 57.3209 119.158 58.4876C118.516 59.6543 117.495 60.7043 116.095 61.6376C114.695 62.5126 112.887 63.2418 110.67 63.8251C108.454 64.4084 105.8 64.7001 102.708 64.7001C99.9662 64.7001 97.3996 64.2918 95.0079 63.4751C92.6163 62.6584 90.5454 61.3751 88.7954 59.6251C87.0454 57.8751 85.6454 55.6584 84.5954 52.9751C83.6037 50.2334 83.1079 46.9959 83.1079 43.2626C83.1079 39.5293 83.6329 36.3209 84.6829 33.6376C85.7912 30.9543 87.2204 28.7376 88.9704 26.9876C90.7787 25.2376 92.8204 23.9543 95.0954 23.1376C97.4287 22.3209 99.8496 21.9126 102.358 21.9126C104.983 21.9126 107.258 22.3793 109.183 23.3126C111.108 24.2459 112.683 25.4418 113.908 26.9001C115.191 28.3001 116.154 29.9043 116.795 31.7126C117.437 33.4626 117.758 35.2126 117.758 36.9626C117.758 38.2459 117.379 39.3251 116.62 40.2001C115.862 41.0751 114.55 41.5126 112.683 41.5126H94.2204C94.2787 45.3043 95.0662 48.3959 96.5829 50.7876C98.0996 53.1793 100.375 54.3751 103.408 54.3751C104.75 54.3751 105.858 54.0834 106.733 53.5001C107.608 52.9168 108.454 52.2751 109.27 51.5751C110.087 50.8751 110.933 50.2334 111.808 49.6501C112.683 49.0668 113.762 48.7751 115.045 48.7751ZM102.095 29.2626C101.045 29.2626 100.083 29.5251 99.2079 30.0501C98.3329 30.5751 97.5746 31.2459 96.9329 32.0626C96.3496 32.8209 95.8538 33.6668 95.4454 34.6001C95.0371 35.4751 94.7746 36.2626 94.6579 36.9626H108.833C108.716 34.9209 108.075 33.1418 106.908 31.6251C105.741 30.0501 104.137 29.2626 102.095 29.2626Z" fill="#121212"></path><path d="M28.6578 12.8125C30.0578 12.8125 31.1369 13.0458 31.8953 13.5125C32.6536 13.9208 33.0911 14.6792 33.2078 15.7875C33.2661 16.4292 33.1203 17.0708 32.7703 17.7125C32.4786 18.2958 32.1578 19.025 31.8078 19.9C31.5161 20.7167 31.2828 21.7375 31.1078 22.9625C30.9911 24.1875 31.1661 25.7333 31.6328 27.6L36.0078 44.8375C36.1828 45.7708 36.5036 46.4417 36.9703 46.85C37.4953 47.2583 38.0494 47.4625 38.6328 47.4625C39.2744 47.4625 39.8869 47.1417 40.4703 46.5C41.0536 45.8583 41.3161 44.925 41.2578 43.7C41.2578 42.825 41.2578 41.6583 41.2578 40.2C41.2578 38.6833 41.2578 37.1375 41.2578 35.5625C41.3161 33.9292 41.3453 32.3833 41.3453 30.925C41.3453 29.4667 41.3453 28.3 41.3453 27.425C41.4619 24.8583 42.1328 23.0792 43.3578 22.0875C44.5828 21.0958 46.0703 20.6 47.8203 20.6C49.8619 20.6 51.3203 21.1542 52.1953 22.2625C53.1286 23.3125 53.9744 25.0625 54.7328 27.5125C55.0244 28.4458 55.3744 29.7 55.7828 31.275C56.2494 32.85 56.7453 34.5125 57.2703 36.2625C57.7953 37.9542 58.2911 39.5875 58.7578 41.1625C59.2828 42.7375 59.6911 43.9917 59.9828 44.925C60.4494 46.3833 61.0328 47.4333 61.7328 48.075C62.4911 48.7167 63.2494 49.0375 64.0078 49.0375C64.9411 49.0375 65.7578 48.6583 66.4578 47.9C67.2161 47.1417 67.7411 46.1208 68.0328 44.8375C68.3828 43.6708 68.6453 42.3 68.8203 40.725C68.9953 39.15 69.0244 37.4875 68.9078 35.7375C68.7911 33.9292 68.4994 32.15 68.0328 30.4C67.6244 28.5917 66.9828 26.9292 66.1078 25.4125C65.2328 23.8958 64.6203 22.3792 64.2703 20.8625C63.9203 19.3458 63.8911 18.0042 64.1828 16.8375C64.5328 15.6125 65.2036 14.65 66.1953 13.95C67.2453 13.1917 68.6744 12.8125 70.4828 12.8125C72.1744 12.8125 73.5453 13.0458 74.5953 13.5125C75.7036 13.9208 76.6078 14.5333 77.3078 15.35C78.0078 16.1667 78.5328 17.1583 78.8828 18.325C79.2328 19.4333 79.4953 20.6875 79.6703 22.0875C79.9036 23.8375 79.9619 26.0833 79.8453 28.825C79.7286 31.5667 79.4369 34.5125 78.9703 37.6625C78.5619 40.7542 77.9494 43.875 77.1328 47.025C76.3161 50.1167 75.2661 52.9458 73.9828 55.5125C72.6994 58.0208 71.1828 60.0625 69.4328 61.6375C67.6828 63.2125 65.6703 64 63.3953 64H58.4078C56.8328 64 55.4619 63.5042 54.2953 62.5125C53.1869 61.4625 52.1953 60.15 51.3203 58.575C50.5036 56.9417 49.8036 55.1042 49.2203 53.0625C48.6369 51.0208 48.1119 49.0083 47.6453 47.025C47.5286 49.2417 47.2661 51.3708 46.8578 53.4125C46.4494 55.4542 45.8661 57.2625 45.1078 58.8375C44.3494 60.4125 43.4161 61.6667 42.3078 62.6C41.2578 63.5333 39.9744 64 38.4578 64H32.6828C30.4078 64 28.6578 63.3292 27.4328 61.9875C26.2661 60.5875 25.4203 58.8667 24.8953 56.825C24.7203 56.0083 24.4286 54.7833 24.0203 53.15C23.6119 51.5167 23.1453 49.6792 22.6203 47.6375C22.4453 46.9375 22.2994 46.1208 22.1828 45.1875C22.1244 44.1958 22.1828 43.2625 22.3578 42.3875C22.5911 41.4542 22.9994 40.6375 23.5828 39.9375C24.2244 39.1792 25.1578 38.6542 26.3828 38.3625C24.8078 38.0125 23.5244 37.5458 22.5328 36.9625C21.5994 36.3208 20.8411 35.6208 20.2578 34.8625C19.7328 34.1042 19.2953 33.2875 18.9453 32.4125C18.6536 31.5375 18.3911 30.6333 18.1578 29.7C17.6328 27.5417 17.1078 25.7917 16.5828 24.45C16.0578 23.05 15.5328 21.8833 15.0078 20.95C14.4828 20.0167 13.9869 19.2 13.5203 18.5C13.1119 17.8 12.7619 17.0708 12.4703 16.3125C12.1203 15.3208 12.0619 14.5042 12.2953 13.8625C12.5286 13.1625 13.2869 12.8125 14.5703 12.8125H28.6578Z" fill="#121212"></path><path d="M315.694 33.6377C315.694 29.8461 314.994 27.0752 313.594 25.3252C312.281 23.63 310.303 22.7291 307.657 22.623L307.119 22.6123C303.969 22.6123 301.869 23.7504 300.819 26.0254L300.646 26.458C299.846 28.6557 300.021 31.3409 301.169 34.5127C303.094 39.9376 303.911 44.9542 303.619 49.5625C303.444 51.4292 302.919 52.8294 302.044 53.7627C301.169 54.6959 300.236 55.162 299.244 55.1621C298.428 55.1621 297.64 54.8417 296.882 54.2002C296.218 53.6387 295.733 52.8312 295.427 51.7783L295.307 51.3125C294.869 49.5916 294.446 47.9216 294.038 46.3027L292.856 41.5996C292.215 39.0332 291.573 36.525 290.932 34.0752C290.348 31.5672 289.911 29.7588 289.619 28.6504C289.152 26.9587 288.423 25.529 287.432 24.3623C286.557 23.2686 284.989 22.6876 282.73 22.6191L282.269 22.6123C279.76 22.6124 278.04 23.313 277.106 24.7129C276.173 26.1129 276.115 28.3875 276.932 31.5371L278.069 36.0879C278.478 37.721 278.828 39.3542 279.119 40.9873C279.469 42.6206 279.731 44.1962 279.906 45.7129C280.14 47.1711 280.227 48.4543 280.169 49.5625C279.994 51.4292 279.469 52.8294 278.594 53.7627C277.719 54.6959 276.756 55.1621 275.706 55.1621C274.89 55.162 274.102 54.8418 273.344 54.2002C272.68 53.6387 272.196 52.8312 271.89 51.7783L271.769 51.3125L267.744 35.2129C267.394 33.8712 267.277 32.7331 267.394 31.7998C267.51 30.8665 267.686 30.0496 267.919 29.3496C268.211 28.6497 268.473 28.008 268.706 27.4248C268.939 26.8416 269.057 26.2294 269.057 25.5879C268.94 24.5962 268.473 23.8671 267.656 23.4004C266.993 22.941 266.151 22.6824 265.13 22.625L264.682 22.6123V12.6123C267.176 12.6123 270.189 13.126 272.989 14.9385C273.022 14.9587 273.054 14.9796 273.087 15C276.137 13.1233 279.566 12.6123 282.269 12.6123C285.639 12.6123 290.919 13.2919 294.704 17.4893C295.767 16.3904 297.007 15.4375 298.419 14.6729C301.324 13.0995 304.393 12.6123 307.119 12.6123C312.152 12.6124 317.604 14.2674 321.4 19.0781H321.402C321.419 19.099 321.435 19.1207 321.451 19.1416C321.467 19.1624 321.485 19.1822 321.501 19.2031H321.499C324.925 23.5701 325.694 29.0503 325.694 33.6377C325.694 35.7565 325.554 37.959 325.294 40.2314L325.175 41.209C325.173 41.22 325.172 41.2312 325.171 41.2422C324.858 43.6216 324.385 45.9994 323.759 48.373L323.48 49.3896C323.474 49.4116 323.468 49.4341 323.462 49.4561C322.77 51.8453 321.914 54.1777 320.896 56.4502L320.449 57.4199C319.111 60.254 317.447 62.8767 315.431 65.2334L315.432 65.2344C313.437 67.5755 311.094 69.5309 308.438 71.0664L307.902 71.3682C307.868 71.3868 307.834 71.4056 307.8 71.4238C304.438 73.2169 300.805 74 297.144 74H292.507C289.62 74 286.383 73.4229 283.455 71.7217C280.327 73.3864 276.924 73.9999 273.694 74H268.969C266.788 74 264.4 73.7064 262.045 72.8193L261.574 72.6348C261.422 72.5723 261.272 72.5054 261.123 72.4355C259.318 71.5862 257.601 70.4592 256.075 69.0039L255.772 68.709C255.678 68.6147 255.586 68.5178 255.496 68.4199C254.056 66.8602 252.926 65.0999 252.097 63.2012L251.935 62.8203C251.91 62.7595 251.885 62.698 251.861 62.6367C251.382 61.404 250.965 60.1475 250.609 58.8691L250.461 58.3203C250.428 58.1957 250.397 58.0701 250.369 57.9443C250.341 57.8176 250.298 57.6392 250.236 57.4023L249.991 56.5098C249.917 56.2504 249.854 55.9881 249.801 55.7236C249.712 55.2818 249.594 54.7663 249.438 54.1719L249.271 53.5518C249.225 53.3838 249.182 53.2141 249.145 53.0439C249.044 52.5937 248.925 52.1152 248.788 51.6064C248.96 51.0076 249.112 50.3882 249.241 49.7471L258.031 47.5498C258.381 48.7165 258.673 49.825 258.906 50.875C259.198 51.925 259.431 52.8877 259.606 53.7627C259.84 54.5793 260.015 55.2504 260.132 55.7754C260.423 56.8836 260.773 57.9628 261.182 59.0127C261.59 60.0043 262.144 60.8794 262.844 61.6377C263.544 62.3377 264.39 62.921 265.382 63.3877C266.249 63.7448 267.273 63.9456 268.453 63.9902L268.969 64H273.694C276.319 63.9999 278.419 63.3585 279.994 62.0752C281.569 60.7335 283.027 58.8376 284.369 56.3877C285.127 58.7209 286.061 60.5874 287.169 61.9873C288.263 63.2452 289.895 63.9136 292.065 63.9922L292.507 64H297.144C299.36 64 301.344 63.5329 303.094 62.5996C304.902 61.6079 306.478 60.325 307.819 58.75C309.219 57.1168 310.415 55.2501 311.406 53.1504C312.274 51.313 313.008 49.4306 313.607 47.5039L313.856 46.6748C314.418 44.6844 314.845 42.7163 315.139 40.7705L315.257 39.9375C315.512 37.9467 315.656 36.0899 315.688 34.3672L315.694 33.6377ZM253.044 22.6123L252.83 22.6162C251.784 22.6538 251.097 22.9736 250.769 23.5752C250.419 24.1584 250.39 24.9166 250.682 25.8496C250.857 26.3746 251.119 26.9294 251.469 27.5127C251.819 28.0376 252.198 28.6498 252.606 29.3496C253.015 30.0495 253.423 30.8666 253.831 31.7998C254.239 32.7331 254.619 33.8712 254.969 35.2129C255.785 38.3627 256.515 41.3083 257.156 44.0498L258.031 47.5498L249.241 49.7471C249.637 47.7836 249.837 45.6223 249.837 43.2627C249.837 39.5294 249.34 36.321 248.349 33.6377C247.415 30.9544 246.074 28.7373 244.324 26.9873C243.193 25.8564 241.915 24.9218 240.492 24.1807C240.554 22.4948 240.958 20.6448 241.98 18.7998L242.194 18.4297C245.228 13.2744 250.607 12.6123 253.044 12.6123V22.6123ZM264.682 12.6123V22.6123H253.044V12.6123H264.682Z" fill="#FFFEFB"></path><path d="M249.837 43.2627C249.837 39.5294 249.34 36.321 248.349 33.6377C247.474 31.1222 246.24 29.0166 244.647 27.3213L244.324 26.9873C242.574 25.2374 240.474 23.9544 238.024 23.1377C235.574 22.2627 232.862 21.8252 229.887 21.8252C226.912 21.8252 224.199 22.2627 221.749 23.1377C219.357 23.9544 217.286 25.2373 215.536 26.9873L215.213 27.3213C213.617 29.0166 212.354 31.1221 211.424 33.6377L211.255 34.1465C210.434 36.7237 210.024 39.7625 210.024 43.2627L210.029 43.957C210.084 47.3986 210.549 50.4045 211.424 52.9746C212.415 55.6579 213.786 57.875 215.536 59.625C217.286 61.375 219.357 62.6579 221.749 63.4746C224.199 64.2913 226.912 64.7002 229.887 64.7002C232.862 64.7002 235.574 64.2913 238.024 63.4746C240.321 62.7089 242.311 61.5333 243.992 59.9473L244.324 59.625C246.074 57.875 247.415 55.6579 248.349 52.9746C249.278 50.4044 249.773 47.3987 249.831 43.957L249.837 43.2627ZM221.399 43.2627C221.399 41.4544 221.574 39.7043 221.924 38.0127C222.281 36.5325 222.75 35.2086 223.331 34.041L223.587 33.5498C224.287 32.2666 225.162 31.2456 226.212 30.4873C227.262 29.6708 228.487 29.2627 229.887 29.2627C231.287 29.2627 232.512 29.6707 233.562 30.4873C234.611 31.2456 235.487 32.2665 236.187 33.5498L236.461 34.041C237.08 35.2086 237.542 36.5325 237.849 38.0127C238.257 39.7043 238.462 41.4544 238.462 43.2627L238.452 43.9375C238.408 45.5072 238.206 47.0324 237.849 48.5127L237.708 49.1387C237.357 50.5806 236.85 51.8886 236.187 53.0625C235.487 54.3458 234.612 55.3667 233.562 56.125C232.512 56.8833 231.287 57.2627 229.887 57.2627C228.487 57.2627 227.262 56.8832 226.212 56.125C225.293 55.4615 224.508 54.5968 223.857 53.5312L223.587 53.0625C222.887 51.7209 222.332 50.2043 221.924 48.5127C221.618 47.0324 221.445 45.5072 221.407 43.9375L221.399 43.2627ZM257.156 44.0498L258.031 47.5498C258.381 48.7165 258.673 49.825 258.906 50.875C258.968 51.0969 259.026 51.3152 259.082 51.5293C258.765 53.1474 258.34 54.7273 257.793 56.2588L257.794 56.2598C257.789 56.2731 257.784 56.2865 257.779 56.2998C257.77 56.3251 257.762 56.3507 257.753 56.376L257.752 56.375C256.481 59.9841 254.588 63.3135 251.94 66.1328L251.396 66.6963C248.681 69.4112 245.473 71.4121 241.904 72.7109L241.187 72.9619C237.575 74.1657 233.776 74.7002 229.887 74.7002C226.24 74.7002 222.673 74.2304 219.266 73.1797L218.587 72.9619C218.564 72.9542 218.541 72.9463 218.518 72.9385C214.95 71.7202 211.745 69.8082 209.007 67.2227L208.466 66.6963C207.445 65.6752 206.527 64.5799 205.702 63.4258C206.418 62.9374 206.776 62.1377 206.776 61.0254C206.776 60.5004 206.718 59.9456 206.602 59.3623C206.485 58.779 206.339 58.1079 206.164 57.3496C205.989 56.5914 205.843 55.7457 205.727 54.8125C205.61 53.8208 205.551 52.6542 205.551 51.3125V23.3975C206.413 22.1651 207.382 20.9994 208.466 19.916C211.286 17.0956 214.634 15.0232 218.386 13.7207V13.7197C222.058 12.4082 225.928 11.8252 229.887 11.8252C233.773 11.8252 237.573 12.3889 241.186 13.6504H241.187C241.202 13.6554 241.216 13.661 241.231 13.666C241.283 13.6842 241.336 13.7012 241.388 13.7197H241.387C245.163 15.0103 248.55 17.0705 251.396 19.916C252.246 20.7663 253.021 21.6684 253.729 22.6123H253.044C251.877 22.6123 251.119 22.9335 250.769 23.5752C250.419 24.1584 250.39 24.9166 250.682 25.8496C250.857 26.3746 251.119 26.9294 251.469 27.5127C251.819 28.0376 252.198 28.6498 252.606 29.3496C253.015 30.0495 253.423 30.8666 253.831 31.7998C254.239 32.7331 254.619 33.8712 254.969 35.2129C255.785 38.3627 256.515 41.3083 257.156 44.0498Z" fill="#FFFEFB"></path><path d="M205.551 16.8379C205.551 15.4382 205.318 14.4171 204.852 13.7754C204.443 13.1337 203.626 12.8125 202.401 12.8125C201.818 12.8125 201.059 12.9002 200.126 13.0752C199.193 13.1919 198.259 13.3959 197.326 13.6875C196.451 13.9791 195.606 14.3291 194.789 14.7373C193.972 15.1456 193.36 15.5832 192.951 16.0498C191.843 14.9415 190.326 14.1246 188.401 13.5996C186.535 13.0746 184.435 12.8125 182.102 12.8125C178.077 12.8125 174.839 13.5122 172.389 14.9121C169.939 16.3121 168.714 18.3252 168.714 20.9502C168.714 22.175 168.947 23.2247 169.414 24.0996C169.939 24.9746 170.522 25.7333 171.164 26.375C171.864 27.0166 172.564 27.5419 173.264 27.9502C173.964 28.3585 174.547 28.7083 175.014 29H169.938C169.005 29 168.334 29.2622 167.926 29.7871C167.518 30.2537 167.314 30.8373 167.313 31.5371C167.313 32.1788 167.489 32.7335 167.839 33.2002C168.247 33.6667 168.859 33.9003 169.676 33.9004H171.776V51.3125L171.766 52.2861C171.744 53.2267 171.689 54.0688 171.602 54.8125C171.485 55.7457 171.339 56.5914 171.164 57.3496L170.923 58.4219C170.85 58.7572 170.785 59.0707 170.727 59.3623C170.61 59.9456 170.551 60.5004 170.551 61.0254C170.551 62.8846 171.551 63.8722 173.551 63.9883L173.964 64H182.014L182.396 63.9873C183.264 63.9299 183.953 63.6722 184.464 63.2129C185.105 62.688 185.426 61.9585 185.426 61.0254C185.426 60.5004 185.339 59.9456 185.164 59.3623C185.047 58.779 184.902 58.1079 184.727 57.3496C184.61 56.5914 184.464 55.7457 184.289 54.8125C184.202 54.0688 184.147 53.2267 184.125 52.2861L184.113 51.3125V33.9004H193.214V51.3125L193.21 51.8076C193.191 52.9432 193.104 53.9448 192.951 54.8125C192.835 55.7457 192.689 56.5914 192.514 57.3496C192.397 58.1079 192.251 58.779 192.076 59.3623C191.96 59.9456 191.901 60.5004 191.901 61.0254C191.901 61.9585 192.193 62.688 192.776 63.2129C193.338 63.6721 194.056 63.9299 194.93 63.9873L195.313 64H203.363L203.777 63.9883C205.643 63.8797 206.638 63.0119 206.763 61.3848L206.776 61.0254C206.776 60.6318 206.743 60.2214 206.678 59.7949L206.602 59.3623C206.543 59.0707 206.477 58.7572 206.404 58.4219L206.164 57.3496C205.989 56.5914 205.843 55.7457 205.727 54.8125C205.639 54.0688 205.584 53.2267 205.562 52.2861L205.551 51.3125V16.8379ZM181.313 17.7129C182.48 17.7129 183.327 18.179 183.852 19.1123C184.435 19.9873 184.727 21.0377 184.727 22.2627C184.727 23.3126 185.076 24.1 185.776 24.625C186.535 25.1499 187.468 25.4121 188.576 25.4121C190.093 25.4121 191.551 24.9746 192.951 24.0996C193.01 24.5663 193.039 25.325 193.039 26.375C193.097 27.425 193.156 28.3 193.214 29H186.039C183.939 29 182.247 28.4166 180.964 27.25C179.739 26.0834 178.922 24.8003 178.514 23.4004C178.164 21.9422 178.222 20.6295 178.688 19.4629C179.155 18.2963 180.03 17.713 181.313 17.7129ZM215.551 26.9727C215.546 26.9775 215.541 26.9824 215.536 26.9873C213.786 28.7373 212.415 30.9544 211.424 33.6377C210.491 36.321 210.024 39.5295 210.024 43.2627C210.024 46.9958 210.491 50.2331 211.424 52.9746C212.415 55.6579 213.786 57.875 215.536 59.625C215.931 60.02 216.344 60.3899 216.771 60.7373C216.773 60.8329 216.776 60.9292 216.776 61.0254C216.776 63.9427 215.876 67.846 212.494 70.7939C209.375 73.5134 205.731 74 203.363 74H195.313C193.262 74 190.9 73.6003 188.639 72.4082C186.342 73.6346 183.958 74 182.014 74H173.964C171.596 74 167.952 73.5135 164.833 70.7939C161.663 68.0301 160.674 64.4265 160.562 61.583L160.551 61.0254L160.558 60.5537C160.585 59.5375 160.702 58.5555 160.879 57.6182C161.828 56.1947 162.585 54.5309 163.148 52.625C163.965 50 164.374 46.8793 164.374 43.2627C164.374 39.646 163.965 36.554 163.148 33.9873C162.39 31.3624 161.282 29.2329 159.823 27.5996C159.397 27.0844 158.946 26.6099 158.471 26.1758C158.668 25.7479 158.894 25.3268 159.147 24.9121C158.877 23.7231 158.747 22.5475 158.72 21.4189L158.714 20.9502L158.724 20.3418C158.93 14.098 162.313 9.1534 167.428 6.23047L167.849 5.99512C172.219 3.62226 177.194 2.8125 182.102 2.8125C185.144 2.81253 188.15 3.15067 191.031 3.95215H191.032C191.05 3.95693 191.067 3.96198 191.085 3.9668C191.093 3.96899 191.101 3.97143 191.108 3.97363H191.107C191.754 4.15202 192.401 4.35972 193.046 4.59863C193.416 4.45868 193.788 4.3254 194.164 4.2002L194.344 4.14258C195.731 3.70901 197.151 3.38919 198.599 3.19141C199.743 2.98774 201.063 2.8125 202.401 2.8125L202.897 2.82031C205.468 2.90499 210.099 3.70948 213.076 8.08887C215.294 11.2657 215.551 14.7954 215.551 16.8379V26.9727Z" fill="#FFFEFB"></path><path d="M114.474 27.1621C114.474 26.1721 114.443 25.495 114.409 25.0703L114.376 24.7275L114.367 24.6562C114.328 24.3196 114.29 24.0669 114.258 23.8887L114.214 23.6689C114.195 23.6005 114.176 23.5317 114.159 23.4629L113.722 21.7129C113.431 20.5507 113.287 19.3981 113.255 18.2783L113.249 17.7998L113.259 17.2764C113.361 14.6719 114.247 11.3043 117.126 8.65039C118.806 7.05327 120.693 6.07325 122.367 5.45898C123.433 5.03923 124.677 4.59631 126.053 4.13672C128.483 3.28015 131.033 2.8125 133.661 2.8125L134.131 2.81934C136.565 2.89155 141.276 3.59163 144.326 7.94336L144.635 8.40625L144.815 8.69824C145.615 10.0356 146.095 11.417 146.385 12.7031C147.097 12.6432 147.814 12.6123 148.536 12.6123C152.034 12.6123 155.476 13.2466 158.741 14.6318L159.387 14.917C162.519 16.3613 165.2 18.4595 167.396 21.0703C167.985 21.7398 168.526 22.4375 169.024 23.1582C169.129 23.4916 169.257 23.8057 169.414 24.0996C169.777 24.7048 170.169 25.2535 170.588 25.7471C171.14 26.8013 171.616 27.8897 172.027 29H169.938C169.005 29 168.334 29.2622 167.926 29.7871C167.518 30.2537 167.314 30.8373 167.313 31.5371C167.313 32.1788 167.489 32.7335 167.839 33.2002C168.247 33.6667 168.859 33.9003 169.676 33.9004H171.776V51.3125C171.776 52.6541 171.718 53.8208 171.602 54.8125C171.485 55.7457 171.339 56.5914 171.164 57.3496C170.989 58.1078 170.843 58.779 170.727 59.3623C170.62 59.8932 170.564 60.4002 170.555 60.8828C169.716 62.474 168.714 63.9852 167.526 65.3867L167.527 65.3877C167.509 65.4102 167.488 65.4317 167.47 65.4541C167.445 65.4829 167.422 65.5133 167.397 65.542L167.396 65.541C165.2 68.1521 162.52 70.2509 159.387 71.6953L158.741 71.9805C155.476 73.3657 152.034 74 148.536 74C145.841 74 143.194 73.5926 140.646 72.752C138.567 73.7048 136.461 74 134.711 74H126.661C124.293 74 120.65 73.5135 117.53 70.7939C114.853 68.4598 113.734 65.5263 113.383 62.958C114.413 62.5619 115.318 62.1238 116.096 61.6377C117.496 60.7044 118.517 59.6539 119.158 58.4873C119.8 57.3208 120.12 56.1252 120.12 54.9004C120.12 54.2004 120.033 53.4998 119.858 52.7998C119.683 52.0415 119.392 51.3704 118.983 50.7871C118.575 50.2039 118.05 49.7377 117.408 49.3877C116.767 48.9794 115.979 48.7755 115.046 48.7754C114.85 48.7754 114.66 48.7843 114.474 48.7979V41.3428C115.417 41.1417 116.133 40.7619 116.62 40.2002C117.378 39.3253 117.758 38.2461 117.758 36.9629C117.758 35.2131 117.437 33.4627 116.796 31.7129C116.252 30.1812 115.477 28.7963 114.474 27.5576V27.1621ZM137.336 43.3496C137.336 41.5998 137.482 39.9372 137.773 38.3623C138.123 36.7292 138.619 35.3001 139.261 34.0752C139.902 32.7919 140.691 31.7996 141.624 31.0996C142.616 30.3415 143.753 29.9629 145.036 29.9629C146.319 29.9629 147.457 30.3415 148.448 31.0996C149.44 31.7996 150.257 32.7919 150.898 34.0752C151.598 35.3001 152.124 36.7291 152.474 38.3623L152.597 38.957C152.865 40.3542 152.999 41.8184 152.999 43.3496L152.99 44.0039C152.952 45.5222 152.78 46.9958 152.474 48.4248L152.334 49.0078C151.989 50.3475 151.511 51.5532 150.898 52.625L150.649 53.0732C150.05 54.0941 149.316 54.9361 148.448 55.5996C147.457 56.2996 146.319 56.6504 145.036 56.6504C143.753 56.6504 142.616 56.2996 141.624 55.5996C140.691 54.8413 139.902 53.85 139.261 52.625C138.619 51.4 138.123 49.9997 137.773 48.4248C137.518 46.9958 137.375 45.5222 137.343 44.0039L137.336 43.3496ZM124.474 51.3125L124.463 52.2861C124.441 53.2267 124.386 54.0688 124.299 54.8125C124.182 55.7457 124.036 56.5914 123.861 57.3496L123.62 58.4219C123.547 58.7572 123.482 59.0707 123.424 59.3623C123.307 59.9456 123.249 60.5004 123.249 61.0254C123.249 62.8846 124.249 63.8721 126.248 63.9883L126.661 64H134.711C135.761 64 136.578 63.7378 137.161 63.2129C137.803 62.688 138.124 61.9585 138.124 61.0254C138.124 60.6754 138.065 60.3246 137.948 59.9746C137.89 59.5664 137.803 59.1286 137.687 58.6621C138.911 60.412 140.457 61.7542 142.323 62.6875C144.248 63.5625 146.319 64 148.536 64C150.811 64 152.911 63.592 154.836 62.7754C156.761 61.9588 158.423 60.7042 159.823 59.0127C161.282 57.321 162.39 55.1916 163.148 52.625C163.914 50.164 164.321 47.2672 164.369 43.9346L164.374 43.2627C164.374 39.646 163.965 36.554 163.148 33.9873C162.437 31.5264 161.419 29.5014 160.093 27.9121L159.823 27.5996C158.423 25.9081 156.761 24.6545 154.836 23.8379C152.911 23.0212 150.811 22.6123 148.536 22.6123C146.086 22.6123 143.811 23.1671 141.711 24.2754C139.611 25.3837 137.978 27.0461 136.812 29.2627V16.8379C136.812 15.438 136.607 14.4171 136.198 13.7754C135.79 13.1337 134.944 12.8125 133.661 12.8125C132.203 12.8125 130.744 13.0746 129.286 13.5996L128.285 13.9395C127.334 14.2675 126.53 14.5628 125.874 14.8252C125.057 15.1169 124.415 15.4962 123.948 15.9629C123.482 16.3712 123.249 16.9835 123.249 17.7998C123.249 18.3247 123.307 18.8205 123.424 19.2871L123.861 21.0371C124.036 21.6787 124.182 22.4957 124.299 23.4873C124.415 24.4206 124.474 25.6456 124.474 27.1621V51.3125Z" fill="#FFFEFB"></path><path d="M77.1328 47.0254C77.9495 43.8754 78.5614 40.7538 78.9697 37.6621C79.4364 34.5123 79.7281 31.5667 79.8447 28.8252C79.9545 26.2445 79.9063 24.1034 79.7061 22.4014C80.384 21.5341 81.1128 20.7026 81.8994 19.916L82.0166 19.8018C84.8023 17.1059 88.0504 15.0417 91.7168 13.7256L91.792 13.6992L92.4326 13.4824C95.6452 12.4336 98.9678 11.9121 102.358 11.9121C106.158 11.9122 109.988 12.5893 113.546 14.3145C116.514 15.7537 119.207 17.7191 121.416 20.2949C122.556 21.5592 123.545 22.9244 124.383 24.3789C124.441 25.1604 124.474 26.088 124.474 27.1621V51.3125C124.474 52.6542 124.415 53.8208 124.299 54.8125C124.182 55.7457 124.036 56.5914 123.861 57.3496C123.686 58.1078 123.54 58.779 123.424 59.3623C123.307 59.9456 123.249 60.5004 123.249 61.0254C123.249 63.0085 124.386 64 126.661 64H127.515C126.056 66.3782 124.125 68.226 122.09 69.6523L121.643 69.958C121.561 70.0123 121.479 70.0653 121.396 70.1172C119.04 71.5893 116.409 72.6132 113.748 73.3516L113.216 73.4961C109.937 74.3589 106.381 74.7002 102.708 74.7002C99.1944 74.7002 95.7518 74.2073 92.4375 73.1562L91.7764 72.9385C88.2085 71.7202 85.0036 69.8082 82.2656 67.2227L81.7246 66.6963C79.0316 64.0033 77.0194 60.8066 75.5664 57.3203L75.2832 56.6191C75.2517 56.5387 75.2208 56.4572 75.1914 56.376C74.9502 55.7091 74.7349 55.0322 74.5391 54.3477C75.5721 52.0968 76.4378 49.6565 77.1328 47.0254ZM102.096 29.2627C104.137 29.2628 105.742 30.0501 106.908 31.625C108.075 33.1416 108.716 34.9213 108.833 36.9629H94.6582C94.7749 36.2629 95.037 35.4746 95.4453 34.5996C95.8536 33.6665 96.3494 32.8207 96.9326 32.0625C97.5743 31.2458 98.333 30.5748 99.208 30.0498C100.083 29.5249 101.046 29.2627 102.096 29.2627ZM83.1143 43.957C83.1724 47.3987 83.6661 50.4044 84.5957 52.9746C85.6457 55.6579 87.0459 57.875 88.7959 59.625C90.5458 61.3748 92.6164 62.658 95.0078 63.4746C97.2501 64.2403 99.6464 64.6475 102.196 64.6953L102.708 64.7002C105.607 64.7002 108.121 64.4434 110.25 63.9307L110.671 63.8252C112.749 63.2783 114.468 62.603 115.828 61.7998L116.096 61.6377C117.408 60.7627 118.387 59.7851 119.033 58.7051L119.158 58.4873C119.76 57.3935 120.08 56.274 120.117 55.1289L120.12 54.9004C120.12 54.2004 120.033 53.4998 119.858 52.7998C119.683 52.0415 119.392 51.3704 118.983 50.7871C118.575 50.2039 118.05 49.7377 117.408 49.3877C116.767 48.9794 115.979 48.7755 115.046 48.7754C113.763 48.7754 112.683 49.0671 111.808 49.6504C110.933 50.2336 110.087 50.8753 109.271 51.5752L108.652 52.0889C108.029 52.5919 107.39 53.0626 106.733 53.5L106.566 53.6055C105.719 54.1183 104.666 54.375 103.408 54.375L102.848 54.3613C100.093 54.2211 98.0048 53.0292 96.583 50.7871C95.0665 48.3955 94.2791 45.3041 94.2207 41.5127H112.683C114.549 41.5127 115.862 41.075 116.62 40.2002C117.378 39.3253 117.758 38.2461 117.758 36.9629C117.758 35.2131 117.437 33.4627 116.796 31.7129C116.154 29.9047 115.191 28.3003 113.908 26.9004C112.683 25.4421 111.108 24.2458 109.183 23.3125C107.258 22.3793 104.983 21.9122 102.358 21.9121C99.8501 21.9121 97.429 22.3211 95.0957 23.1377C92.8208 23.9543 90.779 25.2374 88.9707 26.9873C87.2207 28.7373 85.791 30.9544 84.6826 33.6377L84.4922 34.1465C83.5693 36.7237 83.1084 39.7626 83.1084 43.2627L83.1143 43.957Z" fill="#FFFEFB"></path><path d="M70.4825 2.8125C72.8687 2.8125 75.6382 3.11305 78.3195 4.23145C80.767 5.17808 83.0506 6.68365 84.9005 8.8418L85.2159 9.22168C86.7295 11.0943 87.7614 13.1804 88.4181 15.3135H88.4191C88.4269 15.3384 88.4337 15.3637 88.4415 15.3887C88.4479 15.4096 88.4548 15.4303 88.4611 15.4512H88.4601C89.0022 17.2014 89.3641 19.0163 89.5929 20.8467H89.5919C89.8067 22.4922 89.8982 24.2745 89.9015 26.1465C89.5849 26.4139 89.2743 26.6937 88.9708 26.9873C87.2208 28.7373 85.7911 30.9544 84.6827 33.6377C83.6328 36.321 83.1085 39.5295 83.1085 43.2627C83.1085 46.9958 83.6042 50.233 84.5958 52.9746C84.8044 53.5076 85.0266 54.0224 85.2628 54.5186C84.6593 56.1874 83.9831 57.8072 83.2277 59.373L82.9269 59.9844C82.9131 60.012 82.8989 60.0399 82.8849 60.0674C81.2607 63.2419 79.2136 66.1495 76.6437 68.5889L76.1222 69.0703C72.6065 72.2344 68.234 73.9999 63.3956 74H58.4073C54.762 73.9999 51.2843 72.8549 48.3614 70.5732C45.4445 72.9219 41.9722 73.9999 38.4581 74H32.6827C28.4922 74 23.9207 72.7311 20.3868 69.0898L20.048 68.7305C19.9463 68.6191 19.8467 68.5055 19.7501 68.3896C17.637 65.8539 16.231 62.9567 15.3741 59.9238L15.2101 59.3154C15.1764 59.1844 15.1457 59.0522 15.1173 58.9199C14.9792 58.2755 14.7209 57.1849 14.3185 55.5752C14.1176 54.7719 13.9025 53.9164 13.672 53.0088L12.9357 50.1279C12.9301 50.1063 12.9245 50.0842 12.9191 50.0625C12.6966 49.1727 12.5231 48.2594 12.3859 47.3438L12.2599 46.4277C12.2328 46.2108 12.2132 45.9927 12.2003 45.7744C12.11 44.2381 12.1705 42.666 12.4308 41.0859L12.3312 40.96C12.2293 40.8275 12.1314 40.6921 12.0362 40.5547C11.1948 39.3393 10.4832 38.0527 9.90148 36.707L9.66027 36.126C9.58764 35.9444 9.51999 35.7608 9.45812 35.5752C9.17617 34.7293 8.91858 33.8704 8.68371 33L8.45617 32.125L8.44152 32.0635C8.03102 30.3758 7.67172 29.1882 7.38781 28.4053L7.27062 28.0938C7.25337 28.0497 7.23647 28.0053 7.21984 27.9609C6.91264 27.1417 6.65551 26.563 6.46301 26.1768L6.29211 25.8525C5.96747 25.2754 5.68094 24.7979 5.43371 24.4082L5.19933 24.0469C5.14394 23.9638 5.0901 23.8796 5.03723 23.7949L4.88293 23.5391C4.28848 22.52 3.76821 21.4629 3.32336 20.3721L3.13683 19.9023L3.04016 19.6406C2.31537 17.587 1.54404 14.1677 2.89758 10.4453C5.43313 3.32588 12.5642 2.8125 14.5704 2.8125V12.8125L14.3361 12.8164C13.1944 12.8574 12.5138 13.2061 12.295 13.8623C12.0617 14.5039 12.1199 15.3209 12.4698 16.3125C12.7615 17.0708 13.1123 17.8 13.5206 18.5C13.9873 19.2 14.483 20.0169 15.0079 20.9502C15.5329 21.8835 16.0582 23.0503 16.5831 24.4502C17.1081 25.7918 17.6324 27.542 18.1573 29.7002C18.3906 30.6334 18.6538 31.5372 18.9454 32.4121C19.2954 33.2871 19.7329 34.104 20.2579 34.8623C20.8412 35.6206 21.5991 36.3212 22.5323 36.9629C23.524 37.5462 24.8079 38.0123 26.3829 38.3623C25.158 38.6539 24.2248 39.1793 23.5831 39.9375C22.9998 40.6375 22.5909 41.4544 22.3575 42.3877C22.1826 43.2626 22.1244 44.1959 22.1827 45.1875C22.2994 46.1208 22.4452 46.9377 22.6202 47.6377C23.1452 49.6793 23.6123 51.5171 24.0206 53.1504C24.4289 54.7835 24.7206 56.0086 24.8956 56.8252C25.4206 58.8667 26.2662 60.5874 27.4327 61.9873C28.5813 63.2452 30.1913 63.9137 32.2628 63.9922L32.6827 64H38.4581L38.7394 63.9941C40.1339 63.9395 41.3233 63.4746 42.3077 62.5996C43.4159 61.6664 44.3493 60.4126 45.1075 58.8379C45.8659 57.2629 46.4492 55.4538 46.8575 53.4121C47.2658 51.3707 47.529 49.2418 47.6456 47.0254C48.1123 49.0085 48.6366 51.021 49.2198 53.0625C49.8032 55.1042 50.5038 56.9419 51.3204 58.5752C52.1954 60.1501 53.1868 61.4627 54.295 62.5127C55.3889 63.4425 56.6625 63.9361 58.1153 63.9941L58.4073 64H63.3956L63.8185 63.9912C65.7805 63.9051 67.5416 63.2159 69.1017 61.9238L69.4327 61.6377C71.0733 60.1612 72.5089 58.2743 73.7394 55.9775L73.9825 55.5127C75.2658 52.9461 76.3163 50.1169 77.1329 47.0254C77.9496 43.8754 78.5615 40.7538 78.9698 37.6621C79.3782 34.9058 79.6527 32.3059 79.7931 29.8623L79.8448 28.8252C79.9615 26.0837 79.9033 23.8378 79.67 22.0879C79.4951 20.688 79.2329 19.4335 78.8829 18.3252C78.5766 17.3042 78.136 16.417 77.5616 15.6641L77.3077 15.3496C76.6952 14.6351 75.9263 14.0767 75.0011 13.6748L74.5948 13.5127C73.676 13.1044 72.5118 12.8742 71.1017 12.8232L70.4825 12.8125C68.6743 12.8125 67.2454 13.1919 66.1954 13.9502C65.2038 14.6502 64.5327 15.6129 64.1827 16.8379L64.132 17.0586C63.8962 18.1728 63.9425 19.4406 64.2706 20.8623C64.6206 22.3788 65.2327 23.8956 66.1075 25.4121C66.9825 26.9288 67.624 28.5921 68.0323 30.4004L68.1993 31.0576C68.5694 32.5952 68.8052 34.1551 68.9073 35.7373L68.9445 36.3896C69.0146 37.9016 68.9735 39.3466 68.8204 40.7246C68.6454 42.2996 68.3823 43.6712 68.0323 44.8379C67.7406 46.121 67.2164 47.1421 66.4581 47.9004C65.7582 48.6587 64.9412 49.0371 64.0079 49.0371L63.8653 49.0342C63.2492 49.0015 62.6329 48.757 62.0167 48.3008L61.7325 48.0752C61.1201 47.5138 60.597 46.6397 60.1632 45.4531L59.9825 44.9248C59.6909 43.9915 59.2829 42.737 58.7579 41.1621C58.5246 40.3746 58.2842 39.5725 58.0362 38.7559L57.2706 36.2627C56.7456 34.5128 56.249 32.8503 55.7823 31.2754C55.4761 30.094 55.2027 29.0928 54.962 28.2725L54.7325 27.5127C53.9742 25.0628 53.1287 23.3127 52.1954 22.2627C51.3204 21.1544 49.862 20.5996 47.8204 20.5996C46.0704 20.5996 44.5825 21.0962 43.3575 22.0879C42.1328 23.0796 41.4615 24.8585 41.3448 27.4248V30.9248C41.3448 32.3831 41.3163 33.9292 41.2579 35.5625V43.7002C41.3162 44.9251 41.0531 45.8584 40.4698 46.5C39.8866 47.1415 39.2745 47.4628 38.6329 47.4629C38.0496 47.4629 37.4948 47.2579 36.9698 46.8496C36.5617 46.4922 36.2651 45.934 36.0802 45.1748L36.0079 44.8379L31.6329 27.5996C31.1664 25.7333 30.991 24.1878 31.1075 22.9629C31.2825 21.7381 31.5161 20.717 31.8077 19.9004C32.1577 19.0255 32.479 18.2962 32.7706 17.7129C33.0768 17.1515 33.2262 16.5897 33.2198 16.0283L33.2081 15.7871C33.0987 14.748 32.7069 14.0165 32.0333 13.5928L31.8956 13.5127C31.2321 13.1044 30.3227 12.8743 29.1681 12.8232L28.6573 12.8125V2.8125C30.8897 2.8125 34.0008 3.13907 36.9366 4.87598C39.8486 6.5446 41.517 9.00656 42.3937 11.4316C44.1599 10.864 45.9911 10.5996 47.8204 10.5996L48.5255 10.6123C50.5742 10.6857 52.9583 11.0941 55.2384 12.2002C56.3041 9.70889 58.0111 7.51381 60.3409 5.84473L60.34 5.84277C63.6504 3.45192 67.382 2.81253 70.4825 2.8125ZM28.6573 2.8125V12.8125H14.5704V2.8125H28.6573Z" fill="#FFFEFB"></path></svg>