<svg xmlns="http://www.w3.org/2000/svg" width="100%" viewBox="0 0 193 86" fill="none"><path d="M175.39 52.2749C178.54 52.2749 180.115 53.8499 180.115 56.9999V59.2749C180.115 62.3082 179.794 64.7874 179.152 66.7124C178.511 68.6374 177.606 70.1249 176.44 71.1749C175.273 72.2832 173.815 73.0124 172.065 73.3624C170.373 73.7707 168.448 73.9749 166.29 73.9749V65.7499C168.623 65.7499 170.461 65.5749 171.802 65.2249C173.144 64.8749 174.136 64.4666 174.777 63.9999C175.594 63.4749 176.119 62.8916 176.352 62.2499C175.477 62.8916 174.661 63.3582 173.902 63.6499C173.202 63.8832 172.269 63.9999 171.102 63.9999C168.011 63.9999 166.465 62.4249 166.465 59.2749V56.9999C166.465 53.8499 168.011 52.2749 171.102 52.2749H175.39Z" fill="#121212"></path><path d="M155.881 47.9C155.881 49.65 156.289 50.875 157.106 51.575C157.922 52.275 158.827 52.8583 159.818 53.325C160.81 53.7333 161.714 54.2292 162.531 54.8125C163.347 55.3958 163.756 56.4167 163.756 57.875C163.756 58.8667 163.493 59.7417 162.968 60.5C162.443 61.2583 161.743 61.9 160.868 62.425C159.993 62.95 159.002 63.3583 157.893 63.65C156.785 63.8833 155.647 64 154.481 64C151.156 64 148.531 63.0667 146.606 61.2C144.739 59.275 143.602 56.5625 143.193 53.0625C143.018 51.6042 142.989 49.9125 143.106 47.9875C143.281 46.0625 143.572 44.0208 143.981 41.8625C144.447 39.6458 145.06 37.4 145.818 35.125C146.577 32.7917 147.481 30.5167 148.531 28.3H140.656C139.664 28.3 138.993 27.95 138.643 27.25C138.352 26.55 138.439 25.8208 138.906 25.0625C139.956 23.8958 141.093 22.6125 142.318 21.2125C143.543 19.8125 144.768 18.5 145.993 17.275C147.218 15.9917 148.385 14.9417 149.493 14.125C150.66 13.25 151.681 12.8125 152.556 12.8125C153.781 12.8125 154.627 13.1333 155.093 13.775C155.618 14.3583 155.881 15.3208 155.881 16.6625V23.4H161.481C162.064 23.4 162.589 23.6625 163.056 24.1875C163.522 24.6542 163.756 25.2083 163.756 25.85C163.756 26.4917 163.552 27.075 163.143 27.6C162.793 28.0667 162.21 28.3 161.393 28.3H155.881V47.9Z" fill="#121212"></path><path d="M135.344 49.0374C135.519 50.8457 135.723 52.3624 135.957 53.5874C136.248 54.8124 136.511 55.8624 136.744 56.7374C137.036 57.6124 137.298 58.3707 137.532 59.0124C137.765 59.6541 137.911 60.2957 137.969 60.9374C138.144 62.9207 137.123 63.9124 134.907 63.9124H126.769C124.436 63.9124 123.182 62.9207 123.007 60.9374C122.89 59.9457 122.919 58.9249 123.094 57.8749C123.269 56.8249 123.298 55.3082 123.182 53.3249C122.715 54.9582 121.986 56.4457 120.994 57.7874C120.061 59.0707 118.982 60.1791 117.757 61.1124C116.532 61.9874 115.248 62.6874 113.907 63.2124C112.565 63.6791 111.223 63.9124 109.882 63.9124C106.207 63.9124 103.348 62.8624 101.307 60.7624C99.265 58.6041 98.2441 55.8624 98.2441 52.5374C98.2441 49.9124 98.7983 47.6666 99.9066 45.7999C101.015 43.9332 102.444 42.4166 104.194 41.2499C106.002 40.0249 108.015 39.1499 110.232 38.6249C112.507 38.0416 114.782 37.7499 117.057 37.7499C118.748 37.7499 120.265 37.8666 121.607 38.0999C121.49 37.0499 121.315 36.0291 121.082 35.0374C120.907 34.0457 120.644 33.1999 120.294 32.4999C120.002 31.7416 119.594 31.1291 119.069 30.6624C118.602 30.1957 117.99 29.9624 117.232 29.9624C116.473 29.9624 115.744 30.2249 115.044 30.7499C114.402 31.2166 113.702 31.7707 112.944 32.4124C112.186 32.9957 111.34 33.5499 110.407 34.0749C109.532 34.5999 108.482 34.8624 107.257 34.8624C105.623 34.8624 104.311 34.4249 103.319 33.5499C102.386 32.6166 101.919 31.4499 101.919 30.0499C101.977 28.5332 102.444 27.3082 103.319 26.3749C104.252 25.3832 105.419 24.6249 106.819 24.0999C108.277 23.5166 109.882 23.1082 111.632 22.8749C113.44 22.6416 115.248 22.5249 117.057 22.5249C120.032 22.5249 122.54 22.8457 124.582 23.4874C126.623 24.1291 128.286 25.0332 129.569 26.1999C130.852 27.3666 131.815 28.7666 132.457 30.3999C133.098 32.0332 133.536 33.8416 133.769 35.8249L135.344 49.0374ZM109.619 49.3874C109.619 50.6124 109.998 51.6041 110.757 52.3624C111.573 53.0624 112.594 53.4124 113.819 53.4124C115.161 53.4124 116.619 52.9457 118.194 52.0124C119.827 51.0207 121.344 49.4749 122.744 47.3749L122.132 42.5624C120.557 42.4457 119.011 42.5041 117.494 42.7374C116.036 42.9707 114.694 43.3791 113.469 43.9624C112.302 44.5457 111.369 45.3041 110.669 46.2374C109.969 47.1124 109.619 48.1624 109.619 49.3874Z" fill="#121212"></path><path d="M93.835 51.3125C93.835 52.6542 93.8933 53.8208 94.0099 54.8125C94.1266 55.7458 94.2724 56.5917 94.4474 57.35C94.6224 58.1083 94.7683 58.7792 94.8849 59.3625C95.0016 59.9458 95.0599 60.5 95.0599 61.025C95.0599 63.0083 93.9225 64 91.6475 64H83.5974C81.3808 64 80.2725 63.0083 80.2725 61.025C80.2725 60.5 80.3308 59.9458 80.4474 59.3625C80.5641 58.7792 80.7099 58.1083 80.8849 57.35C81.0599 56.5917 81.2058 55.7458 81.3224 54.8125C81.4391 53.8208 81.4974 52.6542 81.4974 51.3125V38.7125C81.4974 36.1458 81.1183 34.3667 80.36 33.375C79.66 32.325 78.5516 31.8 77.0349 31.8C75.9849 31.8 74.9058 32.15 73.7975 32.85C72.6891 33.4917 71.6391 34.25 70.6475 35.125C69.7141 36 68.8974 36.8458 68.1974 37.6625C67.4974 38.4792 67.0016 39.0625 66.71 39.4125V51.3125C66.71 52.6542 66.7683 53.8208 66.8849 54.8125C67.0599 55.7458 67.2058 56.5917 67.3224 57.35C67.4974 58.1083 67.6433 58.7792 67.7599 59.3625C67.9349 59.9458 68.0225 60.5 68.0225 61.025C68.0225 61.9583 67.7016 62.6875 67.0599 63.2125C66.4766 63.7375 65.66 64 64.61 64H56.5599C54.2849 64 53.1475 63.0083 53.1475 61.025C53.1475 60.5 53.2058 59.9458 53.3224 59.3625C53.4391 58.7792 53.5849 58.1083 53.7599 57.35C53.9349 56.5917 54.0808 55.7458 54.1974 54.8125C54.3141 53.8208 54.3724 52.6542 54.3724 51.3125V27.1625C54.3724 25.6458 54.3141 24.4208 54.1974 23.4875C54.0808 22.4958 53.9349 21.6792 53.7599 21.0375C53.5849 20.3375 53.4391 19.7542 53.3224 19.2875C53.2058 18.8208 53.1475 18.325 53.1475 17.8C53.1475 16.9833 53.3808 16.3708 53.8474 15.9625C54.3141 15.4958 54.9558 15.1167 55.7725 14.825C56.6475 14.475 57.7849 14.0667 59.1849 13.6C60.6433 13.075 62.1016 12.8125 63.5599 12.8125C64.8433 12.8125 65.6891 13.1333 66.0974 13.775C66.5058 14.4167 66.71 15.4375 66.71 16.8375V32.5875C67.0016 32.1792 67.6141 31.4208 68.5475 30.3125C69.4808 29.2042 70.6475 28.0958 72.0475 26.9875C73.4475 25.8208 75.0808 24.8 76.9474 23.925C78.8141 23.05 80.8558 22.6125 83.0724 22.6125C86.9808 22.6125 89.7516 23.6625 91.3849 25.7625C93.0183 27.8625 93.835 30.75 93.835 34.425V51.3125Z" fill="#121212"></path><path d="M44.7715 48.775C46.2882 48.775 47.5132 49.3291 48.4465 50.4375C49.3798 51.5458 49.8465 53.0333 49.8465 54.9C49.8465 56.125 49.4965 57.3208 48.7965 58.4874C48.1548 59.6541 47.1048 60.7041 45.6465 61.6375C44.2465 62.5708 42.4382 63.3291 40.2215 63.9125C38.0632 64.4375 35.4673 64.7 32.434 64.7C29.6923 64.7 27.1257 64.2916 24.734 63.475C22.3423 62.6583 20.2715 61.375 18.5215 59.625C16.7715 57.875 15.3715 55.6583 14.3215 52.975C13.3298 50.2333 12.834 46.9958 12.834 43.2624C12.834 39.6458 13.3298 36.4958 14.3215 33.8125C15.3715 31.1291 16.7715 28.9124 18.5215 27.1624C20.3298 25.3541 22.459 24.0125 24.909 23.1375C27.359 22.2625 30.0132 21.825 32.8715 21.825C37.0715 21.825 40.4257 22.5541 42.934 24.0125C45.5007 25.4125 46.784 27.5416 46.784 30.4C46.784 32.6166 46.259 34.25 45.209 35.3C44.159 36.35 42.8173 36.875 41.184 36.875C39.784 36.875 38.7048 36.4958 37.9465 35.7375C37.1882 34.9208 36.5173 34.0458 35.934 33.1125C35.3507 32.1208 34.7382 31.2458 34.0965 30.4875C33.4548 29.6708 32.5215 29.2625 31.2965 29.2625C29.7215 29.2625 28.3798 29.9041 27.2715 31.1875C26.2215 32.4125 25.4048 33.9583 24.8215 35.8249C24.2965 37.6333 24.034 39.6458 24.034 41.8625C24.0923 44.0208 24.4423 46.0333 25.084 47.9C25.784 49.7083 26.7757 51.2541 28.059 52.5375C29.4007 53.7625 31.1215 54.375 33.2215 54.375C34.5048 54.375 35.584 54.0833 36.459 53.5C37.3923 52.9166 38.2382 52.275 38.9965 51.575C39.8132 50.875 40.659 50.2333 41.534 49.65C42.409 49.0666 43.4882 48.775 44.7715 48.775Z" fill="#121212"></path><path d="M175.39 40.2754C178.814 40.2754 183.587 41.1391 187.419 44.9707C191.251 48.8024 192.115 53.5753 192.115 57V59.2754C192.115 62.7908 191.781 66.4277 190.752 69.8301L190.536 70.5068C189.425 73.839 187.566 77.3065 184.468 80.0947L184.466 80.0928C181.618 82.7126 178.25 84.304 174.745 85.0586C171.984 85.7115 169.134 85.9746 166.29 85.9746C159.663 85.9746 154.29 80.602 154.29 73.9746V65.75C154.29 65.1549 154.333 64.5699 154.417 63.998C154.438 63.9981 154.459 64 154.48 64C155.647 64 156.785 63.8837 157.894 63.6504C159.002 63.3587 159.993 62.9498 160.868 62.4248C161.743 61.8999 162.443 61.2582 162.968 60.5C163.493 59.7417 163.756 58.8667 163.756 57.875C163.756 56.4167 163.347 55.3958 162.53 54.8125C161.714 54.2293 160.81 53.7335 159.818 53.3252C158.827 52.8585 157.922 52.2752 157.105 51.5752C156.562 51.1093 156.2 50.4105 156.019 49.4795C156.712 47.957 157.692 46.4442 159.06 45.0508C162.868 41.1706 167.65 40.2754 171.103 40.2754H175.39ZM166.465 59.2754C166.465 62.4251 168.011 64 171.103 64C172.269 64 173.202 63.8837 173.902 63.6504C174.661 63.3587 175.478 62.8917 176.353 62.25C176.119 62.8917 175.594 63.475 174.777 64C174.136 64.4666 173.144 64.8746 171.803 65.2246C170.461 65.5746 168.623 65.75 166.29 65.75V73.9746C168.448 73.9746 170.373 73.7706 172.064 73.3623C173.814 73.0123 175.273 72.2831 176.439 71.1748C177.606 70.1249 178.511 68.6377 179.152 66.7129C179.794 64.788 180.115 62.3085 180.115 59.2754V57C180.115 53.85 178.54 52.2754 175.39 52.2754H171.103L170.817 52.2793C167.916 52.3745 166.465 53.9483 166.465 57V59.2754Z" fill="#121212"></path><path d="M163.756 25.8496C163.756 25.2081 163.522 24.6541 163.056 24.1875C162.647 23.728 162.194 23.4694 161.696 23.4121L161.48 23.4004H155.881V16.6621C155.881 15.3206 155.618 14.3587 155.093 13.7754C154.626 13.1337 153.781 12.8125 152.556 12.8125C151.681 12.8125 150.66 13.25 149.493 14.125C148.385 14.9417 147.218 15.9921 145.993 17.2754C144.768 18.5003 143.543 19.813 142.318 21.2129L140.655 23.0996C140.047 23.7866 139.464 24.4416 138.905 25.0625C138.439 25.8208 138.352 26.5501 138.644 27.25C138.994 27.9498 139.664 28.2997 140.655 28.2998H148.53C147.48 30.5165 146.577 32.7917 145.818 35.125C145.06 37.4 144.447 39.6457 143.98 41.8623C143.572 44.0206 143.28 46.0624 143.105 47.9873L143.068 48.6982C142.998 50.3316 143.04 51.7864 143.193 53.0625C143.602 56.5625 144.739 59.2752 146.605 61.2002C148.53 63.0668 151.156 64 154.48 64C155.501 64 156.5 63.9111 157.477 63.7324L157.894 63.6504C158.863 63.3952 159.743 63.05 160.534 62.6162L160.868 62.4248C161.634 61.9655 162.265 61.4171 162.763 60.7793L162.968 60.5C163.427 59.8364 163.686 59.0835 163.743 58.2412L163.756 57.875C163.756 56.5076 163.397 55.5249 162.679 54.9268L162.53 54.8125C161.714 54.2293 160.81 53.7335 159.818 53.3252C158.951 52.9169 158.15 52.419 157.416 51.832L157.105 51.5752C156.34 50.9189 155.934 49.8009 155.886 48.2217L155.881 47.9004V28.2998H161.394L161.48 28.2959C162.252 28.2797 162.806 28.0495 163.144 27.5996C163.501 27.1403 163.701 26.6364 163.746 26.0879L163.756 25.8496ZM175.756 25.8496C175.756 29.1886 174.645 32.2792 172.741 34.7979L172.743 34.7998C172.718 34.8332 172.691 34.8654 172.666 34.8984C172.649 34.9209 172.633 34.9444 172.615 34.9668L172.613 34.9648C171.199 36.794 169.545 38.0219 167.881 38.833V43.9844C168.432 44.3161 168.976 44.6691 169.506 45.0479C172.391 47.1087 173.994 49.7439 174.853 52.2754H171.103C168.011 52.2754 166.465 53.85 166.465 57V59.2754C166.465 62.4251 168.011 64 171.103 64C172.269 64 173.202 63.8837 173.902 63.6504C174.227 63.5256 174.561 63.3665 174.906 63.1777C174.798 63.5052 174.678 63.8302 174.547 64.1533C173.908 64.5559 172.994 64.9139 171.803 65.2246C170.461 65.5746 168.623 65.75 166.29 65.75V73.1445C164.806 73.9569 163.271 74.577 161.724 75.0371L160.947 75.2549C160.755 75.3056 160.56 75.3515 160.365 75.3926C158.42 75.8021 156.453 76 154.48 76C149.003 76 143.293 74.4479 138.693 70.2314L138.252 69.8145C138.164 69.7289 138.077 69.642 137.991 69.5537C136.314 67.8246 135.006 65.9166 133.999 63.9121H134.906C137.123 63.9121 138.144 62.9208 137.969 60.9375C137.91 60.2959 137.765 59.6543 137.531 59.0127C137.298 58.371 137.036 57.6123 136.744 56.7373C136.511 55.8624 136.249 54.8126 135.957 53.5879C135.724 52.3629 135.519 50.8454 135.344 49.0371L133.77 35.8252C133.536 33.842 133.099 32.0336 132.457 30.4004C131.815 28.7671 130.853 27.3668 129.569 26.2002C128.748 25.4539 127.772 24.8156 126.641 24.2842C126.962 22.2305 127.715 20.351 128.686 18.7734L128.981 18.3174C129.287 17.8679 129.622 17.4394 129.986 17.0352C130.993 15.9169 132.092 14.6758 133.287 13.3105L134.332 12.1357C135.329 11.0315 136.337 9.96787 137.354 8.94531C138.902 7.32761 140.557 5.81018 142.321 4.50391C144.31 3.01643 147.881 0.812516 152.556 0.8125L153.132 0.822266C156.064 0.920652 160.964 1.82836 164.46 6.27148C166.213 8.41776 167.075 10.7472 167.495 12.7744C169.169 13.5858 170.572 14.6809 171.682 15.8457C174.241 18.4762 175.756 21.9956 175.756 25.8496Z" fill="#121212"></path><path d="M117.057 10.5254C120.814 10.5254 124.619 10.9209 128.18 12.04L128.803 12.2422C131.706 13.2242 134.574 14.6916 137.104 16.8477L137.642 17.3203L138.133 17.7812C139.466 19.0652 140.624 20.4867 141.602 22.0254C140.646 23.1123 139.748 24.1259 138.905 25.0625C138.439 25.8208 138.352 26.5501 138.644 27.25C138.994 27.9498 139.664 28.2997 140.655 28.2998H144.42C145.029 30.2953 145.441 32.3392 145.685 34.4043L145.783 35.2324C145.041 37.4707 144.44 39.6805 143.98 41.8623C143.572 44.0206 143.28 46.0624 143.105 47.9873C142.989 49.9123 143.018 51.6042 143.193 53.0625C143.602 56.5625 144.739 59.2752 146.605 61.2002C147.531 62.0977 148.62 62.7762 149.869 63.2422C149.543 65.9504 148.452 69.0992 145.696 71.7764C141.974 75.3925 137.45 75.9121 134.906 75.9121H126.77C124.682 75.9121 121.816 75.5808 118.979 74.1006L118.279 74.3877C118.137 74.4434 117.993 74.4966 117.849 74.5469C115.315 75.4283 112.643 75.9121 109.882 75.9121C104.029 75.9121 97.9414 74.2222 93.1611 69.585L92.7031 69.127C92.665 69.0877 92.6265 69.0485 92.5889 69.0088C91.1201 67.4561 89.9272 65.7738 88.9873 64H91.6475C93.9223 64 95.0594 63.0085 95.0596 61.0254C95.0596 60.5004 95.0014 59.9456 94.8848 59.3623C94.7681 58.779 94.6222 58.1078 94.4473 57.3496C94.2723 56.5914 94.1264 55.7457 94.0098 54.8125C93.8931 53.8208 93.835 52.6542 93.835 51.3125V34.4248C93.8349 30.7499 93.0181 27.8627 91.3848 25.7627C91.1682 25.4843 90.9313 25.2249 90.6748 24.9834C91.3795 22.5974 92.6165 20.2459 94.5645 18.168L94.5811 18.1504C96.828 15.7631 99.5058 14.0663 102.362 12.958L102.83 12.7764C105.172 11.886 107.595 11.3073 110.046 10.9805L110.096 10.9736C112.409 10.6751 114.731 10.5254 117.057 10.5254ZM117.057 22.5254C115.248 22.5254 113.44 22.6417 111.632 22.875C109.882 23.1083 108.278 23.5163 106.819 24.0996L106.305 24.3076C105.131 24.818 104.136 25.5074 103.319 26.375C102.444 27.3083 101.977 28.5332 101.919 30.0498C101.919 31.4498 102.386 32.6165 103.319 33.5498C104.311 34.4248 105.624 34.8623 107.257 34.8623C108.482 34.8623 109.531 34.6 110.406 34.0752C111.34 33.5502 112.186 32.9954 112.944 32.4121C113.702 31.7706 114.402 31.2166 115.044 30.75C115.744 30.2251 116.473 29.9629 117.231 29.9629C117.99 29.9629 118.603 30.1955 119.069 30.6621C119.594 31.1288 120.002 31.7417 120.294 32.5C120.644 33.1999 120.907 34.0456 121.082 35.0371C121.315 36.0286 121.49 37.0498 121.606 38.0996C120.265 37.8663 118.748 37.75 117.057 37.75C114.782 37.75 112.506 38.0417 110.231 38.625C108.015 39.15 106.003 40.0251 104.194 41.25C102.444 42.4167 101.015 43.9331 99.9062 45.7998C98.798 47.6664 98.2442 49.9123 98.2441 52.5371C98.2441 55.8621 99.265 58.6044 101.307 60.7627C103.348 62.8626 106.207 63.9121 109.882 63.9121C111.223 63.9121 112.565 63.6794 113.906 63.2129C115.248 62.6879 116.532 61.9873 117.757 61.1123C118.982 60.179 120.061 59.0704 120.994 57.7871C121.986 56.4456 122.715 54.9584 123.182 53.3252C123.298 55.3084 123.269 56.825 123.094 57.875C122.919 58.925 122.89 59.9459 123.007 60.9375C123.182 62.9208 124.436 63.9121 126.77 63.9121H134.906L135.309 63.9004C137.117 63.7918 138.011 62.9246 137.988 61.2979L137.969 60.9375C137.918 60.376 137.8 59.8144 137.615 59.2529L137.531 59.0127C137.298 58.371 137.036 57.6123 136.744 56.7373C136.511 55.8624 136.249 54.8126 135.957 53.5879C135.782 52.6691 135.623 51.5858 135.48 50.3389L135.344 49.0371L133.77 35.8252C133.536 33.842 133.099 32.0336 132.457 30.4004C131.815 28.7671 130.853 27.3668 129.569 26.2002C128.286 25.0336 126.624 24.129 124.582 23.4873C122.54 22.8456 120.032 22.5254 117.057 22.5254ZM117.494 42.7373C119.011 42.504 120.557 42.4458 122.132 42.5625L122.744 47.375C121.344 49.475 119.828 51.021 118.194 52.0127C116.619 52.946 115.161 53.4121 113.819 53.4121C112.594 53.4121 111.574 53.0623 110.757 52.3623C109.999 51.604 109.619 50.6126 109.619 49.3877C109.619 48.1627 109.969 47.1123 110.669 46.2373C111.369 45.3041 112.302 44.5462 113.469 43.9629C114.694 43.3796 116.036 42.9706 117.494 42.7373Z" fill="#121212"></path><path d="M49.8467 54.9004C49.8467 53.0337 49.3796 51.5458 48.4463 50.4375C47.513 49.3292 46.2881 48.7754 44.7715 48.7754C43.8712 48.7754 43.0714 48.9189 42.3721 49.2061V36.7725C43.4799 36.5735 44.4257 36.0831 45.209 35.2998C46.2588 34.2499 46.7841 32.6168 46.7842 30.4004C46.7842 28.0055 45.8829 26.1221 44.0811 24.751L54.1973 23.4873C54.3139 24.4206 54.3721 25.6456 54.3721 27.1621V51.3125L54.3613 52.2861C54.3394 53.2267 54.2848 54.0688 54.1973 54.8125C54.0806 55.7457 53.9347 56.5914 53.7598 57.3496L53.5195 58.4219C53.4466 58.7572 53.3806 59.0707 53.3223 59.3623C53.2056 59.9456 53.1475 60.5004 53.1475 61.0254C53.1476 62.8844 54.1473 63.872 56.1465 63.9883L56.5596 64H64.6104L64.9932 63.9873C65.8605 63.9299 66.5493 63.672 67.0596 63.2129C67.6612 62.7206 67.981 62.0485 68.0186 61.1973L68.0225 61.0254C68.0225 60.5004 67.9348 59.9456 67.7598 59.3623C67.6431 58.779 67.4972 58.1078 67.3223 57.3496C67.2056 56.5914 67.0597 55.7457 66.8848 54.8125C66.7973 54.0688 66.7426 53.2267 66.7207 52.2861L66.71 51.3125V39.4121C67.0017 39.0621 67.4974 38.4786 68.1973 37.6621C68.8972 36.8455 69.7142 36 70.6475 35.125C71.6391 34.25 72.6895 33.4913 73.7979 32.8496C74.906 32.1498 75.9853 31.7998 77.0352 31.7998C78.5517 31.7998 79.6604 32.325 80.3604 33.375C81.1186 34.3667 81.4971 36.1464 81.4971 38.7129V51.3125L81.4863 52.2861C81.4645 53.2267 81.4098 54.0688 81.3223 54.8125C81.2056 55.7457 81.0597 56.5914 80.8848 57.3496L80.6445 58.4219C80.5716 58.7572 80.5056 59.0707 80.4473 59.3623C80.3306 59.9456 80.2725 60.5004 80.2725 61.0254C80.2726 62.8847 81.2469 63.8722 83.1953 63.9883L83.5977 64H91.6475L92.0605 63.9883C93.9271 63.8799 94.9226 63.0121 95.0469 61.3848L95.0596 61.0254C95.0596 60.6318 95.0275 60.2213 94.9619 59.7949L94.8848 59.3623C94.8264 59.0707 94.7614 58.7572 94.6885 58.4219L94.4473 57.3496C94.2723 56.5914 94.1264 55.7457 94.0098 54.8125C93.9223 54.0688 93.8676 53.2267 93.8457 52.2861L93.835 51.3125V34.4248C93.8349 30.7499 93.0181 27.8627 91.3848 25.7627C89.7514 23.6627 86.9806 22.6123 83.0723 22.6123C80.8557 22.6123 78.8139 23.0498 76.9473 23.9248C75.0808 24.7997 73.4478 25.8208 72.0479 26.9873C70.6479 28.0956 69.4812 29.2042 68.5479 30.3125C67.6145 31.4208 67.0016 32.1796 66.71 32.5879V16.8379C66.71 15.4381 66.5058 14.4171 66.0977 13.7754C65.6893 13.1337 64.8429 12.8125 63.5596 12.8125C62.1014 12.8126 60.6428 13.0747 59.1846 13.5996L58.1846 13.9395C57.2329 14.2676 56.4288 14.5627 55.7725 14.8252C54.9558 15.1169 54.3143 15.4962 53.8477 15.9629C53.3811 16.3712 53.1475 16.9833 53.1475 17.7998C53.1475 18.3246 53.2057 18.8206 53.3223 19.2871L53.7598 21.0371L42.5986 23.8271C42.4078 23.7241 42.2128 23.6244 42.0127 23.5293L41.6807 22.1982C41.3523 20.8849 41.1906 19.5875 41.1553 18.334L41.1475 17.7998L41.1592 17.2012C41.2759 14.2243 42.2932 10.3005 45.6543 7.19434C47.5605 5.38471 49.6786 4.28541 51.5234 3.60254C52.6435 3.16106 53.936 2.70228 55.3438 2.23242C57.9573 1.31781 60.7117 0.812552 63.5596 0.8125L64.0762 0.820312C66.7739 0.89962 72.2764 1.67891 75.8584 6.78809L76.2217 7.33203L76.4297 7.66992C77.1132 8.81259 77.5899 9.97712 77.9268 11.0947C79.6224 10.7702 81.3426 10.6123 83.0723 10.6123C88.6981 10.6123 95.5888 12.0973 100.398 17.8271L100.857 18.3955L101.205 18.8555C102.708 20.8974 103.77 23.0911 104.495 25.3369C104.069 25.6485 103.677 25.9949 103.319 26.375C102.444 27.3083 101.977 28.5332 101.919 30.0498C101.919 31.4498 102.386 32.6165 103.319 33.5498C104.005 34.1545 104.843 34.5495 105.835 34.7363V40.2646C105.271 40.5632 104.724 40.8914 104.194 41.25C102.444 42.4167 101.015 43.9331 99.9062 45.7998C98.798 47.6664 98.2442 49.9123 98.2441 52.5371C98.2441 55.8621 99.265 58.6044 101.307 60.7627C102.747 62.2441 104.594 63.1994 106.848 63.6357C106.384 66.4807 105.072 69.7044 102.093 72.3018C98.4632 75.466 94.2614 76 91.6475 76H83.5977C81.1778 76 77.441 75.529 74.0547 72.9805C70.8606 75.373 67.312 75.9999 64.6104 76H56.5596C53.9457 75.9999 49.7446 75.4657 46.1152 72.3018C43.1181 69.6889 41.8081 66.4423 41.3516 63.585C43.0602 63.0535 44.4926 62.4069 45.6465 61.6377C47.1048 60.7044 48.1552 59.654 48.7969 58.4873C49.4967 57.3209 49.8466 56.1251 49.8467 54.9004ZM53.7598 21.0371C53.9348 21.6787 54.0806 22.4957 54.1973 23.4873L44.0811 24.751C43.7324 24.4857 43.3497 24.2397 42.9336 24.0127C42.9245 24.0074 42.9153 24.0023 42.9062 23.9971L53.7598 21.0371ZM42.9062 23.9971C42.8053 23.9388 42.7023 23.8831 42.5986 23.8271L53.7598 21.0371L42.9062 23.9971Z" fill="#121212"></path><path d="M46.7842 30.4004C46.7842 27.5421 45.5003 25.4127 42.9336 24.0127C40.4253 22.5544 37.071 21.8252 32.8711 21.8252C30.013 21.8252 27.359 22.2628 24.9092 23.1377C22.4593 24.0127 20.3298 25.3539 18.5215 27.1621C16.7715 28.9121 15.3713 31.1292 14.3213 33.8125C13.3296 36.4958 12.834 39.6461 12.834 43.2627C12.834 46.9958 13.3297 50.2331 14.3213 52.9746C15.3713 55.6579 16.7715 57.875 18.5215 59.625C20.2715 61.375 22.3427 62.6579 24.7344 63.4746C27.1259 64.2912 29.6922 64.7002 32.4336 64.7002C35.4669 64.7002 38.0633 64.4371 40.2217 63.9121C42.4382 63.3288 44.2466 62.571 45.6465 61.6377C47.1048 60.7044 48.1552 59.654 48.7969 58.4873C49.4531 57.3935 49.8018 56.274 49.8428 55.1289L49.8467 54.9004C49.8467 53.0337 49.3796 51.5458 48.4463 50.4375C47.513 49.3292 46.2881 48.7754 44.7715 48.7754C43.4882 48.7754 42.4092 49.0671 41.5342 49.6504C40.6592 50.2337 39.8128 50.8752 38.9961 51.5752C38.2378 52.2751 37.3922 52.9167 36.459 53.5C35.584 54.0833 34.5049 54.375 33.2217 54.375C31.1217 54.375 29.4003 53.7621 28.0586 52.5371C26.7755 51.2539 25.7839 49.7084 25.084 47.9004C24.4423 46.0337 24.0925 44.0206 24.0342 41.8623C24.0342 39.6458 24.2963 37.6334 24.8213 35.8252C25.4046 33.9585 26.2215 32.4125 27.2715 31.1875C28.3798 29.9042 29.7219 29.2627 31.2969 29.2627C32.5217 29.2628 33.4551 29.6707 34.0967 30.4873C34.7383 31.2456 35.3503 32.1208 35.9336 33.1123L36.1572 33.46C36.6867 34.2637 37.2829 35.0229 37.9463 35.7373L38.0928 35.875C38.7913 36.4969 39.7351 36.8286 40.9248 36.8701L41.1836 36.875C42.715 36.875 43.9902 36.4133 45.0088 35.4902L45.209 35.2998C46.1933 34.3154 46.7158 32.8184 46.7773 30.8086L46.7842 30.4004ZM54.3721 51.3125C54.3721 52.6542 54.3139 53.8208 54.1973 54.8125C54.0806 55.7457 53.9347 56.5914 53.7598 57.3496C53.5848 58.1079 53.4389 58.779 53.3223 59.3623C53.2056 59.9456 53.1475 60.5004 53.1475 61.0254C53.1476 63.0083 54.285 63.9999 56.5596 64H59.4648C59.3428 64.2216 59.2184 64.4412 59.0889 64.6572C57.2451 67.8272 54.667 70.112 52.1152 71.7451L52.1143 71.7432C49.5185 73.4382 46.6657 74.5758 43.8516 75.3613L43.2754 75.5176C43.203 75.5366 43.1303 75.5546 43.0576 75.5723C39.7032 76.3882 36.101 76.7002 32.4336 76.7002C28.7315 76.7002 25.084 76.1801 21.5596 75.0625L20.8564 74.8311C17.0232 73.5221 13.5692 71.4625 10.6191 68.6768L10.0361 68.1104C7.13262 65.2068 4.9848 61.7812 3.44629 58.0898L3.14648 57.3477L3.03711 57.0566C1.4603 52.6972 0.834002 48.016 0.833984 43.2627C0.833984 38.5854 1.47089 33.967 3.06543 29.6523L3.14648 29.4395C4.70159 25.4654 6.93902 21.7739 10.0361 18.6768L10.6221 18.1074C13.5822 15.3069 17.0357 13.2074 20.873 11.8369L21.5996 11.5859C25.2439 10.3787 29.0289 9.82523 32.8711 9.8252C38.2634 9.8252 43.9082 10.7315 48.8652 13.582C50.4167 14.4479 51.9208 15.5346 53.2744 16.877C53.1915 17.1486 53.1475 17.4557 53.1475 17.7998C53.1475 18.3246 53.2057 18.8206 53.3223 19.2871L53.7598 21.0371C53.9348 21.6787 54.0806 22.4957 54.1973 23.4873C54.3139 24.4206 54.3721 25.6456 54.3721 27.1621V51.3125Z" fill="#121212"></path><path d="M175.39 52.2749C178.54 52.2749 180.115 53.8499 180.115 56.9999V59.2749C180.115 62.3082 179.794 64.7874 179.152 66.7124C178.511 68.6374 177.606 70.1249 176.44 71.1749C175.273 72.2832 173.815 73.0124 172.065 73.3624C170.373 73.7707 168.448 73.9749 166.29 73.9749V65.7499C168.623 65.7499 170.461 65.5749 171.802 65.2249C173.144 64.8749 174.136 64.4666 174.777 63.9999C175.594 63.4749 176.119 62.8916 176.352 62.2499C175.477 62.8916 174.661 63.3582 173.902 63.6499C173.202 63.8832 172.269 63.9999 171.102 63.9999C168.011 63.9999 166.465 62.4249 166.465 59.2749V56.9999C166.465 53.8499 168.011 52.2749 171.102 52.2749H175.39Z" fill="#121212"></path><path d="M155.881 47.9C155.881 49.65 156.289 50.875 157.106 51.575C157.922 52.275 158.827 52.8583 159.818 53.325C160.81 53.7333 161.714 54.2292 162.531 54.8125C163.347 55.3958 163.756 56.4167 163.756 57.875C163.756 58.8667 163.493 59.7417 162.968 60.5C162.443 61.2583 161.743 61.9 160.868 62.425C159.993 62.95 159.002 63.3583 157.893 63.65C156.785 63.8833 155.647 64 154.481 64C151.156 64 148.531 63.0667 146.606 61.2C144.739 59.275 143.602 56.5625 143.193 53.0625C143.018 51.6042 142.989 49.9125 143.106 47.9875C143.281 46.0625 143.572 44.0208 143.981 41.8625C144.447 39.6458 145.06 37.4 145.818 35.125C146.577 32.7917 147.481 30.5167 148.531 28.3H140.656C139.664 28.3 138.993 27.95 138.643 27.25C138.352 26.55 138.439 25.8208 138.906 25.0625C139.956 23.8958 141.093 22.6125 142.318 21.2125C143.543 19.8125 144.768 18.5 145.993 17.275C147.218 15.9917 148.385 14.9417 149.493 14.125C150.66 13.25 151.681 12.8125 152.556 12.8125C153.781 12.8125 154.627 13.1333 155.093 13.775C155.618 14.3583 155.881 15.3208 155.881 16.6625V23.4H161.481C162.064 23.4 162.589 23.6625 163.056 24.1875C163.522 24.6542 163.756 25.2083 163.756 25.85C163.756 26.4917 163.552 27.075 163.143 27.6C162.793 28.0667 162.21 28.3 161.393 28.3H155.881V47.9Z" fill="#121212"></path><path d="M135.344 49.0374C135.519 50.8457 135.723 52.3624 135.957 53.5874C136.248 54.8124 136.511 55.8624 136.744 56.7374C137.036 57.6124 137.298 58.3707 137.532 59.0124C137.765 59.6541 137.911 60.2957 137.969 60.9374C138.144 62.9207 137.123 63.9124 134.907 63.9124H126.769C124.436 63.9124 123.182 62.9207 123.007 60.9374C122.89 59.9457 122.919 58.9249 123.094 57.8749C123.269 56.8249 123.298 55.3082 123.182 53.3249C122.715 54.9582 121.986 56.4457 120.994 57.7874C120.061 59.0707 118.982 60.1791 117.757 61.1124C116.532 61.9874 115.248 62.6874 113.907 63.2124C112.565 63.6791 111.223 63.9124 109.882 63.9124C106.207 63.9124 103.348 62.8624 101.307 60.7624C99.265 58.6041 98.2441 55.8624 98.2441 52.5374C98.2441 49.9124 98.7983 47.6666 99.9066 45.7999C101.015 43.9332 102.444 42.4166 104.194 41.2499C106.002 40.0249 108.015 39.1499 110.232 38.6249C112.507 38.0416 114.782 37.7499 117.057 37.7499C118.748 37.7499 120.265 37.8666 121.607 38.0999C121.49 37.0499 121.315 36.0291 121.082 35.0374C120.907 34.0457 120.644 33.1999 120.294 32.4999C120.002 31.7416 119.594 31.1291 119.069 30.6624C118.602 30.1957 117.99 29.9624 117.232 29.9624C116.473 29.9624 115.744 30.2249 115.044 30.7499C114.402 31.2166 113.702 31.7707 112.944 32.4124C112.186 32.9957 111.34 33.5499 110.407 34.0749C109.532 34.5999 108.482 34.8624 107.257 34.8624C105.623 34.8624 104.311 34.4249 103.319 33.5499C102.386 32.6166 101.919 31.4499 101.919 30.0499C101.977 28.5332 102.444 27.3082 103.319 26.3749C104.252 25.3832 105.419 24.6249 106.819 24.0999C108.277 23.5166 109.882 23.1082 111.632 22.8749C113.44 22.6416 115.248 22.5249 117.057 22.5249C120.032 22.5249 122.54 22.8457 124.582 23.4874C126.623 24.1291 128.286 25.0332 129.569 26.1999C130.852 27.3666 131.815 28.7666 132.457 30.3999C133.098 32.0332 133.536 33.8416 133.769 35.8249L135.344 49.0374ZM109.619 49.3874C109.619 50.6124 109.998 51.6041 110.757 52.3624C111.573 53.0624 112.594 53.4124 113.819 53.4124C115.161 53.4124 116.619 52.9457 118.194 52.0124C119.827 51.0207 121.344 49.4749 122.744 47.3749L122.132 42.5624C120.557 42.4457 119.011 42.5041 117.494 42.7374C116.036 42.9707 114.694 43.3791 113.469 43.9624C112.302 44.5457 111.369 45.3041 110.669 46.2374C109.969 47.1124 109.619 48.1624 109.619 49.3874Z" fill="#121212"></path><path d="M93.835 51.3125C93.835 52.6542 93.8933 53.8208 94.0099 54.8125C94.1266 55.7458 94.2724 56.5917 94.4474 57.35C94.6224 58.1083 94.7683 58.7792 94.8849 59.3625C95.0016 59.9458 95.0599 60.5 95.0599 61.025C95.0599 63.0083 93.9225 64 91.6475 64H83.5974C81.3808 64 80.2725 63.0083 80.2725 61.025C80.2725 60.5 80.3308 59.9458 80.4474 59.3625C80.5641 58.7792 80.7099 58.1083 80.8849 57.35C81.0599 56.5917 81.2058 55.7458 81.3224 54.8125C81.4391 53.8208 81.4974 52.6542 81.4974 51.3125V38.7125C81.4974 36.1458 81.1183 34.3667 80.36 33.375C79.66 32.325 78.5516 31.8 77.0349 31.8C75.9849 31.8 74.9058 32.15 73.7975 32.85C72.6891 33.4917 71.6391 34.25 70.6475 35.125C69.7141 36 68.8974 36.8458 68.1974 37.6625C67.4974 38.4792 67.0016 39.0625 66.71 39.4125V51.3125C66.71 52.6542 66.7683 53.8208 66.8849 54.8125C67.0599 55.7458 67.2058 56.5917 67.3224 57.35C67.4974 58.1083 67.6433 58.7792 67.7599 59.3625C67.9349 59.9458 68.0225 60.5 68.0225 61.025C68.0225 61.9583 67.7016 62.6875 67.0599 63.2125C66.4766 63.7375 65.66 64 64.61 64H56.5599C54.2849 64 53.1475 63.0083 53.1475 61.025C53.1475 60.5 53.2058 59.9458 53.3224 59.3625C53.4391 58.7792 53.5849 58.1083 53.7599 57.35C53.9349 56.5917 54.0808 55.7458 54.1974 54.8125C54.3141 53.8208 54.3724 52.6542 54.3724 51.3125V27.1625C54.3724 25.6458 54.3141 24.4208 54.1974 23.4875C54.0808 22.4958 53.9349 21.6792 53.7599 21.0375C53.5849 20.3375 53.4391 19.7542 53.3224 19.2875C53.2058 18.8208 53.1475 18.325 53.1475 17.8C53.1475 16.9833 53.3808 16.3708 53.8474 15.9625C54.3141 15.4958 54.9558 15.1167 55.7725 14.825C56.6475 14.475 57.7849 14.0667 59.1849 13.6C60.6433 13.075 62.1016 12.8125 63.5599 12.8125C64.8433 12.8125 65.6891 13.1333 66.0974 13.775C66.5058 14.4167 66.71 15.4375 66.71 16.8375V32.5875C67.0016 32.1792 67.6141 31.4208 68.5475 30.3125C69.4808 29.2042 70.6475 28.0958 72.0475 26.9875C73.4475 25.8208 75.0808 24.8 76.9474 23.925C78.8141 23.05 80.8558 22.6125 83.0724 22.6125C86.9808 22.6125 89.7516 23.6625 91.3849 25.7625C93.0183 27.8625 93.835 30.75 93.835 34.425V51.3125Z" fill="#121212"></path><path d="M44.7715 48.775C46.2882 48.775 47.5132 49.3291 48.4465 50.4375C49.3798 51.5458 49.8465 53.0333 49.8465 54.9C49.8465 56.125 49.4965 57.3208 48.7965 58.4874C48.1548 59.6541 47.1048 60.7041 45.6465 61.6375C44.2465 62.5708 42.4382 63.3291 40.2215 63.9125C38.0632 64.4375 35.4673 64.7 32.434 64.7C29.6923 64.7 27.1257 64.2916 24.734 63.475C22.3423 62.6583 20.2715 61.375 18.5215 59.625C16.7715 57.875 15.3715 55.6583 14.3215 52.975C13.3298 50.2333 12.834 46.9958 12.834 43.2624C12.834 39.6458 13.3298 36.4958 14.3215 33.8125C15.3715 31.1291 16.7715 28.9124 18.5215 27.1624C20.3298 25.3541 22.459 24.0125 24.909 23.1375C27.359 22.2625 30.0132 21.825 32.8715 21.825C37.0715 21.825 40.4257 22.5541 42.934 24.0125C45.5007 25.4125 46.784 27.5416 46.784 30.4C46.784 32.6166 46.259 34.25 45.209 35.3C44.159 36.35 42.8173 36.875 41.184 36.875C39.784 36.875 38.7048 36.4958 37.9465 35.7375C37.1882 34.9208 36.5173 34.0458 35.934 33.1125C35.3507 32.1208 34.7382 31.2458 34.0965 30.4875C33.4548 29.6708 32.5215 29.2625 31.2965 29.2625C29.7215 29.2625 28.3798 29.9041 27.2715 31.1875C26.2215 32.4125 25.4048 33.9583 24.8215 35.8249C24.2965 37.6333 24.034 39.6458 24.034 41.8625C24.0923 44.0208 24.4423 46.0333 25.084 47.9C25.784 49.7083 26.7757 51.2541 28.059 52.5375C29.4007 53.7625 31.1215 54.375 33.2215 54.375C34.5048 54.375 35.584 54.0833 36.459 53.5C37.3923 52.9166 38.2382 52.275 38.9965 51.575C39.8132 50.875 40.659 50.2333 41.534 49.65C42.409 49.0666 43.4882 48.775 44.7715 48.775Z" fill="#121212"></path><path d="M175.39 42.2754C178.506 42.2754 182.681 43.0605 186.005 46.3848C189.329 49.7091 190.115 53.8836 190.115 57V59.2754C190.115 62.6788 189.789 66.1022 188.838 69.249L188.639 69.875C187.631 72.8979 185.985 75.9559 183.326 78.4238L183.327 78.4248C183.305 78.4456 183.282 78.4647 183.26 78.4854C183.216 78.5256 183.174 78.5684 183.13 78.6084L183.128 78.6064C180.557 80.9774 177.503 82.4244 174.291 83.1104C171.71 83.7214 169.016 83.9746 166.29 83.9746C160.767 83.9746 156.29 79.4975 156.29 73.9746V65.75C156.29 65.1114 156.351 64.4872 156.466 63.8818C156.947 63.8248 157.423 63.7494 157.894 63.6504C159.002 63.3587 159.993 62.9498 160.868 62.4248C161.743 61.8999 162.443 61.2582 162.968 60.5C163.493 59.7417 163.756 58.8667 163.756 57.875C163.756 56.4167 163.347 55.3958 162.53 54.8125C161.714 54.2293 160.81 53.7335 159.818 53.3252C158.898 52.8919 158.053 52.357 157.283 51.7227C157.884 49.918 158.883 48.0859 160.487 46.4512C163.79 43.0866 167.967 42.2754 171.103 42.2754V52.2754L170.817 52.2793C167.916 52.3745 166.465 53.9483 166.465 57V59.2754C166.465 62.4251 168.011 64 171.103 64C172.269 64 173.202 63.8837 173.902 63.6504C174.661 63.3587 175.478 62.8917 176.353 62.25C176.119 62.8917 175.594 63.475 174.777 64C174.136 64.4666 173.144 64.8746 171.803 65.2246C170.461 65.5746 168.623 65.75 166.29 65.75V73.9746C168.448 73.9746 170.373 73.7706 172.064 73.3623C173.814 73.0123 175.273 72.2831 176.439 71.1748C177.606 70.1249 178.511 68.6377 179.152 66.7129C179.794 64.788 180.115 62.3085 180.115 59.2754V57C180.115 53.9485 178.637 52.3747 175.681 52.2793L175.39 52.2754V42.2754ZM175.39 42.2754V52.2754H171.103V42.2754H175.39Z" fill="#FFFEFB"></path><path d="M163.756 25.8496C163.756 25.2081 163.522 24.6541 163.056 24.1875C162.647 23.728 162.194 23.4694 161.696 23.4121L161.48 23.4004H155.881V16.6621C155.881 15.3206 155.618 14.3587 155.093 13.7754C154.626 13.1337 153.781 12.8125 152.556 12.8125C151.681 12.8125 150.66 13.25 149.493 14.125L149.075 14.4424C148.093 15.208 147.065 16.1524 145.993 17.2754L145.074 18.21C144.155 19.1615 143.237 20.1629 142.318 21.2129L140.655 23.0996C140.047 23.7866 139.464 24.4416 138.905 25.0625L138.748 25.3457C138.423 26.0027 138.388 26.6376 138.644 27.25C138.994 27.9498 139.664 28.2997 140.655 28.2998H148.53C147.48 30.5165 146.577 32.7917 145.818 35.125C145.06 37.4 144.447 39.6457 143.98 41.8623L143.833 42.666C143.501 44.5291 143.259 46.3029 143.105 47.9873L143.068 48.6982C142.998 50.3316 143.04 51.7864 143.193 53.0625C143.602 56.5625 144.739 59.2752 146.605 61.2002C148.41 62.9501 150.83 63.8798 153.865 63.9893L154.48 64C155.501 64 156.5 63.9111 157.477 63.7324L157.894 63.6504C158.863 63.3952 159.743 63.05 160.534 62.6162L160.868 62.4248C161.634 61.9655 162.265 61.4171 162.763 60.7793L162.968 60.5C163.427 59.8364 163.686 59.0835 163.743 58.2412L163.756 57.875C163.756 56.5076 163.397 55.5249 162.679 54.9268L162.53 54.8125C161.714 54.2293 160.81 53.7335 159.818 53.3252C158.951 52.9169 158.15 52.419 157.416 51.832L157.105 51.5752C156.34 50.9189 155.934 49.8009 155.886 48.2217L155.881 47.9004V28.2998H161.394L161.48 28.2959C162.252 28.2797 162.806 28.0495 163.144 27.5996C163.501 27.1403 163.701 26.6364 163.746 26.0879L163.756 25.8496ZM173.756 25.8496C173.756 28.7391 172.796 31.4118 171.142 33.5977L171.144 33.5996C171.125 33.6242 171.104 33.6476 171.086 33.6719C171.069 33.6939 171.054 33.7174 171.037 33.7393L171.035 33.7373C169.518 35.7016 167.671 36.8575 165.881 37.5137V45.1455C166.727 45.6007 167.55 46.1086 168.343 46.6748C170.579 48.2724 171.931 50.2776 172.724 52.2754H171.103C168.011 52.2754 166.465 53.85 166.465 57V59.2754C166.465 62.4251 168.011 64 171.103 64C171.599 64 172.054 63.9769 172.466 63.9346C172.269 64.3704 172.05 64.8012 171.805 65.2236L171.803 65.2246C170.461 65.5746 168.623 65.75 166.29 65.75V70.8291L166.013 71C164.235 72.0667 162.35 72.8173 160.438 73.3203C160.278 73.3626 160.116 73.4013 159.953 73.4355C158.147 73.8157 156.319 74 154.48 74C149.379 74 144.194 72.5604 140.043 68.7549L139.645 68.3789C139.571 68.3075 139.498 68.2348 139.427 68.1611C138.115 66.808 137.044 65.3294 136.182 63.7676C137.51 63.4302 138.106 62.4897 137.969 60.9375C137.91 60.2959 137.765 59.6543 137.531 59.0127C137.298 58.371 137.036 57.6123 136.744 56.7373C136.511 55.8624 136.249 54.8126 135.957 53.5879C135.724 52.3629 135.519 50.8454 135.344 49.0371L134.226 39.6592C134.418 38.754 134.63 37.8483 134.862 36.9424C134.514 36.7671 134.17 36.5719 133.832 36.3564L133.77 35.8252C133.536 33.842 133.099 32.0336 132.457 30.4004C131.815 28.7671 130.853 27.3668 129.569 26.2002C129.244 25.9046 128.894 25.6261 128.521 25.3643C128.709 23.2947 129.421 21.3937 130.389 19.8213L130.635 19.4414C130.889 19.0668 131.169 18.71 131.473 18.373L133.062 16.5918C133.616 15.9678 134.192 15.3133 134.792 14.6279L135.815 13.4766C136.814 12.3706 137.822 11.3073 138.838 10.2881C140.325 8.73738 141.891 7.30775 143.539 6.09082C145.393 4.70802 148.529 2.81252 152.556 2.8125L153.073 2.82129C155.697 2.90939 159.91 3.71671 162.898 7.52051C164.704 9.72447 165.432 12.1745 165.713 14.1797C167.617 14.9118 169.175 16.0829 170.348 17.3477C172.494 19.6044 173.756 22.5841 173.756 25.8496Z" fill="#FFFEFB"></path><path d="M117.057 12.5254C120.683 12.5254 124.272 12.9077 127.58 13.9473L128.162 14.1377C131.066 15.1199 133.88 16.6047 136.296 18.8008L136.745 19.2207C138.105 20.5295 139.264 21.994 140.218 23.5908C139.765 24.0997 139.329 24.5916 138.905 25.0625C138.439 25.8208 138.352 26.5501 138.644 27.25C138.994 27.9498 139.664 28.2997 140.655 28.2998H142.323C142.997 30.3533 143.444 32.4775 143.699 34.6416L144.359 40.1875C144.224 40.7476 144.098 41.3059 143.98 41.8623C143.572 44.0206 143.28 46.0624 143.105 47.9873C142.989 49.9123 143.018 51.6042 143.193 53.0625C143.602 56.5625 144.739 59.2752 146.605 61.2002C147.021 61.6028 147.471 61.9586 147.951 62.2744C147.782 64.7836 146.904 67.8144 144.303 70.3418C141.116 73.4378 137.211 73.9121 134.906 73.9121H126.77C124.669 73.9121 121.804 73.5394 119.093 71.8643C118.587 72.0995 118.073 72.321 117.551 72.5254C117.432 72.5718 117.313 72.6154 117.192 72.6572C114.857 73.4696 112.406 73.9121 109.882 73.9121C104.411 73.9121 98.8722 72.3401 94.5508 68.1475L94.1367 67.7334C94.105 67.7007 94.0733 67.6679 94.042 67.6348C92.9637 66.4949 92.0474 65.2774 91.2822 64H91.6475C93.9223 64 95.0594 63.0085 95.0596 61.0254C95.0596 60.5004 95.0014 59.9456 94.8848 59.3623C94.7681 58.779 94.6222 58.1078 94.4473 57.3496C94.2723 56.5914 94.1264 55.7457 94.0098 54.8125C93.8931 53.8208 93.835 52.6542 93.835 51.3125V34.4248C93.8349 31.4482 93.2991 28.9883 92.2275 27.0449C92.7385 24.4167 93.9109 21.7885 96.0234 19.5352L96.0371 19.5215L96.4326 19.1143C98.2986 17.25 100.474 15.8763 102.806 14.9326L103.308 14.7363C105.561 13.8558 107.911 13.2827 110.31 12.9629L110.352 12.957C112.581 12.6694 114.817 12.5254 117.057 12.5254ZM117.494 42.7373C119.011 42.504 120.557 42.4458 122.132 42.5625L122.744 47.375C121.344 49.475 119.828 51.021 118.194 52.0127C116.619 52.946 115.161 53.4121 113.819 53.4121C112.671 53.4121 111.702 53.1046 110.912 52.4893L110.757 52.3623C109.999 51.604 109.619 50.6126 109.619 49.3877C109.619 48.1627 109.969 47.1123 110.669 46.2373C111.369 45.3041 112.302 44.5462 113.469 43.9629C114.694 43.3796 116.036 42.9706 117.494 42.7373ZM101.919 30.0498C101.919 31.4498 102.386 32.6165 103.319 33.5498C104.311 34.4248 105.624 34.8623 107.257 34.8623C108.482 34.8623 109.531 34.6 110.406 34.0752C111.34 33.5502 112.186 32.9954 112.944 32.4121C113.702 31.7706 114.402 31.2166 115.044 30.75C115.744 30.2251 116.473 29.9629 117.231 29.9629C117.99 29.9629 118.603 30.1955 119.069 30.6621C119.594 31.1288 120.002 31.7417 120.294 32.5C120.644 33.1999 120.907 34.0456 121.082 35.0371C121.315 36.0286 121.49 37.0498 121.606 38.0996C120.265 37.8663 118.748 37.75 117.057 37.75C114.782 37.75 112.506 38.0417 110.231 38.625C108.015 39.15 106.003 40.0251 104.194 41.25C102.444 42.4167 101.015 43.9331 99.9062 45.7998L99.7051 46.1543C98.731 47.9486 98.2442 50.0763 98.2441 52.5371L98.2559 53.1543C98.3755 56.203 99.3926 58.7393 101.307 60.7627C103.221 62.7314 105.853 63.7773 109.202 63.9004L109.882 63.9121C111.223 63.9121 112.565 63.6794 113.906 63.2129C115.248 62.6879 116.532 61.9873 117.757 61.1123C118.982 60.179 120.061 59.0704 120.994 57.7871C121.986 56.4456 122.715 54.9584 123.182 53.3252C123.298 55.3084 123.269 56.825 123.094 57.875C122.919 58.925 122.89 59.9459 123.007 60.9375C123.182 62.9208 124.436 63.9121 126.77 63.9121H134.906L135.309 63.9004C137.117 63.7918 138.011 62.9246 137.988 61.2979L137.969 60.9375C137.918 60.376 137.8 59.8144 137.615 59.2529L137.531 59.0127C137.298 58.371 137.036 57.6123 136.744 56.7373C136.511 55.8624 136.249 54.8126 135.957 53.5879C135.782 52.6691 135.623 51.5858 135.48 50.3389L135.344 49.0371L133.77 35.8252C133.565 34.0897 133.204 32.488 132.688 31.0205L132.457 30.4004C131.855 28.8691 130.971 27.543 129.806 26.4219L129.569 26.2002C128.286 25.0336 126.624 24.129 124.582 23.4873C122.54 22.8456 120.032 22.5254 117.057 22.5254C115.248 22.5254 113.44 22.6417 111.632 22.875C109.882 23.1083 108.278 23.5163 106.819 24.0996L106.305 24.3076C105.131 24.818 104.136 25.5074 103.319 26.375C102.444 27.3083 101.977 28.5332 101.919 30.0498Z" fill="#FFFEFB"></path><path d="M49.8467 54.9004C49.8467 53.0337 49.3796 51.5458 48.4463 50.4375C47.513 49.3292 46.2881 48.7754 44.7715 48.7754C44.6361 48.7754 44.5029 48.7796 44.3721 48.7861V35.9854C44.669 35.7893 44.9481 35.5607 45.209 35.2998C46.2588 34.2499 46.7841 32.6168 46.7842 30.4004C46.7842 28.1015 45.9533 26.2745 44.293 24.9189L44.2744 24.7275L44.2656 24.6562C44.226 24.3196 44.1881 24.0669 44.1562 23.8887L44.1123 23.6689C44.0937 23.6005 44.0758 23.5317 44.0586 23.4629L43.6211 21.7129C43.3305 20.5506 43.1859 19.3981 43.1543 18.2783L43.1475 17.7998L43.1582 17.2764C43.2598 14.6763 44.1431 11.3159 47.0107 8.66406C48.688 7.06534 50.5717 6.08326 52.2461 5.4668C53.3231 5.04198 54.5832 4.59361 55.9785 4.12793C58.4004 3.27738 60.9409 2.81255 63.5596 2.8125L64.0293 2.81934C66.463 2.89147 71.1737 3.59154 74.2246 7.94336L74.5342 8.40625L74.7139 8.69824C75.6798 10.3136 76.1819 11.9924 76.4414 13.4912C78.6012 12.8961 80.8235 12.6123 83.0723 12.6123C88.3915 12.6123 94.5869 14.0139 98.8701 19.1172L99.2783 19.623L99.5938 20.04C101.166 22.1758 102.217 24.5099 102.881 26.915C102.287 27.765 101.967 28.81 101.919 30.0498C101.919 31.4498 102.386 32.6165 103.319 33.5498C103.48 33.6915 103.65 33.8207 103.827 33.9395C103.829 34.1015 103.835 34.2632 103.835 34.4248V41.498C102.248 42.629 100.938 44.0626 99.9062 45.7998C98.798 47.6664 98.2442 49.9123 98.2441 52.5371C98.2441 55.8621 99.265 58.6044 101.307 60.7627C102.309 61.7937 103.509 62.5699 104.905 63.0947C104.533 65.6299 103.408 68.5012 100.778 70.7939C97.6588 73.5135 94.0153 74 91.6475 74H83.5977C81.2052 74 77.5429 73.4893 74.4355 70.709C74.3075 70.5944 74.1842 70.4775 74.0635 70.3604C73.9072 70.5073 73.7466 70.6524 73.5801 70.7939C70.6518 73.3387 67.2321 73.9999 64.6104 74H56.5596C54.1917 73.9999 50.5489 73.5132 47.4297 70.7939C44.7291 68.4396 43.6123 65.4757 43.2715 62.8916C44.1626 62.5159 44.9547 62.0989 45.6465 61.6377C47.1048 60.7044 48.1552 59.654 48.7969 58.4873C49.4967 57.3209 49.8466 56.1251 49.8467 54.9004ZM54.3721 51.3125L54.3613 52.2861C54.3394 53.2267 54.2848 54.0688 54.1973 54.8125C54.0806 55.7457 53.9347 56.5914 53.7598 57.3496L53.5195 58.4219C53.4466 58.7572 53.3806 59.0707 53.3223 59.3623C53.2056 59.9456 53.1475 60.5004 53.1475 61.0254C53.1476 62.8844 54.1473 63.872 56.1465 63.9883L56.5596 64H64.6104L64.9932 63.9873C65.8605 63.9299 66.5493 63.672 67.0596 63.2129C67.6612 62.7206 67.981 62.0485 68.0186 61.1973L68.0225 61.0254C68.0225 60.5004 67.9348 59.9456 67.7598 59.3623C67.6431 58.779 67.4972 58.1078 67.3223 57.3496C67.2056 56.5914 67.0597 55.7457 66.8848 54.8125C66.7973 54.0688 66.7426 53.2267 66.7207 52.2861L66.71 51.3125V39.4121C67.0017 39.0621 67.4974 38.4786 68.1973 37.6621C68.8972 36.8455 69.7142 36 70.6475 35.125C71.6391 34.25 72.6895 33.4913 73.7979 32.8496C74.906 32.1498 75.9853 31.7998 77.0352 31.7998C78.5517 31.7998 79.6604 32.325 80.3604 33.375C81.1186 34.3667 81.4971 36.1464 81.4971 38.7129V51.3125L81.4863 52.2861C81.4645 53.2267 81.4098 54.0688 81.3223 54.8125C81.2056 55.7457 81.0597 56.5914 80.8848 57.3496L80.6445 58.4219C80.5716 58.7572 80.5056 59.0707 80.4473 59.3623C80.3306 59.9456 80.2725 60.5004 80.2725 61.0254C80.2726 62.8847 81.2469 63.8722 83.1953 63.9883L83.5977 64H91.6475L92.0605 63.9883C93.9271 63.8799 94.9226 63.0121 95.0469 61.3848L95.0596 61.0254C95.0596 60.6318 95.0275 60.2213 94.9619 59.7949L94.8848 59.3623C94.8264 59.0707 94.7614 58.7572 94.6885 58.4219L94.4473 57.3496C94.2723 56.5914 94.1264 55.7457 94.0098 54.8125C93.9223 54.0688 93.8676 53.2267 93.8457 52.2861L93.835 51.3125V34.4248C93.8349 30.7499 93.0181 27.8627 91.3848 25.7627C89.8535 23.7939 87.3228 22.748 83.792 22.625L83.0723 22.6123C80.8557 22.6123 78.8139 23.0498 76.9473 23.9248C75.0808 24.7997 73.4478 25.8208 72.0479 26.9873C70.6479 28.0956 69.4812 29.2042 68.5479 30.3125C67.6145 31.4208 67.0016 32.1796 66.71 32.5879V16.8379C66.71 15.4381 66.5058 14.4171 66.0977 13.7754C65.6893 13.1337 64.8429 12.8125 63.5596 12.8125C62.1014 12.8126 60.6428 13.0747 59.1846 13.5996L58.1846 13.9395C57.2329 14.2676 56.4288 14.5627 55.7725 14.8252C54.9558 15.1169 54.3143 15.4962 53.8477 15.9629C53.3811 16.3712 53.1475 16.9833 53.1475 17.7998C53.1475 18.3246 53.2057 18.8206 53.3223 19.2871L53.7598 21.0371C53.9348 21.6787 54.0806 22.4957 54.1973 23.4873C54.3139 24.4206 54.3721 25.6456 54.3721 27.1621V51.3125Z" fill="#FFFEFB"></path><path d="M46.7842 30.4004C46.7842 27.7207 45.6562 25.6812 43.4004 24.2832L42.9336 24.0127C40.4253 22.5544 37.071 21.8252 32.8711 21.8252C30.013 21.8252 27.359 22.2628 24.9092 23.1377C22.4593 24.0127 20.3298 25.3539 18.5215 27.1621C16.7715 28.9121 15.3713 31.1292 14.3213 33.8125L14.1416 34.3213C13.27 36.8916 12.834 39.8721 12.834 43.2627L12.8398 43.957C12.898 47.3986 13.3917 50.4045 14.3213 52.9746C15.3713 55.6579 16.7715 57.875 18.5215 59.625C20.2715 61.375 22.3427 62.6579 24.7344 63.4746C26.9765 64.2402 29.3722 64.6475 31.9219 64.6953L32.4336 64.7002C35.2773 64.7002 37.7368 64.4692 39.8115 64.0078L40.2217 63.9121C42.4382 63.3288 44.2466 62.571 45.6465 61.6377C47.1048 60.7044 48.1552 59.654 48.7969 58.4873C49.4531 57.3935 49.8018 56.274 49.8428 55.1289L49.8467 54.9004C49.8467 53.0337 49.3796 51.5458 48.4463 50.4375C47.513 49.3292 46.2881 48.7754 44.7715 48.7754C43.4882 48.7754 42.4092 49.0671 41.5342 49.6504C40.6592 50.2337 39.8128 50.8752 38.9961 51.5752L38.708 51.835C38.0254 52.4347 37.2756 52.9896 36.459 53.5L36.293 53.6055C35.4487 54.1184 34.425 54.375 33.2217 54.375L32.832 54.3682C31.0361 54.3012 29.5308 53.7645 28.3154 52.7598L28.0586 52.5371C26.7755 51.2539 25.7839 49.7084 25.084 47.9004C24.4423 46.0337 24.0925 44.0206 24.0342 41.8623C24.0342 39.6458 24.2963 37.6334 24.8213 35.8252C25.4046 33.9585 26.2215 32.4125 27.2715 31.1875C28.3798 29.9042 29.7219 29.2627 31.2969 29.2627C32.5217 29.2628 33.4551 29.6707 34.0967 30.4873C34.7383 31.2456 35.3503 32.1208 35.9336 33.1123L36.1572 33.46C36.6867 34.2637 37.2829 35.0229 37.9463 35.7373L38.0928 35.875C38.7913 36.4969 39.7351 36.8286 40.9248 36.8701L41.1836 36.875C42.715 36.875 43.9902 36.4133 45.0088 35.4902L45.209 35.2998C46.1933 34.3154 46.7158 32.8184 46.7773 30.8086L46.7842 30.4004ZM54.3721 39.7197C54.0291 40.2777 53.6407 40.8251 53.2012 41.3564C53.6027 41.6345 53.9945 41.9328 54.3721 42.2559V51.3125C54.3721 52.6542 54.3139 53.8208 54.1973 54.8125C54.0806 55.7457 53.9347 56.5914 53.7598 57.3496C53.5848 58.1079 53.4389 58.779 53.3223 59.3623C53.2056 59.9456 53.1475 60.5004 53.1475 61.0254C53.1476 63.0083 54.285 63.9999 56.5596 64H57.1523C55.5234 66.6496 53.2992 68.6128 51.0371 70.0605L51.0361 70.0596C48.6526 71.6188 45.9959 72.686 43.3145 73.4346L42.7666 73.583C42.7063 73.5989 42.6456 73.6142 42.585 73.6289C39.4299 74.3964 35.9953 74.7002 32.4336 74.7002C28.9203 74.7002 25.4781 74.2072 22.1641 73.1562L21.5029 72.9385C17.9352 71.7202 14.7301 69.8081 11.9922 67.2227L11.4502 66.6963C8.75713 64.0032 6.74498 60.8067 5.29199 57.3203L5.00879 56.6191L4.91797 56.376C3.43875 52.2863 2.834 47.8459 2.83398 43.2627C2.83398 38.7621 3.44735 34.3885 4.94141 30.3457L5.00879 30.1689C6.47967 26.41 8.5777 22.9644 11.4502 20.0918L11.9951 19.5615C14.7509 16.9541 17.965 14.9986 21.5459 13.7197L22.2285 13.4854C25.6522 12.3512 29.2227 11.8252 32.8711 11.8252C38.0318 11.8252 43.263 12.6912 47.7939 15.2734C49.946 16.4587 51.9714 18.094 53.5693 20.2754L53.7598 21.0371C53.9348 21.6787 54.0806 22.4957 54.1973 23.4873C54.3139 24.4206 54.3721 25.6456 54.3721 27.1621V39.7197Z" fill="#FFFEFB"></path></svg>