<svg xmlns="http://www.w3.org/2000/svg" width="100%" viewBox="0 0 225 86" fill="none"><path d="M207.963 52.2749C211.113 52.2749 212.688 53.8499 212.688 56.9999V59.2749C212.688 62.3082 212.367 64.7874 211.725 66.7124C211.083 68.6374 210.179 70.1249 209.013 71.1749C207.846 72.2832 206.388 73.0124 204.638 73.3624C202.946 73.7707 201.021 73.9749 198.863 73.9749V65.7499C201.196 65.7499 203.033 65.5749 204.375 65.2249C205.717 64.8749 206.708 64.4666 207.35 63.9999C208.167 63.4749 208.692 62.8916 208.925 62.2499C208.05 62.8916 207.233 63.3582 206.475 63.6499C205.775 63.8832 204.842 63.9999 203.675 63.9999C200.583 63.9999 199.038 62.4249 199.038 59.2749V56.9999C199.038 53.8499 200.583 52.2749 203.675 52.2749H207.963Z" fill="#121212"></path><path d="M173.918 32.5875C173.918 33.8124 174.472 34.9208 175.581 35.9125C176.689 36.8458 178.06 37.75 179.693 38.625C181.385 39.4416 183.193 40.2874 185.118 41.1625C187.101 41.9791 188.91 42.9125 190.543 43.9625C192.235 45.0125 193.635 46.2375 194.743 47.6375C195.851 48.9791 196.406 50.5833 196.406 52.45C196.406 56.0083 194.772 58.9541 191.506 61.2875C188.297 63.5625 183.747 64.7 177.856 64.7C176.397 64.7 174.677 64.6125 172.693 64.4375C170.768 64.3208 168.902 63.9416 167.093 63.2999C165.285 62.5999 163.739 61.6083 162.456 60.325C161.231 58.9833 160.618 57.1458 160.618 54.8125C160.618 53.2375 160.968 51.8375 161.668 50.6125C162.427 49.3875 163.36 48.3375 164.468 47.4625C165.577 46.5874 166.743 45.8875 167.968 45.3625C169.252 44.8375 170.418 44.4875 171.468 44.3125C170.243 43.6708 169.077 43 167.968 42.3C166.86 41.5416 165.897 40.725 165.081 39.85C164.264 38.975 163.593 38.0125 163.068 36.9625C162.602 35.9124 162.368 34.7458 162.368 33.4625C162.368 31.4208 162.806 29.6708 163.681 28.2125C164.556 26.6958 165.781 25.4708 167.356 24.5374C168.989 23.6041 170.885 22.9333 173.043 22.525C175.26 22.0583 177.681 21.825 180.306 21.825C182.872 21.825 185.089 22.0583 186.956 22.525C188.822 22.9916 190.368 23.6333 191.593 24.45C192.818 25.2083 193.722 26.1125 194.306 27.1624C194.889 28.2124 195.181 29.2916 195.181 30.4C195.181 31.7416 194.772 32.9666 193.956 34.075C193.197 35.125 191.972 35.65 190.281 35.65C188.881 35.65 187.743 35.2708 186.868 34.5125C186.051 33.6958 185.293 32.8208 184.593 31.8875C183.893 30.8958 183.164 30.0208 182.406 29.2625C181.647 28.4458 180.627 28.0375 179.343 28.0375C178.06 28.0375 176.835 28.4166 175.668 29.1749C174.502 29.9333 173.918 31.0708 173.918 32.5875ZM178.206 58.4874C180.247 58.4874 181.91 58.0791 183.193 57.2625C184.535 56.4458 185.206 55.3666 185.206 54.0249C185.206 53.2083 184.914 52.4791 184.331 51.8375C183.806 51.1375 183.077 50.4958 182.143 49.9125C181.268 49.2708 180.218 48.6875 178.993 48.1625C177.826 47.5791 176.602 46.9958 175.318 46.4125C173.918 47.4041 172.927 48.6 172.343 50C171.76 51.4 171.585 52.7416 171.818 54.0249C172.052 55.2499 172.693 56.2999 173.743 57.1749C174.851 58.0499 176.339 58.4874 178.206 58.4874Z" fill="#121212"></path><path d="M152.415 48.7751C153.348 48.7751 154.136 48.9793 154.778 49.3876C155.419 49.7376 155.944 50.2043 156.352 50.7876C156.761 51.3709 157.052 52.0418 157.227 52.8001C157.402 53.5001 157.49 54.2001 157.49 54.9001C157.49 56.1251 157.169 57.3209 156.528 58.4876C155.886 59.6543 154.865 60.7043 153.465 61.6376C152.065 62.5126 150.257 63.2418 148.04 63.8251C145.823 64.4084 143.169 64.7001 140.078 64.7001C137.336 64.7001 134.769 64.2918 132.378 63.4751C129.986 62.6584 127.915 61.3751 126.165 59.6251C124.415 57.8751 123.015 55.6584 121.965 52.9751C120.973 50.2334 120.478 46.9959 120.478 43.2626C120.478 39.5293 121.003 36.3209 122.053 33.6376C123.161 30.9543 124.59 28.7376 126.34 26.9876C128.148 25.2376 130.19 23.9543 132.465 23.1376C134.798 22.3209 137.219 21.9126 139.727 21.9126C142.352 21.9126 144.628 22.3793 146.553 23.3126C148.478 24.2459 150.053 25.4418 151.278 26.9001C152.561 28.3001 153.523 29.9043 154.165 31.7126C154.807 33.4626 155.128 35.2126 155.128 36.9626C155.128 38.2459 154.748 39.3251 153.99 40.2001C153.232 41.0751 151.919 41.5126 150.053 41.5126H131.59C131.648 45.3043 132.436 48.3959 133.953 50.7876C135.469 53.1793 137.744 54.3751 140.778 54.3751C142.119 54.3751 143.227 54.0834 144.102 53.5001C144.977 52.9168 145.823 52.2751 146.64 51.5751C147.457 50.8751 148.303 50.2334 149.178 49.6501C150.053 49.0668 151.132 48.7751 152.415 48.7751ZM139.465 29.2626C138.415 29.2626 137.453 29.5251 136.578 30.0501C135.703 30.5751 134.944 31.2459 134.303 32.0626C133.719 32.8209 133.223 33.6668 132.815 34.6001C132.407 35.4751 132.144 36.2626 132.028 36.9626H146.203C146.086 34.9209 145.444 33.1418 144.278 31.6251C143.111 30.0501 141.507 29.2626 139.465 29.2626Z" fill="#121212"></path><path d="M101.437 22.6125C103.712 22.6125 105.812 23.0208 107.737 23.8375C109.662 24.6542 111.325 25.9083 112.725 27.6C114.183 29.2333 115.292 31.3625 116.05 33.9875C116.867 36.5542 117.275 39.6458 117.275 43.2625C117.275 46.8792 116.867 50 116.05 52.625C115.292 55.1917 114.183 57.3208 112.725 59.0125C111.325 60.7042 109.662 61.9583 107.737 62.775C105.812 63.5917 103.712 64 101.437 64C99.2207 64 97.1499 63.5625 95.2249 62.6875C93.3582 61.7542 91.8124 60.4125 90.5874 58.6625C90.7041 59.1292 90.7916 59.5667 90.8499 59.975C90.9666 60.325 91.0249 60.675 91.0249 61.025C91.0249 61.9583 90.704 62.6875 90.0624 63.2125C89.479 63.7375 88.6624 64 87.6124 64H79.5624C77.2874 64 76.1499 63.0083 76.1499 61.025C76.1499 60.5 76.2082 59.9458 76.3249 59.3625C76.4416 58.7792 76.5874 58.1083 76.7624 57.35C76.9374 56.5917 77.0832 55.7458 77.1999 54.8125C77.3166 53.8208 77.3749 52.6542 77.3749 51.3125V27.1625C77.3749 25.6458 77.3166 24.4208 77.1999 23.4875C77.0832 22.4958 76.9374 21.6792 76.7624 21.0375C76.5874 20.3375 76.4416 19.7542 76.3249 19.2875C76.2082 18.8208 76.1499 18.325 76.1499 17.8C76.1499 16.9833 76.3832 16.3708 76.8499 15.9625C77.3166 15.4958 77.9582 15.1167 78.7749 14.825C79.6499 14.475 80.7874 14.0667 82.1874 13.6C83.6457 13.075 85.104 12.8125 86.5624 12.8125C87.8457 12.8125 88.6916 13.1333 89.0999 13.775C89.5082 14.4167 89.7124 15.4375 89.7124 16.8375V29.2625C90.8791 27.0458 92.5124 25.3833 94.6124 24.275C96.7124 23.1667 98.9874 22.6125 101.437 22.6125ZM105.9 43.35C105.9 41.6 105.725 39.9375 105.375 38.3625C105.025 36.7292 104.5 35.3 103.8 34.075C103.158 32.7917 102.342 31.8 101.35 31.1C100.358 30.3417 99.2207 29.9625 97.9374 29.9625C96.654 29.9625 95.5166 30.3417 94.5249 31.1C93.5916 31.8 92.8041 32.7917 92.1624 34.075C91.5207 35.3 91.0249 36.7292 90.6749 38.3625C90.3832 39.9375 90.2374 41.6 90.2374 43.35C90.2374 45.1 90.3832 46.7917 90.6749 48.425C91.0249 50 91.5207 51.4 92.1624 52.625C92.8041 53.85 93.5916 54.8417 94.5249 55.6C95.5166 56.3 96.654 56.65 97.9374 56.65C99.2207 56.65 100.358 56.3 101.35 55.6C102.342 54.8417 103.158 53.85 103.8 52.625C104.5 51.4 105.025 50 105.375 48.425C105.725 46.7917 105.9 45.1 105.9 43.35Z" fill="#121212"></path><path d="M66.2009 26.4626C65.4426 26.6376 64.7134 26.7251 64.0134 26.7251C62.4968 26.7251 61.1551 26.3751 59.9884 25.6751C58.8218 24.9168 58.0926 23.9251 57.8009 22.7001C57.4509 21.1834 57.8301 19.7543 58.9384 18.4126C60.0468 17.0126 61.5926 16.0793 63.5759 15.6126C64.3926 15.4376 65.151 15.3501 65.851 15.3501C67.3676 15.3501 68.6801 15.7293 69.7885 16.4876C70.9551 17.1876 71.6843 18.1209 71.976 19.2876C72.326 20.8043 71.9468 22.2626 70.8385 23.6626C69.7301 25.0626 68.1843 25.9959 66.2009 26.4626ZM61.5634 64.0001C59.2884 64.0001 58.151 63.0084 58.151 61.0251C58.151 60.5001 58.2093 59.9459 58.3259 59.3626C58.4426 58.7793 58.5884 58.1084 58.7634 57.3501C58.9384 56.5918 59.0843 55.7459 59.2009 54.8126C59.3176 53.8209 59.3759 52.6543 59.3759 51.3126V43.3501C59.3759 41.8334 59.3176 40.6084 59.2009 39.6751C59.0843 38.6834 58.9384 37.8668 58.7634 37.2251C58.5884 36.5251 58.4426 35.9418 58.3259 35.4751C58.2093 34.9501 58.151 34.4251 58.151 33.9001C58.151 33.1418 58.3843 32.5584 58.851 32.1501C59.3176 31.6834 59.9593 31.2751 60.776 30.9251C61.651 30.5751 62.7884 30.1668 64.1884 29.7001C65.5884 29.1751 67.0468 28.9126 68.5634 28.9126C69.8468 28.9126 70.6926 29.2334 71.101 29.8751C71.5093 30.5168 71.7135 31.5668 71.7135 33.0251V51.3126C71.7135 52.6543 71.7718 53.8209 71.8884 54.8126C72.0635 55.7459 72.2093 56.5918 72.3259 57.3501C72.5009 58.1084 72.6468 58.7793 72.7634 59.3626C72.9385 59.9459 73.026 60.5001 73.026 61.0251C73.026 61.9584 72.7051 62.6876 72.0634 63.2126C71.4801 63.7376 70.6634 64.0001 69.6134 64.0001H61.5634Z" fill="#121212"></path><path d="M45.9481 22.6125C48.7481 22.6125 50.8772 23.4584 52.3356 25.15C53.7939 26.7834 54.5231 29.6125 54.5231 33.6376C54.5231 35.5625 54.3772 37.6626 54.0856 39.9376C53.7939 42.1542 53.3273 44.4001 52.6856 46.6751C52.0439 48.8917 51.2273 51.05 50.2356 53.15C49.2439 55.25 48.0481 57.1167 46.6481 58.7501C45.3064 60.3251 43.7314 61.6084 41.9231 62.6001C40.1731 63.5334 38.2189 64.0001 36.0606 64.0001H31.3356C29.9356 64.0001 28.7398 63.7959 27.7481 63.3876C26.7564 62.9209 25.9106 62.3376 25.2106 61.6376C24.5106 60.8792 23.9564 60.0042 23.5481 59.0126C23.1398 57.9626 22.7898 56.8834 22.4981 55.7751C22.3814 55.2501 22.2064 54.5792 21.9731 53.7626C21.7981 52.8876 21.5647 51.9251 21.2731 50.8751C21.0397 49.8251 20.7481 48.7167 20.3981 47.5501C20.1064 46.3834 19.8147 45.2167 19.5231 44.0501C18.8814 41.3084 18.1522 38.3626 17.3356 35.2125C16.9856 33.8709 16.6065 32.7334 16.1981 31.8C15.7898 30.8667 15.3814 30.0501 14.9731 29.35C14.5648 28.6501 14.1856 28.0375 13.8356 27.5125C13.4856 26.9292 13.2231 26.3751 13.0481 25.85C12.7564 24.9167 12.7856 24.1584 13.1356 23.5751C13.4856 22.9334 14.2439 22.6125 15.4106 22.6125H27.0481C28.2731 22.6125 29.2647 22.875 30.0231 23.4C30.8397 23.8667 31.3064 24.5959 31.4231 25.5876C31.4231 26.2292 31.3065 26.8417 31.0731 27.4251C30.8398 28.0084 30.5772 28.6501 30.2856 29.35C30.0522 30.0501 29.8773 30.8667 29.7606 31.8C29.644 32.7334 29.7606 33.8709 30.1106 35.2125L34.3981 52.1876C34.6897 53.4709 35.1856 54.4334 35.8856 55.0751C36.644 55.6584 37.4314 55.9501 38.2481 55.9501C39.2398 55.9501 40.1731 55.4834 41.0481 54.5501C41.9814 53.6167 42.5356 52.2167 42.7106 50.35C42.8272 48.1334 42.6523 45.6542 42.1856 42.9125C41.7189 40.1126 40.9898 37.3126 39.9981 34.5126C38.6564 30.8376 38.5689 27.9501 39.7356 25.85C40.9606 23.6917 43.0315 22.6125 45.9481 22.6125Z" fill="#121212"></path><path d="M207.963 40.2754C211.388 40.2754 216.16 41.1394 219.991 44.9707C223.823 48.8024 224.688 53.5753 224.688 57V59.2754C224.687 62.7909 224.353 66.4277 223.324 69.8301L223.109 70.5068C221.999 73.839 220.138 77.3065 217.04 80.0947L217.038 80.0928C214.19 82.7135 210.82 84.3054 207.313 85.0596C204.554 85.7117 201.705 85.9746 198.862 85.9746C192.235 85.9745 186.862 80.6019 186.862 73.9746V65.75C186.862 64.9623 186.939 64.1926 187.084 63.4473C188.766 62.9039 190.241 62.1842 191.506 61.2871C194.772 58.9539 196.405 56.0083 196.405 52.4502C196.405 50.5836 195.851 48.9793 194.743 47.6377C193.932 46.6128 192.963 45.683 191.839 44.8457C195.612 41.1394 200.284 40.2754 203.675 40.2754H207.963ZM199.037 59.2754C199.037 62.425 200.583 63.9999 203.675 64C204.841 64 205.775 63.8836 206.475 63.6504C207.233 63.3587 208.05 62.8916 208.925 62.25C208.691 62.8916 208.166 63.475 207.35 64C206.708 64.4666 205.716 64.8747 204.375 65.2246C203.033 65.5746 201.196 65.75 198.862 65.75V73.9746C201.021 73.9746 202.946 73.7706 204.638 73.3623C206.388 73.0123 207.846 72.2831 209.013 71.1748C210.179 70.1249 211.083 68.6376 211.725 66.7129C212.366 64.788 212.687 62.3085 212.688 59.2754V57C212.688 53.8501 211.113 52.2755 207.963 52.2754H203.675L203.39 52.2793C200.488 52.3747 199.037 53.9485 199.037 57V59.2754Z" fill="#121212"></path><path d="M195.181 30.4004C195.181 29.2921 194.889 28.2121 194.306 27.1621C193.722 26.1122 192.818 25.2085 191.593 24.4502C190.368 23.6337 188.822 22.992 186.956 22.5254C185.089 22.0587 182.872 21.8252 180.306 21.8252C177.681 21.8252 175.26 22.0587 173.043 22.5254C170.885 22.9337 168.989 23.6038 167.355 24.5371C165.78 25.4704 164.556 26.6962 163.681 28.2129C162.806 29.6712 162.368 31.4214 162.368 33.4629C162.368 34.7461 162.602 35.913 163.068 36.9629C163.593 38.0127 164.265 38.9747 165.081 39.8496C165.898 40.7245 166.86 41.5415 167.968 42.2998C169.076 42.9997 170.243 43.6709 171.468 44.3125C170.418 44.4875 169.251 44.8374 167.968 45.3623C166.743 45.8873 165.576 46.588 164.468 47.4629C163.36 48.3378 162.426 49.3875 161.668 50.6123C160.968 51.8373 160.618 53.2375 160.618 54.8125C160.618 57.1458 161.231 58.9835 162.456 60.3252C163.739 61.6083 165.285 62.5999 167.093 63.2998C168.901 63.9415 170.768 64.3208 172.693 64.4375C174.677 64.6125 176.397 64.7002 177.855 64.7002C183.747 64.7002 188.298 63.5621 191.506 61.2871C194.772 58.9539 196.405 56.0083 196.405 52.4502C196.405 50.5836 195.851 48.9793 194.743 47.6377C193.635 46.2377 192.235 45.0129 190.543 43.9629C188.91 42.9129 187.101 41.9788 185.118 41.1621C183.193 40.2872 181.385 39.4416 179.693 38.625C178.06 37.75 176.689 36.8454 175.581 35.9121C174.473 34.9205 173.918 33.8127 173.918 32.5879C173.918 31.0713 174.501 29.9331 175.668 29.1748C176.835 28.4166 178.06 28.0372 179.343 28.0371C180.626 28.0371 181.647 28.4461 182.405 29.2627C183.164 30.021 183.893 30.8961 184.593 31.8877L184.609 31.9092C185.305 32.8344 186.058 33.7023 186.868 34.5127C187.743 35.2709 188.881 35.6503 190.28 35.6504C191.972 35.6504 193.198 35.1252 193.956 34.0752C194.722 33.0362 195.128 31.8944 195.176 30.6504L195.181 30.4004ZM175.318 46.4121C176.602 46.9954 177.827 47.5788 178.993 48.1621C180.218 48.6871 181.269 49.2704 182.144 49.9121L180.649 52.3008C180.616 52.2869 180.582 52.2726 180.549 52.2588C180.526 52.2496 180.505 52.2388 180.482 52.2295C180.431 52.2877 180.38 52.3461 180.328 52.4033L180.62 52.3477L180.566 52.4336L180.246 52.4922C180.208 52.5331 180.169 52.5729 180.13 52.6133C180.489 52.5842 180.823 52.5471 181.132 52.5068C181.037 52.4651 180.941 52.4241 180.844 52.3828L180.566 52.4336L180.62 52.3477L180.717 52.3291C180.694 52.3197 180.672 52.3102 180.649 52.3008L182.144 49.9121C183.077 50.4954 183.806 51.1379 184.331 51.8379C184.914 52.4795 185.206 53.2089 185.206 54.0254C185.206 55.3669 184.535 56.4461 183.193 57.2627C181.91 58.0793 180.248 58.4873 178.206 58.4873C176.339 58.4873 174.851 58.0498 173.743 57.1748C172.693 56.2999 172.052 55.2502 171.818 54.0254C171.585 52.7421 171.759 51.3999 172.343 50C172.926 48.6 173.918 47.4038 175.318 46.4121ZM207.181 30.4004C207.181 33.9989 206.135 37.3755 204.235 40.293C207.051 43.8402 208.37 48.0244 208.403 52.2861C208.26 52.2789 208.113 52.2754 207.963 52.2754H203.675C200.583 52.2755 199.037 53.8501 199.037 57V59.2754C199.037 62.425 200.583 63.9999 203.675 64C204.247 64 204.764 63.9702 205.224 63.9141C204.95 64.3623 204.662 64.8009 204.357 65.2285C203.017 65.5755 201.186 65.75 198.862 65.75V70.7725L198.48 71.0527C198.469 71.0606 198.458 71.0683 198.447 71.0762C192.429 75.344 185.064 76.7002 177.855 76.7002C175.993 76.7002 173.961 76.5899 171.807 76.4033C169.012 76.2202 166.274 75.6847 163.62 74.7949L163.08 74.6094C162.973 74.5715 162.867 74.5321 162.762 74.4912C159.707 73.3089 156.889 71.5862 154.452 69.2793L153.971 68.8105C153.842 68.6821 153.716 68.5502 153.594 68.416C152.094 66.7737 151 64.9883 150.227 63.1533C151.477 62.7087 152.557 62.2049 153.465 61.6377C154.865 60.7044 155.886 59.654 156.527 58.4873C157.169 57.3208 157.49 56.1252 157.49 54.9004C157.49 54.2004 157.403 53.4998 157.228 52.7998C157.053 52.0416 156.761 51.3704 156.353 50.7871C155.944 50.2039 155.419 49.7376 154.777 49.3877C154.136 48.9794 153.348 48.7754 152.415 48.7754C151.171 48.7754 150.118 49.0492 149.258 49.5977C149.684 47.9166 150.336 46.2569 151.249 44.6592L151.465 44.2959C151.8 43.7538 152.157 43.2272 152.532 42.7148L152.335 42.3291C152.254 42.1666 152.176 42.002 152.103 41.8359C152.028 41.669 151.957 41.5016 151.888 41.334C152.81 41.1305 153.511 40.7532 153.99 40.2002C154.748 39.3253 155.128 38.2461 155.128 36.9629C155.128 35.213 154.807 33.4628 154.165 31.7129C153.523 29.9046 152.561 28.3004 151.277 26.9004C151.276 26.8994 151.275 26.8985 151.274 26.8975C151.755 25.2472 152.445 23.6134 153.391 22.0381L153.392 22.0391C155.337 18.7377 158.031 16.1144 161.238 14.2139L161.402 14.1182C164.309 12.4574 167.435 11.3924 170.62 10.7715C173.751 10.1165 176.995 9.8252 180.306 9.8252C183.549 9.8252 186.792 10.1143 189.866 10.8828L190.395 11.0195C192.981 11.7106 195.629 12.7543 198.074 14.3516C200.471 15.8642 202.762 17.9479 204.457 20.751L204.796 21.335L205.067 21.8418C206.392 24.3988 207.181 27.2913 207.181 30.4004Z" fill="#121212"></path><path d="M157.49 54.9004C157.49 54.2004 157.403 53.4998 157.228 52.7998C157.053 52.0416 156.761 51.3704 156.353 50.7871C155.944 50.2039 155.419 49.7376 154.777 49.3877C154.136 48.9794 153.348 48.7754 152.415 48.7754C151.132 48.7754 150.053 49.0671 149.178 49.6504C148.303 50.2337 147.456 50.8752 146.64 51.5752C145.823 52.2751 144.977 52.9168 144.103 53.5C143.228 54.0833 142.119 54.375 140.777 54.375C137.744 54.3749 135.469 53.1787 133.952 50.7871C132.436 48.3955 131.648 45.304 131.59 41.5127H150.053C151.919 41.5127 153.232 41.0751 153.99 40.2002C154.748 39.3253 155.128 38.2461 155.128 36.9629C155.128 35.213 154.807 33.4628 154.165 31.7129C153.523 29.9046 152.561 28.3004 151.277 26.9004C150.052 25.4421 148.478 24.2458 146.553 23.3125C144.628 22.3792 142.353 21.9121 139.728 21.9121C137.219 21.9121 134.798 22.321 132.465 23.1377C130.19 23.9544 128.148 25.2374 126.34 26.9873C124.59 28.7373 123.161 30.9544 122.053 33.6377C121.003 36.321 120.478 39.5294 120.478 43.2627C120.478 46.9958 120.973 50.2331 121.965 52.9746C123.015 55.6579 124.415 57.875 126.165 59.625C127.915 61.375 129.986 62.6579 132.378 63.4746C134.769 64.2912 137.336 64.7002 140.077 64.7002C143.169 64.7002 145.823 64.4085 148.04 63.8252C150.118 63.2783 151.838 62.6031 153.198 61.7998L153.465 61.6377C154.777 60.7627 155.757 59.7852 156.403 58.7051L156.527 58.4873C157.129 57.3934 157.449 56.2741 157.486 55.1289L157.49 54.9004ZM139.465 29.2627C141.506 29.2627 143.111 30.0501 144.277 31.625C145.444 33.1417 146.085 34.9212 146.202 36.9629H132.027C132.144 36.2629 132.407 35.4746 132.815 34.5996C133.224 33.6665 133.719 32.8207 134.303 32.0625C134.944 31.2459 135.702 30.5748 136.577 30.0498C137.452 29.5248 138.415 29.2627 139.465 29.2627ZM160.618 54.8125C160.618 57.1458 161.231 58.9835 162.456 60.3252C163.739 61.6083 165.285 62.5999 167.093 63.2998C167.22 63.345 167.349 63.3861 167.478 63.4287C167.426 63.5343 167.375 63.6405 167.321 63.7451L167.042 64.2705C165.369 67.3119 163.028 69.593 160.606 71.29L160.121 71.6221C160.023 71.6872 159.925 71.7512 159.825 71.8135C157.261 73.4159 154.439 74.506 151.651 75.2793L151.094 75.4297C147.603 76.3483 143.867 76.7002 140.077 76.7002C136.375 76.7002 132.728 76.1802 129.203 75.0625L128.5 74.8311C124.667 73.5221 121.213 71.4626 118.263 68.6768L117.68 68.1104C115.261 65.6912 113.368 62.9088 111.913 59.9131C112.193 59.628 112.463 59.3283 112.725 59.0127C114.183 57.321 115.291 55.1916 116.05 52.625C116.815 50.164 117.223 47.2672 117.271 43.9346L117.275 43.2627C117.275 39.646 116.866 36.554 116.05 33.9873C115.291 31.3624 114.183 29.2329 112.725 27.5996C112.488 27.3139 112.244 27.0411 111.992 26.7803C113.489 23.7537 115.413 20.943 117.854 18.502L117.995 18.3643C120.976 15.4793 124.466 13.2588 128.411 11.8428L128.501 11.8115C132.127 10.5423 135.889 9.91211 139.728 9.91211C143.762 9.91211 147.903 10.6311 151.788 12.5146C154.955 14.05 157.86 16.1602 160.26 18.9434C162.269 21.1698 163.852 23.6857 164.988 26.4346C164.489 26.9744 164.053 27.5674 163.681 28.2129C162.806 29.6712 162.368 31.4214 162.368 33.4629C162.368 34.7461 162.602 35.913 163.068 36.9629L163.271 37.3525C163.763 38.2521 164.367 39.084 165.081 39.8496C165.54 40.3416 166.046 40.8144 166.598 41.2695C166.41 42.0143 166.169 42.7524 165.873 43.4785C165.881 43.4891 165.89 43.4992 165.897 43.5098L166.184 43.9062L166.435 44.2754C166.74 44.7374 167.018 45.2082 167.272 45.6846C166.3 46.1633 165.364 46.7553 164.468 47.4629C163.36 48.3378 162.426 49.3875 161.668 50.6123C160.968 51.8373 160.618 53.2375 160.618 54.8125Z" fill="#121212"></path><path d="M87.0791 0.820312C89.777 0.899699 95.2785 1.67943 98.8604 6.78809L99.2236 7.33203L99.4326 7.66992C100.02 8.65221 100.456 9.65042 100.781 10.6211C101 10.616 101.218 10.6123 101.438 10.6123C105.18 10.6123 108.89 11.2911 112.424 12.79L113.127 13.1016C116.57 14.6893 119.507 17.0006 121.896 19.8623C123.794 22.0482 125.23 24.4836 126.301 27.0273C124.569 28.7711 123.153 30.9746 122.053 33.6377C121.003 36.321 120.478 39.5294 120.478 43.2627L120.483 43.957C120.542 47.3986 121.035 50.4045 121.965 52.9746C123.015 55.6579 124.415 57.875 126.165 59.625C126.188 59.6484 126.213 59.6711 126.236 59.6943C125.172 62.1702 123.774 64.527 121.968 66.6621L121.97 66.6631C121.941 66.6983 121.91 66.7326 121.881 66.7676C121.858 66.794 121.836 66.8213 121.813 66.8477L121.812 66.8467C119.439 69.6634 116.531 71.9411 113.127 73.5107L112.424 73.8223C108.89 75.3212 105.18 76 101.438 76C98.7927 76 96.1821 75.6349 93.6514 74.8809C91.5001 75.7317 89.3759 76 87.6123 76H79.5625C76.9486 76 72.7468 75.466 69.1172 72.3018C66.2643 69.8146 64.9404 66.7532 64.4258 64H69.6133C70.6632 64 71.4802 63.7378 72.0635 63.2129C72.7051 62.688 73.0263 61.9585 73.0264 61.0254C73.0264 60.5004 72.9387 59.9456 72.7637 59.3623C72.647 58.779 72.5012 58.1079 72.3262 57.3496C72.2095 56.5914 72.0636 55.7457 71.8887 54.8125C71.8012 54.0688 71.7465 53.2267 71.7246 52.2861L71.7139 51.3125V33.0254C71.7139 31.5671 71.5089 30.5167 71.1006 29.875C70.6922 29.2334 69.8467 28.9121 68.5635 28.9121C67.4702 28.9121 66.4076 29.0505 65.375 29.3232V27.1621C65.375 26.9676 65.3713 26.7871 65.3691 26.6201C65.6423 26.5793 65.9199 26.5278 66.2012 26.4629C67.8334 26.0788 69.1674 25.3765 70.207 24.3604L77.2002 23.4873C77.3169 24.4206 77.375 25.6456 77.375 27.1621V51.3125L77.3643 52.2861C77.3424 53.2267 77.2877 54.0688 77.2002 54.8125C77.0836 55.7457 76.9377 56.5914 76.7627 57.3496L76.5215 58.4219C76.4486 58.7572 76.3835 59.0707 76.3252 59.3623C76.2085 59.9456 76.1504 60.5004 76.1504 61.0254C76.1505 62.8846 77.1499 63.8721 79.1494 63.9883L79.5625 64H87.6123C88.6622 64 89.4792 63.7378 90.0625 63.2129C90.7041 62.688 91.0253 61.9585 91.0254 61.0254C91.0254 60.6754 90.9663 60.3246 90.8496 59.9746C90.7913 59.5664 90.7045 59.1286 90.5879 58.6621C91.8128 60.412 93.3581 61.7542 95.2246 62.6875C97.1496 63.5625 99.2208 64 101.438 64C103.712 64 105.812 63.592 107.737 62.7754C109.662 61.9588 111.325 60.7042 112.725 59.0127C114.183 57.321 115.291 55.1916 116.05 52.625C116.866 50 117.275 46.8793 117.275 43.2627C117.275 39.646 116.866 36.554 116.05 33.9873C115.291 31.3624 114.183 29.2329 112.725 27.5996C111.325 25.9081 109.662 24.6545 107.737 23.8379C105.812 23.0212 103.712 22.6123 101.438 22.6123C98.9875 22.6123 96.7123 23.1671 94.6123 24.2754C92.5124 25.3837 90.8795 27.0461 89.7129 29.2627V16.8379C89.7129 15.438 89.5079 14.4171 89.0996 13.7754C88.6913 13.1337 87.8458 12.8125 86.5625 12.8125C85.1042 12.8125 83.6458 13.0746 82.1875 13.5996L81.1865 13.9395C80.2352 14.2675 79.4315 14.5628 78.7754 14.8252C77.9587 15.1169 77.3163 15.4962 76.8496 15.9629C76.3832 16.3712 76.1504 16.9835 76.1504 17.7998C76.1504 18.3247 76.2086 18.8205 76.3252 19.2871L76.7627 21.0371C76.9377 21.6787 77.0835 22.4957 77.2002 23.4873L70.207 24.3604C70.4306 24.1418 70.6427 23.9099 70.8389 23.6621C71.9469 22.2622 72.3255 20.8036 71.9756 19.2871C71.6838 18.1207 70.9546 17.1872 69.7881 16.4873C68.6798 15.7291 67.3671 15.3496 65.8506 15.3496C65.3707 15.3496 64.8638 15.3943 64.3291 15.4766C64.7344 12.8082 65.9152 9.72371 68.665 7.18652C70.5714 5.37943 72.6885 4.28132 74.5322 3.59961C75.6557 3.157 76.9521 2.69667 78.3643 2.22559C80.9725 1.31496 83.7211 0.8125 86.5625 0.8125L87.0791 0.820312ZM97.9375 29.9629C99.2206 29.9629 100.358 30.3415 101.35 31.0996C102.341 31.7996 103.158 32.7919 103.8 34.0752C104.5 35.3001 105.025 36.7291 105.375 38.3623C105.725 39.9372 105.9 41.5998 105.9 43.3496C105.9 45.0995 105.725 46.7915 105.375 48.4248C105.025 49.9998 104.5 51.4 103.8 52.625C103.158 53.85 102.341 54.8413 101.35 55.5996C100.358 56.2996 99.2208 56.6504 97.9375 56.6504C96.6542 56.6504 95.517 56.2996 94.5254 55.5996C93.5921 54.8413 92.8038 53.85 92.1621 52.625C91.5205 51.4 91.0248 49.9997 90.6748 48.4248C90.4196 46.9958 90.2761 45.5222 90.2441 44.0039L90.2373 43.3496C90.2373 41.5998 90.3832 39.9372 90.6748 38.3623C91.0248 36.7292 91.5205 35.3001 92.1621 34.0752C92.8038 32.7919 93.5921 31.7996 94.5254 31.0996C95.5169 30.3415 96.6544 29.9629 97.9375 29.9629Z" fill="#121212"></path><path d="M50.2354 53.1504C51.2271 51.0504 52.0439 48.8915 52.6856 46.6748C53.2903 44.5308 53.7374 42.4125 54.0313 40.3203L59.2012 39.6748C59.3179 40.6081 59.376 41.8331 59.376 43.3496V51.3125L59.3653 52.2861C59.3434 53.2267 59.2887 54.0688 59.2012 54.8125C59.0846 55.7457 58.9387 56.5914 58.7637 57.3496L58.5225 58.4219C58.4496 58.7572 58.3845 59.0707 58.3262 59.3623C58.2095 59.9456 58.1514 60.5004 58.1514 61.0254C58.1515 62.8846 59.1509 63.8721 61.1504 63.9883L61.5635 64H69.6133L69.9961 63.9873C70.8638 63.9299 71.5531 63.6722 72.0635 63.2129C72.6652 62.7206 72.985 62.0485 73.0225 61.1973L73.0264 61.0254C73.0264 60.5004 72.9387 59.9456 72.7637 59.3623C72.647 58.779 72.5012 58.1079 72.3262 57.3496C72.2095 56.5914 72.0637 55.7457 71.8887 54.8125C71.8012 54.0688 71.7465 53.2267 71.7246 52.2861L71.7139 51.3125V33.0254C71.7139 31.5671 71.509 30.5167 71.1006 29.875C70.6923 29.2334 69.8467 28.9121 68.5635 28.9121C67.0468 28.9121 65.5885 29.1752 64.1885 29.7002C62.7888 30.1668 61.6513 30.5748 60.7764 30.9248C59.9597 31.2748 59.3173 31.6837 58.8506 32.1504C58.3842 32.5587 58.1514 33.1423 58.1514 33.9004C58.1514 34.4252 58.2096 34.9498 58.3262 35.4746L58.7637 37.2246C58.9387 37.8662 59.0845 38.6832 59.2012 39.6748L54.0313 40.3203C54.0492 40.1925 54.0692 40.0651 54.086 39.9375C54.3776 37.6626 54.5235 35.5626 54.5235 33.6377C54.5235 29.613 53.7941 26.7838 52.336 25.1504C50.8777 23.4588 48.7482 22.6123 45.9483 22.6123C45.8663 22.6123 45.7848 22.6155 45.7041 22.6172C45.4367 18.2525 46.9318 14.2703 49.3946 11.1328L49.6866 10.7695C52.6901 7.07272 56.6734 4.90907 60.8272 3.93164L61.0616 3.87891L63.4004 14.7949C63.2789 14.8295 63.0032 14.9237 62.6455 15.1396C62.2588 15.3731 61.8837 15.6847 61.5635 16.0527L61.4297 16.2139C61.3702 16.2891 61.3028 16.3813 61.2295 16.4893C60.3268 16.9818 59.5632 17.623 58.9385 18.4121C57.8302 19.7538 57.4508 21.1835 57.8008 22.7002C58.0925 23.9251 58.8218 24.9165 59.9883 25.6748C61.0822 26.3311 62.33 26.6797 63.7315 26.7207L64.0137 26.7246C64.5387 26.7246 65.08 26.6756 65.6377 26.5771L66.2012 26.4629C68.1845 25.9962 69.7306 25.0621 70.8389 23.6621C71.947 22.2622 72.3256 20.8036 71.9756 19.2871C71.6839 18.1207 70.9546 17.1872 69.7881 16.4873C68.7423 15.7719 67.5148 15.3938 66.1055 15.3535C65.7071 15.1216 65.2936 14.9546 64.8985 14.8516C64.5941 14.7722 64.3436 14.7401 64.166 14.7295L64.0137 14.7246C63.7122 14.7246 63.5335 14.7625 63.503 14.7695L63.6914 15.5898C63.6759 15.593 63.6601 15.5954 63.6446 15.5986L63.4522 14.7812C63.4407 14.784 63.4233 14.7884 63.4004 14.7949L61.0616 3.87891C62.5513 3.55968 64.1621 3.34964 65.8506 3.34961L66.5293 3.36133C69.8261 3.46937 73.2081 4.37414 76.2793 6.39258C78.878 8.02558 81.1622 10.3878 82.5899 13.4629C82.4559 13.5067 82.3215 13.5514 82.1875 13.5996C80.7877 14.0662 79.6504 14.4752 78.7754 14.8252C77.9588 15.1169 77.3163 15.4962 76.8496 15.9629C76.3833 16.3712 76.1505 16.9835 76.1504 17.7998C76.1504 18.3247 76.2086 18.8205 76.3252 19.2871L76.7627 21.0371C76.9377 21.6787 77.0836 22.4957 77.2002 23.4873C77.3169 24.4206 77.375 25.6456 77.375 27.1621V51.3125L77.3643 52.2861C77.3424 53.2267 77.2877 54.0688 77.2002 54.8125C77.0836 55.7457 76.9377 56.5914 76.7627 57.3496C76.5878 58.1078 76.4419 58.779 76.3252 59.3623C76.2086 59.9456 76.1504 60.5004 76.1504 61.0254L76.1631 61.3848C76.2962 63.1283 77.4295 64 79.5625 64H84.7373C84.1472 67.0065 82.6208 69.9804 79.8926 72.3047C76.495 75.2567 72.5532 76 69.6133 76H61.5635C58.9496 76 54.7478 75.466 51.1182 72.3018C47.4205 69.0781 46.29 64.8902 46.1631 61.6582L46.1514 61.0254L46.1582 60.499C46.1701 60.0634 46.1973 59.6345 46.2364 59.2129C46.3754 59.061 46.5141 58.9077 46.6485 58.75C48.0483 57.1168 49.2438 55.2501 50.2354 53.1504Z" fill="#121212"></path><path d="M15.4102 22.6123L15.1963 22.6162C14.1506 22.6539 13.4639 22.9737 13.1358 23.5752C12.7859 24.1584 12.7564 24.9165 13.0479 25.8496C13.2229 26.3746 13.486 26.9294 13.836 27.5127C14.1858 28.0375 14.5645 28.6499 14.9727 29.3496C15.381 30.0496 15.7899 30.8665 16.1983 31.7998C16.6066 32.7331 16.986 33.8712 17.336 35.2129C18.1526 38.3627 18.8818 41.3083 19.5235 44.0498L20.3985 47.5498C20.7485 48.7165 21.0401 49.825 21.2735 50.875C21.5651 51.925 21.7977 52.8877 21.9727 53.7627C22.206 54.5793 22.3814 55.2504 22.4981 55.7754C22.7897 56.8836 23.1396 57.9628 23.5479 59.0127C23.9562 60.0043 24.511 60.8794 25.211 61.6377C25.9109 62.3376 26.7565 62.9211 27.7481 63.3877C28.7397 63.796 29.936 64 31.336 64H36.0606C38.2189 64 40.1729 63.5329 41.9229 62.5996C43.7312 61.6079 45.3068 60.325 46.6485 58.75C48.0483 57.1168 49.2438 55.2501 50.2354 53.1504C51.227 51.0504 52.0439 48.8915 52.6856 46.6748C53.247 44.6844 53.6743 42.7163 53.9678 40.7705L54.086 39.9375C54.3412 37.9467 54.4847 36.0899 54.5166 34.3672L54.5235 33.6377C54.5235 29.7383 53.8385 26.9613 52.4697 25.3066L52.336 25.1504C50.8777 23.4588 48.7482 22.6123 45.9483 22.6123C43.0317 22.6123 40.9604 23.6914 39.7354 25.8496C38.5687 27.9496 38.6564 30.8377 39.9981 34.5127C40.9897 37.3125 41.7189 40.1123 42.1856 42.9121C42.6522 45.6536 42.8276 48.133 42.711 50.3496C42.536 52.2163 41.9812 53.6165 41.0479 54.5498C40.1729 55.4831 39.2397 55.9502 38.2481 55.9502C37.4315 55.9502 36.644 55.6584 35.8858 55.0752C35.1858 54.4335 34.6901 53.4708 34.3985 52.1875L30.1104 35.2129C29.7604 33.8712 29.6441 32.7331 29.7608 31.7998C29.8774 30.8666 30.0519 30.0496 30.2852 29.3496C30.5768 28.6497 30.84 28.0081 31.0733 27.4248C31.3065 26.8417 31.4228 26.2293 31.4229 25.5879C31.3062 24.5964 30.8399 23.8671 30.0235 23.4004C29.3598 22.941 28.5171 22.6824 27.4961 22.625L27.0479 22.6123V10.6123C29.7183 10.6123 33.0123 11.1446 36.1338 13.0645C39.1676 11.3658 42.5882 10.6123 45.9483 10.6123L46.4492 10.6172C51.4182 10.718 56.7697 12.337 60.8682 16.7002C60.1215 17.1605 59.478 17.7308 58.9385 18.4121C57.8302 19.7538 57.4508 21.1835 57.8008 22.7002C58.0925 23.9251 58.8218 24.9165 59.9883 25.6748C61.155 26.3748 62.497 26.7246 64.0137 26.7246C64.602 26.7246 65.2103 26.6598 65.8399 26.5361C66.027 27.4102 66.1654 28.2763 66.2676 29.1221C65.5609 29.2532 64.8678 29.4455 64.1885 29.7002C62.7887 30.1668 61.6513 30.5748 60.7764 30.9248C59.9597 31.2748 59.3173 31.6837 58.8506 32.1504C58.3842 32.5587 58.1514 33.1423 58.1514 33.9004C58.1514 34.4252 58.2096 34.9498 58.3262 35.4746L58.7637 37.2246C58.9387 37.8662 59.0845 38.6832 59.2012 39.6748C59.3179 40.6081 59.376 41.8331 59.376 43.3496V51.3125C59.376 52.6542 59.3179 53.8208 59.2012 54.8125C59.0845 55.7457 58.9387 56.5914 58.7637 57.3496C58.5887 58.1078 58.4429 58.779 58.3262 59.3623C58.2095 59.9456 58.1514 60.5004 58.1514 61.0254C58.1514 61.7331 58.2962 62.3144 58.586 62.7695C57.7358 64.0804 56.8031 65.3367 55.7822 66.5303L55.7832 66.5312C53.6417 69.0452 51.1223 71.148 48.2686 72.7979L47.6934 73.1221C47.6525 73.1445 47.6114 73.1666 47.5703 73.1885C43.9319 75.129 40.0107 76 36.0606 76H31.336C28.9811 76 26.3421 75.6843 23.7061 74.6914L23.1787 74.4834C22.9968 74.4085 22.8168 74.3289 22.6387 74.2451C20.6588 73.3134 18.7574 72.0691 17.0615 70.4512L16.7256 70.123C16.6126 70.01 16.5011 69.8948 16.3926 69.7773C14.7964 68.0481 13.5461 66.0979 12.6309 64.0029L12.4522 63.5811C12.4223 63.5084 12.3928 63.4355 12.3643 63.3623C11.8604 62.0667 11.422 60.7467 11.0489 59.4053L10.8936 58.8291C10.8542 58.6796 10.8177 58.5289 10.7842 58.3779C10.7621 58.2783 10.7246 58.1242 10.668 57.9072L10.4346 57.0596C10.3457 56.7485 10.2695 56.4335 10.2061 56.1162C10.1263 55.7174 10.0167 55.2398 9.87014 54.6777L9.71096 54.0869C9.65502 53.8855 9.60397 53.6826 9.55862 53.4785C9.43672 52.93 9.28554 52.3286 9.10061 51.6729L8.90432 50.998C8.85091 50.82 8.80194 50.6403 8.75686 50.46L7.88186 46.96C7.86726 46.9016 7.85261 46.8428 7.83889 46.7842C7.22193 44.1481 6.51609 41.2952 5.71975 38.2236H5.71877C5.5382 37.5336 5.38728 37.0803 5.28713 36.8154L5.20412 36.6094C5.00357 36.151 4.83839 35.8188 4.71584 35.5908L4.60745 35.3965C4.44772 35.1227 4.3057 34.8852 4.17971 34.6816L3.85061 34.1689L3.54592 33.6865C2.93159 32.6626 2.33902 31.4994 1.86135 30.207L1.66409 29.6445C1.64029 29.5731 1.6172 29.5015 1.59475 29.4297C0.758507 26.7537 0.106374 22.2311 2.66311 17.7168C6.19584 11.3695 12.6685 10.6124 15.4102 10.6123V22.6123ZM27.0479 10.6123V22.6123H15.4102V10.6123H27.0479Z" fill="#121212"></path><path d="M207.963 52.2749C211.113 52.2749 212.688 53.8499 212.688 56.9999V59.2749C212.688 62.3082 212.367 64.7874 211.725 66.7124C211.083 68.6374 210.179 70.1249 209.013 71.1749C207.846 72.2832 206.388 73.0124 204.638 73.3624C202.946 73.7707 201.021 73.9749 198.863 73.9749V65.7499C201.196 65.7499 203.033 65.5749 204.375 65.2249C205.717 64.8749 206.708 64.4666 207.35 63.9999C208.167 63.4749 208.692 62.8916 208.925 62.2499C208.05 62.8916 207.233 63.3582 206.475 63.6499C205.775 63.8832 204.842 63.9999 203.675 63.9999C200.583 63.9999 199.038 62.4249 199.038 59.2749V56.9999C199.038 53.8499 200.583 52.2749 203.675 52.2749H207.963Z" fill="#121212"></path><path d="M173.918 32.5875C173.918 33.8124 174.472 34.9208 175.581 35.9125C176.689 36.8458 178.06 37.75 179.693 38.625C181.385 39.4416 183.193 40.2874 185.118 41.1625C187.101 41.9791 188.91 42.9125 190.543 43.9625C192.235 45.0125 193.635 46.2375 194.743 47.6375C195.851 48.9791 196.406 50.5833 196.406 52.45C196.406 56.0083 194.772 58.9541 191.506 61.2875C188.297 63.5625 183.747 64.7 177.856 64.7C176.397 64.7 174.677 64.6125 172.693 64.4375C170.768 64.3208 168.902 63.9416 167.093 63.2999C165.285 62.5999 163.739 61.6083 162.456 60.325C161.231 58.9833 160.618 57.1458 160.618 54.8125C160.618 53.2375 160.968 51.8375 161.668 50.6125C162.427 49.3875 163.36 48.3375 164.468 47.4625C165.577 46.5874 166.743 45.8875 167.968 45.3625C169.252 44.8375 170.418 44.4875 171.468 44.3125C170.243 43.6708 169.077 43 167.968 42.3C166.86 41.5416 165.897 40.725 165.081 39.85C164.264 38.975 163.593 38.0125 163.068 36.9625C162.602 35.9124 162.368 34.7458 162.368 33.4625C162.368 31.4208 162.806 29.6708 163.681 28.2125C164.556 26.6958 165.781 25.4708 167.356 24.5374C168.989 23.6041 170.885 22.9333 173.043 22.525C175.26 22.0583 177.681 21.825 180.306 21.825C182.872 21.825 185.089 22.0583 186.956 22.525C188.822 22.9916 190.368 23.6333 191.593 24.45C192.818 25.2083 193.722 26.1125 194.306 27.1624C194.889 28.2124 195.181 29.2916 195.181 30.4C195.181 31.7416 194.772 32.9666 193.956 34.075C193.197 35.125 191.972 35.65 190.281 35.65C188.881 35.65 187.743 35.2708 186.868 34.5125C186.051 33.6958 185.293 32.8208 184.593 31.8875C183.893 30.8958 183.164 30.0208 182.406 29.2625C181.647 28.4458 180.627 28.0375 179.343 28.0375C178.06 28.0375 176.835 28.4166 175.668 29.1749C174.502 29.9333 173.918 31.0708 173.918 32.5875ZM178.206 58.4874C180.247 58.4874 181.91 58.0791 183.193 57.2625C184.535 56.4458 185.206 55.3666 185.206 54.0249C185.206 53.2083 184.914 52.4791 184.331 51.8375C183.806 51.1375 183.077 50.4958 182.143 49.9125C181.268 49.2708 180.218 48.6875 178.993 48.1625C177.826 47.5791 176.602 46.9958 175.318 46.4125C173.918 47.4041 172.927 48.6 172.343 50C171.76 51.4 171.585 52.7416 171.818 54.0249C172.052 55.2499 172.693 56.2999 173.743 57.1749C174.851 58.0499 176.339 58.4874 178.206 58.4874Z" fill="#121212"></path><path d="M152.415 48.7751C153.348 48.7751 154.136 48.9793 154.778 49.3876C155.419 49.7376 155.944 50.2043 156.352 50.7876C156.761 51.3709 157.052 52.0418 157.227 52.8001C157.402 53.5001 157.49 54.2001 157.49 54.9001C157.49 56.1251 157.169 57.3209 156.528 58.4876C155.886 59.6543 154.865 60.7043 153.465 61.6376C152.065 62.5126 150.257 63.2418 148.04 63.8251C145.823 64.4084 143.169 64.7001 140.078 64.7001C137.336 64.7001 134.769 64.2918 132.378 63.4751C129.986 62.6584 127.915 61.3751 126.165 59.6251C124.415 57.8751 123.015 55.6584 121.965 52.9751C120.973 50.2334 120.478 46.9959 120.478 43.2626C120.478 39.5293 121.003 36.3209 122.053 33.6376C123.161 30.9543 124.59 28.7376 126.34 26.9876C128.148 25.2376 130.19 23.9543 132.465 23.1376C134.798 22.3209 137.219 21.9126 139.727 21.9126C142.352 21.9126 144.628 22.3793 146.553 23.3126C148.478 24.2459 150.053 25.4418 151.278 26.9001C152.561 28.3001 153.523 29.9043 154.165 31.7126C154.807 33.4626 155.128 35.2126 155.128 36.9626C155.128 38.2459 154.748 39.3251 153.99 40.2001C153.232 41.0751 151.919 41.5126 150.053 41.5126H131.59C131.648 45.3043 132.436 48.3959 133.953 50.7876C135.469 53.1793 137.744 54.3751 140.778 54.3751C142.119 54.3751 143.227 54.0834 144.102 53.5001C144.977 52.9168 145.823 52.2751 146.64 51.5751C147.457 50.8751 148.303 50.2334 149.178 49.6501C150.053 49.0668 151.132 48.7751 152.415 48.7751ZM139.465 29.2626C138.415 29.2626 137.453 29.5251 136.578 30.0501C135.703 30.5751 134.944 31.2459 134.303 32.0626C133.719 32.8209 133.223 33.6668 132.815 34.6001C132.407 35.4751 132.144 36.2626 132.028 36.9626H146.203C146.086 34.9209 145.444 33.1418 144.278 31.6251C143.111 30.0501 141.507 29.2626 139.465 29.2626Z" fill="#121212"></path><path d="M101.437 22.6125C103.712 22.6125 105.812 23.0208 107.737 23.8375C109.662 24.6542 111.325 25.9083 112.725 27.6C114.183 29.2333 115.292 31.3625 116.05 33.9875C116.867 36.5542 117.275 39.6458 117.275 43.2625C117.275 46.8792 116.867 50 116.05 52.625C115.292 55.1917 114.183 57.3208 112.725 59.0125C111.325 60.7042 109.662 61.9583 107.737 62.775C105.812 63.5917 103.712 64 101.437 64C99.2207 64 97.1499 63.5625 95.2249 62.6875C93.3582 61.7542 91.8124 60.4125 90.5874 58.6625C90.7041 59.1292 90.7916 59.5667 90.8499 59.975C90.9666 60.325 91.0249 60.675 91.0249 61.025C91.0249 61.9583 90.704 62.6875 90.0624 63.2125C89.479 63.7375 88.6624 64 87.6124 64H79.5624C77.2874 64 76.1499 63.0083 76.1499 61.025C76.1499 60.5 76.2082 59.9458 76.3249 59.3625C76.4416 58.7792 76.5874 58.1083 76.7624 57.35C76.9374 56.5917 77.0832 55.7458 77.1999 54.8125C77.3166 53.8208 77.3749 52.6542 77.3749 51.3125V27.1625C77.3749 25.6458 77.3166 24.4208 77.1999 23.4875C77.0832 22.4958 76.9374 21.6792 76.7624 21.0375C76.5874 20.3375 76.4416 19.7542 76.3249 19.2875C76.2082 18.8208 76.1499 18.325 76.1499 17.8C76.1499 16.9833 76.3832 16.3708 76.8499 15.9625C77.3166 15.4958 77.9582 15.1167 78.7749 14.825C79.6499 14.475 80.7874 14.0667 82.1874 13.6C83.6457 13.075 85.104 12.8125 86.5624 12.8125C87.8457 12.8125 88.6916 13.1333 89.0999 13.775C89.5082 14.4167 89.7124 15.4375 89.7124 16.8375V29.2625C90.8791 27.0458 92.5124 25.3833 94.6124 24.275C96.7124 23.1667 98.9874 22.6125 101.437 22.6125ZM105.9 43.35C105.9 41.6 105.725 39.9375 105.375 38.3625C105.025 36.7292 104.5 35.3 103.8 34.075C103.158 32.7917 102.342 31.8 101.35 31.1C100.358 30.3417 99.2207 29.9625 97.9374 29.9625C96.654 29.9625 95.5166 30.3417 94.5249 31.1C93.5916 31.8 92.8041 32.7917 92.1624 34.075C91.5207 35.3 91.0249 36.7292 90.6749 38.3625C90.3832 39.9375 90.2374 41.6 90.2374 43.35C90.2374 45.1 90.3832 46.7917 90.6749 48.425C91.0249 50 91.5207 51.4 92.1624 52.625C92.8041 53.85 93.5916 54.8417 94.5249 55.6C95.5166 56.3 96.654 56.65 97.9374 56.65C99.2207 56.65 100.358 56.3 101.35 55.6C102.342 54.8417 103.158 53.85 103.8 52.625C104.5 51.4 105.025 50 105.375 48.425C105.725 46.7917 105.9 45.1 105.9 43.35Z" fill="#121212"></path><path d="M66.2009 26.4626C65.4426 26.6376 64.7134 26.7251 64.0134 26.7251C62.4968 26.7251 61.1551 26.3751 59.9884 25.6751C58.8218 24.9168 58.0926 23.9251 57.8009 22.7001C57.4509 21.1834 57.8301 19.7543 58.9384 18.4126C60.0468 17.0126 61.5926 16.0793 63.5759 15.6126C64.3926 15.4376 65.151 15.3501 65.851 15.3501C67.3676 15.3501 68.6801 15.7293 69.7885 16.4876C70.9551 17.1876 71.6843 18.1209 71.976 19.2876C72.326 20.8043 71.9468 22.2626 70.8385 23.6626C69.7301 25.0626 68.1843 25.9959 66.2009 26.4626ZM61.5634 64.0001C59.2884 64.0001 58.151 63.0084 58.151 61.0251C58.151 60.5001 58.2093 59.9459 58.3259 59.3626C58.4426 58.7793 58.5884 58.1084 58.7634 57.3501C58.9384 56.5918 59.0843 55.7459 59.2009 54.8126C59.3176 53.8209 59.3759 52.6543 59.3759 51.3126V43.3501C59.3759 41.8334 59.3176 40.6084 59.2009 39.6751C59.0843 38.6834 58.9384 37.8668 58.7634 37.2251C58.5884 36.5251 58.4426 35.9418 58.3259 35.4751C58.2093 34.9501 58.151 34.4251 58.151 33.9001C58.151 33.1418 58.3843 32.5584 58.851 32.1501C59.3176 31.6834 59.9593 31.2751 60.776 30.9251C61.651 30.5751 62.7884 30.1668 64.1884 29.7001C65.5884 29.1751 67.0468 28.9126 68.5634 28.9126C69.8468 28.9126 70.6926 29.2334 71.101 29.8751C71.5093 30.5168 71.7135 31.5668 71.7135 33.0251V51.3126C71.7135 52.6543 71.7718 53.8209 71.8884 54.8126C72.0635 55.7459 72.2093 56.5918 72.3259 57.3501C72.5009 58.1084 72.6468 58.7793 72.7634 59.3626C72.9385 59.9459 73.026 60.5001 73.026 61.0251C73.026 61.9584 72.7051 62.6876 72.0634 63.2126C71.4801 63.7376 70.6634 64.0001 69.6134 64.0001H61.5634Z" fill="#121212"></path><path d="M45.9481 22.6125C48.7481 22.6125 50.8772 23.4584 52.3356 25.15C53.7939 26.7834 54.5231 29.6125 54.5231 33.6376C54.5231 35.5625 54.3772 37.6626 54.0856 39.9376C53.7939 42.1542 53.3273 44.4001 52.6856 46.6751C52.0439 48.8917 51.2273 51.05 50.2356 53.15C49.2439 55.25 48.0481 57.1167 46.6481 58.7501C45.3064 60.3251 43.7314 61.6084 41.9231 62.6001C40.1731 63.5334 38.2189 64.0001 36.0606 64.0001H31.3356C29.9356 64.0001 28.7398 63.7959 27.7481 63.3876C26.7564 62.9209 25.9106 62.3376 25.2106 61.6376C24.5106 60.8792 23.9564 60.0042 23.5481 59.0126C23.1398 57.9626 22.7898 56.8834 22.4981 55.7751C22.3814 55.2501 22.2064 54.5792 21.9731 53.7626C21.7981 52.8876 21.5647 51.9251 21.2731 50.8751C21.0397 49.8251 20.7481 48.7167 20.3981 47.5501C20.1064 46.3834 19.8147 45.2167 19.5231 44.0501C18.8814 41.3084 18.1522 38.3626 17.3356 35.2125C16.9856 33.8709 16.6065 32.7334 16.1981 31.8C15.7898 30.8667 15.3814 30.0501 14.9731 29.35C14.5648 28.6501 14.1856 28.0375 13.8356 27.5125C13.4856 26.9292 13.2231 26.3751 13.0481 25.85C12.7564 24.9167 12.7856 24.1584 13.1356 23.5751C13.4856 22.9334 14.2439 22.6125 15.4106 22.6125H27.0481C28.2731 22.6125 29.2647 22.875 30.0231 23.4C30.8397 23.8667 31.3064 24.5959 31.4231 25.5876C31.4231 26.2292 31.3065 26.8417 31.0731 27.4251C30.8398 28.0084 30.5772 28.6501 30.2856 29.35C30.0522 30.0501 29.8773 30.8667 29.7606 31.8C29.644 32.7334 29.7606 33.8709 30.1106 35.2125L34.3981 52.1876C34.6897 53.4709 35.1856 54.4334 35.8856 55.0751C36.644 55.6584 37.4314 55.9501 38.2481 55.9501C39.2398 55.9501 40.1731 55.4834 41.0481 54.5501C41.9814 53.6167 42.5356 52.2167 42.7106 50.35C42.8272 48.1334 42.6523 45.6542 42.1856 42.9125C41.7189 40.1126 40.9898 37.3126 39.9981 34.5126C38.6564 30.8376 38.5689 27.9501 39.7356 25.85C40.9606 23.6917 43.0315 22.6125 45.9481 22.6125Z" fill="#121212"></path><path d="M207.963 42.2754C211.079 42.2754 215.253 43.0609 218.577 46.3848C221.901 49.7091 222.688 53.8836 222.688 57V59.2754C222.687 62.6788 222.362 66.1021 221.41 69.249L221.212 69.875C220.204 72.8978 218.557 75.955 215.898 78.4229L215.9 78.4248C215.868 78.4555 215.833 78.4842 215.801 78.5146C215.767 78.5451 215.736 78.5781 215.702 78.6084L215.7 78.6064C213.133 80.974 210.084 82.4204 206.877 83.1074C204.292 83.7207 201.593 83.9746 198.862 83.9746C193.34 83.9745 188.862 79.4974 188.862 73.9746V65.75C188.862 64.6638 189.038 63.6188 189.358 62.6396C189.353 62.6106 189.346 62.5817 189.341 62.5527C190.12 62.1793 190.842 61.7579 191.506 61.2871C194.772 58.9539 196.405 56.0083 196.405 52.4502C196.405 50.5836 195.851 48.9793 194.743 47.6377C194.328 47.1138 193.872 46.6146 193.376 46.1396C196.626 43.0362 200.639 42.2754 203.675 42.2754V52.2754L203.39 52.2793C200.488 52.3747 199.037 53.9485 199.037 57V59.2754C199.037 62.425 200.583 63.9999 203.675 64C204.841 64 205.775 63.8836 206.475 63.6504C207.233 63.3587 208.05 62.8916 208.925 62.25C208.691 62.8916 208.166 63.475 207.35 64C206.708 64.4666 205.716 64.8747 204.375 65.2246C203.033 65.5746 201.196 65.75 198.862 65.75V73.9746C201.021 73.9746 202.946 73.7706 204.638 73.3623C206.388 73.0123 207.846 72.2831 209.013 71.1748C210.179 70.1249 211.083 68.6376 211.725 66.7129C212.366 64.788 212.687 62.3085 212.688 59.2754V57C212.688 53.9483 211.209 52.3746 208.253 52.2793L207.963 52.2754V42.2754ZM207.963 42.2754V52.2754H203.675V42.2754H207.963Z" fill="#FFFEFB"></path><path d="M196.405 52.4502C196.405 50.5836 195.851 48.9793 194.743 47.6377C193.635 46.2377 192.235 45.0129 190.543 43.9629C188.91 42.9129 187.101 41.9788 185.118 41.1621C183.193 40.2872 181.385 39.4416 179.693 38.625C178.06 37.75 176.689 36.8454 175.581 35.9121C174.473 34.9205 173.918 33.8127 173.918 32.5879C173.918 31.0713 174.501 29.9331 175.668 29.1748C176.835 28.4166 178.06 28.0372 179.343 28.0371C180.626 28.0371 181.647 28.4461 182.405 29.2627C183.164 30.021 183.893 30.8961 184.593 31.8877C185.293 32.821 186.051 33.696 186.868 34.5127C187.743 35.2709 188.881 35.6503 190.28 35.6504C191.972 35.6504 193.198 35.1252 193.956 34.0752C194.722 33.0362 195.128 31.8944 195.176 30.6504L195.181 30.4004C195.181 29.2921 194.889 28.2121 194.306 27.1621C193.722 26.1122 192.818 25.2085 191.593 24.4502C190.368 23.6337 188.822 22.992 186.956 22.5254C185.089 22.0587 182.872 21.8252 180.306 21.8252C177.681 21.8252 175.26 22.0587 173.043 22.5254C170.885 22.9337 168.989 23.6038 167.355 24.5371C165.78 25.4704 164.556 26.6962 163.681 28.2129L163.521 28.4893C162.752 29.8906 162.368 31.5489 162.368 33.4629C162.368 34.7461 162.602 35.913 163.068 36.9629C163.593 38.0127 164.265 38.9747 165.081 39.8496C165.898 40.7245 166.86 41.5415 167.968 42.2998C169.076 42.9997 170.243 43.6709 171.468 44.3125C170.418 44.4875 169.251 44.8374 167.968 45.3623C166.743 45.8873 165.576 46.588 164.468 47.4629C163.36 48.3378 162.426 49.3875 161.668 50.6123L161.541 50.8438C160.926 52.0128 160.618 53.3358 160.618 54.8125L160.625 55.2441C160.697 57.3736 161.308 59.0674 162.456 60.3252C163.739 61.6083 165.285 62.5999 167.093 63.2998C168.901 63.9415 170.768 64.3208 172.693 64.4375C174.677 64.6125 176.397 64.7002 177.855 64.7002C183.747 64.7002 188.298 63.5621 191.506 61.2871C194.67 59.0268 196.302 56.192 196.401 52.7822L196.405 52.4502ZM175.318 46.4121C176.602 46.9954 177.827 47.5788 178.993 48.1621C180.218 48.6871 181.269 49.2704 182.144 49.9121C183.077 50.4954 183.806 51.1379 184.331 51.8379C184.914 52.4795 185.206 53.2089 185.206 54.0254C185.206 55.3669 184.535 56.4461 183.193 57.2627C181.91 58.0793 180.248 58.4873 178.206 58.4873C176.339 58.4873 174.851 58.0498 173.743 57.1748C172.693 56.2999 172.052 55.2502 171.818 54.0254C171.585 52.7421 171.759 51.3999 172.343 50C172.926 48.6 173.918 47.4038 175.318 46.4121ZM205.181 30.4004C205.181 33.9032 204.072 37.1663 202.061 39.9287L202.062 39.9297C202.051 39.946 202.037 39.9613 202.025 39.9775C202.018 39.987 202.013 39.9974 202.006 40.0068L202.005 40.0059C201.908 40.1375 201.811 40.2665 201.712 40.3926C201.965 40.678 202.212 40.9697 202.453 41.2686L202.702 41.5771C205.193 44.7339 206.368 48.4525 206.402 52.2754H203.675C200.583 52.2755 199.037 53.8501 199.037 57V59.2754C199.037 62.116 200.295 63.6743 202.81 63.9531C202.397 64.5423 201.954 65.1121 201.48 65.6592C200.691 65.7179 199.818 65.75 198.862 65.75V68.2285C198.526 68.5103 198.182 68.7849 197.828 69.0508L197.318 69.4248C197.309 69.4315 197.299 69.4387 197.29 69.4453C191.74 73.3809 184.844 74.7002 177.855 74.7002C176.059 74.7002 174.079 74.5938 171.953 74.4092C169.324 74.2383 166.751 73.7358 164.256 72.8994L163.749 72.7246C163.66 72.693 163.571 72.6601 163.483 72.626C160.656 71.5314 158.063 69.9433 155.827 67.8262L155.385 67.3965C155.278 67.2894 155.173 67.1792 155.071 67.0674C153.745 65.6142 152.77 64.0296 152.076 62.3906C152.576 62.152 153.04 61.9032 153.465 61.6377C154.865 60.7044 155.886 59.654 156.527 58.4873C157.169 57.3208 157.49 56.1252 157.49 54.9004C157.49 54.2004 157.403 53.4998 157.228 52.7998C157.053 52.0416 156.761 51.3704 156.353 50.7871C155.944 50.2039 155.419 49.7376 154.777 49.3877C154.136 48.9794 153.348 48.7754 152.415 48.7754C152.122 48.7754 151.841 48.7919 151.569 48.8223C151.929 47.7435 152.396 46.682 152.985 45.6514L153.166 45.3486C153.698 44.4886 154.285 43.6693 154.924 42.8936C154.777 42.6482 154.635 42.4001 154.497 42.1484L154.124 41.4346C154.056 41.2991 153.991 41.1618 153.93 41.0234C153.85 40.845 153.775 40.6658 153.702 40.4863C153.805 40.3964 153.902 40.3019 153.99 40.2002C154.748 39.3253 155.128 38.2461 155.128 36.9629C155.128 35.213 154.807 33.4628 154.165 31.7129C153.815 30.7255 153.368 29.7992 152.826 28.9336C153.236 26.9829 153.94 25.0529 155.02 23.2158L155.019 23.2148C155.041 23.1757 155.065 23.1375 155.088 23.0986C155.094 23.0884 155.099 23.0776 155.105 23.0674C156.873 20.0636 159.323 17.6737 162.258 15.9346L162.395 15.8555C165.083 14.3193 167.995 13.3213 171 12.7354C173.986 12.1082 177.101 11.8252 180.306 11.8252C183.436 11.8252 186.508 12.105 189.381 12.8232L189.879 12.9521C192.315 13.603 194.756 14.5724 196.984 16.0283C199.175 17.4069 201.233 19.285 202.746 21.7871L203.047 22.3057L203.292 22.7617C204.481 25.0571 205.181 27.6365 205.181 30.4004Z" fill="#FFFEFB"></path><path d="M114.844 55.7607C114.885 55.6767 114.924 55.5912 114.964 55.5059L121.965 52.9746L114.844 55.7607ZM117.275 43.2627C117.275 39.646 116.866 36.554 116.05 33.9873C115.416 31.792 114.536 29.9441 113.412 28.4424C114.875 25.2852 116.796 22.3882 119.269 19.916L119.386 19.8018C122.171 17.1059 125.42 15.0418 129.087 13.7256L129.161 13.6992L129.803 13.4824C133.015 12.4337 136.337 11.9121 139.728 11.9121C143.527 11.9121 147.357 12.5893 150.915 14.3145C153.874 15.7493 156.56 17.7074 158.765 20.2715C160.906 22.6408 162.524 25.3636 163.59 28.3682H163.588L163.589 28.3701C162.775 29.7964 162.368 31.4942 162.368 33.4629C162.368 34.7461 162.602 35.913 163.068 36.9629L163.271 37.3525C163.72 38.1735 164.263 38.9371 164.897 39.6465C164.654 41.0563 164.212 42.449 163.542 43.7773C163.804 44.0745 164.055 44.3838 164.294 44.7051L164.545 45.0527L164.767 45.3789C165.05 45.8063 165.307 46.2424 165.54 46.6846C165.177 46.9267 164.819 47.1856 164.468 47.4629C163.36 48.3378 162.426 49.3875 161.668 50.6123C160.968 51.8373 160.618 53.2375 160.618 54.8125C160.618 57.1458 161.231 58.9835 162.456 60.3252C163.38 61.2488 164.44 62.0201 165.636 62.6416C165.604 62.7049 165.574 62.7691 165.542 62.832L165.29 63.3066C163.796 66.0236 161.689 68.09 159.459 69.6523L159.012 69.958C158.93 70.0123 158.848 70.0653 158.765 70.1172C156.409 71.5893 153.778 72.6132 151.117 73.3516L150.585 73.4961C147.306 74.3588 143.75 74.7002 140.077 74.7002C136.564 74.7002 133.122 74.2072 129.808 73.1562L129.146 72.9385C125.579 71.7202 122.374 69.8081 119.636 67.2227L119.094 66.6963C116.64 64.2429 114.754 61.3707 113.339 58.2432C113.9 57.4903 114.402 56.6634 114.844 55.7607L121.965 52.9746C123.015 55.6579 124.415 57.875 126.165 59.625C127.915 61.375 129.986 62.6579 132.378 63.4746C134.62 64.2402 137.016 64.6474 139.565 64.6953L140.077 64.7002C142.976 64.7002 145.49 64.4433 147.619 63.9307L148.04 63.8252C150.118 63.2783 151.838 62.6031 153.198 61.7998L153.465 61.6377C154.777 60.7627 155.757 59.7852 156.403 58.7051L156.527 58.4873C157.129 57.3934 157.449 56.2741 157.486 55.1289L157.49 54.9004C157.49 54.2004 157.403 53.4998 157.228 52.7998C157.053 52.0416 156.761 51.3704 156.353 50.7871C155.944 50.2039 155.419 49.7376 154.777 49.3877C154.136 48.9794 153.348 48.7754 152.415 48.7754C151.132 48.7754 150.053 49.0671 149.178 49.6504C148.303 50.2337 147.456 50.8752 146.64 51.5752L146.022 52.0889C145.399 52.5921 144.759 53.0624 144.103 53.5L143.936 53.6055C143.088 54.1182 142.035 54.375 140.777 54.375L140.218 54.3613C137.463 54.2212 135.374 53.0293 133.952 50.7871C132.436 48.3955 131.648 45.304 131.59 41.5127H150.053C151.919 41.5127 153.232 41.0751 153.99 40.2002C154.748 39.3253 155.128 38.2461 155.128 36.9629C155.128 35.213 154.807 33.4628 154.165 31.7129C153.523 29.9046 152.561 28.3004 151.277 26.9004C150.052 25.4421 148.478 24.2458 146.553 23.3125C144.628 22.3792 142.353 21.9121 139.728 21.9121C137.219 21.9121 134.798 22.321 132.465 23.1377C130.19 23.9544 128.148 25.2374 126.34 26.9873C124.59 28.7373 123.161 30.9544 122.053 33.6377L121.862 34.1465C120.939 36.7237 120.478 39.7625 120.478 43.2627L120.483 43.957C120.542 47.3986 121.035 50.4045 121.965 52.9746L114.964 55.5059C115.382 54.6158 115.745 53.6563 116.05 52.625C116.815 50.164 117.223 47.2672 117.271 43.9346L117.275 43.2627ZM139.465 29.2627C141.506 29.2627 143.111 30.0501 144.277 31.625C145.444 33.1417 146.085 34.9212 146.202 36.9629H132.027C132.144 36.2629 132.407 35.4746 132.815 34.5996C133.224 33.6665 133.719 32.8207 134.303 32.0625C134.944 31.2459 135.702 30.5748 136.577 30.0498C137.452 29.5248 138.415 29.2627 139.465 29.2627Z" fill="#FFFEFB"></path><path d="M117.275 43.2627C117.275 39.646 116.866 36.554 116.05 33.9873C115.339 31.5264 114.32 29.5014 112.994 27.9121L112.725 27.5996C111.325 25.9081 109.662 24.6545 107.737 23.8379C105.812 23.0212 103.712 22.6123 101.438 22.6123C98.9875 22.6123 96.7123 23.1671 94.6123 24.2754C92.5124 25.3837 90.8795 27.0461 89.7129 29.2627V16.8379C89.7129 15.438 89.5079 14.4171 89.0996 13.7754C88.6913 13.1337 87.8458 12.8125 86.5625 12.8125C85.1042 12.8125 83.6458 13.0746 82.1875 13.5996L81.1865 13.9395C80.2352 14.2675 79.4315 14.5628 78.7754 14.8252C77.9587 15.1169 77.3163 15.4962 76.8496 15.9629C76.3832 16.3712 76.1504 16.9835 76.1504 17.7998C76.1504 18.3247 76.2086 18.8205 76.3252 19.2871L76.7627 21.0371L71.6738 22.3086C72.1133 21.3286 72.2143 20.3214 71.9756 19.2871C71.6838 18.1207 70.9546 17.1872 69.7881 16.4873C68.8093 15.8177 67.6713 15.4444 66.374 15.3662C66.7807 13.1533 67.8139 10.6907 70.0273 8.65039C71.7077 7.05327 73.5939 6.07325 75.2686 5.45898C76.3342 5.03923 77.578 4.59631 78.9541 4.13672C81.3841 3.28015 83.9341 2.8125 86.5625 2.8125L87.0322 2.81934C89.4661 2.89155 94.1769 3.59163 97.2275 7.94336L97.5361 8.40625L97.7168 8.69824C98.5164 10.0356 98.9964 11.417 99.2861 12.7031C99.9982 12.6432 100.716 12.6123 101.438 12.6123C104.935 12.6123 108.377 13.2466 111.643 14.6318L112.288 14.917C115.421 16.3613 118.101 18.4595 120.298 21.0703C122.308 23.3569 123.773 25.9692 124.824 28.7246C123.746 30.1374 122.822 31.7752 122.053 33.6377C121.003 36.321 120.478 39.5294 120.478 43.2627L120.483 43.957C120.542 47.3986 121.035 50.4045 121.965 52.9746C122.717 54.8966 123.65 56.5783 124.762 58.0215C123.724 60.6705 122.309 63.1669 120.428 65.3867L120.429 65.3877C120.41 65.4102 120.39 65.4317 120.371 65.4541C120.347 65.4829 120.324 65.5133 120.299 65.542L120.298 65.541C118.101 68.1521 115.421 70.2509 112.288 71.6953L111.643 71.9805C108.377 73.3657 104.935 74 101.438 74C98.7425 74 96.0955 73.5926 93.5469 72.752C91.4687 73.7048 89.3626 74 87.6123 74H79.5625C77.1946 74 73.5511 73.5135 70.4316 70.7939C68.1103 68.7701 66.958 66.2961 66.4639 64H69.6133C70.6632 64 71.4802 63.7378 72.0635 63.2129C72.7051 62.688 73.0263 61.9585 73.0264 61.0254C73.0264 60.5004 72.9387 59.9456 72.7637 59.3623C72.647 58.779 72.5012 58.1079 72.3262 57.3496C72.2095 56.5914 72.0636 55.7457 71.8887 54.8125C71.8012 54.0688 71.7465 53.2267 71.7246 52.2861L71.7139 51.3125V33.0254C71.7139 31.5671 71.5089 30.5167 71.1006 29.875C70.6922 29.2334 69.8467 28.9121 68.5635 28.9121C68.1633 28.9121 67.7671 28.9312 67.375 28.9678V27.1621C67.375 26.7642 67.3684 26.4169 67.3604 26.1162C68.4771 25.7095 69.4253 25.1244 70.207 24.3604L77.2002 23.4873C77.3169 24.4206 77.375 25.6456 77.375 27.1621V51.3125L77.3643 52.2861C77.3424 53.2267 77.2877 54.0688 77.2002 54.8125C77.0836 55.7457 76.9377 56.5914 76.7627 57.3496L76.5215 58.4219C76.4486 58.7572 76.3835 59.0707 76.3252 59.3623C76.2085 59.9456 76.1504 60.5004 76.1504 61.0254C76.1505 62.8846 77.1499 63.8721 79.1494 63.9883L79.5625 64H87.6123C88.6622 64 89.4792 63.7378 90.0625 63.2129C90.7041 62.688 91.0253 61.9585 91.0254 61.0254C91.0254 60.6754 90.9663 60.3246 90.8496 59.9746C90.7913 59.5664 90.7045 59.1286 90.5879 58.6621C91.8128 60.412 93.3581 61.7542 95.2246 62.6875C97.1496 63.5625 99.2208 64 101.438 64C103.712 64 105.812 63.592 107.737 62.7754C109.662 61.9588 111.325 60.7042 112.725 59.0127C114.183 57.321 115.291 55.1916 116.05 52.625C116.815 50.164 117.223 47.2672 117.271 43.9346L117.275 43.2627ZM90.2373 43.3496C90.2373 41.5998 90.3832 39.9372 90.6748 38.3623C91.0248 36.7292 91.5205 35.3001 92.1621 34.0752C92.8038 32.7919 93.5921 31.7996 94.5254 31.0996C95.5169 30.3415 96.6544 29.9629 97.9375 29.9629C99.2206 29.9629 100.358 30.3415 101.35 31.0996C102.341 31.7996 103.158 32.7919 103.8 34.0752C104.5 35.3001 105.025 36.7291 105.375 38.3623L105.498 38.957C105.766 40.3542 105.9 41.8184 105.9 43.3496L105.892 44.0039C105.853 45.5222 105.681 46.9958 105.375 48.4248L105.235 49.0078C104.891 50.3475 104.412 51.5532 103.8 52.625L103.551 53.0732C102.951 54.0941 102.217 54.9361 101.35 55.5996C100.358 56.2996 99.2208 56.6504 97.9375 56.6504C96.6542 56.6504 95.517 56.2996 94.5254 55.5996C93.5921 54.8413 92.8038 53.85 92.1621 52.625C91.5205 51.4 91.0248 49.9997 90.6748 48.4248C90.4196 46.9958 90.2761 45.5222 90.2441 44.0039L90.2373 43.3496ZM70.207 24.3604C70.2265 24.3414 70.2454 24.3219 70.2646 24.3027L77.2002 23.4873L70.207 24.3604ZM76.7627 21.0371C76.9377 21.6787 77.0835 22.4957 77.2002 23.4873L70.2646 24.3027C70.4667 24.1008 70.6597 23.8884 70.8389 23.6621C71.1912 23.217 71.4689 22.7655 71.6738 22.3086L76.7627 21.0371Z" fill="#FFFEFB"></path><path d="M50.2353 53.1504C51.227 51.0504 52.0438 48.8915 52.6855 46.6748C53.2902 44.5308 53.7374 42.4125 54.0312 40.3203L59.2011 39.6748C59.3178 40.6081 59.3759 41.8331 59.3759 43.3496V51.3125L59.3652 52.2861C59.3433 53.2267 59.2886 54.0688 59.2011 54.8125C59.0845 55.7457 58.9386 56.5914 58.7636 57.3496L58.5224 58.4219C58.4495 58.7572 58.3844 59.0707 58.3261 59.3623C58.2095 59.9456 58.1513 60.5004 58.1513 61.0254C58.1515 62.8846 59.1509 63.8721 61.1504 63.9883L61.5634 64H69.6132L69.9961 63.9873C70.8637 63.9299 71.553 63.6722 72.0634 63.2129C72.6651 62.7206 72.9849 62.0485 73.0224 61.1973L73.0263 61.0254C73.0263 60.5004 72.9386 59.9456 72.7636 59.3623C72.647 58.779 72.5011 58.1079 72.3261 57.3496C72.2095 56.5914 72.0636 55.7457 71.8886 54.8125C71.8011 54.0688 71.7464 53.2267 71.7246 52.2861L71.7138 51.3125V33.0254C71.7138 31.5671 71.5089 30.5167 71.1005 29.875C70.6922 29.2334 69.8466 28.9121 68.5634 28.9121C67.0468 28.9121 65.5884 29.1752 64.1884 29.7002C62.7887 30.1668 61.6513 30.5748 60.7763 30.9248C59.9597 31.2748 59.3172 31.6837 58.8505 32.1504C58.3841 32.5587 58.1513 33.1423 58.1513 33.9004C58.1514 34.4252 58.2095 34.9498 58.3261 35.4746L58.7636 37.2246L54.2675 38.3477C54.4372 36.6758 54.5234 35.1059 54.5234 33.6377C54.5234 29.613 53.794 26.7838 52.3359 25.1504C51.202 23.8351 49.6618 23.0338 47.7168 22.7412C47.4041 18.7384 48.7803 15.0821 51.0976 12.2051L51.3545 11.8896C54.0278 8.66808 57.5531 6.75609 61.2851 5.87793L61.4804 5.83496L62.0009 5.72852C63.2258 5.4945 64.5171 5.34963 65.8505 5.34961L66.4629 5.36035C69.4353 5.45749 72.4491 6.27275 75.1777 8.06543C77.4444 9.48122 79.4225 11.501 80.6845 14.1152C79.9492 14.3741 79.3127 14.6103 78.7754 14.8252C77.9587 15.1169 77.3162 15.4962 76.8496 15.9629C76.3832 16.3712 76.1504 16.9835 76.1504 17.7998C76.1504 18.3247 76.2085 18.8205 76.3252 19.2871L76.7627 21.0371C76.9376 21.6787 77.0835 22.4957 77.2002 23.4873C77.3168 24.4206 77.375 25.6456 77.375 27.1621V51.3125L77.3642 52.2861C77.3423 53.2267 77.2876 54.0688 77.2002 54.8125C77.0835 55.7457 76.9376 56.5914 76.7627 57.3496C76.5877 58.1078 76.4418 58.779 76.3252 59.3623C76.2085 59.9456 76.1504 60.5004 76.1504 61.0254L76.163 61.3848C76.2962 63.1283 77.4294 64 79.5625 64H82.6933C82.1291 66.4808 80.8195 68.897 78.5722 70.8027C75.6462 73.3399 72.2319 74 69.6132 74H61.5634C59.1956 74 55.552 73.5135 52.4326 70.7939C49.2623 68.0301 48.2733 64.4264 48.1621 61.583L48.1513 61.0254L48.1572 60.5537C48.1871 59.4589 48.32 58.4036 48.5205 57.4014L48.7509 56.2979C48.7984 56.0797 48.849 55.8568 48.9004 55.6289C49.3791 54.8418 49.8261 54.0169 50.2353 53.1504ZM58.7636 37.2246C58.9386 37.8662 59.0845 38.6832 59.2011 39.6748L54.0312 40.3203C54.0492 40.1925 54.0691 40.0651 54.0859 39.9375C54.1504 39.4342 54.2065 38.9393 54.2568 38.4531L58.7636 37.2246ZM54.2568 38.4531C54.2604 38.4179 54.264 38.3828 54.2675 38.3477L58.7636 37.2246L54.2568 38.4531ZM65.8505 15.3496C65.1507 15.3496 64.3926 15.4374 63.5761 15.6123L63.2089 15.7051C61.401 16.1972 59.9775 17.0998 58.9384 18.4121C57.8301 19.7538 57.4507 21.1835 57.8007 22.7002C58.0924 23.9251 58.8217 24.9165 59.9882 25.6748C61.1549 26.3748 62.497 26.7246 64.0136 26.7246C64.7136 26.7246 65.4429 26.6379 66.2011 26.4629C68.1844 25.9962 69.7305 25.0621 70.8388 23.6621C71.8776 22.3498 72.2758 20.9861 72.0332 19.5713L71.9755 19.2871C71.702 18.1935 71.0444 17.3046 70.0019 16.6211L69.788 16.4873C68.6798 15.7291 67.3671 15.3496 65.8505 15.3496Z" fill="#FFFEFB"></path><path d="M15.4102 22.6123L15.1963 22.6162C14.1506 22.6539 13.4639 22.9737 13.1358 23.5752C12.7859 24.1584 12.7564 24.9165 13.0479 25.8496C13.2229 26.3746 13.486 26.9294 13.836 27.5127C14.1858 28.0375 14.5645 28.6499 14.9727 29.3496C15.381 30.0496 15.79 30.8665 16.1983 31.7998C16.6066 32.7331 16.986 33.8712 17.336 35.2129C18.1526 38.3627 18.8818 41.3083 19.5235 44.0498L20.3985 47.5498C20.7485 48.7165 21.0401 49.825 21.2735 50.875C21.5651 51.925 21.7977 52.8877 21.9727 53.7627C22.206 54.5793 22.3814 55.2504 22.4981 55.7754C22.7897 56.8836 23.1396 57.9628 23.5479 59.0127C23.9562 60.0043 24.511 60.8794 25.211 61.6377C25.9109 62.3376 26.7565 62.9211 27.7481 63.3877C28.7397 63.796 29.936 64 31.336 64H36.0606C38.2189 64 40.1729 63.5329 41.9229 62.5996C43.7312 61.6079 45.3068 60.325 46.6485 58.75C48.0483 57.1168 49.2438 55.2501 50.2354 53.1504C51.227 51.0504 52.0439 48.8915 52.6856 46.6748L59.376 48.6113V51.3125C59.376 52.6542 59.3179 53.8208 59.2012 54.8125C59.0846 55.7457 58.9387 56.5914 58.7637 57.3496C58.5995 58.0612 58.4615 58.6964 58.3487 59.2539C57.1918 61.3919 55.8336 63.3938 54.2598 65.2334L54.2608 65.2344C52.2665 67.5755 49.9228 69.5309 47.2666 71.0664L46.7315 71.3682C46.6974 71.3868 46.6632 71.4056 46.6289 71.4238C43.3053 73.1964 39.712 74 36.0606 74H31.336C29.0095 74 26.4474 73.667 23.9405 72.6348C23.7887 72.5723 23.6388 72.5054 23.4903 72.4355C21.6855 71.5863 19.9678 70.4592 18.4424 69.0039L18.1397 68.709C18.0454 68.6147 17.9527 68.5178 17.8623 68.4199C16.4227 66.8602 15.2922 65.0999 14.4629 63.2012L14.3018 62.8203C14.2768 62.7595 14.2524 62.698 14.2285 62.6367C13.7491 61.4039 13.3312 60.1476 12.9756 58.8691L12.8272 58.3203C12.7944 58.1957 12.7643 58.0701 12.7364 57.9443C12.7082 57.8176 12.6653 57.6391 12.6035 57.4023L12.3574 56.5098C12.2834 56.2504 12.2199 55.9881 12.167 55.7236C12.0787 55.2819 11.9607 54.7662 11.8057 54.1719L11.6377 53.5518C11.5911 53.3838 11.5486 53.2141 11.5108 53.0439C11.38 52.4555 11.2197 51.8177 11.0254 51.1289L10.8203 50.4238C10.7758 50.2755 10.7339 50.1259 10.6963 49.9756L9.82132 46.4756C9.80915 46.4269 9.79759 46.378 9.78616 46.3291C9.16602 43.6794 8.45747 40.8157 7.65921 37.7363L7.47171 37.0576C7.35203 36.6514 7.24426 36.3373 7.1553 36.1025L7.03616 35.8086C6.81789 35.3097 6.62979 34.9264 6.47659 34.6416L6.33499 34.3887C6.16783 34.1021 6.01651 33.8496 5.87991 33.6289L5.51468 33.0596L5.26077 32.6572C4.69778 31.7189 4.1641 30.6683 3.73733 29.5137L3.56155 29.0127C3.54168 28.9531 3.5217 28.893 3.50296 28.833C2.76504 26.4717 2.22806 22.6251 4.34768 18.7998L4.56058 18.4297C7.59384 13.2745 12.9728 12.6124 15.4102 12.6123V22.6123ZM54.086 39.9375L59.2881 40.6035C59.3448 41.3772 59.376 42.2925 59.376 43.3496V48.6113L52.6856 46.6748C53.3272 44.3999 53.7943 42.1541 54.086 39.9375ZM54.5235 33.6377C54.5235 29.7383 53.8385 26.9613 52.4698 25.3066L52.336 25.1504C50.9687 23.5644 49.0115 22.7211 46.4649 22.6221L45.9483 22.6123C43.0317 22.6123 40.9604 23.6914 39.7354 25.8496C38.5687 27.9496 38.6564 30.8377 39.9981 34.5127C40.9897 37.3125 41.7189 40.1123 42.1856 42.9121C42.6522 45.6536 42.8276 48.133 42.711 50.3496C42.536 52.2163 41.9812 53.6165 41.0479 54.5498C40.1729 55.4831 39.2397 55.9502 38.2481 55.9502C37.4315 55.9502 36.644 55.6584 35.8858 55.0752C35.2732 54.5137 34.8165 53.7063 34.5166 52.6533L30.1104 35.2129C29.7604 33.8712 29.6441 32.7331 29.7608 31.7998C29.8774 30.8666 30.0519 30.0496 30.2852 29.3496C30.5768 28.6497 30.84 28.0081 31.0733 27.4248C31.3065 26.8417 31.4228 26.2293 31.4229 25.5879C31.3062 24.5964 30.8399 23.8671 30.0235 23.4004C29.3598 22.941 28.5171 22.6824 27.4961 22.625L27.0479 22.6123V12.6123C29.5355 12.6123 32.5388 13.1233 35.333 14.9238C35.5965 15.0852 35.851 15.2548 36.0977 15.4307C39.0387 13.476 42.5001 12.6123 45.9483 12.6123C50.6113 12.6123 55.5568 14.0317 59.3174 17.9707C59.186 18.1124 59.0595 18.2593 58.9385 18.4121C57.8302 19.7538 57.4508 21.1835 57.8008 22.7002C58.0925 23.9251 58.8218 24.9165 59.9883 25.6748C61.1082 26.3468 62.3896 26.6948 63.8321 26.7217C64.0532 27.7075 64.2087 28.6915 64.3155 29.6553C64.2733 29.6706 64.2306 29.6844 64.1885 29.7002C62.7887 30.1668 61.6513 30.5748 60.7764 30.9248C59.9597 31.2748 59.3173 31.6837 58.8506 32.1504C58.3842 32.5587 58.1514 33.1423 58.1514 33.9004C58.1514 34.4252 58.2096 34.9498 58.3262 35.4746L58.7637 37.2246C58.9387 37.8662 59.0845 38.6832 59.2012 39.6748C59.2365 39.9575 59.2635 40.2673 59.2881 40.6035L54.086 39.9375C54.3412 37.9467 54.4847 36.0899 54.5166 34.3672L54.5235 33.6377ZM27.0479 12.6123V22.6123H15.4102V12.6123H27.0479Z" fill="#FFFEFB"></path></svg>