<svg xmlns="http://www.w3.org/2000/svg" width="100%" viewBox="0 0 195 94" fill="none"><path d="M181.72 51.3125C181.72 52.6542 181.779 53.8208 181.895 54.8125C182.012 55.7458 182.158 56.5917 182.333 57.35C182.508 58.1083 182.654 58.7792 182.77 59.3625C182.887 59.9458 182.945 60.5 182.945 61.025C182.945 63.0083 181.808 64 179.533 64H171.57C169.295 64 168.158 63.0083 168.158 61.025C168.158 60.675 168.187 60.325 168.245 59.975C168.304 59.5667 168.391 59.1292 168.508 58.6625C167.341 60.4125 165.795 61.7542 163.87 62.6875C161.945 63.5625 159.904 64 157.745 64C155.47 64 153.341 63.5917 151.358 62.775C149.433 61.9583 147.77 60.7042 146.37 59.0125C144.97 57.3208 143.862 55.1917 143.045 52.625C142.229 50 141.82 46.8792 141.82 43.2625C141.82 39.6458 142.229 36.5542 143.045 33.9875C143.862 31.3625 144.97 29.2333 146.37 27.6C147.77 25.9083 149.433 24.6542 151.358 23.8375C153.341 23.0208 155.47 22.6125 157.745 22.6125C160.195 22.6125 162.441 23.1667 164.483 24.275C166.583 25.3833 168.216 27.0167 169.383 29.175C169.383 26.9 169.295 25.1208 169.12 23.8375C169.004 22.5542 168.858 21.5625 168.683 20.8625C168.566 20.1625 168.45 19.6375 168.333 19.2875C168.216 18.8792 168.158 18.3833 168.158 17.8C168.158 16.9833 168.391 16.3708 168.858 15.9625C169.325 15.4958 169.966 15.1167 170.783 14.825C171.6 14.475 172.708 14.0667 174.108 13.6C175.566 13.075 177.054 12.8125 178.57 12.8125C179.795 12.8125 180.612 13.1333 181.02 13.775C181.487 14.4167 181.72 15.4375 181.72 16.8375V51.3125ZM161.245 56.65C162.529 56.65 163.637 56.3 164.57 55.6C165.562 54.8417 166.379 53.85 167.02 52.625C167.662 51.3417 168.129 49.9125 168.42 48.3375C168.77 46.7042 168.945 45.0125 168.945 43.2625C168.945 41.5125 168.77 39.85 168.42 38.275C168.129 36.6417 167.662 35.2125 167.02 33.9875C166.379 32.7625 165.562 31.8 164.57 31.1C163.637 30.3417 162.529 29.9625 161.245 29.9625C159.962 29.9625 158.825 30.3417 157.833 31.1C156.841 31.8 155.995 32.7625 155.295 33.9875C154.595 35.2125 154.07 36.6417 153.72 38.275C153.37 39.85 153.195 41.5125 153.195 43.2625C153.195 45.0125 153.37 46.7042 153.72 48.3375C154.07 49.9125 154.595 51.3417 155.295 52.625C155.995 53.85 156.841 54.8417 157.833 55.6C158.825 56.3 159.962 56.65 161.245 56.65Z" fill="#121212"></path><path d="M118.637 21.825C121.612 21.825 124.324 22.2625 126.774 23.1375C129.224 23.9541 131.324 25.2375 133.074 26.9875C134.824 28.7375 136.166 30.9541 137.099 33.6375C138.091 36.3208 138.587 39.5291 138.587 43.2624C138.587 46.9958 138.091 50.2333 137.099 52.975C136.166 55.6583 134.824 57.875 133.074 59.625C131.324 61.375 129.224 62.6583 126.774 63.475C124.324 64.2916 121.612 64.7 118.637 64.7C115.662 64.7 112.95 64.2916 110.5 63.475C108.108 62.6583 106.037 61.375 104.287 59.625C102.537 57.875 101.166 55.6583 100.174 52.975C99.2411 50.2333 98.7744 46.9958 98.7744 43.2624C98.7744 39.5291 99.2411 36.3208 100.174 33.6375C101.166 30.9541 102.537 28.7375 104.287 26.9875C106.037 25.2375 108.108 23.9541 110.5 23.1375C112.95 22.2625 115.662 21.825 118.637 21.825ZM118.637 57.2625C120.037 57.2625 121.262 56.8833 122.312 56.125C123.362 55.3666 124.237 54.3458 124.937 53.0625C125.695 51.7208 126.249 50.2041 126.599 48.5125C127.008 46.8208 127.212 45.0708 127.212 43.2624C127.212 41.4541 127.008 39.7041 126.599 38.0124C126.249 36.3208 125.695 34.8333 124.937 33.5499C124.237 32.2666 123.362 31.2458 122.312 30.4875C121.262 29.6708 120.037 29.2625 118.637 29.2625C117.237 29.2625 116.012 29.6708 114.962 30.4875C113.912 31.2458 113.037 32.2666 112.337 33.5499C111.637 34.8333 111.083 36.3208 110.674 38.0124C110.324 39.7041 110.149 41.4541 110.149 43.2624C110.149 45.0708 110.324 46.8208 110.674 48.5125C111.083 50.2041 111.637 51.7208 112.337 53.0625C113.037 54.3458 113.912 55.3666 114.962 56.125C116.012 56.8833 117.237 57.2625 118.637 57.2625Z" fill="#121212"></path><path d="M75.5911 21.825C78.5661 21.825 81.2785 22.2625 83.7285 23.1375C86.1785 23.9541 88.2786 25.2375 90.0286 26.9875C91.7786 28.7375 93.1203 30.9541 94.0536 33.6375C95.0453 36.3208 95.541 39.5291 95.541 43.2624C95.541 46.9958 95.0453 50.2333 94.0536 52.975C93.1203 55.6583 91.7786 57.875 90.0286 59.625C88.2786 61.375 86.1785 62.6583 83.7285 63.475C81.2785 64.2916 78.5661 64.7 75.5911 64.7C72.6161 64.7 69.9036 64.2916 67.4536 63.475C65.0619 62.6583 62.9911 61.375 61.2411 59.625C59.4911 57.875 58.1202 55.6583 57.1285 52.975C56.1952 50.2333 55.7285 46.9958 55.7285 43.2624C55.7285 39.5291 56.1952 36.3208 57.1285 33.6375C58.1202 30.9541 59.4911 28.7375 61.2411 26.9875C62.9911 25.2375 65.0619 23.9541 67.4536 23.1375C69.9036 22.2625 72.6161 21.825 75.5911 21.825ZM75.5911 57.2625C76.9911 57.2625 78.2161 56.8833 79.2661 56.125C80.3161 55.3666 81.1911 54.3458 81.8911 53.0625C82.6494 51.7208 83.2036 50.2041 83.5536 48.5125C83.9619 46.8208 84.166 45.0708 84.166 43.2624C84.166 41.4541 83.9619 39.7041 83.5536 38.0124C83.2036 36.3208 82.6494 34.8333 81.8911 33.5499C81.1911 32.2666 80.3161 31.2458 79.2661 30.4875C78.2161 29.6708 76.9911 29.2625 75.5911 29.2625C74.1911 29.2625 72.966 29.6708 71.916 30.4875C70.866 31.2458 69.991 32.2666 69.291 33.5499C68.591 34.8333 68.0369 36.3208 67.6285 38.0124C67.2785 39.7041 67.1035 41.4541 67.1035 43.2624C67.1035 45.0708 67.2785 46.8208 67.6285 48.5125C68.0369 50.2041 68.591 51.7208 69.291 53.0625C69.991 54.3458 70.866 55.3666 71.916 56.125C72.966 56.8833 74.1911 57.2625 75.5911 57.2625Z" fill="#121212"></path><path d="M52.2408 40.025C52.2408 44.8083 51.1618 48.6 49.0034 51.4C46.9034 54.1417 44.0158 56.0667 40.3408 57.175C41.8575 57.4083 43.3158 57.7875 44.7158 58.3125C46.1742 58.7792 47.4576 59.4208 48.5659 60.2375C49.6743 61.0542 50.5493 62.0458 51.1909 63.2125C51.8909 64.3792 52.2408 65.7208 52.2408 67.2375C52.2408 69.4542 51.6867 71.4375 50.5784 73.1875C49.47 74.9958 48.0409 76.5125 46.2909 77.7375C44.5409 78.9625 42.5284 79.8958 40.2534 80.5375C38.0368 81.1792 35.7909 81.5 33.5159 81.5C29.0825 81.5 25.1742 80.7417 21.7909 79.225C18.4659 77.7083 16.045 75.6375 14.5283 73.0125C13.4783 71.2625 12.9826 69.6875 13.0409 68.2875C13.0992 66.8875 13.4783 65.6917 14.1783 64.7C14.9367 63.7667 15.9283 63.0667 17.1533 62.6C18.3783 62.075 19.6034 61.8125 20.8284 61.8125C22.2867 61.8125 23.57 62.1917 24.6783 62.95C25.7867 63.7083 26.3408 64.9042 26.3408 66.5375C26.3408 69.2792 27.0117 71.35 28.3534 72.75C29.6951 74.15 31.4743 74.85 33.6909 74.85C34.9743 74.85 36.0825 74.4708 37.0159 73.7125C37.9492 73.0125 38.6492 72.1083 39.1158 71C39.6408 69.8917 39.8743 68.6667 39.8159 67.325C39.8159 65.9833 39.4951 64.7 38.8534 63.475C38.2701 62.1917 37.3367 61.0542 36.0533 60.0625C34.77 59.0708 33.1367 58.4 31.1533 58.05C25.145 57.7583 20.5075 56.1542 17.2408 53.2375C13.9742 50.2625 12.3408 45.8583 12.3408 40.025C12.3408 36.875 12.8075 34.1625 13.7408 31.8875C14.7325 29.5542 16.1034 27.6583 17.8534 26.2C19.6034 24.7417 21.7033 23.6625 24.1533 22.9625C26.6033 22.2625 29.3159 21.9125 32.2909 21.9125C34.2159 21.9125 35.7617 21.4458 36.9283 20.5125C38.095 19.5208 39.1158 18.4708 39.9908 17.3625C40.9242 16.1958 41.8868 15.1458 42.8784 14.2125C43.9284 13.2792 45.2992 12.8125 46.9908 12.8125C48.4492 12.8125 49.5867 13.1625 50.4033 13.8625C51.2783 14.5625 51.7158 15.5833 51.7158 16.925C51.7158 18.0917 51.3659 19.0833 50.6659 19.9C50.0242 20.6583 49.1784 21.3 48.1284 21.825C47.0784 22.2917 45.9118 22.6417 44.6284 22.875C43.3451 23.05 42.0617 23.1083 40.7783 23.05C44.4533 24.2167 47.2825 26.2 49.2659 29C51.2492 31.8 52.2408 35.475 52.2408 40.025ZM32.2909 50.35C33.6326 50.35 34.7992 50.0875 35.7909 49.5625C36.8409 48.9792 37.7159 48.2208 38.4159 47.2875C39.1159 46.2958 39.6408 45.1875 39.9908 43.9625C40.3408 42.6792 40.5159 41.3667 40.5159 40.025C40.5159 38.6833 40.3408 37.4 39.9908 36.175C39.6408 34.8917 39.1159 33.7833 38.4159 32.85C37.7159 31.8583 36.8409 31.1 35.7909 30.575C34.7992 29.9917 33.6326 29.7 32.2909 29.7C31.0076 29.7 29.8409 29.9917 28.7909 30.575C27.7992 31.1 26.9534 31.8583 26.2534 32.85C25.5534 33.7833 25.0283 34.8917 24.6783 36.175C24.3283 37.4 24.1533 38.6833 24.1533 40.025C24.1533 41.3667 24.3283 42.6792 24.6783 43.9625C25.0283 45.1875 25.5534 46.2958 26.2534 47.2875C26.9534 48.2208 27.7992 48.9792 28.7909 49.5625C29.8409 50.0875 31.0076 50.35 32.2909 50.35Z" fill="#121212"></path><path d="M181.721 16.8379C181.721 15.4381 181.487 14.4171 181.021 13.7754C180.612 13.1337 179.795 12.8125 178.57 12.8125C177.054 12.8125 175.566 13.0746 174.107 13.5996L173.112 13.9395C172.172 14.2675 171.396 14.5628 170.783 14.8252C169.967 15.1169 169.324 15.4962 168.857 15.9629C168.391 16.3712 168.158 16.9835 168.158 17.7998C168.158 18.383 168.216 18.8788 168.333 19.2871C168.45 19.6371 168.566 20.1624 168.683 20.8623C168.858 21.5623 169.003 22.5546 169.12 23.8379C169.295 25.1212 169.383 26.9001 169.383 29.1748C168.216 27.0166 166.582 25.3837 164.482 24.2754C162.441 23.1671 160.195 22.6123 157.745 22.6123C155.47 22.6123 153.341 23.0213 151.357 23.8379C149.433 24.6545 147.77 25.9081 146.37 27.5996C144.97 29.2329 143.862 31.3623 143.045 33.9873C142.228 36.554 141.82 39.646 141.82 43.2627L141.825 43.9346C141.873 47.2671 142.279 50.164 143.045 52.625C143.862 55.1917 144.97 57.321 146.37 59.0127C147.77 60.7043 149.433 61.9587 151.357 62.7754C153.341 63.592 155.47 64 157.745 64C159.903 64 161.945 63.5624 163.87 62.6875C165.795 61.7542 167.341 60.4121 168.508 58.6621C168.391 59.1286 168.303 59.5664 168.245 59.9746C168.187 60.3246 168.158 60.6754 168.158 61.0254C168.158 63.0084 169.295 64 171.57 64H179.533L179.946 63.9883C181.813 63.8798 182.807 63.012 182.932 61.3848L182.945 61.0254C182.945 60.6317 182.912 60.2214 182.847 59.7949L182.771 59.3623C182.712 59.0707 182.646 58.7572 182.573 58.4219L182.333 57.3496C182.158 56.5914 182.012 55.7457 181.896 54.8125C181.808 54.0688 181.753 53.2267 181.731 52.2861L181.721 51.3125V16.8379ZM153.195 43.2627C153.195 41.5128 153.371 39.8503 153.721 38.2754C154.071 36.6421 154.595 35.2123 155.295 33.9873C155.995 32.7623 156.841 31.7996 157.833 31.0996C158.825 30.3415 159.962 29.9629 161.245 29.9629C162.528 29.9629 163.637 30.3414 164.57 31.0996C165.562 31.7996 166.379 32.7623 167.021 33.9873C167.662 35.2123 168.128 36.6421 168.42 38.2754C168.77 39.8503 168.945 41.5128 168.945 43.2627L168.938 43.916C168.899 45.4345 168.726 46.9087 168.42 48.3379C168.128 49.9127 167.662 51.3418 167.021 52.625C166.379 53.8499 165.562 54.8413 164.57 55.5996C163.637 56.2996 162.528 56.6504 161.245 56.6504C159.962 56.6503 158.825 56.2996 157.833 55.5996C156.841 54.8413 155.995 53.85 155.295 52.625C154.595 51.3418 154.071 49.9126 153.721 48.3379C153.414 46.9087 153.241 45.4345 153.203 43.916L153.195 43.2627ZM193.721 51.3125C193.721 52.312 193.765 52.9822 193.811 53.3848C193.884 53.9601 193.961 54.3741 194.025 54.6514L194.3 55.873C194.385 56.2662 194.464 56.6453 194.537 57.0088L194.627 57.4854C194.825 58.6049 194.945 59.7905 194.945 61.0254C194.945 64.3278 193.922 68.8633 189.978 72.3018C186.348 75.4657 182.147 76 179.533 76H171.57C169.955 76 167.733 75.7947 165.414 74.8916C162.929 75.6317 160.359 76 157.745 76C154.233 76 150.77 75.4024 147.451 74.1338L146.789 73.8711C146.75 73.8549 146.71 73.8389 146.671 73.8223C143.124 72.3174 140.09 70.0631 137.613 67.2363L137.126 66.6631C135.373 64.5452 133.998 62.2112 132.927 59.7666C132.976 59.7191 133.026 59.6732 133.074 59.625C134.824 57.875 136.166 55.6579 137.1 52.9746C138.029 50.4045 138.523 47.3986 138.581 43.957L138.587 43.2627C138.587 39.5295 138.091 36.321 137.1 33.6377C136.166 30.9544 134.824 28.7373 133.074 26.9873C133.022 26.935 132.968 26.8845 132.915 26.833C133.987 24.3669 135.382 21.9999 137.193 19.8691C139.744 16.8112 142.92 14.3813 146.671 12.79L146.789 12.7412L147.451 12.4785C150.77 11.21 154.233 10.6123 157.745 10.6123C157.82 10.6123 157.896 10.6146 157.971 10.6152C158.633 9.42204 159.515 8.25414 160.676 7.18359C162.524 5.43237 164.57 4.34649 166.373 3.66113C167.547 3.17245 168.885 2.69312 170.286 2.22559C172.946 1.29773 175.724 0.812506 178.57 0.8125L179.121 0.821289C181.985 0.915396 187.379 1.8159 190.874 6.92773C193.457 10.6154 193.721 14.6581 193.721 16.8379V51.3125Z" fill="#121212"></path><path d="M138.587 43.2627C138.587 39.5295 138.091 36.321 137.1 33.6377C136.166 30.9544 134.824 28.7373 133.074 26.9873C131.324 25.2374 129.224 23.9543 126.774 23.1377C124.324 22.2627 121.612 21.8252 118.637 21.8252C115.662 21.8252 112.949 22.2627 110.499 23.1377C108.108 23.9543 106.037 25.2375 104.287 26.9873C102.537 28.7373 101.166 30.9544 100.175 33.6377C99.2415 36.321 98.7744 39.5294 98.7744 43.2627L98.7803 43.957C98.835 47.3987 99.2999 50.4044 100.175 52.9746C101.166 55.6579 102.537 57.875 104.287 59.625C106.037 61.3748 108.108 62.6579 110.499 63.4746C112.949 64.2913 115.662 64.7002 118.637 64.7002C121.612 64.7002 124.324 64.2913 126.774 63.4746C129.224 62.658 131.324 61.3749 133.074 59.625C134.824 57.875 136.166 55.6579 137.1 52.9746C138.029 50.4045 138.523 47.3986 138.581 43.957L138.587 43.2627ZM110.149 43.2627C110.149 41.4544 110.325 39.7043 110.675 38.0127C111.083 36.321 111.637 34.8331 112.337 33.5498C113.037 32.2665 113.912 31.2456 114.962 30.4873C116.012 29.6707 117.237 29.2627 118.637 29.2627C120.037 29.2627 121.262 29.6708 122.312 30.4873C123.361 31.2456 124.237 32.2666 124.937 33.5498C125.695 34.8331 126.25 36.321 126.6 38.0127C127.008 39.7043 127.212 41.4544 127.212 43.2627L127.202 43.9375C127.158 45.5072 126.957 47.0324 126.6 48.5127C126.25 50.2043 125.695 51.7209 124.937 53.0625C124.237 54.3457 123.361 55.3667 122.312 56.125C121.262 56.8832 120.037 57.2627 118.637 57.2627C117.237 57.2627 116.012 56.8833 114.962 56.125C113.912 55.3667 113.037 54.3458 112.337 53.0625C111.637 51.7209 111.083 50.2042 110.675 48.5127C110.369 47.0324 110.195 45.5072 110.157 43.9375L110.149 43.2627ZM141.825 43.9346C141.873 47.2671 142.279 50.164 143.045 52.625C143.862 55.1917 144.97 57.321 146.37 59.0127C146.64 59.3394 146.921 59.6493 147.211 59.9434C145.941 62.6807 144.275 65.2381 142.149 67.502L141.56 68.1104C138.63 71.0402 135.171 73.1962 131.34 74.5908L130.569 74.8594C126.726 76.1406 122.709 76.7002 118.637 76.7002C114.819 76.7002 111.051 76.2079 107.428 75.0908L106.705 74.8594C106.677 74.8502 106.65 74.8405 106.622 74.8311C102.789 73.5221 99.3348 71.4625 96.3848 68.6768L95.8018 68.1104C93.319 65.6276 91.4082 62.7618 89.9756 59.6748C89.9928 59.6578 90.0112 59.6421 90.0283 59.625C91.7783 57.875 93.1204 55.6579 94.0537 52.9746C94.9833 50.4045 95.477 47.3986 95.5352 43.957L95.541 43.2627C95.541 39.5295 95.0453 36.321 94.0537 33.6377C93.1204 30.9544 91.7783 28.7373 90.0283 26.9873C90.0111 26.97 89.9929 26.9537 89.9756 26.9365C91.4082 23.8499 93.3192 20.9845 95.8018 18.502C98.8762 15.4276 102.533 13.1774 106.622 11.7812V11.7822C110.491 10.423 114.537 9.82522 118.637 9.8252C122.707 9.8252 126.725 10.4144 130.568 11.7529H130.569C130.624 11.771 130.677 11.7912 130.731 11.8096C130.758 11.8189 130.784 11.8275 130.811 11.8369H130.81C134.851 13.2224 138.495 15.4378 141.56 18.502C143.969 20.9118 145.826 23.6828 147.211 26.668C146.921 26.9621 146.641 27.2728 146.37 27.5996C144.97 29.2329 143.862 31.3623 143.045 33.9873C142.228 36.554 141.82 39.646 141.82 43.2627L141.825 43.9346Z" fill="#121212"></path><path d="M95.541 43.2627C95.541 39.5295 95.0453 36.321 94.0537 33.6377C93.1204 30.9544 91.7783 28.7373 90.0283 26.9873C88.2784 25.2374 86.1784 23.9543 83.7285 23.1377C81.2785 22.2627 78.5658 21.8252 75.5908 21.8252C72.6159 21.8252 69.9031 22.2627 67.4531 23.1377C65.0617 23.9543 62.9911 25.2375 61.2412 26.9873C59.4912 28.7373 58.1206 30.9544 57.1289 33.6377C56.1956 36.321 55.7285 39.5294 55.7285 43.2627L55.7344 43.957C55.7891 47.3987 56.254 50.4044 57.1289 52.9746C58.1206 55.6579 59.4912 57.875 61.2412 59.625C62.9911 61.3748 65.0617 62.6579 67.4531 63.4746C69.9031 64.2913 72.6159 64.7002 75.5908 64.7002C78.5658 64.7002 81.2785 64.2913 83.7285 63.4746C86.1784 62.658 88.2784 61.3749 90.0283 59.625C91.7783 57.875 93.1204 55.6579 94.0537 52.9746C94.9833 50.4045 95.477 47.3986 95.5352 43.957L95.541 43.2627ZM67.1035 43.2627C67.1035 41.4544 67.2789 39.7043 67.6289 38.0127C68.0372 36.321 68.591 34.8331 69.291 33.5498C69.991 32.2665 70.8661 31.2456 71.916 30.4873C72.9659 29.6707 74.191 29.2627 75.5908 29.2627C76.9907 29.2627 78.2157 29.6708 79.2656 30.4873C80.3155 31.2456 81.1907 32.2666 81.8906 33.5498C82.649 34.8331 83.2037 36.321 83.5537 38.0127C83.962 39.7043 84.166 41.4544 84.166 43.2627L84.1562 43.9375C84.1116 45.5072 83.911 47.0324 83.5537 48.5127C83.2037 50.2043 82.6489 51.7209 81.8906 53.0625C81.1906 54.3457 80.3156 55.3667 79.2656 56.125C78.2157 56.8832 76.9907 57.2627 75.5908 57.2627C74.1909 57.2627 72.966 56.8833 71.916 56.125C70.866 55.3667 69.991 54.3458 69.291 53.0625C68.5911 51.7209 68.0372 50.2042 67.6289 48.5127C67.3226 47.0324 67.1496 45.5072 67.1113 43.9375L67.1035 43.2627ZM98.7803 43.957C98.835 47.3987 99.2999 50.4044 100.175 52.9746C101.166 55.6579 102.537 57.875 104.287 59.625C104.292 59.6297 104.297 59.634 104.302 59.6387C103.015 62.4906 101.308 65.1545 99.1035 67.502L98.5137 68.1104C95.5838 71.0402 92.1247 73.1962 88.2939 74.5908L87.5234 74.8594C83.6798 76.1406 79.6633 76.7002 75.5908 76.7002C71.773 76.7002 68.0048 76.2079 64.3818 75.0908L63.6592 74.8594C63.6316 74.8502 63.6037 74.8405 63.5762 74.8311C59.7429 73.5221 56.2889 71.4625 53.3389 68.6768L52.7559 68.1104C52.5791 67.9336 52.4063 67.7538 52.2354 67.5732C52.2382 67.4619 52.2412 67.3498 52.2412 67.2373C52.2412 65.7208 51.8904 64.3795 51.1904 63.2129C50.5488 62.0462 49.6738 61.054 48.5654 60.2373C47.9813 59.807 47.3483 59.4259 46.667 59.0928C46.4918 58.6954 46.3221 58.2956 46.1621 57.8916L45.873 57.1348C45.8372 57.0377 45.8019 56.9398 45.7686 56.8418C45.5558 56.2169 45.3638 55.5848 45.1875 54.9473C46.6625 53.9755 47.9351 52.7944 49.0029 51.4004C51.1612 48.6005 52.2412 44.8085 52.2412 40.0254C52.2412 35.4754 51.249 31.8 49.2656 29C48.6315 28.1048 47.9105 27.2937 47.1035 26.5654C48.5157 23.62 50.373 20.8848 52.7559 18.502C55.8303 15.4276 59.4876 13.1774 63.5762 11.7812V11.7822C67.4451 10.423 71.491 9.82522 75.5908 9.8252C79.6613 9.8252 83.6788 10.4144 87.5225 11.7529H87.5234C87.5778 11.771 87.6314 11.7912 87.6855 11.8096C87.7118 11.8189 87.7384 11.8275 87.7646 11.8369H87.7637C91.8054 13.2224 95.4494 15.4378 98.5137 18.502C101.005 20.9934 102.903 23.8717 104.302 26.9727C104.297 26.9775 104.292 26.9824 104.287 26.9873C102.537 28.7373 101.166 30.9544 100.175 33.6377C99.2415 36.321 98.7744 39.5294 98.7744 43.2627L98.7803 43.957Z" fill="#121212"></path><path d="M52.2412 40.0254C52.2412 35.4754 51.249 31.8 49.2656 29C47.2823 26.2001 44.4533 24.2165 40.7783 23.0498C42.0615 23.1081 43.3447 23.05 44.6279 22.875C45.9111 22.6417 47.078 22.2918 48.1279 21.8252C49.1779 21.3002 50.0244 20.6587 50.666 19.9004C51.366 19.0837 51.7158 18.0915 51.7158 16.9248C51.7158 15.667 51.3316 14.6909 50.5625 13.9971L50.4033 13.8623C49.5867 13.1624 48.4493 12.8126 46.9912 12.8125C45.2995 12.8125 43.9279 13.2796 42.8779 14.2129C41.8865 15.146 40.9243 16.1959 39.9912 17.3623C39.1162 18.4706 38.0953 19.5211 36.9287 20.5127C35.7621 21.446 34.2159 21.9121 32.291 21.9121C29.316 21.9121 26.6033 22.2629 24.1533 22.9629C21.7034 23.6629 19.6035 24.7419 17.8535 26.2002C16.1035 27.6585 14.7329 29.5544 13.7412 31.8877C12.8079 34.1627 12.3408 36.8754 12.3408 40.0254L12.3457 40.5674C12.4445 46.132 14.0766 50.3552 17.2412 53.2373C20.5079 56.1539 25.1451 57.7581 31.1533 58.0498C33.1367 58.3998 34.7704 59.0708 36.0537 60.0625C37.3368 61.0541 38.2702 62.1915 38.8535 63.4746C39.4952 64.6996 39.8154 65.9835 39.8154 67.3252C39.8737 68.6667 39.6411 69.8917 39.1162 71C38.6495 72.1083 37.949 73.0129 37.0156 73.7129C36.0824 74.471 34.9736 74.8496 33.6904 74.8496C31.474 74.8495 29.6951 74.1499 28.3535 72.75C27.0118 71.35 26.3408 69.2788 26.3408 66.5371C26.3407 64.9041 25.7867 63.7085 24.6787 62.9502C23.5704 62.1919 22.2865 61.8125 20.8281 61.8125C19.6032 61.8125 18.3782 62.0747 17.1533 62.5996C15.9283 63.0663 14.937 63.7669 14.1787 64.7002C13.4788 65.6918 13.0994 66.8873 13.041 68.2871C12.9827 69.6871 13.4783 71.2627 14.5283 73.0127C16.045 75.6376 18.4661 77.708 21.791 79.2246C25.1743 80.7412 29.0824 81.5 33.5156 81.5C35.7905 81.5 38.0364 81.1787 40.2529 80.5371C42.5279 79.8954 44.541 78.9623 46.291 77.7373C48.0409 76.5124 49.4698 74.9957 50.5781 73.1875C51.6172 71.5469 52.1694 69.7012 52.2344 67.6504L52.2412 67.2373C52.2412 65.7208 51.8904 64.3795 51.1904 63.2129C50.5488 62.0462 49.6738 61.054 48.5654 60.2373C47.4572 59.4208 46.174 58.7791 44.7158 58.3125C43.3158 57.7875 41.8575 57.4081 40.3408 57.1748C44.0156 56.0665 46.903 54.1418 49.0029 51.4004C51.0264 48.7754 52.1021 45.2784 52.2285 40.9102L52.2412 40.0254ZM32.291 29.7002C33.6326 29.7002 34.7994 29.9919 35.791 30.5752C36.8409 31.1002 37.7161 31.8581 38.416 32.8496C39.116 33.7829 39.6412 34.8915 39.9912 36.1748C40.3412 37.3998 40.5156 38.6837 40.5156 40.0254L40.5078 40.5264C40.4696 41.6941 40.2975 42.8398 39.9912 43.9629C39.6412 45.1876 39.1158 46.2956 38.416 47.2871C37.716 48.2204 36.841 48.9792 35.791 49.5625C34.7994 50.0875 33.6326 50.3496 32.291 50.3496C31.0077 50.3496 29.841 50.0875 28.791 49.5625C27.7993 48.9792 26.9529 48.2204 26.2529 47.2871C25.5532 46.2957 25.0287 45.1875 24.6787 43.9629C24.3724 42.8398 24.1994 41.6941 24.1611 40.5264L24.1533 40.0254C24.1533 38.6837 24.3287 37.3998 24.6787 36.1748C25.0287 34.8916 25.553 33.7829 26.2529 32.8496C26.9529 31.858 27.7994 31.1002 28.791 30.5752C29.841 29.9919 31.0077 29.7002 32.291 29.7002ZM32.29 38.3496C32.0545 38.3497 31.2208 38.4038 30.1758 38.957L30.2031 39.0088L30.0078 39.1543L29.9629 39.0723C29.591 39.2789 29.1764 39.6163 28.8379 40.0586C28.8739 40.1014 28.9098 40.1451 28.9482 40.1875L30.2842 41.1895L31.2998 41.4795L30.0078 39.1543L30.2031 39.0088L31.5488 41.5508L32.0264 41.6865C32.129 41.6948 32.2179 41.7002 32.291 41.7002C32.4088 41.7002 32.5355 41.6917 32.6699 41.6787L32.7422 41.6582L34.1572 38.8291C33.4381 38.4696 32.7814 38.3635 32.3701 38.3516L32.291 38.3496H32.29ZM33.5811 41.4189L34.3604 41.1963C34.3742 41.1896 34.3875 41.1817 34.4014 41.1748L34.0811 40.5684L33.5811 41.4189ZM34.875 39.2197L34.0811 40.5684L34.4014 41.1748C34.4031 41.174 34.4046 41.1727 34.4062 41.1719L35.6904 40.21C35.7396 40.1582 35.7857 40.1069 35.8291 40.0566C35.5916 39.7489 35.2582 39.4452 34.875 39.2197ZM57.1289 33.6377C56.1956 36.321 55.7285 39.5294 55.7285 43.2627C55.7285 46.9958 56.1956 50.233 57.1289 52.9746C58.1206 55.6579 59.4912 57.875 61.2412 59.625C61.9182 60.302 62.644 60.908 63.417 61.4453C63.9842 63.3601 64.2412 65.3125 64.2412 67.2373C64.2412 71.561 63.1266 75.8019 60.7158 79.6084L60.7148 79.6074C58.7522 82.7644 56.2136 85.4398 53.1729 87.5684C50.2313 89.6275 46.9938 91.0947 43.5889 92.0635L43.5898 92.0645C43.5717 92.0697 43.5533 92.0739 43.5352 92.0791C43.527 92.0814 43.5189 92.0846 43.5107 92.0869L43.5098 92.0859C40.2497 93.0218 36.9081 93.5 33.5156 93.5C27.8975 93.5 22.4338 92.5668 17.3711 90.3896L16.8818 90.1748C16.8581 90.1642 16.8342 90.1534 16.8105 90.1426C11.7474 87.833 7.24246 84.2925 4.23828 79.1855V79.1865C4.22166 79.1588 4.20606 79.1304 4.18945 79.1025C4.17253 79.0735 4.15452 79.0447 4.1377 79.0156V79.0146C2.44136 76.141 0.864533 72.2823 1.05176 67.7881L1.08691 67.1592C1.31503 64.0086 2.28767 60.7374 4.375 57.7803L4.61426 57.4521C4.69599 57.3443 4.77989 57.2378 4.86523 57.1328C4.87851 57.1165 4.89195 57.1003 4.90527 57.084C1.61417 51.9789 0.340876 45.9964 0.34082 40.0254C0.34082 35.7336 0.971424 31.397 2.63867 27.333L2.69727 27.1934C4.3489 23.3074 6.79819 19.7921 10.1709 16.9814C13.3495 14.3326 16.9901 12.5285 20.8564 11.4238L21.5488 11.2334C24.4715 10.4608 27.4892 10.0542 30.5566 9.94434C30.5615 9.93819 30.5674 9.93288 30.5723 9.92676L30.6201 9.86621C31.8723 8.301 33.2146 6.82864 34.6543 5.47363L34.9062 5.24316C38.5822 1.97582 42.991 0.8125 46.9912 0.8125L47.6201 0.822266C50.8205 0.921826 54.7819 1.81025 58.2129 4.75098C62.2659 8.16523 63.7158 12.8414 63.7158 16.9248C63.7158 19.9437 62.9378 23.0022 61.2275 25.7354C61.3683 26.0251 61.5022 26.3171 61.6318 26.6104C61.5001 26.7337 61.3695 26.859 61.2412 26.9873C59.4912 28.7373 58.1206 30.9544 57.1289 33.6377Z" fill="#121212"></path><path d="M181.72 51.3125C181.72 52.6542 181.779 53.8208 181.895 54.8125C182.012 55.7458 182.158 56.5917 182.333 57.35C182.508 58.1083 182.654 58.7792 182.77 59.3625C182.887 59.9458 182.945 60.5 182.945 61.025C182.945 63.0083 181.808 64 179.533 64H171.57C169.295 64 168.158 63.0083 168.158 61.025C168.158 60.675 168.187 60.325 168.245 59.975C168.304 59.5667 168.391 59.1292 168.508 58.6625C167.341 60.4125 165.795 61.7542 163.87 62.6875C161.945 63.5625 159.904 64 157.745 64C155.47 64 153.341 63.5917 151.358 62.775C149.433 61.9583 147.77 60.7042 146.37 59.0125C144.97 57.3208 143.862 55.1917 143.045 52.625C142.229 50 141.82 46.8792 141.82 43.2625C141.82 39.6458 142.229 36.5542 143.045 33.9875C143.862 31.3625 144.97 29.2333 146.37 27.6C147.77 25.9083 149.433 24.6542 151.358 23.8375C153.341 23.0208 155.47 22.6125 157.745 22.6125C160.195 22.6125 162.441 23.1667 164.483 24.275C166.583 25.3833 168.216 27.0167 169.383 29.175C169.383 26.9 169.295 25.1208 169.12 23.8375C169.004 22.5542 168.858 21.5625 168.683 20.8625C168.566 20.1625 168.45 19.6375 168.333 19.2875C168.216 18.8792 168.158 18.3833 168.158 17.8C168.158 16.9833 168.391 16.3708 168.858 15.9625C169.325 15.4958 169.966 15.1167 170.783 14.825C171.6 14.475 172.708 14.0667 174.108 13.6C175.566 13.075 177.054 12.8125 178.57 12.8125C179.795 12.8125 180.612 13.1333 181.02 13.775C181.487 14.4167 181.72 15.4375 181.72 16.8375V51.3125ZM161.245 56.65C162.529 56.65 163.637 56.3 164.57 55.6C165.562 54.8417 166.379 53.85 167.02 52.625C167.662 51.3417 168.129 49.9125 168.42 48.3375C168.77 46.7042 168.945 45.0125 168.945 43.2625C168.945 41.5125 168.77 39.85 168.42 38.275C168.129 36.6417 167.662 35.2125 167.02 33.9875C166.379 32.7625 165.562 31.8 164.57 31.1C163.637 30.3417 162.529 29.9625 161.245 29.9625C159.962 29.9625 158.825 30.3417 157.833 31.1C156.841 31.8 155.995 32.7625 155.295 33.9875C154.595 35.2125 154.07 36.6417 153.72 38.275C153.37 39.85 153.195 41.5125 153.195 43.2625C153.195 45.0125 153.37 46.7042 153.72 48.3375C154.07 49.9125 154.595 51.3417 155.295 52.625C155.995 53.85 156.841 54.8417 157.833 55.6C158.825 56.3 159.962 56.65 161.245 56.65Z" fill="#121212"></path><path d="M118.637 21.825C121.612 21.825 124.324 22.2625 126.774 23.1375C129.224 23.9541 131.324 25.2375 133.074 26.9875C134.824 28.7375 136.166 30.9541 137.099 33.6375C138.091 36.3208 138.587 39.5291 138.587 43.2624C138.587 46.9958 138.091 50.2333 137.099 52.975C136.166 55.6583 134.824 57.875 133.074 59.625C131.324 61.375 129.224 62.6583 126.774 63.475C124.324 64.2916 121.612 64.7 118.637 64.7C115.662 64.7 112.95 64.2916 110.5 63.475C108.108 62.6583 106.037 61.375 104.287 59.625C102.537 57.875 101.166 55.6583 100.174 52.975C99.2411 50.2333 98.7744 46.9958 98.7744 43.2624C98.7744 39.5291 99.2411 36.3208 100.174 33.6375C101.166 30.9541 102.537 28.7375 104.287 26.9875C106.037 25.2375 108.108 23.9541 110.5 23.1375C112.95 22.2625 115.662 21.825 118.637 21.825ZM118.637 57.2625C120.037 57.2625 121.262 56.8833 122.312 56.125C123.362 55.3666 124.237 54.3458 124.937 53.0625C125.695 51.7208 126.249 50.2041 126.599 48.5125C127.008 46.8208 127.212 45.0708 127.212 43.2624C127.212 41.4541 127.008 39.7041 126.599 38.0124C126.249 36.3208 125.695 34.8333 124.937 33.5499C124.237 32.2666 123.362 31.2458 122.312 30.4875C121.262 29.6708 120.037 29.2625 118.637 29.2625C117.237 29.2625 116.012 29.6708 114.962 30.4875C113.912 31.2458 113.037 32.2666 112.337 33.5499C111.637 34.8333 111.083 36.3208 110.674 38.0124C110.324 39.7041 110.149 41.4541 110.149 43.2624C110.149 45.0708 110.324 46.8208 110.674 48.5125C111.083 50.2041 111.637 51.7208 112.337 53.0625C113.037 54.3458 113.912 55.3666 114.962 56.125C116.012 56.8833 117.237 57.2625 118.637 57.2625Z" fill="#121212"></path><path d="M75.5911 21.825C78.5661 21.825 81.2785 22.2625 83.7285 23.1375C86.1785 23.9541 88.2786 25.2375 90.0286 26.9875C91.7786 28.7375 93.1203 30.9541 94.0536 33.6375C95.0453 36.3208 95.541 39.5291 95.541 43.2624C95.541 46.9958 95.0453 50.2333 94.0536 52.975C93.1203 55.6583 91.7786 57.875 90.0286 59.625C88.2786 61.375 86.1785 62.6583 83.7285 63.475C81.2785 64.2916 78.5661 64.7 75.5911 64.7C72.6161 64.7 69.9036 64.2916 67.4536 63.475C65.0619 62.6583 62.9911 61.375 61.2411 59.625C59.4911 57.875 58.1202 55.6583 57.1285 52.975C56.1952 50.2333 55.7285 46.9958 55.7285 43.2624C55.7285 39.5291 56.1952 36.3208 57.1285 33.6375C58.1202 30.9541 59.4911 28.7375 61.2411 26.9875C62.9911 25.2375 65.0619 23.9541 67.4536 23.1375C69.9036 22.2625 72.6161 21.825 75.5911 21.825ZM75.5911 57.2625C76.9911 57.2625 78.2161 56.8833 79.2661 56.125C80.3161 55.3666 81.1911 54.3458 81.8911 53.0625C82.6494 51.7208 83.2036 50.2041 83.5536 48.5125C83.9619 46.8208 84.166 45.0708 84.166 43.2624C84.166 41.4541 83.9619 39.7041 83.5536 38.0124C83.2036 36.3208 82.6494 34.8333 81.8911 33.5499C81.1911 32.2666 80.3161 31.2458 79.2661 30.4875C78.2161 29.6708 76.9911 29.2625 75.5911 29.2625C74.1911 29.2625 72.966 29.6708 71.916 30.4875C70.866 31.2458 69.991 32.2666 69.291 33.5499C68.591 34.8333 68.0369 36.3208 67.6285 38.0124C67.2785 39.7041 67.1035 41.4541 67.1035 43.2624C67.1035 45.0708 67.2785 46.8208 67.6285 48.5125C68.0369 50.2041 68.591 51.7208 69.291 53.0625C69.991 54.3458 70.866 55.3666 71.916 56.125C72.966 56.8833 74.1911 57.2625 75.5911 57.2625Z" fill="#121212"></path><path d="M52.2408 40.025C52.2408 44.8083 51.1618 48.6 49.0034 51.4C46.9034 54.1417 44.0158 56.0667 40.3408 57.175C41.8575 57.4083 43.3158 57.7875 44.7158 58.3125C46.1742 58.7792 47.4576 59.4208 48.5659 60.2375C49.6743 61.0542 50.5493 62.0458 51.1909 63.2125C51.8909 64.3792 52.2408 65.7208 52.2408 67.2375C52.2408 69.4542 51.6867 71.4375 50.5784 73.1875C49.47 74.9958 48.0409 76.5125 46.2909 77.7375C44.5409 78.9625 42.5284 79.8958 40.2534 80.5375C38.0368 81.1792 35.7909 81.5 33.5159 81.5C29.0825 81.5 25.1742 80.7417 21.7909 79.225C18.4659 77.7083 16.045 75.6375 14.5283 73.0125C13.4783 71.2625 12.9826 69.6875 13.0409 68.2875C13.0992 66.8875 13.4783 65.6917 14.1783 64.7C14.9367 63.7667 15.9283 63.0667 17.1533 62.6C18.3783 62.075 19.6034 61.8125 20.8284 61.8125C22.2867 61.8125 23.57 62.1917 24.6783 62.95C25.7867 63.7083 26.3408 64.9042 26.3408 66.5375C26.3408 69.2792 27.0117 71.35 28.3534 72.75C29.6951 74.15 31.4743 74.85 33.6909 74.85C34.9743 74.85 36.0825 74.4708 37.0159 73.7125C37.9492 73.0125 38.6492 72.1083 39.1158 71C39.6408 69.8917 39.8743 68.6667 39.8159 67.325C39.8159 65.9833 39.4951 64.7 38.8534 63.475C38.2701 62.1917 37.3367 61.0542 36.0533 60.0625C34.77 59.0708 33.1367 58.4 31.1533 58.05C25.145 57.7583 20.5075 56.1542 17.2408 53.2375C13.9742 50.2625 12.3408 45.8583 12.3408 40.025C12.3408 36.875 12.8075 34.1625 13.7408 31.8875C14.7325 29.5542 16.1034 27.6583 17.8534 26.2C19.6034 24.7417 21.7033 23.6625 24.1533 22.9625C26.6033 22.2625 29.3159 21.9125 32.2909 21.9125C34.2159 21.9125 35.7617 21.4458 36.9283 20.5125C38.095 19.5208 39.1158 18.4708 39.9908 17.3625C40.9242 16.1958 41.8868 15.1458 42.8784 14.2125C43.9284 13.2792 45.2992 12.8125 46.9908 12.8125C48.4492 12.8125 49.5867 13.1625 50.4033 13.8625C51.2783 14.5625 51.7158 15.5833 51.7158 16.925C51.7158 18.0917 51.3659 19.0833 50.6659 19.9C50.0242 20.6583 49.1784 21.3 48.1284 21.825C47.0784 22.2917 45.9118 22.6417 44.6284 22.875C43.3451 23.05 42.0617 23.1083 40.7783 23.05C44.4533 24.2167 47.2825 26.2 49.2659 29C51.2492 31.8 52.2408 35.475 52.2408 40.025ZM32.2909 50.35C33.6326 50.35 34.7992 50.0875 35.7909 49.5625C36.8409 48.9792 37.7159 48.2208 38.4159 47.2875C39.1159 46.2958 39.6408 45.1875 39.9908 43.9625C40.3408 42.6792 40.5159 41.3667 40.5159 40.025C40.5159 38.6833 40.3408 37.4 39.9908 36.175C39.6408 34.8917 39.1159 33.7833 38.4159 32.85C37.7159 31.8583 36.8409 31.1 35.7909 30.575C34.7992 29.9917 33.6326 29.7 32.2909 29.7C31.0076 29.7 29.8409 29.9917 28.7909 30.575C27.7992 31.1 26.9534 31.8583 26.2534 32.85C25.5534 33.7833 25.0283 34.8917 24.6783 36.175C24.3283 37.4 24.1533 38.6833 24.1533 40.025C24.1533 41.3667 24.3283 42.6792 24.6783 43.9625C25.0283 45.1875 25.5534 46.2958 26.2534 47.2875C26.9534 48.2208 27.7992 48.9792 28.7909 49.5625C29.8409 50.0875 31.0076 50.35 32.2909 50.35Z" fill="#121212"></path><path d="M143.045 52.625C143.862 55.1917 144.97 57.321 146.37 59.0127C147.77 60.7043 149.433 61.9587 151.357 62.7754C153.341 63.592 155.47 64 157.745 64C159.903 64 161.945 63.5624 163.87 62.6875C165.795 61.7542 167.341 60.4121 168.508 58.6621C168.391 59.1286 168.303 59.5664 168.245 59.9746C168.187 60.3246 168.158 60.6754 168.158 61.0254C168.158 63.0084 169.295 64 171.57 64H179.533L179.946 63.9883C181.813 63.8798 182.807 63.012 182.932 61.3848L182.945 61.0254C182.945 60.6317 182.912 60.2214 182.847 59.7949L182.771 59.3623C182.712 59.0707 182.646 58.7572 182.573 58.4219L182.333 57.3496C182.158 56.5914 182.012 55.7457 181.896 54.8125C181.808 54.0688 181.753 53.2267 181.731 52.2861L181.721 51.3125V16.8379C181.721 15.4381 181.487 14.4171 181.021 13.7754C180.612 13.1337 179.795 12.8125 178.57 12.8125C177.054 12.8125 175.566 13.0746 174.107 13.5996L173.112 13.9395C172.172 14.2675 171.396 14.5628 170.783 14.8252C169.967 15.1169 169.324 15.4962 168.857 15.9629C168.391 16.3712 168.158 16.9835 168.158 17.7998C168.158 18.383 168.216 18.8788 168.333 19.2871C168.45 19.6371 168.566 20.1624 168.683 20.8623C168.858 21.5623 169.003 22.5546 169.12 23.8379C169.295 25.1212 169.383 26.9001 169.383 29.1748C168.216 27.0166 166.582 25.3837 164.482 24.2754C162.441 23.1671 160.195 22.6123 157.745 22.6123C155.47 22.6123 153.341 23.0213 151.357 23.8379C149.433 24.6545 147.77 25.9081 146.37 27.5996L146.111 27.9121C144.833 29.5015 143.811 31.5264 143.045 33.9873C142.228 36.554 141.82 39.646 141.82 43.2627L141.825 43.9346C141.873 47.2671 142.279 50.164 143.045 52.625L136.394 54.7402C136.649 54.1759 136.886 53.5877 137.1 52.9746C138.029 50.4045 138.523 47.3986 138.581 43.957L138.587 43.2627C138.587 39.5295 138.091 36.321 137.1 33.6377C136.416 31.6721 135.512 29.9579 134.39 28.4932C135.452 25.8344 136.876 23.3106 138.777 21.0918H138.778C141.127 18.2931 144.032 16.0827 147.452 14.6318L147.551 14.5908C150.814 13.2473 154.244 12.6123 157.745 12.6123C158.231 12.6123 158.715 12.6261 159.196 12.6533C159.795 11.2637 160.701 9.88037 162.035 8.65039C163.682 7.08488 165.527 6.11246 167.177 5.49609C168.286 5.0358 169.569 4.57205 170.945 4.11328C173.398 3.25783 175.953 2.81251 178.57 2.8125L179.066 2.82031C181.637 2.90495 186.268 3.70945 189.245 8.08887C191.463 11.2657 191.721 14.7954 191.721 16.8379V51.3125C191.721 52.3596 191.767 53.107 191.823 53.6055C191.905 54.2506 191.994 54.7422 192.077 55.1016L192.346 56.2979C192.429 56.6815 192.506 57.0498 192.576 57.4014L192.658 57.834C192.838 58.851 192.945 59.9196 192.945 61.0254C192.945 63.9426 192.045 67.846 188.664 70.7939C185.545 73.5134 181.901 74 179.533 74H171.57C169.955 74 167.746 73.7722 165.515 72.7646C163.01 73.5898 160.405 74 157.745 74C154.463 74 151.243 73.4425 148.164 72.2656L147.551 72.0215C147.518 72.008 147.485 71.9943 147.452 71.9805C144.196 70.5988 141.405 68.5293 139.117 65.918L138.666 65.3877C136.847 63.1894 135.454 60.7208 134.398 58.1074C135.167 57.1026 135.831 55.9804 136.394 54.7402L143.045 52.625ZM153.195 43.2627C153.195 41.7316 153.33 40.2673 153.598 38.8701L153.721 38.2754C154.027 36.8461 154.467 35.5727 155.041 34.4561L155.295 33.9873C155.995 32.7623 156.841 31.7996 157.833 31.0996C158.825 30.3415 159.962 29.9629 161.245 29.9629C162.528 29.9629 163.637 30.3414 164.57 31.0996C165.562 31.7996 166.379 32.7623 167.021 33.9873C167.662 35.2123 168.128 36.6421 168.42 38.2754C168.77 39.8503 168.945 41.5128 168.945 43.2627L168.938 43.916C168.899 45.4345 168.726 46.9087 168.42 48.3379L168.303 48.9209C168.009 50.2672 167.582 51.502 167.021 52.625C166.379 53.8499 165.562 54.8413 164.57 55.5996C163.637 56.2996 162.528 56.6504 161.245 56.6504C159.962 56.6503 158.825 56.2996 157.833 55.5996C156.965 54.936 156.209 54.0942 155.564 53.0732L155.295 52.625C154.595 51.3418 154.071 49.9126 153.721 48.3379C153.414 46.9087 153.241 45.4345 153.203 43.916L153.195 43.2627Z" fill="#FFFEFB"></path><path d="M138.587 43.2627C138.587 39.5295 138.091 36.321 137.1 33.6377C136.225 31.122 134.99 29.0166 133.397 27.3213L133.074 26.9873C131.324 25.2374 129.224 23.9543 126.774 23.1377C124.324 22.2627 121.612 21.8252 118.637 21.8252C115.662 21.8252 112.949 22.2627 110.499 23.1377C108.108 23.9543 106.037 25.2375 104.287 26.9873L103.963 27.3213C102.367 29.0166 101.104 31.1222 100.175 33.6377L100.005 34.1465C99.1845 36.7237 98.7744 39.7626 98.7744 43.2627L98.7803 43.957C98.835 47.3987 99.2999 50.4044 100.175 52.9746C101.166 55.6579 102.537 57.875 104.287 59.625C106.037 61.3748 108.108 62.6579 110.499 63.4746C112.949 64.2913 115.662 64.7002 118.637 64.7002C121.612 64.7002 124.324 64.2913 126.774 63.4746C129.071 62.709 131.061 61.5333 132.742 59.9473L133.074 59.625C134.824 57.875 136.166 55.6579 137.1 52.9746C138.029 50.4045 138.523 47.3986 138.581 43.957L138.587 43.2627ZM110.149 43.2627C110.149 41.4544 110.325 39.7043 110.675 38.0127C111.032 36.5326 111.501 35.2085 112.081 34.041L112.337 33.5498C113.037 32.2665 113.912 31.2456 114.962 30.4873C116.012 29.6707 117.237 29.2627 118.637 29.2627C120.037 29.2627 121.262 29.6708 122.312 30.4873C123.361 31.2456 124.237 32.2666 124.937 33.5498L125.212 34.041C125.831 35.2085 126.293 36.5326 126.6 38.0127C127.008 39.7043 127.212 41.4544 127.212 43.2627L127.202 43.9375C127.158 45.5072 126.957 47.0324 126.6 48.5127L126.459 49.1387C126.108 50.5806 125.6 51.8885 124.937 53.0625C124.237 54.3457 123.361 55.3667 122.312 56.125C121.262 56.8832 120.037 57.2627 118.637 57.2627C117.237 57.2627 116.012 56.8833 114.962 56.125C114.043 55.4614 113.258 54.5968 112.607 53.5312L112.337 53.0625C111.637 51.7209 111.083 50.2042 110.675 48.5127C110.369 47.0324 110.195 45.5072 110.157 43.9375L110.149 43.2627ZM141.825 43.9346C141.873 47.2671 142.279 50.164 143.045 52.625C143.742 54.8166 144.654 56.6885 145.776 58.2422C144.545 61.133 142.876 63.8069 140.691 66.1328L140.146 66.6963C137.431 69.4111 134.223 71.4121 130.655 72.7109L129.937 72.9619C126.325 74.1656 122.526 74.7002 118.637 74.7002C114.99 74.7002 111.424 74.2302 108.017 73.1797L107.337 72.9619C107.314 72.9542 107.291 72.9463 107.268 72.9385C103.7 71.7201 100.495 69.8082 97.7568 67.2227L97.2158 66.6963C94.7022 64.1826 92.8048 61.2299 91.4229 58.0137C92.5078 56.5722 93.3863 54.8933 94.0537 52.9746C94.9833 50.4045 95.477 47.3986 95.5352 43.957L95.541 43.2627C95.541 39.5295 95.0453 36.321 94.0537 33.6377C93.3862 31.7186 92.5081 30.0393 91.4229 28.5977C92.8048 25.3818 94.7024 22.4294 97.2158 19.916C100.036 17.0956 103.384 15.0233 107.136 13.7207V13.7197C110.808 12.4082 114.678 11.8252 118.637 11.8252C122.523 11.8252 126.323 12.3889 129.936 13.6504H129.937C129.944 13.6529 129.952 13.6557 129.959 13.6582C130.018 13.679 130.078 13.6985 130.138 13.7197H130.137C133.913 15.0102 137.3 17.0705 140.146 19.916C142.595 22.3659 144.439 25.2341 145.771 28.3555C144.65 29.8726 143.741 31.7495 143.045 33.9873C142.228 36.554 141.82 39.646 141.82 43.2627L141.825 43.9346Z" fill="#FFFEFB"></path><path d="M95.541 43.2627C95.541 39.5295 95.0453 36.321 94.0537 33.6377C93.1787 31.122 91.9444 29.0166 90.3516 27.3213L90.0283 26.9873C88.2784 25.2374 86.1784 23.9543 83.7285 23.1377C81.2785 22.2627 78.5658 21.8252 75.5908 21.8252C72.6159 21.8252 69.9031 22.2627 67.4531 23.1377C65.0617 23.9543 62.9911 25.2375 61.2412 26.9873L60.917 27.3213C59.3209 29.0166 58.0585 31.1222 57.1289 33.6377L56.959 34.1465C56.1386 36.7237 55.7285 39.7626 55.7285 43.2627L55.7344 43.957C55.7891 47.3987 56.254 50.4044 57.1289 52.9746C58.1206 55.6579 59.4912 57.875 61.2412 59.625C62.9911 61.3748 65.0617 62.6579 67.4531 63.4746C69.9031 64.2913 72.6159 64.7002 75.5908 64.7002C78.5658 64.7002 81.2785 64.2913 83.7285 63.4746C86.0254 62.709 88.0146 61.5333 89.6963 59.9473L90.0283 59.625C91.7783 57.875 93.1204 55.6579 94.0537 52.9746C94.9833 50.4045 95.477 47.3986 95.5352 43.957L95.541 43.2627ZM67.1035 43.2627C67.1035 41.4544 67.2789 39.7043 67.6289 38.0127C67.9862 36.5326 68.4546 35.2085 69.0352 34.041L69.291 33.5498C69.991 32.2665 70.8661 31.2456 71.916 30.4873C72.9659 29.6707 74.191 29.2627 75.5908 29.2627C76.9907 29.2627 78.2157 29.6708 79.2656 30.4873C80.3155 31.2456 81.1907 32.2666 81.8906 33.5498L82.166 34.041C82.7848 35.2085 83.2475 36.5326 83.5537 38.0127C83.962 39.7043 84.166 41.4544 84.166 43.2627L84.1562 43.9375C84.1116 45.5072 83.911 47.0324 83.5537 48.5127L83.4131 49.1387C83.0622 50.5806 82.5542 51.8885 81.8906 53.0625C81.1906 54.3457 80.3156 55.3667 79.2656 56.125C78.2157 56.8832 76.9907 57.2627 75.5908 57.2627C74.1909 57.2627 72.966 56.8833 71.916 56.125C70.9972 55.4614 70.2123 54.5968 69.5615 53.5312L69.291 53.0625C68.5911 51.7209 68.0372 50.2042 67.6289 48.5127C67.3226 47.0324 67.1496 45.5072 67.1113 43.9375L67.1035 43.2627ZM98.7803 43.957C98.835 47.3987 99.2999 50.4044 100.175 52.9746C100.876 54.8713 101.767 56.5345 102.847 57.9648C101.605 60.962 99.8993 63.7327 97.6455 66.1328L97.0996 66.6963C94.3848 69.4111 91.1774 71.4121 87.6094 72.7109L86.8906 72.9619C83.2794 74.1656 79.4803 74.7002 75.5908 74.7002C71.9445 74.7002 68.3778 74.2302 64.9707 73.1797L64.291 72.9619C64.268 72.9542 64.2446 72.9463 64.2217 72.9385C60.6539 71.7201 57.4489 69.8082 54.7109 67.2227L54.1699 66.6963C51.4341 63.9605 49.4271 60.7051 48.0215 57.1553L47.749 56.4414C47.7191 56.3605 47.6899 56.2789 47.6621 56.1973C47.3763 55.3577 47.1279 54.5026 46.9102 53.6348C47.6773 52.962 48.3761 52.2187 49.0029 51.4004C51.1612 48.6005 52.2412 44.8085 52.2412 40.0254C52.2412 35.4754 51.249 31.8 49.2656 29C49.0501 28.6958 48.8224 28.4031 48.5869 28.1182C49.9491 25.0881 51.7819 22.304 54.1699 19.916C56.9904 17.0956 60.3379 15.0233 64.0898 13.7207V13.7197C67.7621 12.4082 71.6319 11.8252 75.5908 11.8252C79.4774 11.8252 83.2775 12.3889 86.8896 13.6504H86.8906C86.8981 13.6529 86.9057 13.6557 86.9131 13.6582C86.9725 13.679 87.0325 13.6985 87.0918 13.7197H87.0908C90.8669 15.0102 94.254 17.0705 97.0996 19.916C99.6254 22.4419 101.506 25.4123 102.847 28.6465C101.767 30.077 100.876 31.7407 100.175 33.6377C99.2415 36.321 98.7744 39.5294 98.7744 43.2627L98.7803 43.957Z" fill="#FFFEFB"></path><path d="M51.7158 16.9248C51.7158 15.667 51.3316 14.6909 50.5625 13.9971L50.4033 13.8623C49.5867 13.1624 48.4493 12.8126 46.9912 12.8125C45.2995 12.8125 43.9279 13.2796 42.8779 14.2129L42.5078 14.5684C41.6466 15.4104 40.8077 16.3417 39.9912 17.3623C39.1162 18.4706 38.0953 19.5211 36.9287 20.5127C35.7621 21.446 34.2159 21.9121 32.291 21.9121C29.316 21.9121 26.6033 22.2629 24.1533 22.9629C21.7034 23.6629 19.6035 24.7419 17.8535 26.2002L17.5293 26.4785C15.9332 27.8969 14.6709 29.7003 13.7412 31.8877L13.5713 32.3193C12.751 34.5034 12.3408 37.0723 12.3408 40.0254L12.3457 40.5674C12.4445 46.132 14.0766 50.3552 17.2412 53.2373C20.5079 56.1539 25.1451 57.7581 31.1533 58.0498C33.1367 58.3998 34.7704 59.0708 36.0537 60.0625C37.3368 61.0541 38.2702 62.1915 38.8535 63.4746C39.4952 64.6996 39.8154 65.9835 39.8154 67.3252C39.8737 68.6667 39.6411 69.8917 39.1162 71C38.6495 72.1083 37.949 73.0129 37.0156 73.7129C36.0824 74.471 34.9736 74.8496 33.6904 74.8496C31.474 74.8495 29.6951 74.1499 28.3535 72.75C27.0118 71.35 26.3408 69.2788 26.3408 66.5371C26.3407 64.9041 25.7867 63.7085 24.6787 62.9502C23.5704 62.1919 22.2865 61.8125 20.8281 61.8125C19.6032 61.8125 18.3782 62.0747 17.1533 62.5996C15.9283 63.0663 14.937 63.7669 14.1787 64.7002L14.0508 64.8887C13.4323 65.8421 13.0957 66.9749 13.041 68.2871C12.9827 69.6871 13.4783 71.2627 14.5283 73.0127C16.045 75.6376 18.4661 77.708 21.791 79.2246C25.1743 80.7412 29.0824 81.5 33.5156 81.5C35.7905 81.5 38.0364 81.1787 40.2529 80.5371C42.5279 79.8954 44.541 78.9623 46.291 77.7373C48.0409 76.5124 49.4698 74.9957 50.5781 73.1875C51.6172 71.5469 52.1694 69.7012 52.2344 67.6504L52.2412 67.2373C52.2412 65.7208 51.8904 64.3795 51.1904 63.2129C50.5488 62.0462 49.6738 61.054 48.5654 60.2373C47.4572 59.4208 46.174 58.7791 44.7158 58.3125C43.3158 57.7875 41.8575 57.4081 40.3408 57.1748C44.0156 56.0665 46.903 54.1418 49.0029 51.4004C51.0264 48.7754 52.1021 45.2784 52.2285 40.9102L52.2412 40.0254C52.2412 35.4754 51.249 31.8 49.2656 29C47.2823 26.2001 44.4533 24.2165 40.7783 23.0498C42.0615 23.1081 43.3447 23.05 44.6279 22.875C45.9111 22.6417 47.078 22.2918 48.1279 21.8252C49.1779 21.3002 50.0244 20.6587 50.666 19.9004C51.3223 19.1347 51.6709 18.2149 51.7119 17.1416L51.7158 16.9248ZM24.1533 40.0254C24.1533 38.6837 24.3287 37.3998 24.6787 36.1748C24.985 35.052 25.4248 34.0629 25.999 33.208L26.2529 32.8496C26.9529 31.858 27.7994 31.1002 28.791 30.5752C29.841 29.9919 31.0077 29.7002 32.291 29.7002C33.6326 29.7002 34.7994 29.9919 35.791 30.5752C36.8409 31.1002 37.7161 31.8581 38.416 32.8496L38.6699 33.208C39.2442 34.063 39.6849 35.0518 39.9912 36.1748L40.1143 36.6367C40.3823 37.7214 40.5156 38.8513 40.5156 40.0254L40.5078 40.5264C40.4696 41.6941 40.2975 42.8398 39.9912 43.9629C39.6412 45.1876 39.1158 46.2956 38.416 47.2871C37.716 48.2204 36.841 48.9792 35.791 49.5625C34.7994 50.0875 33.6326 50.3496 32.291 50.3496C31.0077 50.3496 29.841 50.0875 28.791 49.5625C27.7993 48.9792 26.9529 48.2204 26.2529 47.2871C25.5532 46.2957 25.0287 45.1875 24.6787 43.9629C24.3724 42.8398 24.1994 41.6941 24.1611 40.5264L24.1533 40.0254ZM61.7158 16.9248C61.7158 19.9424 60.8408 22.9781 58.9053 25.5938C59.3705 26.4475 59.78 27.3226 60.1387 28.2148C58.9053 29.7392 57.9017 31.5465 57.1289 33.6377C56.1956 36.321 55.7285 39.5294 55.7285 43.2627C55.7285 46.9958 56.1956 50.233 57.1289 52.9746C57.4665 53.8881 57.8489 54.7474 58.2744 55.5527C58.2405 55.6076 58.2044 55.6612 58.1699 55.7158C58.8161 56.5277 59.3989 57.3975 59.9131 58.3232C61.5425 61.1477 62.2412 64.2128 62.2412 67.2373C62.2412 71.162 61.242 74.9796 59.1025 78.4111L59.1045 78.4131C59.0847 78.4454 59.0629 78.4766 59.043 78.5088C59.037 78.5182 59.0323 78.5287 59.0264 78.5381L59.0254 78.5371C57.2051 81.4694 54.8511 83.9517 52.0254 85.9297C49.2822 87.8499 46.2494 89.2284 43.0332 90.1426L43.0342 90.1436C39.9269 91.043 36.745 91.5 33.5156 91.5C28.1182 91.5 22.9315 90.6041 18.1611 88.5527L17.7002 88.3496C17.6804 88.3407 17.6603 88.3322 17.6406 88.3232C12.8682 86.1463 8.70986 82.8507 5.95312 78.1562V78.1572C4.33279 75.4566 2.88092 71.9244 3.0498 67.8711L3.08203 67.3037C3.28754 64.4635 4.16005 61.5527 6.00879 58.9336L6.20801 58.6602C6.27605 58.5704 6.34594 58.482 6.41699 58.3945C6.74531 57.9904 7.08989 57.6076 7.44629 57.2441C3.77502 52.2857 2.34088 46.2269 2.34082 40.0254C2.34082 35.9239 2.94427 31.8577 4.48926 28.0918L4.53711 27.9766C6.07876 24.3492 8.34875 21.103 11.4512 18.5176C14.3917 16.0671 17.7759 14.3849 21.4062 13.3477L22.0605 13.167C25.0897 12.3663 28.247 11.9753 31.4824 11.9199C31.7276 11.6625 31.9474 11.412 32.1416 11.166L32.1826 11.1152L32.6357 10.5576C33.7022 9.26795 34.8302 8.05463 36.0244 6.93066L36.2344 6.73828L36.54 6.47363C39.7165 3.79518 43.4887 2.8125 46.9912 2.8125L47.5605 2.82129C50.449 2.91115 53.9245 3.70974 56.9111 6.26953C60.4354 9.23186 61.7158 13.3003 61.7158 16.9248Z" fill="#FFFEFB"></path></svg>