<svg xmlns="http://www.w3.org/2000/svg" width="100%" viewBox="0 0 235 77" fill="none"><path d="M218.078 52.2749C221.228 52.2749 222.803 53.8499 222.803 56.9999V59.2749C222.803 62.4249 221.228 63.9999 218.078 63.9999H213.791C210.641 63.9999 209.066 62.4249 209.066 59.2749V56.9999C209.066 53.8499 210.641 52.2749 213.791 52.2749H218.078Z" fill="#121212"></path><path d="M184.121 32.5875C184.121 33.8124 184.675 34.9208 185.784 35.9125C186.892 36.8458 188.263 37.75 189.896 38.625C191.588 39.4416 193.396 40.2874 195.321 41.1625C197.305 41.9791 199.113 42.9125 200.746 43.9625C202.438 45.0125 203.838 46.2375 204.946 47.6375C206.055 48.9791 206.609 50.5833 206.609 52.45C206.609 56.0083 204.976 58.9541 201.709 61.2875C198.501 63.5625 193.951 64.7 188.059 64.7C186.601 64.7 184.88 64.6125 182.896 64.4375C180.971 64.3208 179.105 63.9416 177.296 63.2999C175.488 62.5999 173.942 61.6083 172.659 60.325C171.434 58.9833 170.821 57.1458 170.821 54.8125C170.821 53.2375 171.171 51.8375 171.871 50.6125C172.63 49.3875 173.563 48.3375 174.671 47.4625C175.78 46.5874 176.946 45.8875 178.171 45.3625C179.455 44.8375 180.621 44.4875 181.671 44.3125C180.446 43.6708 179.28 43 178.171 42.3C177.063 41.5416 176.1 40.725 175.284 39.85C174.467 38.975 173.796 38.0125 173.271 36.9625C172.805 35.9124 172.571 34.7458 172.571 33.4625C172.571 31.4208 173.009 29.6708 173.884 28.2125C174.759 26.6958 175.984 25.4708 177.559 24.5374C179.192 23.6041 181.088 22.9333 183.246 22.525C185.463 22.0583 187.884 21.825 190.509 21.825C193.075 21.825 195.292 22.0583 197.159 22.525C199.025 22.9916 200.571 23.6333 201.796 24.45C203.021 25.2083 203.925 26.1125 204.509 27.1624C205.092 28.2124 205.384 29.2916 205.384 30.4C205.384 31.7416 204.975 32.9666 204.159 34.075C203.4 35.125 202.176 35.65 200.484 35.65C199.084 35.65 197.946 35.2708 197.071 34.5125C196.255 33.6958 195.496 32.8208 194.796 31.8875C194.096 30.8958 193.367 30.0208 192.609 29.2625C191.851 28.4458 190.83 28.0375 189.546 28.0375C188.263 28.0375 187.038 28.4166 185.871 29.1749C184.705 29.9333 184.121 31.0708 184.121 32.5875ZM188.409 58.4874C190.45 58.4874 192.113 58.0791 193.396 57.2625C194.738 56.4458 195.409 55.3666 195.409 54.0249C195.409 53.2083 195.117 52.4791 194.534 51.8375C194.009 51.1375 193.28 50.4958 192.346 49.9125C191.471 49.2708 190.421 48.6875 189.196 48.1625C188.03 47.5791 186.805 46.9958 185.521 46.4125C184.121 47.4041 183.13 48.6 182.546 50C181.963 51.4 181.788 52.7416 182.021 54.0249C182.255 55.2499 182.896 56.2999 183.946 57.1749C185.055 58.0499 186.542 58.4874 188.409 58.4874Z" fill="#121212"></path><path d="M162.618 48.7751C163.551 48.7751 164.339 48.9793 164.981 49.3876C165.622 49.7376 166.147 50.2043 166.556 50.7876C166.964 51.3709 167.256 52.0418 167.431 52.8001C167.606 53.5001 167.693 54.2001 167.693 54.9001C167.693 56.1251 167.372 57.3209 166.731 58.4876C166.089 59.6543 165.068 60.7043 163.668 61.6376C162.268 62.5126 160.46 63.2418 158.243 63.8251C156.026 64.4084 153.372 64.7001 150.281 64.7001C147.539 64.7001 144.972 64.2918 142.581 63.4751C140.189 62.6584 138.118 61.3751 136.368 59.6251C134.618 57.8751 133.218 55.6584 132.168 52.9751C131.177 50.2334 130.681 46.9959 130.681 43.2626C130.681 39.5293 131.206 36.3209 132.256 33.6376C133.364 30.9543 134.793 28.7376 136.543 26.9876C138.352 25.2376 140.393 23.9543 142.668 23.1376C145.002 22.3209 147.422 21.9126 149.931 21.9126C152.556 21.9126 154.831 22.3793 156.756 23.3126C158.681 24.2459 160.256 25.4418 161.481 26.9001C162.764 28.3001 163.726 29.9043 164.368 31.7126C165.01 33.4626 165.331 35.2126 165.331 36.9626C165.331 38.2459 164.952 39.3251 164.193 40.2001C163.435 41.0751 162.122 41.5126 160.256 41.5126H141.793C141.852 45.3043 142.639 48.3959 144.156 50.7876C145.672 53.1793 147.947 54.3751 150.981 54.3751C152.322 54.3751 153.431 54.0834 154.306 53.5001C155.181 52.9168 156.027 52.2751 156.843 51.5751C157.66 50.8751 158.506 50.2334 159.381 49.6501C160.256 49.0668 161.335 48.7751 162.618 48.7751ZM149.668 29.2626C148.618 29.2626 147.656 29.5251 146.781 30.0501C145.906 30.5751 145.147 31.2459 144.506 32.0626C143.922 32.8209 143.427 33.6668 143.018 34.6001C142.61 35.4751 142.347 36.2626 142.231 36.9626H156.406C156.289 34.9209 155.647 33.1418 154.481 31.6251C153.314 30.0501 151.71 29.2626 149.668 29.2626Z" fill="#121212"></path><path d="M62.5073 64.0001C60.2323 64.0001 59.0947 63.0084 59.0947 61.0251C59.0947 60.5001 59.1531 59.9459 59.2698 59.3625C59.3864 58.7792 59.5323 58.1084 59.7073 57.3501C59.8823 56.5917 60.0281 55.7459 60.1448 54.8126C60.2614 53.8209 60.3198 52.6542 60.3198 51.3126V36.9625C60.3198 35.4459 60.2614 34.2209 60.1448 33.2875C60.0281 32.2959 59.8823 31.4792 59.7073 30.8376C59.5323 30.1375 59.3864 29.5542 59.2698 29.0875C59.1531 28.6209 59.0947 28.1251 59.0947 27.6C59.0947 26.7834 59.3281 26.1709 59.7948 25.7626C60.2615 25.3542 60.9031 24.975 61.7197 24.625C62.5947 24.275 63.7323 23.8667 65.1323 23.4C66.5907 22.875 68.049 22.6125 69.5073 22.6125C70.7907 22.6125 71.6365 22.9334 72.0448 23.5751C72.4531 24.2167 72.6572 25.2375 72.6572 26.6376V32.5C72.9489 32.0917 73.5322 31.3626 74.4072 30.3125C75.2822 29.2042 76.4198 28.0959 77.8198 26.9876C79.2198 25.8209 80.824 24.8 82.6323 23.925C84.499 23.05 86.5115 22.6125 88.6698 22.6125C92.2865 22.6125 94.9115 23.5167 96.5448 25.325C98.1781 27.075 99.1114 29.525 99.3447 32.6751C99.5781 32.3251 100.103 31.625 100.92 30.575C101.795 29.4667 102.932 28.3292 104.332 27.1625C105.732 25.9375 107.366 24.8875 109.232 24.0126C111.099 23.0792 113.17 22.6125 115.445 22.6125C119.411 22.6125 122.182 23.6625 123.757 25.7626C125.391 27.8625 126.207 30.75 126.207 34.425V51.3126C126.207 52.6542 126.266 53.8209 126.382 54.8126C126.557 55.7459 126.703 56.5917 126.82 57.3501C126.995 58.1084 127.141 58.7792 127.257 59.3625C127.432 59.9459 127.52 60.5001 127.52 61.0251C127.52 61.9584 127.199 62.6876 126.557 63.2126C125.974 63.7376 125.157 64.0001 124.107 64.0001H116.057C113.782 64.0001 112.645 63.0084 112.645 61.0251C112.645 60.5001 112.703 59.9459 112.82 59.3625C112.936 58.7792 113.082 58.1084 113.257 57.3501C113.432 56.5917 113.578 55.7459 113.695 54.8126C113.811 53.8209 113.87 52.6542 113.87 51.3126V38.7125C113.87 36.1459 113.491 34.3667 112.732 33.375C112.032 32.325 110.924 31.8 109.407 31.8C108.357 31.8 107.307 32.1501 106.257 32.8501C105.207 33.4917 104.216 34.2501 103.282 35.1251C102.349 36.0001 101.532 36.8459 100.832 37.6625C100.191 38.4792 99.7239 39.0626 99.4323 39.4125V51.3126C99.4323 52.6542 99.4906 53.8209 99.6073 54.8126C99.7823 55.7459 99.9281 56.5917 100.045 57.3501C100.22 58.1084 100.366 58.7792 100.482 59.3625C100.657 59.9459 100.745 60.5001 100.745 61.0251C100.745 61.9584 100.424 62.6876 99.7822 63.2126C99.1989 63.7376 98.3823 64.0001 97.3323 64.0001H89.2822C87.0072 64.0001 85.8698 63.0084 85.8698 61.0251C85.8698 60.5001 85.9281 59.9459 86.0448 59.3625C86.1615 58.7792 86.3073 58.1084 86.4823 57.3501C86.6573 56.5917 86.8031 55.7459 86.9198 54.8126C87.0365 53.8209 87.0947 52.6542 87.0947 51.3126V38.7125C87.0947 36.1459 86.7448 34.3667 86.0448 33.375C85.3448 32.325 84.2364 31.8 82.7197 31.8C81.6697 31.8 80.5906 32.1501 79.4823 32.8501C78.4323 33.4917 77.4407 34.2501 76.5073 35.1251C75.574 36.0001 74.7573 36.8459 74.0573 37.6625C73.4156 38.4792 72.9489 39.0626 72.6572 39.4125V51.3126C72.6572 52.6542 72.7156 53.8209 72.8323 54.8126C73.0073 55.7459 73.1531 56.5917 73.2698 57.3501C73.4448 58.1084 73.5906 58.7792 73.7073 59.3625C73.8823 59.9459 73.9697 60.5001 73.9697 61.0251C73.9697 61.9584 73.649 62.6876 73.0073 63.2126C72.424 63.7376 71.6073 64.0001 70.5573 64.0001H62.5073Z" fill="#121212"></path><path d="M49.1458 26.4626C48.3874 26.6376 47.6583 26.7251 46.9583 26.7251C45.4416 26.7251 44.0999 26.3751 42.9332 25.6751C41.7666 24.9168 41.0374 23.9251 40.7457 22.7001C40.3957 21.1834 40.775 19.7543 41.8833 18.4126C42.9916 17.0126 44.5374 16.0793 46.5208 15.6126C47.3374 15.4376 48.0958 15.3501 48.7958 15.3501C50.3125 15.3501 51.625 15.7293 52.7333 16.4876C53.9 17.1876 54.6291 18.1209 54.9208 19.2876C55.2708 20.8043 54.8915 22.2626 53.7832 23.6626C52.6749 25.0626 51.1291 25.9959 49.1458 26.4626ZM44.5083 64.0001C42.2333 64.0001 41.0957 63.0084 41.0957 61.0251C41.0957 60.5001 41.1541 59.9459 41.2708 59.3626C41.3874 58.7793 41.5333 58.1084 41.7083 57.3501C41.8833 56.5918 42.0291 55.7459 42.1458 54.8126C42.2624 53.8209 42.3208 52.6543 42.3208 51.3126V43.3501C42.3208 41.8334 42.2624 40.6084 42.1458 39.6751C42.0291 38.6834 41.8833 37.8668 41.7083 37.2251C41.5333 36.5251 41.3874 35.9418 41.2708 35.4751C41.1541 34.9501 41.0957 34.4251 41.0957 33.9001C41.0957 33.1418 41.3291 32.5584 41.7958 32.1501C42.2625 31.6834 42.904 31.2751 43.7207 30.9251C44.5957 30.5751 45.7333 30.1668 47.1333 29.7001C48.5333 29.1751 49.9916 28.9126 51.5083 28.9126C52.7916 28.9126 53.6375 29.2334 54.0458 29.8751C54.4541 30.5168 54.6582 31.5668 54.6582 33.0251V51.3126C54.6582 52.6543 54.7166 53.8209 54.8333 54.8126C55.0083 55.7459 55.1541 56.5918 55.2708 57.3501C55.4458 58.1084 55.5916 58.7793 55.7083 59.3626C55.8833 59.9459 55.9707 60.5001 55.9707 61.0251C55.9707 61.9584 55.65 62.6876 55.0083 63.2126C54.425 63.7376 53.6082 64.0001 52.5582 64.0001H44.5083Z" fill="#121212"></path><path d="M29.5491 47.9C29.5491 49.65 29.9574 50.875 30.7741 51.575C31.5907 52.275 32.4949 52.8583 33.4866 53.325C34.4783 53.7333 35.3825 54.2292 36.1991 54.8125C37.0158 55.3958 37.4241 56.4167 37.4241 57.875C37.4241 58.8667 37.1616 59.7417 36.6366 60.5C36.1116 61.2583 35.4115 61.9 34.5365 62.425C33.6615 62.95 32.6699 63.3583 31.5616 63.65C30.4532 63.8833 29.3157 64 28.1491 64C24.8241 64 22.1991 63.0667 20.2741 61.2C18.4074 59.275 17.2699 56.5625 16.8616 53.0625C16.6866 51.6042 16.6574 49.9125 16.7741 47.9875C16.9491 46.0625 17.2407 44.0208 17.6491 41.8625C18.1157 39.6458 18.7283 37.4 19.4866 35.125C20.2449 32.7917 21.1491 30.5167 22.1991 28.3H14.3241C13.3325 28.3 12.6616 27.95 12.3116 27.25C12.0199 26.55 12.1075 25.8208 12.5741 25.0625C13.6241 23.8958 14.7616 22.6125 15.9866 21.2125C17.2116 19.8125 18.4365 18.5 19.6615 17.275C20.8865 15.9917 22.0532 14.9417 23.1615 14.125C24.3282 13.25 25.349 12.8125 26.224 12.8125C27.449 12.8125 28.295 13.1333 28.7616 13.775C29.2866 14.3583 29.5491 15.3208 29.5491 16.6625V23.4H35.1491C35.7324 23.4 36.2574 23.6625 36.724 24.1875C37.1907 24.6542 37.4241 25.2083 37.4241 25.85C37.4241 26.4917 37.2199 27.075 36.8116 27.6C36.4616 28.0667 35.8782 28.3 35.0616 28.3H29.5491V47.9Z" fill="#121212"></path><path d="M209.07 59.5654C209.163 62.4265 210.639 63.9028 213.5 63.9951L213.791 64H218.078L218.369 63.9951C221.23 63.9027 222.707 62.4264 222.799 59.5654L222.803 59.2754V57C222.803 53.9485 221.325 52.3747 218.369 52.2793L218.078 52.2754V40.2754C221.503 40.2754 226.276 41.1391 230.107 44.9707C233.939 48.8024 234.803 53.5753 234.803 57V59.2754C234.803 62.7 233.939 67.4722 230.107 71.3037C226.276 75.1354 221.503 76 218.078 76H213.791C210.366 76 205.593 75.1354 201.762 71.3037C199.305 68.8474 198.069 66.0046 197.497 63.3779C199.092 62.8431 200.497 62.1467 201.709 61.2871C204.975 58.9539 206.608 56.0083 206.608 52.4502C206.608 50.5836 206.055 48.9793 204.946 47.6377C204.114 46.5868 203.118 45.6349 201.957 44.7812C205.755 41.1117 210.424 40.2754 213.791 40.2754H218.078V52.2754H213.791L213.5 52.2793C210.544 52.3746 209.065 53.9484 209.065 57V59.2754L209.07 59.5654Z" fill="#121212"></path><path d="M205.384 30.4004C205.384 29.2921 205.092 28.2121 204.509 27.1621C203.925 26.1122 203.021 25.2085 201.796 24.4502C200.571 23.6337 199.026 22.992 197.159 22.5254C195.293 22.0587 193.075 21.8252 190.509 21.8252C187.884 21.8252 185.463 22.0587 183.246 22.5254C181.088 22.9337 179.192 23.6038 177.559 24.5371C175.984 25.4704 174.759 26.6962 173.884 28.2129C173.009 29.6712 172.571 31.4214 172.571 33.4629C172.571 34.7461 172.805 35.913 173.271 36.9629C173.796 38.0127 174.468 38.9747 175.284 39.8496C176.101 40.7245 177.063 41.5415 178.171 42.2998C179.279 42.9997 180.446 43.6709 181.671 44.3125C180.621 44.4875 179.454 44.8374 178.171 45.3623C176.946 45.8873 175.779 46.588 174.671 47.4629C173.563 48.3378 172.629 49.3875 171.871 50.6123C171.171 51.8373 170.821 53.2375 170.821 54.8125C170.821 57.1458 171.434 58.9835 172.659 60.3252C173.942 61.6083 175.488 62.5999 177.296 63.2998C179.104 63.9415 180.971 64.3208 182.896 64.4375C184.88 64.6125 186.6 64.7002 188.059 64.7002C193.95 64.7002 198.501 63.5621 201.709 61.2871C204.975 58.9539 206.608 56.0083 206.608 52.4502C206.608 50.5836 206.055 48.9793 204.946 47.6377C203.838 46.2377 202.438 45.0129 200.746 43.9629C199.113 42.9129 197.305 41.9788 195.321 41.1621C193.396 40.2872 191.588 39.4416 189.896 38.625C188.263 37.75 186.893 36.8454 185.784 35.9121C184.676 34.9205 184.121 33.8127 184.121 32.5879C184.121 31.0713 184.704 29.9331 185.871 29.1748C187.038 28.4166 188.263 28.0372 189.546 28.0371C190.829 28.0371 191.85 28.4461 192.608 29.2627C193.367 30.021 194.096 30.8961 194.796 31.8877L194.812 31.9092C195.508 32.8344 196.261 33.7023 197.071 34.5127C197.946 35.2709 199.084 35.6503 200.483 35.6504C202.175 35.6504 203.401 35.1252 204.159 34.0752C204.925 33.0362 205.331 31.8944 205.379 30.6504L205.384 30.4004ZM185.521 46.4121C186.805 46.9954 188.03 47.5788 189.196 48.1621C190.421 48.6871 191.472 49.2704 192.347 49.9121L190.853 52.3008C190.819 52.2869 190.786 52.2726 190.752 52.2588C190.73 52.2496 190.708 52.2388 190.686 52.2295C190.634 52.2877 190.584 52.3461 190.531 52.4033L190.823 52.3477L190.77 52.4336L190.449 52.4922C190.411 52.5331 190.372 52.5729 190.333 52.6133C190.693 52.5842 191.026 52.5471 191.335 52.5068C191.24 52.4651 191.144 52.4241 191.047 52.3828L190.77 52.4336L190.823 52.3477L190.92 52.3291C190.898 52.3197 190.875 52.3102 190.853 52.3008L192.347 49.9121C193.28 50.4954 194.009 51.1379 194.534 51.8379C195.117 52.4795 195.409 53.2089 195.409 54.0254C195.409 55.3669 194.738 56.4461 193.396 57.2627C192.113 58.0793 190.451 58.4873 188.409 58.4873C186.543 58.4873 185.055 58.0498 183.946 57.1748C182.896 56.2999 182.255 55.2502 182.021 54.0254C181.788 52.7421 181.963 51.3999 182.546 50C183.129 48.6 184.121 47.4038 185.521 46.4121ZM217.384 30.4004C217.384 33.9989 216.338 37.3755 214.438 40.293C217.255 43.8413 218.574 48.0269 218.606 52.29C218.436 52.2796 218.259 52.2754 218.078 52.2754H213.791C210.641 52.2754 209.065 53.85 209.065 57V59.2754C209.066 62.4251 210.641 64 213.791 64H215.375C213.793 66.565 211.698 68.7952 209.236 70.6475L208.684 71.0527C208.673 71.0606 208.661 71.0683 208.65 71.0762C202.632 75.344 195.267 76.7002 188.059 76.7002C186.196 76.7002 184.164 76.5899 182.01 76.4033C179.215 76.2202 176.477 75.6847 173.823 74.7949L173.283 74.6094C173.177 74.5715 173.07 74.5321 172.965 74.4912C169.911 73.3089 167.092 71.5862 164.655 69.2793L164.174 68.8105C164.045 68.6821 163.919 68.5502 163.797 68.416C162.297 66.7737 161.204 64.9883 160.43 63.1533C161.68 62.7087 162.76 62.2049 163.668 61.6377C165.068 60.7044 166.089 59.654 166.73 58.4873C167.372 57.3208 167.693 56.1252 167.693 54.9004C167.693 54.2004 167.606 53.4998 167.431 52.7998C167.256 52.0416 166.964 51.3704 166.556 50.7871C166.147 50.2039 165.622 49.7376 164.98 49.3877C164.339 48.9794 163.551 48.7754 162.618 48.7754C161.374 48.7754 160.321 49.0492 159.461 49.5977C159.888 47.9166 160.539 46.2569 161.452 44.6592L161.668 44.2959C162.004 43.7538 162.36 43.2272 162.735 42.7148L162.538 42.3291C162.457 42.1666 162.379 42.002 162.306 41.8359C162.231 41.669 162.16 41.5016 162.091 41.334C163.013 41.1305 163.714 40.7532 164.193 40.2002C164.952 39.3253 165.331 38.2461 165.331 36.9629C165.331 35.213 165.01 33.4628 164.368 31.7129C163.727 29.9046 162.764 28.3004 161.48 26.9004C161.48 26.8994 161.478 26.8985 161.478 26.8975C161.958 25.2472 162.649 23.6134 163.594 22.0381L163.595 22.0391C165.54 18.7377 168.234 16.1144 171.441 14.2139L171.605 14.1182C174.512 12.4574 177.638 11.3924 180.823 10.7715C183.954 10.1165 187.198 9.8252 190.509 9.8252C193.752 9.8252 196.995 10.1143 200.069 10.8828L200.598 11.0195C203.184 11.7106 205.832 12.7543 208.277 14.3516C210.674 15.8642 212.965 17.9479 214.66 20.751L214.999 21.335L215.271 21.8418C216.595 24.3988 217.384 27.2913 217.384 30.4004Z" fill="#121212"></path><path d="M167.693 54.9004C167.693 54.2004 167.606 53.4998 167.431 52.7998C167.256 52.0416 166.964 51.3704 166.556 50.7871C166.147 50.2039 165.622 49.7376 164.98 49.3877C164.339 48.9794 163.551 48.7754 162.618 48.7754C161.335 48.7754 160.256 49.0671 159.381 49.6504C158.506 50.2337 157.659 50.8752 156.843 51.5752C156.026 52.2751 155.181 52.9168 154.306 53.5C153.431 54.0833 152.322 54.375 150.98 54.375C147.947 54.3749 145.672 53.1787 144.155 50.7871C142.639 48.3955 141.851 45.304 141.793 41.5127H160.256C162.122 41.5127 163.435 41.0751 164.193 40.2002C164.952 39.3253 165.331 38.2461 165.331 36.9629C165.331 35.213 165.01 33.4628 164.368 31.7129C163.727 29.9046 162.764 28.3004 161.48 26.9004C160.255 25.4421 158.681 24.2458 156.756 23.3125C154.831 22.3792 152.556 21.9121 149.931 21.9121C147.422 21.9121 145.001 22.321 142.668 23.1377C140.393 23.9544 138.351 25.2374 136.543 26.9873C134.793 28.7373 133.364 30.9544 132.256 33.6377C131.206 36.321 130.681 39.5294 130.681 43.2627C130.681 46.9958 131.176 50.2331 132.168 52.9746C133.218 55.6579 134.618 57.875 136.368 59.625C138.118 61.375 140.189 62.6579 142.581 63.4746C144.973 64.2912 147.539 64.7002 150.28 64.7002C153.372 64.7002 156.027 64.4085 158.243 63.8252C160.321 63.2783 162.041 62.6031 163.401 61.7998L163.668 61.6377C164.98 60.7627 165.96 59.7852 166.606 58.7051L166.73 58.4873C167.332 57.3934 167.652 56.2741 167.689 55.1289L167.693 54.9004ZM149.668 29.2627C151.71 29.2627 153.314 30.0501 154.48 31.625C155.647 33.1417 156.289 34.9212 156.405 36.9629H142.23C142.347 36.2629 142.61 35.4746 143.019 34.5996C143.427 33.6665 143.923 32.8207 144.506 32.0625C145.147 31.2459 145.905 30.5748 146.78 30.0498C147.655 29.5248 148.618 29.2627 149.668 29.2627ZM170.821 54.8125C170.821 57.1458 171.434 58.9835 172.659 60.3252C173.942 61.6083 175.488 62.5999 177.296 63.2998C177.423 63.345 177.553 63.3861 177.681 63.4287C177.629 63.5343 177.578 63.6405 177.524 63.7451L177.245 64.2705C175.572 67.3119 173.231 69.593 170.81 71.29L170.324 71.6221C170.226 71.6872 170.128 71.7512 170.028 71.8135C167.464 73.4159 164.642 74.506 161.854 75.2793L161.297 75.4297C157.806 76.3483 154.07 76.7002 150.28 76.7002C146.578 76.7002 142.931 76.1802 139.406 75.0625L138.703 74.8311C134.87 73.5221 131.416 71.4626 128.466 68.6768L127.883 68.1104C126.603 66.8306 125.472 65.4479 124.474 63.9873C125.349 63.9321 126.044 63.6751 126.558 63.2129C127.199 62.688 127.519 61.9585 127.52 61.0254C127.52 60.5004 127.432 59.9456 127.257 59.3623C127.14 58.779 126.994 58.1078 126.819 57.3496C126.703 56.5914 126.557 55.7456 126.382 54.8125C126.265 53.8208 126.207 52.6541 126.207 51.3125V34.4248C126.207 30.7499 125.39 27.8627 123.757 25.7627C123.563 25.5043 123.351 25.2618 123.121 25.0352C124.463 22.6716 126.093 20.4669 128.058 18.502L128.198 18.3643C131.179 15.4793 134.67 13.2588 138.614 11.8428L138.704 11.8115C142.33 10.5423 146.093 9.91211 149.931 9.91211C153.965 9.91211 158.106 10.6311 161.991 12.5146C165.158 14.05 168.063 16.1602 170.463 18.9434C172.472 21.1698 174.056 23.6857 175.191 26.4346C174.692 26.9744 174.256 27.5674 173.884 28.2129C173.009 29.6712 172.571 31.4214 172.571 33.4629C172.571 34.7461 172.805 35.913 173.271 36.9629L173.475 37.3525C173.966 38.2521 174.57 39.084 175.284 39.8496C175.743 40.3416 176.249 40.8144 176.801 41.2695C176.613 42.0143 176.372 42.7524 176.076 43.4785C176.084 43.4891 176.093 43.4992 176.101 43.5098L176.387 43.9062L176.638 44.2754C176.944 44.7374 177.222 45.2082 177.476 45.6846C176.503 46.1633 175.567 46.7553 174.671 47.4629C173.563 48.3378 172.629 49.3875 171.871 50.6123C171.171 51.8373 170.821 53.2375 170.821 54.8125Z" fill="#121212"></path><path d="M54.6582 51.3125V33.9727L60.1445 33.2871C60.2612 34.2204 60.3193 35.4462 60.3193 36.9629V51.3125L60.3086 52.2861C60.2867 53.2267 60.232 54.0688 60.1445 54.8125C60.0279 55.7457 59.882 56.5914 59.707 57.3496L59.4668 58.4219C59.3939 58.7572 59.3279 59.0707 59.2695 59.3623C59.1529 59.9456 59.0947 60.5004 59.0947 61.0254C59.0949 62.8844 60.0946 63.872 62.0938 63.9883L62.5068 64H70.5576L70.9404 63.9873C71.8077 63.9299 72.4965 63.672 73.0068 63.2129C73.6484 62.688 73.9696 61.9585 73.9697 61.0254C73.9697 60.5004 73.882 59.9456 73.707 59.3623C73.5904 58.779 73.4445 58.1078 73.2695 57.3496C73.1529 56.5914 73.007 55.7457 72.832 54.8125C72.7445 54.0688 72.6898 53.2267 72.668 52.2861L72.6572 51.3125V39.4121C72.9489 39.0621 73.4161 38.4786 74.0576 37.6621C74.7575 36.8456 75.5737 35.9998 76.5068 35.125C77.4402 34.25 78.4324 33.4913 79.4824 32.8496C80.5906 32.1497 81.6698 31.7998 82.7197 31.7998C84.2364 31.7998 85.3449 32.325 86.0449 33.375C86.7449 34.3667 87.0947 36.1463 87.0947 38.7129V51.3125L87.084 52.2861C87.0621 53.2267 87.0074 54.0688 86.9199 54.8125C86.8033 55.7457 86.6574 56.5914 86.4824 57.3496L86.2412 58.4219C86.1683 58.7572 86.1032 59.0707 86.0449 59.3623C85.9283 59.9456 85.8701 60.5004 85.8701 61.0254C85.8703 62.8845 86.8697 63.8721 88.8691 63.9883L89.2822 64H97.332L97.7148 63.9873C98.5825 63.9299 99.2718 63.6722 99.7822 63.2129C100.424 62.688 100.745 61.9585 100.745 61.0254C100.745 60.5004 100.657 59.9456 100.482 59.3623C100.366 58.779 100.22 58.1079 100.045 57.3496C99.9283 56.5914 99.7824 55.7457 99.6074 54.8125C99.5199 54.0688 99.4652 53.2267 99.4434 52.2861L99.4326 51.3125V39.4121C99.7243 39.0621 100.191 38.4785 100.832 37.6621C101.532 36.8455 102.349 36 103.282 35.125C104.216 34.25 105.207 33.4913 106.257 32.8496C107.307 32.1496 108.357 31.7998 109.407 31.7998C110.924 31.7998 112.032 32.325 112.732 33.375C113.491 34.3667 113.87 36.1463 113.87 38.7129V51.3125L113.858 52.2861C113.837 53.2267 113.782 54.0688 113.694 54.8125C113.578 55.7457 113.432 56.5914 113.257 57.3496L113.017 58.4219C112.944 58.7572 112.878 59.0707 112.819 59.3623C112.703 59.9456 112.645 60.5004 112.645 61.0254C112.645 62.8847 113.645 63.8722 115.645 63.9883L116.058 64H124.107L124.49 63.9873C125.358 63.9299 126.047 63.6722 126.558 63.2129C127.159 62.7206 127.478 62.0485 127.516 61.1973L127.52 61.0254C127.52 60.5004 127.432 59.9456 127.257 59.3623C127.14 58.779 126.994 58.1078 126.819 57.3496C126.703 56.5914 126.557 55.7456 126.382 54.8125C126.294 54.0688 126.24 53.2267 126.218 52.2861L126.207 51.3125V34.4248C126.207 30.9794 125.489 28.2261 124.054 26.165L123.757 25.7627C122.182 23.6628 119.411 22.6123 115.444 22.6123C113.17 22.6124 111.099 23.0794 109.232 24.0127C107.366 24.8877 105.732 25.9371 104.332 27.1621C102.932 28.3288 101.795 29.4669 100.92 30.5752C100.103 31.6251 99.5781 32.3248 99.3447 32.6748C99.1114 29.525 98.1781 27.0751 96.5449 25.3252C94.9116 23.5169 92.2865 22.6123 88.6699 22.6123C86.5116 22.6123 84.4985 23.0498 82.6318 23.9248C80.8236 24.7998 79.2193 25.8207 77.8193 26.9873C76.4194 28.0956 75.2822 29.2042 74.4072 30.3125C73.5322 31.3625 72.9489 32.0917 72.6572 32.5V26.6377C72.6572 25.2378 72.4532 24.2169 72.0449 23.5752C71.6366 22.9335 70.7902 22.6123 69.5068 22.6123C68.0486 22.6124 66.59 22.8754 65.1318 23.4004C63.7321 23.867 62.5946 24.275 61.7197 24.625C60.9031 24.975 60.2616 25.3544 59.7949 25.7627C59.3283 26.171 59.0948 26.7831 59.0947 27.5996C59.0947 28.1246 59.1529 28.6212 59.2695 29.0879L59.707 30.8379L54.625 32.1074C54.5541 31.1174 54.3628 30.3731 54.0459 29.875C53.6376 29.2333 52.7911 28.9121 51.5078 28.9121C50.0193 28.9122 48.5871 29.1661 47.2109 29.6719C47.1528 29.1536 47.1168 28.6407 47.1025 28.1348L47.0947 27.5996L47.1064 27.002C47.1101 26.9094 47.1176 26.816 47.123 26.7217C47.7724 26.7091 48.4466 26.6242 49.1455 26.4629C51.1288 25.9962 52.6749 25.0621 53.7832 23.6621C54.8914 22.2622 55.2709 20.8037 54.9209 19.2871C54.6292 18.1206 53.8999 17.1872 52.7334 16.4873C52.6314 16.4175 52.5273 16.3515 52.4219 16.2881C53.9925 15.0264 55.6302 14.1798 56.9932 13.5957L57.2627 13.4834L58.1846 13.126C59.1284 12.7702 60.1734 12.4043 61.291 12.0312C63.9044 11.1167 66.6591 10.6124 69.5068 10.6123L70.0234 10.6201C71.8552 10.674 74.9784 11.0529 77.917 12.8887C81.3424 11.3494 84.9718 10.6123 88.6699 10.6123C92.8202 10.6123 97.7212 11.4129 101.962 14.2598C102.507 13.9568 103.06 13.6683 103.621 13.3945L104.139 13.1475C107.739 11.4016 111.575 10.6124 115.444 10.6123C121.143 10.6123 128.409 12.1142 133.228 18.3965L133.229 18.3955C133.256 18.43 133.282 18.4654 133.309 18.5C133.325 18.521 133.342 18.5414 133.357 18.5625H133.356C135.218 21.0048 136.435 23.6729 137.185 26.3955C136.968 26.5866 136.754 26.7836 136.543 26.9873C134.793 28.7373 133.364 30.9544 132.256 33.6377C131.206 36.321 130.681 39.5294 130.681 43.2627C130.681 46.9958 131.176 50.2331 132.168 52.9746C133.218 55.6579 134.618 57.875 136.368 59.625C137.313 60.5699 138.352 61.377 139.484 62.0498C139.244 65.6878 137.705 69.4773 134.387 72.3047C130.989 75.2568 127.047 76 124.107 76H116.058C113.681 76 109.992 75.5582 106.613 73.0996C103.462 75.3931 99.9879 76 97.332 76H89.2822C86.9056 76 83.2171 75.558 79.8389 73.0996C76.6873 75.3932 73.2136 75.9999 70.5576 76H62.5068C59.8929 75.9999 55.6919 75.4657 52.0625 72.3018C49.2096 69.8146 47.8858 66.7532 47.3711 64H52.5586C53.6082 63.9999 54.4246 63.7376 55.0078 63.2129C55.6494 62.688 55.9706 61.9585 55.9707 61.0254C55.9707 60.5004 55.883 59.9456 55.708 59.3623C55.5913 58.779 55.4455 58.1078 55.2705 57.3496C55.1539 56.5914 55.008 55.7457 54.833 54.8125C54.7455 54.0688 54.6908 53.2267 54.6689 52.2861L54.6582 51.3125ZM59.707 30.8379C59.882 31.4794 60.0279 32.2958 60.1445 33.2871L54.6582 33.9727V33.0254C54.6582 32.699 54.6455 32.3929 54.625 32.1074L59.707 30.8379Z" fill="#121212"></path><path d="M30.7744 51.5752C30.6052 51.4301 30.4545 51.2614 30.3203 51.0713V43.3496C30.3203 42.3893 30.291 41.7716 30.2637 41.4238L30.2383 41.1631L30.2275 41.0771C30.1917 40.7726 30.1593 40.561 30.1357 40.4287C30.1234 40.3598 30.1156 40.3236 30.1143 40.3174C30.0981 40.2569 30.0816 40.1965 30.0664 40.1357L29.6289 38.3857L29.5566 38.0781C29.5538 38.0655 29.5516 38.0527 29.5488 38.04V30.2383C29.6939 29.6618 29.8768 29.0802 30.1035 28.501C30.0732 28.4341 30.0422 28.3673 30.0127 28.2998H35.0615C35.8782 28.2998 36.4615 28.0663 36.8115 27.5996C37.2198 27.0747 37.4238 26.4912 37.4238 25.8496C37.4237 25.2082 37.191 24.654 36.7246 24.1875C36.258 23.6626 35.7327 23.4005 35.1494 23.4004H29.5488V16.6621C29.5488 16.5094 29.5449 16.3616 29.5381 16.2188C30.2253 14.2514 31.265 12.4463 32.5527 10.8662C35.5652 7.11013 39.5823 4.91755 43.7725 3.93164L44.0068 3.87891L46.3447 14.7959C46.2228 14.8306 45.9469 14.9241 45.5898 15.1396C45.2033 15.3731 44.8289 15.6849 44.5088 16.0527L44.375 16.2139C44.3153 16.2893 44.2473 16.3819 44.1738 16.4902C43.2714 16.9828 42.5074 17.6232 41.8828 18.4121C40.7745 19.7538 40.3961 21.1835 40.7461 22.7002C41.0378 23.9251 41.767 24.9165 42.9336 25.6748C44.0273 26.331 45.2745 26.6797 46.6758 26.7207L46.958 26.7246C47.6579 26.7246 48.3873 26.6378 49.1455 26.4629C51.1288 25.9962 52.6749 25.0621 53.7832 23.6621C54.8914 22.2622 55.2709 20.8037 54.9209 19.2871C54.6292 18.1206 53.8999 17.1872 52.7334 16.4873C51.6877 15.7718 50.46 15.3939 49.0508 15.3535C48.6524 15.1216 48.2389 14.9547 47.8438 14.8516C47.5391 14.7721 47.288 14.7401 47.1104 14.7295L46.958 14.7246C46.6555 14.7246 46.4767 14.7627 46.4473 14.7695L46.6357 15.5898C46.6205 15.593 46.6051 15.5954 46.5898 15.5986L46.3975 14.7812C46.3859 14.784 46.3681 14.7892 46.3447 14.7959L44.0068 3.87891C45.4965 3.55971 47.1074 3.34961 48.7959 3.34961L49.4746 3.36133C52.7675 3.46932 56.1455 4.37214 59.2139 6.38574C62.477 8.43319 65.2451 11.6303 66.4473 15.9434L66.5625 16.377L66.6133 16.5889C67.1206 18.7874 67.1637 20.9087 66.8516 22.9033C66.2785 23.0286 65.7049 23.1941 65.1318 23.4004C63.7321 23.867 62.5946 24.275 61.7197 24.625C60.9031 24.975 60.2616 25.3544 59.7949 25.7627C59.3283 26.171 59.0948 26.7831 59.0947 27.5996C59.0947 28.1246 59.1529 28.6212 59.2695 29.0879L59.707 30.8379C59.882 31.4794 60.0279 32.2958 60.1445 33.2871C60.2612 34.2204 60.3193 35.4462 60.3193 36.9629V51.3125L60.3086 52.2861C60.2867 53.2267 60.232 54.0688 60.1445 54.8125C60.0279 55.7457 59.882 56.5914 59.707 57.3496C59.532 58.1079 59.3862 58.779 59.2695 59.3623C59.1529 59.9456 59.0947 60.5004 59.0947 61.0254L59.1084 61.3848C59.2415 63.1281 60.3741 63.9999 62.5068 64H67.6816C67.0916 67.0063 65.5659 69.9804 62.8379 72.3047C59.4403 75.2568 55.4985 75.9999 52.5586 76H44.5078C41.8939 75.9999 37.6928 75.4657 34.0635 72.3018C31.1954 69.8014 29.872 66.7206 29.3633 63.9561C30.1083 63.903 30.8411 63.802 31.5615 63.6504C32.6699 63.3587 33.6621 62.9498 34.5371 62.4248C35.4119 61.8999 36.1118 61.2582 36.6367 60.5C37.1617 59.7417 37.4238 58.8667 37.4238 57.875C37.4238 56.4167 37.0159 55.3958 36.1992 54.8125C35.3826 54.2292 34.478 53.7335 33.4863 53.3252C32.4948 52.8586 31.591 52.2751 30.7744 51.5752ZM42.3203 51.3125L42.3096 52.2861C42.2877 53.2267 42.233 54.0688 42.1455 54.8125C42.0289 55.7457 41.883 56.5914 41.708 57.3496L41.4678 58.4219C41.3949 58.7572 41.3288 59.0707 41.2705 59.3623C41.1538 59.9456 41.0957 60.5004 41.0957 61.0254C41.0958 62.8844 42.0956 63.872 44.0947 63.9883L44.5078 64H52.5586L52.9414 63.9873C53.8087 63.9299 54.4975 63.672 55.0078 63.2129C55.6095 62.7206 55.9293 62.0485 55.9668 61.1973L55.9707 61.0254C55.9707 60.5004 55.883 59.9456 55.708 59.3623C55.5913 58.779 55.4455 58.1078 55.2705 57.3496C55.1539 56.5914 55.008 55.7457 54.833 54.8125C54.7455 54.0688 54.6908 53.2267 54.6689 52.2861L54.6582 51.3125V33.0254C54.6582 31.5671 54.4542 30.5167 54.0459 29.875C53.6376 29.2333 52.7911 28.9121 51.5078 28.9121C49.9913 28.9122 48.5327 29.1752 47.1328 29.7002C45.733 30.1668 44.5956 30.5748 43.7207 30.9248C42.904 31.2748 42.2626 31.6837 41.7959 32.1504C41.3293 32.5587 41.0957 33.1421 41.0957 33.9004C41.0957 34.4251 41.1539 34.9499 41.2705 35.4746L41.708 37.2246C41.883 37.8662 42.0288 38.6832 42.1455 39.6748C42.2622 40.6081 42.3203 41.8331 42.3203 43.3496V51.3125Z" fill="#121212"></path><path d="M37.4237 25.8496C37.4236 25.2082 37.191 24.654 36.7245 24.1875C36.3162 23.7281 35.8628 23.4695 35.3652 23.4121L35.1493 23.4004H29.5487V16.6621C29.5487 15.3208 29.2864 14.3587 28.7616 13.7754C28.295 13.1338 27.4493 12.8126 26.2245 12.8125C25.3496 12.8125 24.3286 13.2501 23.162 14.125C22.0537 14.9417 20.887 15.9921 19.662 17.2754C18.437 18.5004 17.2112 19.8129 15.9862 21.2129L14.3241 23.0996C13.7157 23.7867 13.133 24.4415 12.5741 25.0625C12.1075 25.8208 12.0198 26.55 12.3114 27.25C12.6614 27.95 13.3325 28.2998 14.3241 28.2998H22.1991C21.1491 30.5165 20.2446 32.7917 19.4862 35.125C18.728 37.3999 18.116 39.6457 17.6493 41.8623C17.241 44.0206 16.9493 46.0624 16.7743 47.9873L16.7372 48.6982C16.667 50.3316 16.7081 51.7864 16.8612 53.0625C17.2696 56.5625 18.4077 59.2752 20.2743 61.2002C22.1993 63.0667 24.8245 64 28.1493 64C29.17 64 30.1684 63.911 31.1444 63.7324L31.5614 63.6504C32.5313 63.3952 33.4119 63.0501 34.203 62.6162L34.537 62.4248C35.3024 61.9655 35.934 61.4171 36.4316 60.7793L36.6366 60.5C37.096 59.8364 37.3546 59.0835 37.412 58.2412L37.4237 57.875C37.4237 56.5078 37.0654 55.5249 36.3476 54.9268L36.1991 54.8125C35.3825 54.2292 34.4779 53.7335 33.4862 53.3252C32.6187 52.9169 31.8185 52.4189 31.0849 51.832L30.7743 51.5752C30.0087 50.9189 29.6014 49.8009 29.5536 48.2217L29.5487 47.9004V28.2998H35.0614L35.1493 28.2959C35.9201 28.2796 36.4741 28.0494 36.8114 27.5996C37.1687 27.1403 37.3703 26.6365 37.415 26.0879L37.4237 25.8496ZM42.9335 25.6748C44.1001 26.3747 45.4414 26.7246 46.9579 26.7246C47.6578 26.7246 48.3872 26.6378 49.1454 26.4629C49.2353 26.4418 49.324 26.4176 49.412 26.3945C49.3778 27.3391 49.2533 28.2614 49.0487 29.1553C48.3987 29.2851 47.7594 29.4652 47.1327 29.7002C45.733 30.1668 44.5955 30.5748 43.7206 30.9248C42.904 31.2748 42.2625 31.6837 41.7958 32.1504C41.3292 32.5587 41.0956 33.1421 41.0956 33.9004C41.0956 34.4251 41.1538 34.9499 41.2704 35.4746L41.7079 37.2246C41.8154 37.6186 41.9096 38.0795 41.995 38.6055C41.8465 38.6848 41.6976 38.7605 41.5487 38.833V43.9844C41.8082 44.1404 42.0653 44.3015 42.3202 44.4678V51.3125C42.3202 52.6542 42.2621 53.8208 42.1454 54.8125C42.0288 55.7457 41.8829 56.5914 41.7079 57.3496C41.5329 58.1079 41.3871 58.779 41.2704 59.3623C41.1538 59.9456 41.0956 60.5004 41.0956 61.0254C41.0958 63.0083 42.2332 63.9999 44.5077 64H48.2782C47.9052 64.9503 47.4389 65.8814 46.8691 66.7793L46.5028 67.3301C45.0077 69.4898 43.1416 71.1825 41.1171 72.4639L40.7109 72.7148C38.997 73.7431 37.2025 74.4989 35.3925 75.0371L34.6152 75.2549C34.4226 75.3055 34.2289 75.3516 34.0341 75.3926C32.0888 75.8021 30.1217 76 28.1493 76C22.6714 76 16.9619 74.4478 12.3622 70.2314L11.9208 69.8145C11.8325 69.7288 11.7448 69.6421 11.6591 69.5537C7.45123 65.2143 5.56031 59.7503 4.9423 54.4531V54.4521C4.6643 52.1095 4.64909 49.6828 4.79581 47.2617L4.82316 46.9014C5.03737 44.5451 5.38781 42.1188 5.85831 39.6318L5.90617 39.3906C6.00925 38.901 6.11908 38.4114 6.23331 37.9219C4.56424 36.8206 3.03144 35.2748 1.8632 33.1592L1.57804 32.6162C1.45494 32.37 1.34017 32.1193 1.23429 31.8652C-0.81311 26.9512 0.267366 22.1649 2.35441 18.7734L2.64933 18.3174C2.9548 17.8679 3.2904 17.4394 3.65421 17.0352C4.66072 15.9168 5.7613 14.6759 6.95597 13.3105L7.99992 12.1357C8.99572 11.0332 10.0018 9.97125 11.0175 8.9502C12.5824 7.31418 14.2561 5.78042 16.0429 4.46387V4.46484C18.0421 2.97818 21.5905 0.8125 26.2245 0.8125L26.8007 0.822266C29.7347 0.920799 34.6381 1.83004 38.1347 6.28027C39.8834 8.42427 40.7446 10.7498 41.164 12.7744C42.8493 13.5914 44.2603 14.6963 45.373 15.8701C45.3925 15.8903 45.4121 15.9104 45.4316 15.9307C43.9624 16.4524 42.7793 17.2796 41.8827 18.4121C40.7744 19.7538 40.396 21.1835 40.746 22.7002C41.0377 23.9251 41.7669 24.9165 42.9335 25.6748Z" fill="#121212"></path><path d="M218.078 52.2749C221.228 52.2749 222.803 53.8499 222.803 56.9999V59.2749C222.803 62.4249 221.228 63.9999 218.078 63.9999H213.791C210.641 63.9999 209.066 62.4249 209.066 59.2749V56.9999C209.066 53.8499 210.641 52.2749 213.791 52.2749H218.078Z" fill="#121212"></path><path d="M184.121 32.5875C184.121 33.8124 184.675 34.9208 185.784 35.9125C186.892 36.8458 188.263 37.75 189.896 38.625C191.588 39.4416 193.396 40.2874 195.321 41.1625C197.305 41.9791 199.113 42.9125 200.746 43.9625C202.438 45.0125 203.838 46.2375 204.946 47.6375C206.055 48.9791 206.609 50.5833 206.609 52.45C206.609 56.0083 204.976 58.9541 201.709 61.2875C198.501 63.5625 193.951 64.7 188.059 64.7C186.601 64.7 184.88 64.6125 182.896 64.4375C180.971 64.3208 179.105 63.9416 177.296 63.2999C175.488 62.5999 173.942 61.6083 172.659 60.325C171.434 58.9833 170.821 57.1458 170.821 54.8125C170.821 53.2375 171.171 51.8375 171.871 50.6125C172.63 49.3875 173.563 48.3375 174.671 47.4625C175.78 46.5874 176.946 45.8875 178.171 45.3625C179.455 44.8375 180.621 44.4875 181.671 44.3125C180.446 43.6708 179.28 43 178.171 42.3C177.063 41.5416 176.1 40.725 175.284 39.85C174.467 38.975 173.796 38.0125 173.271 36.9625C172.805 35.9124 172.571 34.7458 172.571 33.4625C172.571 31.4208 173.009 29.6708 173.884 28.2125C174.759 26.6958 175.984 25.4708 177.559 24.5374C179.192 23.6041 181.088 22.9333 183.246 22.525C185.463 22.0583 187.884 21.825 190.509 21.825C193.075 21.825 195.292 22.0583 197.159 22.525C199.025 22.9916 200.571 23.6333 201.796 24.45C203.021 25.2083 203.925 26.1125 204.509 27.1624C205.092 28.2124 205.384 29.2916 205.384 30.4C205.384 31.7416 204.975 32.9666 204.159 34.075C203.4 35.125 202.176 35.65 200.484 35.65C199.084 35.65 197.946 35.2708 197.071 34.5125C196.255 33.6958 195.496 32.8208 194.796 31.8875C194.096 30.8958 193.367 30.0208 192.609 29.2625C191.851 28.4458 190.83 28.0375 189.546 28.0375C188.263 28.0375 187.038 28.4166 185.871 29.1749C184.705 29.9333 184.121 31.0708 184.121 32.5875ZM188.409 58.4874C190.45 58.4874 192.113 58.0791 193.396 57.2625C194.738 56.4458 195.409 55.3666 195.409 54.0249C195.409 53.2083 195.117 52.4791 194.534 51.8375C194.009 51.1375 193.28 50.4958 192.346 49.9125C191.471 49.2708 190.421 48.6875 189.196 48.1625C188.03 47.5791 186.805 46.9958 185.521 46.4125C184.121 47.4041 183.13 48.6 182.546 50C181.963 51.4 181.788 52.7416 182.021 54.0249C182.255 55.2499 182.896 56.2999 183.946 57.1749C185.055 58.0499 186.542 58.4874 188.409 58.4874Z" fill="#121212"></path><path d="M162.618 48.7751C163.551 48.7751 164.339 48.9793 164.981 49.3876C165.622 49.7376 166.147 50.2043 166.556 50.7876C166.964 51.3709 167.256 52.0418 167.431 52.8001C167.606 53.5001 167.693 54.2001 167.693 54.9001C167.693 56.1251 167.372 57.3209 166.731 58.4876C166.089 59.6543 165.068 60.7043 163.668 61.6376C162.268 62.5126 160.46 63.2418 158.243 63.8251C156.026 64.4084 153.372 64.7001 150.281 64.7001C147.539 64.7001 144.972 64.2918 142.581 63.4751C140.189 62.6584 138.118 61.3751 136.368 59.6251C134.618 57.8751 133.218 55.6584 132.168 52.9751C131.177 50.2334 130.681 46.9959 130.681 43.2626C130.681 39.5293 131.206 36.3209 132.256 33.6376C133.364 30.9543 134.793 28.7376 136.543 26.9876C138.352 25.2376 140.393 23.9543 142.668 23.1376C145.002 22.3209 147.422 21.9126 149.931 21.9126C152.556 21.9126 154.831 22.3793 156.756 23.3126C158.681 24.2459 160.256 25.4418 161.481 26.9001C162.764 28.3001 163.726 29.9043 164.368 31.7126C165.01 33.4626 165.331 35.2126 165.331 36.9626C165.331 38.2459 164.952 39.3251 164.193 40.2001C163.435 41.0751 162.122 41.5126 160.256 41.5126H141.793C141.852 45.3043 142.639 48.3959 144.156 50.7876C145.672 53.1793 147.947 54.3751 150.981 54.3751C152.322 54.3751 153.431 54.0834 154.306 53.5001C155.181 52.9168 156.027 52.2751 156.843 51.5751C157.66 50.8751 158.506 50.2334 159.381 49.6501C160.256 49.0668 161.335 48.7751 162.618 48.7751ZM149.668 29.2626C148.618 29.2626 147.656 29.5251 146.781 30.0501C145.906 30.5751 145.147 31.2459 144.506 32.0626C143.922 32.8209 143.427 33.6668 143.018 34.6001C142.61 35.4751 142.347 36.2626 142.231 36.9626H156.406C156.289 34.9209 155.647 33.1418 154.481 31.6251C153.314 30.0501 151.71 29.2626 149.668 29.2626Z" fill="#121212"></path><path d="M62.5073 64.0001C60.2323 64.0001 59.0947 63.0084 59.0947 61.0251C59.0947 60.5001 59.1531 59.9459 59.2698 59.3625C59.3864 58.7792 59.5323 58.1084 59.7073 57.3501C59.8823 56.5917 60.0281 55.7459 60.1448 54.8126C60.2614 53.8209 60.3198 52.6542 60.3198 51.3126V36.9625C60.3198 35.4459 60.2614 34.2209 60.1448 33.2875C60.0281 32.2959 59.8823 31.4792 59.7073 30.8376C59.5323 30.1375 59.3864 29.5542 59.2698 29.0875C59.1531 28.6209 59.0947 28.1251 59.0947 27.6C59.0947 26.7834 59.3281 26.1709 59.7948 25.7626C60.2615 25.3542 60.9031 24.975 61.7197 24.625C62.5947 24.275 63.7323 23.8667 65.1323 23.4C66.5907 22.875 68.049 22.6125 69.5073 22.6125C70.7907 22.6125 71.6365 22.9334 72.0448 23.5751C72.4531 24.2167 72.6572 25.2375 72.6572 26.6376V32.5C72.9489 32.0917 73.5322 31.3626 74.4072 30.3125C75.2822 29.2042 76.4198 28.0959 77.8198 26.9876C79.2198 25.8209 80.824 24.8 82.6323 23.925C84.499 23.05 86.5115 22.6125 88.6698 22.6125C92.2865 22.6125 94.9115 23.5167 96.5448 25.325C98.1781 27.075 99.1114 29.525 99.3447 32.6751C99.5781 32.3251 100.103 31.625 100.92 30.575C101.795 29.4667 102.932 28.3292 104.332 27.1625C105.732 25.9375 107.366 24.8875 109.232 24.0126C111.099 23.0792 113.17 22.6125 115.445 22.6125C119.411 22.6125 122.182 23.6625 123.757 25.7626C125.391 27.8625 126.207 30.75 126.207 34.425V51.3126C126.207 52.6542 126.266 53.8209 126.382 54.8126C126.557 55.7459 126.703 56.5917 126.82 57.3501C126.995 58.1084 127.141 58.7792 127.257 59.3625C127.432 59.9459 127.52 60.5001 127.52 61.0251C127.52 61.9584 127.199 62.6876 126.557 63.2126C125.974 63.7376 125.157 64.0001 124.107 64.0001H116.057C113.782 64.0001 112.645 63.0084 112.645 61.0251C112.645 60.5001 112.703 59.9459 112.82 59.3625C112.936 58.7792 113.082 58.1084 113.257 57.3501C113.432 56.5917 113.578 55.7459 113.695 54.8126C113.811 53.8209 113.87 52.6542 113.87 51.3126V38.7125C113.87 36.1459 113.491 34.3667 112.732 33.375C112.032 32.325 110.924 31.8 109.407 31.8C108.357 31.8 107.307 32.1501 106.257 32.8501C105.207 33.4917 104.216 34.2501 103.282 35.1251C102.349 36.0001 101.532 36.8459 100.832 37.6625C100.191 38.4792 99.7239 39.0626 99.4323 39.4125V51.3126C99.4323 52.6542 99.4906 53.8209 99.6073 54.8126C99.7823 55.7459 99.9281 56.5917 100.045 57.3501C100.22 58.1084 100.366 58.7792 100.482 59.3625C100.657 59.9459 100.745 60.5001 100.745 61.0251C100.745 61.9584 100.424 62.6876 99.7822 63.2126C99.1989 63.7376 98.3823 64.0001 97.3323 64.0001H89.2822C87.0072 64.0001 85.8698 63.0084 85.8698 61.0251C85.8698 60.5001 85.9281 59.9459 86.0448 59.3625C86.1615 58.7792 86.3073 58.1084 86.4823 57.3501C86.6573 56.5917 86.8031 55.7459 86.9198 54.8126C87.0365 53.8209 87.0947 52.6542 87.0947 51.3126V38.7125C87.0947 36.1459 86.7448 34.3667 86.0448 33.375C85.3448 32.325 84.2364 31.8 82.7197 31.8C81.6697 31.8 80.5906 32.1501 79.4823 32.8501C78.4323 33.4917 77.4407 34.2501 76.5073 35.1251C75.574 36.0001 74.7573 36.8459 74.0573 37.6625C73.4156 38.4792 72.9489 39.0626 72.6572 39.4125V51.3126C72.6572 52.6542 72.7156 53.8209 72.8323 54.8126C73.0073 55.7459 73.1531 56.5917 73.2698 57.3501C73.4448 58.1084 73.5906 58.7792 73.7073 59.3625C73.8823 59.9459 73.9697 60.5001 73.9697 61.0251C73.9697 61.9584 73.649 62.6876 73.0073 63.2126C72.424 63.7376 71.6073 64.0001 70.5573 64.0001H62.5073Z" fill="#121212"></path><path d="M49.1458 26.4626C48.3874 26.6376 47.6583 26.7251 46.9583 26.7251C45.4416 26.7251 44.0999 26.3751 42.9332 25.6751C41.7666 24.9168 41.0374 23.9251 40.7457 22.7001C40.3957 21.1834 40.775 19.7543 41.8833 18.4126C42.9916 17.0126 44.5374 16.0793 46.5208 15.6126C47.3374 15.4376 48.0958 15.3501 48.7958 15.3501C50.3125 15.3501 51.625 15.7293 52.7333 16.4876C53.9 17.1876 54.6291 18.1209 54.9208 19.2876C55.2708 20.8043 54.8915 22.2626 53.7832 23.6626C52.6749 25.0626 51.1291 25.9959 49.1458 26.4626ZM44.5083 64.0001C42.2333 64.0001 41.0957 63.0084 41.0957 61.0251C41.0957 60.5001 41.1541 59.9459 41.2708 59.3626C41.3874 58.7793 41.5333 58.1084 41.7083 57.3501C41.8833 56.5918 42.0291 55.7459 42.1458 54.8126C42.2624 53.8209 42.3208 52.6543 42.3208 51.3126V43.3501C42.3208 41.8334 42.2624 40.6084 42.1458 39.6751C42.0291 38.6834 41.8833 37.8668 41.7083 37.2251C41.5333 36.5251 41.3874 35.9418 41.2708 35.4751C41.1541 34.9501 41.0957 34.4251 41.0957 33.9001C41.0957 33.1418 41.3291 32.5584 41.7958 32.1501C42.2625 31.6834 42.904 31.2751 43.7207 30.9251C44.5957 30.5751 45.7333 30.1668 47.1333 29.7001C48.5333 29.1751 49.9916 28.9126 51.5083 28.9126C52.7916 28.9126 53.6375 29.2334 54.0458 29.8751C54.4541 30.5168 54.6582 31.5668 54.6582 33.0251V51.3126C54.6582 52.6543 54.7166 53.8209 54.8333 54.8126C55.0083 55.7459 55.1541 56.5918 55.2708 57.3501C55.4458 58.1084 55.5916 58.7793 55.7083 59.3626C55.8833 59.9459 55.9707 60.5001 55.9707 61.0251C55.9707 61.9584 55.65 62.6876 55.0083 63.2126C54.425 63.7376 53.6082 64.0001 52.5582 64.0001H44.5083Z" fill="#121212"></path><path d="M29.5491 47.9C29.5491 49.65 29.9574 50.875 30.7741 51.575C31.5907 52.275 32.4949 52.8583 33.4866 53.325C34.4783 53.7333 35.3825 54.2292 36.1991 54.8125C37.0158 55.3958 37.4241 56.4167 37.4241 57.875C37.4241 58.8667 37.1616 59.7417 36.6366 60.5C36.1116 61.2583 35.4115 61.9 34.5365 62.425C33.6615 62.95 32.6699 63.3583 31.5616 63.65C30.4532 63.8833 29.3157 64 28.1491 64C24.8241 64 22.1991 63.0667 20.2741 61.2C18.4074 59.275 17.2699 56.5625 16.8616 53.0625C16.6866 51.6042 16.6574 49.9125 16.7741 47.9875C16.9491 46.0625 17.2407 44.0208 17.6491 41.8625C18.1157 39.6458 18.7283 37.4 19.4866 35.125C20.2449 32.7917 21.1491 30.5167 22.1991 28.3H14.3241C13.3325 28.3 12.6616 27.95 12.3116 27.25C12.0199 26.55 12.1075 25.8208 12.5741 25.0625C13.6241 23.8958 14.7616 22.6125 15.9866 21.2125C17.2116 19.8125 18.4365 18.5 19.6615 17.275C20.8865 15.9917 22.0532 14.9417 23.1615 14.125C24.3282 13.25 25.349 12.8125 26.224 12.8125C27.449 12.8125 28.295 13.1333 28.7616 13.775C29.2866 14.3583 29.5491 15.3208 29.5491 16.6625V23.4H35.1491C35.7324 23.4 36.2574 23.6625 36.724 24.1875C37.1907 24.6542 37.4241 25.2083 37.4241 25.85C37.4241 26.4917 37.2199 27.075 36.8116 27.6C36.4616 28.0667 35.8782 28.3 35.0616 28.3H29.5491V47.9Z" fill="#121212"></path><path d="M209.07 59.5654C209.163 62.4265 210.639 63.9028 213.5 63.9951L213.791 64H218.078L218.369 63.9951C221.23 63.9027 222.707 62.4264 222.799 59.5654L222.803 59.2754V57C222.803 53.9485 221.325 52.3747 218.369 52.2793L218.078 52.2754V42.2754C221.195 42.2754 225.369 43.0605 228.693 46.3848C232.018 49.7091 232.803 53.8836 232.803 57V59.2754C232.803 62.3917 232.017 66.5655 228.693 69.8896C225.369 73.2139 221.195 74 218.078 74H213.791C210.675 74 206.5 73.2139 203.176 69.8896C200.946 67.6597 199.86 65.0469 199.386 62.6279C200.225 62.2364 201 61.7897 201.709 61.2871C204.975 58.9539 206.608 56.0083 206.608 52.4502C206.608 50.5836 206.055 48.9793 204.946 47.6377C204.511 47.0873 204.029 46.5647 203.503 46.0684C206.771 43.0104 210.776 42.2754 213.791 42.2754V52.2754L213.5 52.2793C210.544 52.3746 209.065 53.9484 209.065 57V59.2754L209.07 59.5654ZM218.078 42.2754V52.2754H213.791V42.2754H218.078Z" fill="#FFFEFB"></path><path d="M206.608 52.4502C206.608 50.5836 206.055 48.9793 204.946 47.6377C203.838 46.2377 202.438 45.0129 200.746 43.9629C199.113 42.9129 197.305 41.9788 195.321 41.1621C193.396 40.2872 191.588 39.4416 189.896 38.625C188.263 37.75 186.893 36.8454 185.784 35.9121C184.676 34.9205 184.121 33.8127 184.121 32.5879C184.121 31.0713 184.704 29.9331 185.871 29.1748C187.038 28.4166 188.263 28.0372 189.546 28.0371C190.829 28.0371 191.85 28.4461 192.608 29.2627C193.367 30.021 194.096 30.8961 194.796 31.8877C195.496 32.821 196.255 33.696 197.071 34.5127C197.946 35.2709 199.084 35.6503 200.483 35.6504C202.175 35.6504 203.401 35.1252 204.159 34.0752C204.925 33.0362 205.331 31.8944 205.379 30.6504L205.384 30.4004C205.384 29.2921 205.092 28.2121 204.509 27.1621C203.925 26.1122 203.021 25.2085 201.796 24.4502C200.571 23.6337 199.026 22.992 197.159 22.5254C195.293 22.0587 193.075 21.8252 190.509 21.8252C187.884 21.8252 185.463 22.0587 183.246 22.5254C181.088 22.9337 179.192 23.6038 177.559 24.5371C175.984 25.4704 174.759 26.6962 173.884 28.2129L173.725 28.4893C172.956 29.8906 172.571 31.5489 172.571 33.4629C172.571 34.7461 172.805 35.913 173.271 36.9629C173.796 38.0127 174.468 38.9747 175.284 39.8496C176.101 40.7245 177.063 41.5415 178.171 42.2998C179.279 42.9997 180.446 43.6709 181.671 44.3125C180.621 44.4875 179.454 44.8374 178.171 45.3623C176.946 45.8873 175.779 46.588 174.671 47.4629C173.563 48.3378 172.629 49.3875 171.871 50.6123L171.744 50.8438C171.129 52.0128 170.821 53.3358 170.821 54.8125L170.828 55.2441C170.9 57.3736 171.511 59.0674 172.659 60.3252C173.942 61.6083 175.488 62.5999 177.296 63.2998C179.104 63.9415 180.971 64.3208 182.896 64.4375C184.88 64.6125 186.6 64.7002 188.059 64.7002C193.95 64.7002 198.501 63.5621 201.709 61.2871C204.873 59.0268 206.505 56.192 206.604 52.7822L206.608 52.4502ZM185.521 46.4121C186.805 46.9954 188.03 47.5788 189.196 48.1621C190.421 48.6871 191.472 49.2704 192.347 49.9121C193.28 50.4954 194.009 51.1379 194.534 51.8379C195.117 52.4795 195.409 53.2089 195.409 54.0254C195.409 55.3669 194.738 56.4461 193.396 57.2627C192.113 58.0793 190.451 58.4873 188.409 58.4873C186.543 58.4873 185.055 58.0498 183.946 57.1748C182.896 56.2999 182.255 55.2502 182.021 54.0254C181.788 52.7421 181.963 51.3999 182.546 50C183.129 48.6 184.121 47.4038 185.521 46.4121ZM215.384 30.4004C215.384 33.9032 214.275 37.1663 212.264 39.9287L212.266 39.9297C212.254 39.946 212.24 39.9613 212.229 39.9775C212.222 39.987 212.216 39.9974 212.209 40.0068L212.208 40.0059C212.112 40.1375 212.014 40.2665 211.915 40.3926C212.168 40.678 212.415 40.9697 212.656 41.2686L212.905 41.5771C215.396 44.7339 216.571 48.4525 216.605 52.2754H213.791C210.641 52.2754 209.065 53.85 209.065 57V59.2754C209.066 62.1516 210.379 63.7131 213.006 63.9629C211.656 65.8864 209.973 67.5903 208.031 69.0508L207.521 69.4248C207.512 69.4315 207.503 69.4387 207.493 69.4453C201.943 73.3809 195.047 74.7002 188.059 74.7002C186.262 74.7002 184.282 74.5938 182.156 74.4092C179.527 74.2383 176.954 73.7358 174.459 72.8994L173.952 72.7246C173.863 72.693 173.775 72.6601 173.687 72.626C170.859 71.5314 168.266 69.9433 166.03 67.8262L165.588 67.3965C165.481 67.2894 165.376 67.1792 165.274 67.0674C163.948 65.6142 162.973 64.0296 162.279 62.3906C162.779 62.152 163.243 61.9032 163.668 61.6377C165.068 60.7044 166.089 59.654 166.73 58.4873C167.372 57.3208 167.693 56.1252 167.693 54.9004C167.693 54.2004 167.606 53.4998 167.431 52.7998C167.256 52.0416 166.964 51.3704 166.556 50.7871C166.147 50.2039 165.622 49.7376 164.98 49.3877C164.339 48.9794 163.551 48.7754 162.618 48.7754C162.326 48.7754 162.044 48.7919 161.772 48.8223C162.132 47.7435 162.6 46.682 163.188 45.6514L163.369 45.3486C163.902 44.4886 164.488 43.6693 165.127 42.8936C164.98 42.6482 164.838 42.4001 164.7 42.1484L164.327 41.4346C164.259 41.2991 164.194 41.1618 164.133 41.0234C164.054 40.845 163.978 40.6658 163.905 40.4863C164.008 40.3964 164.105 40.3019 164.193 40.2002C164.952 39.3253 165.331 38.2461 165.331 36.9629C165.331 35.213 165.01 33.4628 164.368 31.7129C164.018 30.7255 163.571 29.7992 163.029 28.9336C163.439 26.9829 164.144 25.0529 165.223 23.2158L165.222 23.2148C165.244 23.1757 165.268 23.1375 165.291 23.0986C165.297 23.0884 165.302 23.0776 165.309 23.0674C167.076 20.0636 169.526 17.6737 172.461 15.9346L172.598 15.8555C175.286 14.3193 178.198 13.3213 181.203 12.7354C184.189 12.1082 187.304 11.8252 190.509 11.8252C193.639 11.8252 196.711 12.105 199.584 12.8232L200.082 12.9521C202.518 13.603 204.959 14.5724 207.188 16.0283C209.378 17.4069 211.436 19.285 212.949 21.7871L213.25 22.3057L213.495 22.7617C214.685 25.0571 215.384 27.6365 215.384 30.4004Z" fill="#FFFEFB"></path><path d="M126.207 34.4248C126.207 31.3104 125.617 28.7635 124.444 26.7803C125.783 24.2667 127.44 21.9474 129.472 19.916L129.589 19.8018C132.375 17.1059 135.624 15.0418 139.29 13.7256L139.364 13.6992L140.006 13.4824C143.218 12.4337 146.54 11.9121 149.931 11.9121C153.73 11.9121 157.56 12.5893 161.118 14.3145C164.077 15.7493 166.763 17.7074 168.968 20.2715C171.109 22.6408 172.727 25.3636 173.793 28.3682H173.791L173.792 28.3701C172.978 29.7964 172.571 31.4942 172.571 33.4629C172.571 34.7461 172.805 35.913 173.271 36.9629L173.475 37.3525C173.923 38.1735 174.466 38.9371 175.101 39.6465C174.857 41.0563 174.415 42.449 173.745 43.7773C174.007 44.0745 174.258 44.3838 174.497 44.7051L174.748 45.0527L174.97 45.3789C175.253 45.8063 175.51 46.2424 175.743 46.6846C175.38 46.9267 175.022 47.1856 174.671 47.4629C173.563 48.3378 172.629 49.3875 171.871 50.6123C171.171 51.8373 170.821 53.2375 170.821 54.8125C170.821 57.1458 171.434 58.9835 172.659 60.3252C173.583 61.2488 174.643 62.0201 175.839 62.6416C175.807 62.7049 175.777 62.7691 175.745 62.832L175.493 63.3066C173.999 66.0236 171.892 68.09 169.662 69.6523L169.215 69.958C169.133 70.0123 169.051 70.0653 168.968 70.1172C166.612 71.5893 163.982 72.6132 161.32 73.3516L160.788 73.4961C157.51 74.3588 153.953 74.7002 150.28 74.7002C146.767 74.7002 143.325 74.2072 140.011 73.1562L139.35 72.9385C135.782 71.7202 132.577 69.8081 129.839 67.2227L129.297 66.6963C128.242 65.6413 127.293 64.5081 126.439 63.3115C126.48 63.2795 126.519 63.2472 126.558 63.2129C127.199 62.688 127.519 61.9585 127.52 61.0254C127.52 60.5004 127.432 59.9456 127.257 59.3623C127.14 58.779 126.994 58.1078 126.819 57.3496C126.719 56.7004 126.596 55.9875 126.453 55.21L132.168 52.9746C133.218 55.6579 134.618 57.875 136.368 59.625C138.118 61.375 140.189 62.6579 142.581 63.4746C144.823 64.2402 147.219 64.6474 149.769 64.6953L150.28 64.7002C153.179 64.7002 155.693 64.4433 157.822 63.9307L158.243 63.8252C160.321 63.2783 162.041 62.6031 163.401 61.7998L163.668 61.6377C164.98 60.7627 165.96 59.7852 166.606 58.7051L166.73 58.4873C167.332 57.3934 167.652 56.2741 167.689 55.1289L167.693 54.9004C167.693 54.2004 167.606 53.4998 167.431 52.7998C167.256 52.0416 166.964 51.3704 166.556 50.7871C166.147 50.2039 165.622 49.7376 164.98 49.3877C164.339 48.9794 163.551 48.7754 162.618 48.7754C161.335 48.7754 160.256 49.0671 159.381 49.6504C158.506 50.2337 157.659 50.8752 156.843 51.5752L156.226 52.0889C155.602 52.5921 154.962 53.0624 154.306 53.5L154.139 53.6055C153.291 54.1182 152.238 54.375 150.98 54.375L150.421 54.3613C147.666 54.2212 145.577 53.0293 144.155 50.7871C142.639 48.3955 141.851 45.304 141.793 41.5127H160.256C162.122 41.5127 163.435 41.0751 164.193 40.2002C164.952 39.3253 165.331 38.2461 165.331 36.9629C165.331 35.213 165.01 33.4628 164.368 31.7129C163.727 29.9046 162.764 28.3004 161.48 26.9004C160.255 25.4421 158.681 24.2458 156.756 23.3125C154.831 22.3792 152.556 21.9121 149.931 21.9121C147.422 21.9121 145.001 22.321 142.668 23.1377C140.393 23.9544 138.351 25.2374 136.543 26.9873C134.793 28.7373 133.364 30.9544 132.256 33.6377L132.065 34.1465C131.142 36.7237 130.681 39.7625 130.681 43.2627L130.687 43.957C130.745 47.3986 131.238 50.4045 132.168 52.9746L126.453 55.21C126.429 55.0795 126.407 54.9466 126.382 54.8125C126.265 53.8208 126.207 52.6541 126.207 51.3125V34.4248ZM149.668 29.2627C151.71 29.2627 153.314 30.0501 154.48 31.625C155.647 33.1417 156.289 34.9212 156.405 36.9629H142.23C142.347 36.2629 142.61 35.4746 143.019 34.5996C143.427 33.6665 143.923 32.8207 144.506 32.0625C145.147 31.2459 145.905 30.5748 146.78 30.0498C147.655 29.5248 148.618 29.2627 149.668 29.2627Z" fill="#FFFEFB"></path><path d="M54.6582 51.3125V33.9727L60.1445 33.2871C60.2612 34.2204 60.3193 35.4462 60.3193 36.9629V51.3125L60.3086 52.2861C60.2867 53.2267 60.232 54.0688 60.1445 54.8125C60.0279 55.7457 59.882 56.5914 59.707 57.3496L59.4668 58.4219C59.3939 58.7572 59.3279 59.0707 59.2695 59.3623C59.1529 59.9456 59.0947 60.5004 59.0947 61.0254C59.0949 62.8844 60.0946 63.872 62.0938 63.9883L62.5068 64H70.5576L70.9404 63.9873C71.8077 63.9299 72.4965 63.672 73.0068 63.2129C73.6085 62.7206 73.9283 62.0485 73.9658 61.1973L73.9697 61.0254C73.9697 60.5004 73.882 59.9456 73.707 59.3623C73.5904 58.779 73.4445 58.1078 73.2695 57.3496C73.1529 56.5914 73.007 55.7457 72.832 54.8125C72.7445 54.0688 72.6898 53.2267 72.668 52.2861L72.6572 51.3125V39.4121C72.9489 39.0621 73.4161 38.4786 74.0576 37.6621C74.7575 36.8456 75.5737 35.9998 76.5068 35.125C77.4402 34.25 78.4324 33.4913 79.4824 32.8496C80.5906 32.1497 81.6698 31.7998 82.7197 31.7998C84.2364 31.7998 85.3449 32.325 86.0449 33.375C86.7449 34.3667 87.0947 36.1463 87.0947 38.7129V51.3125L87.084 52.2861C87.0621 53.2267 87.0074 54.0688 86.9199 54.8125C86.8033 55.7457 86.6574 56.5914 86.4824 57.3496L86.2412 58.4219C86.1683 58.7572 86.1032 59.0707 86.0449 59.3623C85.9283 59.9456 85.8701 60.5004 85.8701 61.0254C85.8703 62.8845 86.8697 63.8721 88.8691 63.9883L89.2822 64H97.332L97.7148 63.9873C98.5825 63.9299 99.2718 63.6722 99.7822 63.2129C100.384 62.7206 100.704 62.0485 100.741 61.1973L100.745 61.0254C100.745 60.5004 100.657 59.9456 100.482 59.3623C100.366 58.779 100.22 58.1079 100.045 57.3496C99.9283 56.5914 99.7824 55.7457 99.6074 54.8125C99.5199 54.0688 99.4652 53.2267 99.4434 52.2861L99.4326 51.3125V39.4121C99.7243 39.0621 100.191 38.4785 100.832 37.6621C101.532 36.8455 102.349 36 103.282 35.125C104.216 34.25 105.207 33.4913 106.257 32.8496C107.307 32.1496 108.357 31.7998 109.407 31.7998C110.924 31.7998 112.032 32.325 112.732 33.375C113.491 34.3667 113.87 36.1463 113.87 38.7129V51.3125L113.858 52.2861C113.837 53.2267 113.782 54.0688 113.694 54.8125C113.578 55.7457 113.432 56.5914 113.257 57.3496L113.017 58.4219C112.944 58.7572 112.878 59.0707 112.819 59.3623C112.703 59.9456 112.645 60.5004 112.645 61.0254C112.645 62.8847 113.645 63.8722 115.645 63.9883L116.058 64H124.107L124.49 63.9873C125.358 63.9299 126.047 63.6722 126.558 63.2129C127.159 62.7206 127.478 62.0485 127.516 61.1973L127.52 61.0254C127.52 60.5004 127.432 59.9456 127.257 59.3623C127.14 58.779 126.994 58.1078 126.819 57.3496C126.703 56.5914 126.557 55.7456 126.382 54.8125C126.294 54.0688 126.24 53.2267 126.218 52.2861L126.207 51.3125V34.4248C126.207 30.9794 125.489 28.2261 124.054 26.165L123.757 25.7627C122.28 23.7941 119.753 22.7481 116.175 22.625L115.444 22.6123C113.17 22.6124 111.099 23.0794 109.232 24.0127C107.366 24.8877 105.732 25.9371 104.332 27.1621C102.932 28.3288 101.795 29.4669 100.92 30.5752C100.103 31.6251 99.5781 32.3248 99.3447 32.6748C99.1114 29.525 98.1781 27.0751 96.5449 25.3252C95.0136 23.6298 92.6105 22.729 89.3359 22.623L88.6699 22.6123C86.5116 22.6123 84.4985 23.0498 82.6318 23.9248C80.8236 24.7998 79.2193 25.8207 77.8193 26.9873C76.4194 28.0956 75.2822 29.2042 74.4072 30.3125C73.5322 31.3625 72.9489 32.0917 72.6572 32.5V26.6377C72.6572 25.2378 72.4532 24.2169 72.0449 23.5752C71.6366 22.9335 70.7902 22.6123 69.5068 22.6123C68.0486 22.6124 66.59 22.8754 65.1318 23.4004L64.1318 23.7393C63.1802 24.0674 62.376 24.3625 61.7197 24.625C60.9031 24.975 60.2616 25.3544 59.7949 25.7627C59.3283 26.171 59.0948 26.7831 59.0947 27.5996C59.0947 28.1246 59.1529 28.6212 59.2695 29.0879L59.707 30.8379L54.625 32.1074C54.5541 31.1174 54.3628 30.3731 54.0459 29.875C53.6376 29.2333 52.7911 28.9121 51.5078 28.9121C50.711 28.9121 49.9306 28.9869 49.166 29.1318C49.1333 28.7779 49.1114 28.4265 49.1016 28.0781L49.0947 27.5996L49.1055 27.0762C49.1133 26.876 49.1269 26.6714 49.1445 26.4629H49.1455C51.1288 25.9962 52.6749 25.0621 53.7832 23.6621C54.8914 22.2622 55.2709 20.8037 54.9209 19.2871C54.7596 18.6421 54.4639 18.0688 54.0352 17.5664C55.3102 16.6051 56.6308 15.9262 57.7803 15.4336L58.0059 15.3398C59.1341 14.8886 60.4751 14.4113 61.9697 13.9131C64.3784 13.0723 66.904 12.6124 69.5068 12.6123L69.9766 12.6191C71.8246 12.6739 74.9861 13.0905 77.7363 15.1934C77.9158 15.1029 78.0951 15.0115 78.2764 14.9238L78.3877 14.8701C81.6451 13.3432 85.1152 12.6123 88.6699 12.6123C92.9427 12.6123 97.8393 13.509 101.843 16.6426C102.703 16.1192 103.589 15.6363 104.498 15.1924L104.988 14.958C108.3 13.3476 111.842 12.6124 115.444 12.6123C120.851 12.6123 127.369 14.0377 131.648 19.624L131.65 19.623C131.669 19.6474 131.687 19.6729 131.706 19.6973C131.723 19.7192 131.74 19.7406 131.757 19.7627H131.756C133.704 22.314 134.892 25.1595 135.544 28.0801C134.241 29.6323 133.145 31.4846 132.256 33.6377C131.206 36.321 130.681 39.5294 130.681 43.2627C130.681 46.9958 131.176 50.2331 132.168 52.9746C133.218 55.6579 134.618 57.875 136.368 59.625C136.735 59.9917 137.117 60.3364 137.512 60.6621C137.515 60.7825 137.52 60.9038 137.52 61.0254C137.519 64.4681 136.211 68.1357 133.066 70.8027C130.14 73.34 126.726 74 124.107 74H116.058C113.69 74 110.046 73.5134 106.927 70.7939C106.821 70.7022 106.719 70.6092 106.618 70.5156C106.511 70.6125 106.402 70.7083 106.291 70.8027C103.365 73.3399 99.9506 74 97.332 74H89.2822C86.9144 74 83.2708 73.5135 80.1514 70.7939C80.0461 70.7021 79.9433 70.6092 79.8428 70.5156C79.7395 70.6093 79.6349 70.7026 79.5273 70.7939C76.5991 73.3387 73.1794 73.9999 70.5576 74H62.5068C60.139 73.9999 56.4962 73.5132 53.377 70.7939C51.0556 68.7702 49.9034 66.2961 49.4092 64H52.5586C53.6082 63.9999 54.4246 63.7376 55.0078 63.2129C55.6494 62.688 55.9706 61.9585 55.9707 61.0254C55.9707 60.5004 55.883 59.9456 55.708 59.3623C55.5913 58.779 55.4455 58.1078 55.2705 57.3496C55.1539 56.5914 55.008 55.7457 54.833 54.8125C54.7455 54.0688 54.6908 53.2267 54.6689 52.2861L54.6582 51.3125ZM59.707 30.8379C59.882 31.4794 60.0279 32.2958 60.1445 33.2871L54.6582 33.9727V33.0254C54.6582 32.699 54.6455 32.3929 54.625 32.1074L59.707 30.8379Z" fill="#FFFEFB"></path><path d="M32.3203 51.3125V43.3496C32.3203 42.3596 32.2905 41.6825 32.2569 41.2578L32.2227 40.915C32.2197 40.8913 32.2167 40.8675 32.2139 40.8438C32.1743 40.5071 32.1363 40.2544 32.1045 40.0762L32.0606 39.8564C32.0419 39.788 32.0241 39.7192 32.0069 39.6504L31.5694 37.9004L31.5088 37.6445C31.2716 36.5771 31.1335 35.4847 31.1026 34.376L31.0957 33.9004L31.1074 33.3408C31.174 31.7909 31.5231 30.0912 32.3037 28.4512C32.2774 28.4011 32.2524 28.3503 32.2266 28.2998H35.0616C35.8782 28.2998 36.4615 28.0663 36.8116 27.5996C37.2198 27.0747 37.4239 26.4912 37.4239 25.8496C37.4238 25.2082 37.1911 24.654 36.7246 24.1875C36.258 23.6626 35.7327 23.4005 35.1494 23.4004H30.7295C30.2026 19.1402 31.5989 15.2394 34.043 12.2051L34.2989 11.8896C36.9723 8.66786 40.4983 6.75609 44.2305 5.87793L44.4258 5.83496L44.9463 5.72852C46.1712 5.49453 47.4626 5.34961 48.7959 5.34961L49.4082 5.36035C52.3847 5.4577 55.4024 6.27541 58.1338 8.07324C61.0383 9.89088 63.4679 12.7014 64.5215 16.4824L64.6221 16.8623L64.6651 17.0391L64.7637 17.5C65.1849 19.6187 65.1219 21.6528 64.6944 23.5479C63.4933 23.9537 62.5016 24.3123 61.7198 24.625C60.9031 24.975 60.2616 25.3544 59.7949 25.7627C59.3284 26.171 59.0948 26.7831 59.0948 27.5996C59.0948 28.1246 59.1529 28.6212 59.2696 29.0879L59.7071 30.8379C59.882 31.4794 60.0279 32.2958 60.1446 33.2871C60.2612 34.2204 60.3194 35.4462 60.3194 36.9629V51.3125L60.3086 52.2861C60.2867 53.2267 60.2321 54.0688 60.1446 54.8125C60.0279 55.7457 59.882 56.5914 59.7071 57.3496C59.5321 58.1079 59.3862 58.779 59.2696 59.3623C59.1529 59.9456 59.0948 60.5004 59.0948 61.0254L59.1084 61.3848C59.2416 63.1281 60.3741 63.9999 62.5069 64H65.6387C65.0754 66.4769 63.769 68.8896 61.5283 70.7939C58.6001 73.3387 55.1804 73.9999 52.5586 74H44.5078C42.14 73.9999 38.4972 73.5132 35.378 70.7939C32.9524 68.6793 31.8064 66.0726 31.3506 63.6914C31.4209 63.6776 31.4915 63.6651 31.5615 63.6504C32.6699 63.3587 33.6621 62.9498 34.5371 62.4248C35.4119 61.8999 36.1118 61.2582 36.6367 60.5C37.1617 59.7417 37.4239 58.8667 37.4239 57.875C37.4239 56.4167 37.0159 55.3958 36.1992 54.8125C35.3826 54.2292 34.478 53.7335 33.4864 53.3252C33.0716 53.13 32.6732 52.9127 32.2891 52.6768C32.3079 52.2941 32.3203 51.8416 32.3203 51.3125ZM48.7959 15.3496C48.0959 15.3496 47.3372 15.4373 46.5205 15.6123L46.1543 15.7051C44.3461 16.1972 42.922 17.0995 41.8828 18.4121C40.7745 19.7538 40.3961 21.1835 40.7461 22.7002C41.0378 23.9251 41.767 24.9165 42.9336 25.6748C44.1002 26.3747 45.4415 26.7246 46.958 26.7246C47.6579 26.7246 48.3873 26.6378 49.1455 26.4629C51.1289 25.9962 52.6749 25.0621 53.7832 23.6621C54.8222 22.3497 55.2202 20.9862 54.9776 19.5713L54.9209 19.2871C54.6474 18.1935 53.9896 17.3046 52.9473 16.6211L52.7334 16.4873C51.6251 15.729 50.3125 15.3496 48.7959 15.3496ZM42.3203 51.3125L42.3096 52.2861C42.2877 53.2267 42.233 54.0688 42.1455 54.8125C42.0289 55.7457 41.883 56.5914 41.708 57.3496L41.4678 58.4219C41.3949 58.7572 41.3289 59.0707 41.2705 59.3623C41.1539 59.9456 41.0957 60.5004 41.0957 61.0254C41.0959 62.8844 42.0956 63.872 44.0948 63.9883L44.5078 64H52.5586L52.9414 63.9873C53.8087 63.9299 54.4975 63.672 55.0078 63.2129C55.6095 62.7206 55.9293 62.0485 55.9668 61.1973L55.9707 61.0254C55.9707 60.5004 55.883 59.9456 55.708 59.3623C55.5914 58.779 55.4455 58.1078 55.2705 57.3496C55.1539 56.5914 55.008 55.7457 54.833 54.8125C54.7455 54.0688 54.6908 53.2267 54.669 52.2861L54.6582 51.3125V33.0254C54.6582 31.5671 54.4542 30.5167 54.0459 29.875C53.6376 29.2333 52.7912 28.9121 51.5078 28.9121C49.9913 28.9122 48.5327 29.1752 47.1328 29.7002C45.7331 30.1668 44.5956 30.5748 43.7207 30.9248C42.9041 31.2748 42.2626 31.6837 41.7959 32.1504C41.3293 32.5587 41.0957 33.1421 41.0957 33.9004C41.0958 34.4251 41.154 34.9499 41.2705 35.4746L41.708 37.2246C41.883 37.8662 42.0289 38.6832 42.1455 39.6748C42.2622 40.6081 42.3203 41.8331 42.3203 43.3496V51.3125Z" fill="#FFFEFB"></path><path d="M37.4239 25.8496C37.4238 25.2082 37.1911 24.654 36.7247 24.1875C36.3163 23.7281 35.8629 23.4695 35.3653 23.4121L35.1495 23.4004H29.5489V16.6621C29.5488 15.3208 29.2866 14.3587 28.7618 13.7754C28.2952 13.1338 27.4494 12.8126 26.2247 12.8125C25.3497 12.8125 24.3287 13.2501 23.1622 14.125L22.7432 14.4424C21.7607 15.208 20.734 16.1526 19.6622 17.2754L18.7432 18.21C17.8244 19.1616 16.9052 20.1628 15.9864 21.2129L14.3243 23.0996C13.7158 23.7867 13.1331 24.4415 12.5743 25.0625L12.417 25.3457C12.0917 26.0028 12.0564 26.6376 12.3116 27.25C12.6616 27.95 13.3326 28.2998 14.3243 28.2998H22.1993C21.1493 30.5165 20.2447 32.7917 19.4864 35.125C18.7281 37.3999 18.1161 39.6457 17.6495 41.8623L17.502 42.666C17.1702 44.5291 16.9276 46.3029 16.7745 47.9873L16.7373 48.6982C16.6672 50.3316 16.7082 51.7864 16.8614 53.0625C17.2697 56.5625 18.4078 59.2752 20.2745 61.2002C22.0792 62.9501 24.4991 63.8799 27.5342 63.9893L28.1495 64C29.1701 64 30.1685 63.911 31.1446 63.7324L31.5616 63.6504C32.5314 63.3952 33.412 63.0501 34.2032 62.6162L34.5372 62.4248C35.3025 61.9655 35.9341 61.4171 36.4317 60.7793L36.6368 60.5C37.0962 59.8364 37.3548 59.0835 37.4122 58.2412L37.4239 57.875C37.4239 56.5078 37.0655 55.5249 36.3477 54.9268L36.1993 54.8125C35.3826 54.2292 34.478 53.7335 33.4864 53.3252C32.6189 52.9169 31.8186 52.4189 31.085 51.832L30.7745 51.5752C30.0088 50.9189 29.6016 49.8009 29.5538 48.2217L29.5489 47.9004V28.2998H35.0616L35.1495 28.2959C35.9203 28.2796 36.4742 28.0494 36.8116 27.5996C37.1688 27.1403 37.3704 26.6365 37.4151 26.0879L37.4239 25.8496ZM42.9336 25.6748C44.1002 26.3747 45.4416 26.7246 46.9581 26.7246C47.1013 26.7246 47.246 26.7202 47.3916 26.7129C47.3201 27.7864 47.117 28.8248 46.794 29.8145C45.5485 30.234 44.5239 30.6035 43.7207 30.9248C42.9041 31.2748 42.2626 31.6837 41.7959 32.1504C41.3294 32.5587 41.0957 33.1421 41.0957 33.9004C41.0958 34.4251 41.154 34.9499 41.2706 35.4746C41.3482 35.7853 41.4385 36.1483 41.542 36.5625C40.8825 36.9584 40.212 37.2706 39.5489 37.5137V45.1455C40.3954 45.6008 41.2188 46.1084 42.0118 46.6748C42.1168 46.7498 42.2192 46.8266 42.3204 46.9033V51.3125C42.3204 52.6542 42.2622 53.8208 42.1456 54.8125C42.0289 55.7457 41.883 56.5914 41.7081 57.3496C41.5331 58.1079 41.3872 58.779 41.2706 59.3623C41.1539 59.9456 41.0957 60.5004 41.0957 61.0254C41.0959 63.0083 42.2333 63.9999 44.5079 64H46.1045C45.8382 64.5811 45.5327 65.153 45.1797 65.709L44.8584 66.1924C43.5305 68.1104 41.8682 69.6223 40.0479 70.7744L39.6817 71C37.9035 72.0669 36.0182 72.8172 34.1065 73.3203C33.946 73.3626 33.7845 73.4013 33.6221 73.4355C31.8164 73.8157 29.9875 74 28.1495 74C23.0476 74 17.8619 72.5606 13.711 68.7549L13.3125 68.3789C13.239 68.3076 13.1661 68.2347 13.0948 68.1611C9.27738 64.2242 7.51185 59.2191 6.92876 54.2217V54.2207C6.66788 52.0251 6.65132 49.7209 6.79301 47.3828L6.81547 47.082L6.89946 46.2217C7.11002 44.2061 7.4207 42.1319 7.82329 40.0039L7.86333 39.8027C8.06394 38.8498 8.28704 37.8961 8.5313 36.9424C6.64811 35.9944 4.87763 34.4803 3.6104 32.1846L3.36723 31.7217C3.31592 31.619 3.26654 31.5155 3.2188 31.4111L3.0811 31.0957C1.32638 26.8841 2.2407 22.7739 4.05766 19.8213L4.30376 19.4414C4.55834 19.0668 4.83844 18.7099 5.14165 18.373L6.73149 16.5918C7.28462 15.9678 7.86124 15.3133 8.46098 14.6279L9.48442 13.4766C10.4651 12.3908 11.4548 11.3469 12.4522 10.3447C13.7722 8.96381 15.1547 7.67785 16.6016 6.55078L17.2295 6.07422C19.0858 4.69288 22.2137 2.8125 26.2247 2.8125L26.7422 2.82129C29.3695 2.9096 33.5906 3.71964 36.5791 7.53711C38.3755 9.73696 39.1012 12.1793 39.3819 14.1797C41.0434 14.8186 42.4413 15.7916 43.5499 16.8691C42.9139 17.2978 42.358 17.8119 41.8829 18.4121C40.7745 19.7538 40.3961 21.1835 40.7461 22.7002C41.0378 23.9251 41.7671 24.9165 42.9336 25.6748Z" fill="#FFFEFB"></path></svg>