<svg xmlns="http://www.w3.org/2000/svg" width="100%" viewBox="0 0 897 625" fill="none" class="prefooter__wave"><path d="M896.143 624.091C896.932 558.816 880.569 498.464 838.223 454.461L837.214 453.421C799.597 414.94 752.191 397.418 698.78 390.039C645.347 382.656 585.985 385.433 524.479 387.495C402.029 391.6 271.174 392.876 162.985 304.91L161.714 303.871C102.291 255.091 77.9007 202.295 60.2568 150.152C42.8519 98.7154 32.0491 48.117 0.75 2.40381V624.091H896.143Z" fill="#F3A20F" stroke="black" stroke-width="1.5"></path><path d="M737.222 624.091C738.838 568.726 725.751 517.345 690.035 480.212L689.184 479.334C658.454 447.897 619.723 433.578 576.068 427.546C532.391 421.512 483.865 423.781 433.567 425.467C333.838 428.811 227.233 429.866 138.925 358.751L136.843 357.058C86.8435 316.013 67.1601 271.49 52.623 227.667C38.3014 184.492 29.0069 142.181 0.75 104.296V624.091H737.222Z" fill="#F0BB0D" stroke="black" stroke-width="1.5"></path><path d="M578.163 624.091C580.664 578.657 570.925 536.216 541.853 505.966L541.158 505.25C517.313 480.856 487.257 469.74 453.357 465.056C419.435 460.369 381.744 462.133 342.654 463.443C265.165 466.04 182.265 466.866 113.59 411.563L111.971 410.247H111.97C71.5402 377.057 56.5978 340.94 45.1484 305.577C33.8854 270.789 26.0287 236.892 0.75 206.956V624.091H578.163Z" fill="#F97028" stroke="black" stroke-width="1.5"></path><path d="M418.814 624.091C422.3 588.917 416.179 555.599 394.198 532.273L393.132 531.163C376.173 513.814 354.792 505.9 330.647 502.564C306.481 499.225 279.625 500.481 251.742 501.416C196.493 503.268 137.297 503.866 88.2559 464.374L87.0996 463.433C56.4888 438.303 46.334 410.818 37.9346 384.159C29.6857 357.977 23.1467 332.712 0.75 310.923V624.091H418.814Z" fill="#F0BB0D" stroke="black" stroke-width="1.5"></path><path d="M258.651 624.091C263.464 599.006 261.218 574.278 245.853 557.86L245.105 557.079C235.032 546.773 222.324 542.062 207.935 540.074C193.523 538.082 177.504 538.83 160.829 539.389C127.82 540.496 92.3303 540.866 62.9229 517.185L62.2295 516.622C41.93 499.958 36.622 481.549 31.1836 464.083C25.8552 446.971 20.4045 430.767 0.75 417.501V624.091H258.651Z" fill="#F3A20F" stroke="black" stroke-width="1.5"></path></svg>